<?xml version="1.0" ?>
<svg baseProfile="full" height="1080" version="1.1" width="1920">
   <defs/>
   <text alignment-baseline="middle" font-family="Tahoma" font-size="13.5" font-weight="bold" text-anchor="middle" x="1038.0" y="52.5">EB03</text>
   <text alignment-baseline="middle" font-family="Tahoma" font-size="12.6" font-weight="bold" text-anchor="middle" x="286.5" y="66.0">SILOS UNLOAD BAG</text>
   <text alignment-baseline="middle" font-family="Tahoma" font-size="12.6" font-weight="bold" text-anchor="middle" x="667.0" y="66.0">SILOS</text>
   <text alignment-baseline="middle" font-family="Tahoma" font-size="14.4" font-weight="bold" text-anchor="middle" x="1039.5" y="71.0">TITAN</text>
   <text alignment-baseline="middle" font-family="Tahoma" font-size="17.1" font-weight="bold" text-anchor="middle" x="1150.0" y="80.5">JF05</text>
   <text alignment-baseline="middle" font-family="Tahoma" font-size="11.700000000000001" font-weight="bold" text-anchor="middle" x="223.0" y="84.5">PVC</text>
   <text alignment-baseline="middle" font-family="Tahoma" font-size="12.6" font-weight="bold" text-anchor="middle" x="321.0" y="85.0">WHO3</text>
   <text alignment-baseline="middle" font-family="Tahoma" font-size="12.6" font-weight="bold" text-anchor="middle" x="666.0" y="85.0">KRETA</text>
   <text alignment-baseline="middle" font-family="Tahoma" font-size="15.3" font-weight="bold" text-anchor="middle" x="458.5" y="95.5">MANUAL</text>
   <text alignment-baseline="middle" font-family="Tahoma" font-size="15.3" font-weight="bold" text-anchor="middle" x="796.0" y="95.5">MANUAL</text>
   <text alignment-baseline="middle" font-family="Tahoma" font-size="16.2" font-weight="bold" text-anchor="middle" x="1536.0" y="108.0">GP03</text>
   <text alignment-baseline="middle" font-family="Tahoma" font-size="15.3" font-weight="bold" text-anchor="middle" x="1080.5" y="122.5">SLOS</text>
   <text alignment-baseline="middle" font-family="Tahoma" font-size="17.1" font-weight="bold" text-anchor="middle" x="460.5" y="135.5">JF03</text>
   <text alignment-baseline="middle" font-family="Tahoma" font-size="17.1" font-weight="bold" text-anchor="middle" x="798.5" y="135.5">JF04</text>
   <text alignment-baseline="middle" font-family="Tahoma" font-size="13.5" font-weight="bold" text-anchor="middle" x="1235.5" y="135.5">VT03</text>
   <text alignment-baseline="middle" font-family="Tahoma" font-size="15.3" font-weight="bold" text-anchor="middle" x="798.0" y="162.5">0.9 kg</text>
   <text alignment-baseline="middle" font-family="Tahoma" font-size="15.3" font-weight="bold" text-anchor="middle" x="1367.5" y="162.5">VR03</text>
   <text alignment-baseline="middle" font-family="Tahoma" font-size="13.5" font-weight="bold" text-anchor="middle" x="462.0" y="163.5">-1.4 kg</text>
   <text alignment-baseline="middle" font-family="Tahoma" font-size="15.3" font-weight="bold" text-anchor="middle" x="1638.0" y="173.5">VF90</text>
   <text alignment-baseline="middle" font-family="Tahoma" font-size="11.700000000000001" font-weight="bold" text-anchor="middle" x="179.5" y="175.5">VS51</text>
   <text alignment-baseline="middle" font-family="Tahoma" font-size="12.6" font-weight="bold" text-anchor="middle" x="710.0" y="176.0">VS53</text>
   <text alignment-baseline="middle" font-family="Tahoma" font-size="12.6" font-weight="bold" text-anchor="middle" x="370.5" y="177.0">VS52</text>
   <text alignment-baseline="middle" font-family="Tahoma" font-size="14.4" font-weight="bold" text-anchor="middle" x="727.5" y="217.0">SLO4</text>
   <text alignment-baseline="middle" font-family="Tahoma" font-size="13.5" font-weight="bold" text-anchor="middle" x="390.5" y="217.5">SLO3</text>
   <text alignment-baseline="middle" font-family="Tahoma" font-size="13.5" font-weight="bold" text-anchor="middle" x="547.5" y="229.5">VT01</text>
   <text alignment-baseline="middle" font-family="Tahoma" font-size="13.5" font-weight="bold" text-anchor="middle" x="883.5" y="229.5">VT02</text>
   <text alignment-baseline="middle" font-family="Tahoma" font-size="12.6" font-weight="bold" text-anchor="middle" x="1054.0" y="268.0">FBE11 </text>
   <text alignment-baseline="middle" font-family="Tahoma" font-size="13.5" font-weight="bold" text-anchor="middle" x="208.0" y="294.5">VF61</text>
   <text alignment-baseline="middle" font-family="Tahoma" font-size="13.5" font-weight="bold" text-anchor="middle" x="1601.0" y="294.5">LIQUID</text>
   <text alignment-baseline="middle" font-family="Tahoma" font-size="12.6" font-weight="bold" text-anchor="middle" x="1818.0" y="295.0">LIQUID</text>
   <text alignment-baseline="middle" font-family="Tahoma" font-size="13.5" font-weight="bold" text-anchor="middle" x="656.5" y="303.5">VF64</text>
   <text alignment-baseline="middle" font-family="Tahoma" font-size="13.5" font-weight="bold" text-anchor="middle" x="1177.0" y="308.5">VF65</text>
   <text alignment-baseline="middle" font-family="Tahoma" font-size="13.5" font-weight="bold" text-anchor="middle" x="1599.5" y="313.5">PLASTICIZER</text>
   <text alignment-baseline="middle" font-family="Tahoma" font-size="12.6" font-weight="bold" text-anchor="middle" x="1816.5" y="313.0">STABILIZER</text>
   <text alignment-baseline="middle" font-family="Tahoma" font-size="16.2" font-weight="bold" text-anchor="middle" x="1339.5" y="324.0">VALVE TIMES</text>
   <text alignment-baseline="middle" font-family="Tahoma" font-size="14.4" font-weight="bold" text-anchor="middle" x="518.5" y="325.0">PH07</text>
   <text alignment-baseline="middle" font-family="Tahoma" font-size="16.2" font-weight="bold" text-anchor="middle" x="413.0" y="338.0">VBF03</text>
   <text alignment-baseline="middle" font-family="Tahoma" font-size="15.3" font-weight="bold" text-anchor="middle" x="749.0" y="337.5">VBF04</text>
   <text alignment-baseline="middle" font-family="Tahoma" font-size="13.5" font-weight="bold" text-anchor="middle" x="1033.0" y="337.5">CT35</text>
   <text alignment-baseline="middle" font-family="Tahoma" font-size="13.5" font-weight="bold" text-anchor="middle" x="1581.0" y="338.5">S3 TANK S4 S2</text>
   <text alignment-baseline="middle" font-family="Tahoma" font-size="17.1" font-weight="bold" text-anchor="middle" x="1816.0" y="340.5">IBC4 IBC3 IBC1 IBC2</text>
   <text alignment-baseline="middle" font-family="Tahoma" font-size="15.3" font-weight="bold" text-anchor="middle" x="925.0" y="363.5">MANUAL</text>
   <text alignment-baseline="middle" font-family="Tahoma" font-size="16.2" font-weight="bold" text-anchor="middle" x="316.5" y="378.0">BAG P2 P1</text>
   <text alignment-baseline="middle" font-family="Tahoma" font-size="17.1" font-weight="bold" text-anchor="middle" x="920.0" y="404.5">WH06 - TITAN</text>
   <text alignment-baseline="middle" font-family="Tahoma" font-size="12.6" font-weight="bold" text-anchor="middle" x="1597.5" y="402.0">VS64</text>
   <text alignment-baseline="middle" font-family="Tahoma" font-size="11.700000000000001" font-weight="bold" text-anchor="middle" x="1686.0" y="401.5">VS1.2</text>
   <text alignment-baseline="middle" font-family="Tahoma" font-size="12.6" font-weight="bold" text-anchor="middle" x="1749.5" y="402.0">VS67</text>
   <text alignment-baseline="middle" font-family="Tahoma" font-size="14.4" font-weight="bold" text-anchor="middle" x="133.0" y="405.0">CB01</text>
   <text alignment-baseline="middle" font-family="Tahoma" font-size="16.2" font-weight="bold" text-anchor="middle" x="946.0" y="432.0">3.1 kg</text>
   <text alignment-baseline="middle" font-family="Tahoma" font-size="15.3" font-weight="bold" text-anchor="middle" x="1100.5" y="435.5">PH12</text>
   <text alignment-baseline="middle" font-family="Tahoma" font-size="15.3" font-weight="bold" text-anchor="middle" x="754.0" y="455.5">VF63</text>
   <text alignment-baseline="middle" font-family="Tahoma" font-size="17.1" font-weight="bold" text-anchor="middle" x="1874.0" y="466.5">VS70</text>
   <text alignment-baseline="middle" font-family="Tahoma" font-size="4.5" font-weight="bold" text-anchor="middle" x="382.0" y="460.5">OSTEP VF62</text>
   <text alignment-baseline="middle" font-family="Tahoma" font-size="16.2" font-weight="bold" text-anchor="middle" x="1554.0" y="468.0">VS65</text>
   <text alignment-baseline="middle" font-family="Tahoma" font-size="16.2" font-weight="bold" text-anchor="middle" x="1637.0" y="468.0">VS63</text>
   <text alignment-baseline="middle" font-family="Tahoma" font-size="15.3" font-weight="bold" text-anchor="middle" x="1791.5" y="467.5">VS68</text>
   <text alignment-baseline="middle" font-family="Tahoma" font-size="14.4" font-weight="bold" text-anchor="middle" x="1384.5" y="496.0">V3VS01</text>
   <text alignment-baseline="middle" font-family="Tahoma" font-size="15.3" font-weight="bold" text-anchor="middle" x="955.5" y="497.5">CT40</text>
   <text alignment-baseline="middle" font-family="Tahoma" font-size="12.6" font-weight="bold" text-anchor="middle" x="77.0" y="497.0">PVC Unload</text>
   <text alignment-baseline="middle" font-family="Tahoma" font-size="12.6" font-weight="bold" text-anchor="middle" x="77.5" y="515.0">Counter</text>
   <text alignment-baseline="middle" font-family="Tahoma" font-size="15.3" font-weight="bold" text-anchor="middle" x="416.5" y="536.5">VF95</text>
   <text alignment-baseline="middle" font-family="Tahoma" font-size="15.3" font-weight="bold" text-anchor="middle" x="754.0" y="536.5">VF96</text>
   <text alignment-baseline="middle" font-family="Tahoma" font-size="13.5" font-weight="bold" text-anchor="middle" x="249.5" y="537.5">VG01</text>
   <text alignment-baseline="middle" font-family="Tahoma" font-size="13.5" font-weight="bold" text-anchor="middle" x="77.0" y="550.5">COLOR BAGS</text>
   <text alignment-baseline="middle" font-family="Tahoma" font-size="16.2" font-weight="bold" text-anchor="middle" x="1599.5" y="566.0">0.1 kg</text>
   <text alignment-baseline="middle" font-family="Tahoma" font-size="16.2" font-weight="bold" text-anchor="middle" x="1818.0" y="566.0">-0.0 kg</text>
   <text alignment-baseline="middle" font-family="Tahoma" font-size="12.6" font-weight="bold" text-anchor="middle" x="78.0" y="569.0">Counter</text>
   <text alignment-baseline="middle" font-family="Tahoma" font-size="15.3" font-weight="bold" text-anchor="middle" x="1598.0" y="605.5">MANUAL</text>
   <text alignment-baseline="middle" font-family="Tahoma" font-size="16.2" font-weight="bold" text-anchor="middle" x="900.5" y="607.0">VF98</text>
   <text alignment-baseline="middle" font-family="Tahoma" font-size="13.5" font-weight="bold" text-anchor="middle" x="1815.5" y="605.5">MANUAL</text>
   <text alignment-baseline="middle" font-family="Tahoma" font-size="11.700000000000001" font-weight="bold" text-anchor="middle" x="1215.5" y="609.5">VS71</text>
   <text alignment-baseline="middle" font-family="Tahoma" font-size="17.1" font-weight="bold" text-anchor="middle" x="1044.5" y="639.5">SPEED</text>
   <text alignment-baseline="middle" font-family="Tahoma" font-size="16.2" font-weight="bold" text-anchor="middle" x="175.5" y="687.0">GP05</text>
   <text alignment-baseline="middle" font-family="Tahoma" font-size="16.2" font-weight="bold" text-anchor="middle" x="981.0" y="695.0">CT40 </text>
   <text alignment-baseline="middle" font-family="Tahoma" font-size="16.2" font-weight="bold" text-anchor="middle" x="1035.5" y="695.0"> 100</text>
   <text alignment-baseline="middle" font-family="Tahoma" font-size="15.3" font-weight="bold" text-anchor="middle" x="1112.5" y="694.5">13 %</text>
   <text alignment-baseline="middle" font-family="Tahoma" font-size="13.5" font-weight="bold" text-anchor="middle" x="1639.5" y="696.5">VS73</text>
   <text alignment-baseline="middle" font-family="Tahoma" font-size="10.8" font-weight="bold" text-anchor="middle" x="1509.0" y="714.0">32.7 °C</text>
   <text alignment-baseline="middle" font-family="Tahoma" font-size="10.8" font-weight="bold" text-anchor="middle" x="1779.0" y="724.0">VS74</text>
   <text alignment-baseline="middle" font-family="Tahoma" font-size="14.4" font-weight="bold" text-anchor="middle" x="1386.5" y="738.0">HP02</text>
   <text alignment-baseline="middle" font-family="Tahoma" font-size="15.3" font-weight="bold" text-anchor="middle" x="374.0" y="740.5">VR05</text>
   <text alignment-baseline="middle" font-family="Tahoma" font-size="11.700000000000001" font-weight="bold" text-anchor="middle" x="111.5" y="752.5">VF92</text>
   <text alignment-baseline="middle" font-family="Tahoma" font-size="16.2" font-weight="bold" text-anchor="middle" x="1704.5" y="784.0">HEATING</text>
   <text alignment-baseline="middle" font-family="Tahoma" font-size="28.8" font-weight="bold" text-anchor="middle" x="740.5" y="804.0">MIX 100</text>
   <text alignment-baseline="middle" font-family="Tahoma" font-size="15.3" font-weight="bold" text-anchor="middle" x="1704.0" y="805.5">SETTINGS</text>
   <text alignment-baseline="middle" font-family="Tahoma" font-size="12.6" font-weight="bold" text-anchor="middle" x="1597.0" y="805.0">HT01</text>
   <text alignment-baseline="middle" font-family="Tahoma" font-size="15.3" font-weight="bold" text-anchor="middle" x="1032.5" y="851.5">COMPONENTS</text>
   <text alignment-baseline="middle" font-family="Tahoma" font-size="15.3" font-weight="bold" text-anchor="middle" x="1214.0" y="851.5">SCALES</text>
   <text alignment-baseline="middle" font-family="Tahoma" font-size="16.2" font-weight="bold" text-anchor="middle" x="182.5" y="854.0">600 s</text>
   <text alignment-baseline="middle" font-family="Tahoma" font-size="13.5" font-weight="bold" text-anchor="middle" x="55.0" y="854.5">Delay Stop</text>
   <text alignment-baseline="middle" font-family="Tahoma" font-size="17.1" font-weight="bold" text-anchor="middle" x="400.5" y="862.5">RECIPE</text>
   <text alignment-baseline="middle" font-family="Tahoma" font-size="16.2" font-weight="bold" text-anchor="middle" x="1031.5" y="873.0">PARAMETERS</text>
   <text alignment-baseline="middle" font-family="Tahoma" font-size="16.2" font-weight="bold" text-anchor="middle" x="1213.0" y="873.0"> PARAMETERS</text>
   <text alignment-baseline="middle" font-family="Tahoma" font-size="15.3" font-weight="bold" text-anchor="middle" x="183.0" y="893.5">600 s</text>
   <text alignment-baseline="middle" font-family="Tahoma" font-size="12.6" font-weight="bold" text-anchor="middle" x="43.0" y="894.0">Actual</text>
   <text alignment-baseline="middle" font-family="Tahoma" font-size="15.3" font-weight="bold" text-anchor="middle" x="1413.0" y="897.5">HP01</text>
   <text alignment-baseline="middle" font-family="Tahoma" font-size="18.900000000000002" font-weight="bold" text-anchor="middle" x="400.5" y="963.5">UNLOAD SILOS</text>
   <text alignment-baseline="middle" font-family="Tahoma" font-size="17.1" font-weight="bold" text-anchor="middle" x="246.0" y="963.5">UNLOAD SILOS</text>
   <text alignment-baseline="middle" font-family="Tahoma" font-size="16.2" font-weight="bold" text-anchor="middle" x="553.5" y="963.0">UNLOAD SILOS</text>
   <text alignment-baseline="middle" font-family="Tahoma" font-size="17.1" font-weight="bold" text-anchor="middle" x="709.5" y="963.5">UNLOAD</text>
   <text alignment-baseline="middle" font-family="Tahoma" font-size="18.0" font-weight="bold" text-anchor="middle" x="91.0" y="975.0">LOAD SILOS</text>
   <text alignment-baseline="middle" font-family="Tahoma" font-size="18.900000000000002" font-weight="bold" text-anchor="middle" x="1830.0" y="975.5">SYSTEM</text>
   <text alignment-baseline="middle" font-family="Tahoma" font-size="17.1" font-weight="bold" text-anchor="middle" x="862.5" y="975.5">MIXER 100</text>
   <text alignment-baseline="middle" font-family="Tahoma" font-size="18.0" font-weight="bold" text-anchor="middle" x="1018.0" y="976.0">MIXER 200</text>
   <text alignment-baseline="middle" font-family="Tahoma" font-size="18.0" font-weight="bold" text-anchor="middle" x="1172.5" y="976.0">MIXER 300</text>
   <text alignment-baseline="middle" font-family="Tahoma" font-size="18.0" font-weight="bold" text-anchor="middle" x="1326.0" y="976.0">MIXER 400</text>
   <text alignment-baseline="middle" font-family="Tahoma" font-size="18.0" font-weight="bold" text-anchor="middle" x="1480.5" y="976.0">LIQUID</text>
   <text alignment-baseline="middle" font-family="Tahoma" font-size="17.1" font-weight="bold" text-anchor="middle" x="1676.5" y="975.5">ALARM</text>
   <text alignment-baseline="middle" font-family="Tahoma" font-size="17.1" font-weight="bold" text-anchor="middle" x="247.0" y="987.5">PVC - 1</text>
   <text alignment-baseline="middle" font-family="Tahoma" font-size="17.1" font-weight="bold" text-anchor="middle" x="402.0" y="987.5">PVC - 2</text>
   <text alignment-baseline="middle" font-family="Tahoma" font-size="16.2" font-weight="bold" text-anchor="middle" x="555.5" y="988.0">KRETA</text>
   <text alignment-baseline="middle" font-family="Tahoma" font-size="17.1" font-weight="bold" text-anchor="middle" x="709.0" y="988.5">BAG</text>
   <text alignment-baseline="middle" font-family="Tahoma" font-size="11.700000000000001" font-weight="bold" text-anchor="middle" x="39.0" y="1048.5">Output</text>
   <text alignment-baseline="middle" font-family="Tahoma" font-size="11.700000000000001" font-weight="bold" text-anchor="middle" x="1640.5" y="1069.5">CAP NUM SCRL</text>
   <text alignment-baseline="middle" font-family="Tahoma" font-size="12.6" font-weight="bold" text-anchor="middle" x="1745.5" y="1070.0">1.5Gb(1.0Gb)</text>
   <text alignment-baseline="middle" font-family="Tahoma" font-size="12.6" font-weight="bold" text-anchor="middle" x="348.5" y="1071.0">26/11/2019 18:09:49 Driver : Communication error : station Default Station, error An existing connection was forcibly closed by the remole host.</text>
   <text alignment-baseline="middle" font-family="Tahoma" font-size="11.700000000000001" font-weight="bold" text-anchor="middle" x="1832.0" y="1070.5">Inglese</text>
   <g transform="translate(100.0,143.54360064124074) scale(0.020020020020020016, 0.02001984297289697)">
      <path style="fill:#ccc;stroke:#4c4c4c;stroke-width:2" d="M420,185 l58,0 0,-127 -58,0 0,127z"/>
      

      <path style="fill:#ccc;stroke:#4c4c4c;stroke-width:2" d="M420,58 l-118,0 0,127 118,0 0,-127z"/>
      

      <path style="fill:#ccc;stroke:#4c4c4c;stroke-width:2" d="M302,185 l-39,-30 0,-69 39,-28 0,127z"/>
      

      <path style="fill:#999;stroke:#4c4c4c;stroke-width:2" d="M302,66 l118,0 0,11 -118,0 0,-11z"/>
      

      <path style="fill:#999;stroke:#4c4c4c;stroke-width:2" d="M302,86 l118,0 0,11 -118,0 0,-11z"/>
      

      <path style="fill:#999;stroke:#4c4c4c;stroke-width:2" d="M302,105 l118,0 0,11 -118,0 0,-11z"/>
      

      <path style="fill:#999;stroke:#4c4c4c;stroke-width:2" d="M302,125 l118,0 0,10 -118,0 0,-10z"/>
      

      <path style="fill:#999;stroke:#4c4c4c;stroke-width:2" d="M302,144 l118,0 0,11 -118,0 0,-11z"/>
      

      <path style="fill:#999;stroke:#4c4c4c;stroke-width:2" d="M302,166 l118,0 0,8 -118,0 0,-8z"/>
      

      <path style="fill:#e5e5e5;stroke:#4c4c4c;stroke-width:2" d="M381,185 l117,0 0,19 -235,0 0,-49 118,30z"/>
      

      <path style="fill:#e5e5e5;stroke:#4c4c4c;stroke-width:2" d="M105,224 l158,0 0,-166 -158,0 0,166z"/>
      

      <path style="fill:#ccc" d="M105,155 l158,0 0,-69 -158,0 0,69z"/>
      

      <path style="fill:#999" d="M105,135 l158,0 0,-30 -158,0 0,30z"/>
      

      <path style="fill:#4c4c4c" d="M105,125 l158,0 0,-9 -158,0 0,9z"/>
      

      <path style="fill:#999;stroke:#4c4c4c;stroke-width:2" d="M105,224 l158,0 0,205 -158,0 0,-205z"/>
      

      <path style="fill:#4c4c4c;stroke:#4c4c4c;stroke-width:2" d="M146,597 l-41,-19 0,-158 41,-39 0,138 805,0 0,20 -805,0 0,58z"/>
      

      <path style="fill:#b2b2b2;stroke:#4c4c4c;stroke-width:2" d="M951,224 l19,0 0,392 -19,0 0,-392z"/>
      

      <path style="fill:#b2b2b2;stroke:#4c4c4c;stroke-width:2" d="M146,224 l20,0 0,392 -20,0 0,-392z"/>
      

      <path style="fill:#ccc" d="M166,224 l785,0 0,293 -785,0 0,-293z"/>
      

      <path style="fill:#b2b2b2" d="M166,371 l785,0 0,146 -785,0 0,-146z"/>
      

      <path style="fill:#999" d="M166,450 l785,0 0,67 -785,0 0,-67z"/>
      

      <path style="fill:#7f7f7f" d="M166,498 l785,0 0,19 -785,0 0,-19z"/>
      

      <path style="fill:none;stroke:#4c4c4c;stroke-width:2" d="M166,224 l785,0 0,293 -785,0 0,-293"/>
      

      <path style="fill:#e5e5e5" d="M28,578 l77,0 0,-550 -77,0 0,550z"/>
      

      <path style="fill:#ccc" d="M28,578 l77,0 0,-227 -77,0 0,227z"/>
      

      <path style="fill:#b2b2b2" d="M28,578 l77,0 0,-80 -77,0 0,80z"/>
      

      <path style="fill:#999" d="M28,578 l77,0 0,-20 -77,0 0,20z"/>
      

      <path style="fill:none;stroke:#4c4c4c;stroke-width:2" d="M28,578 l77,0 0,-550 -77,0 0,550"/>
      

      <path style="fill:#4c4c4c;stroke:#4c4c4c;stroke-width:2" d="M166,232 l785,0 0,11 -785,0 0,-11z"/>
      

      <path style="fill:#7f7f7f" d="M519,194 l78,0 0,19 -78,0 0,-19z"/>
      

      <path style="fill:#b2b2b2" d="M532,194 l52,0 0,19 -52,0 0,-19z"/>
      

      <path style="fill:#e5e5e5;stroke:#ccc;stroke-width:2" d="M548,194 l19,0 0,19 -19,0 0,-19z"/>
      

      <path style="fill:none;stroke:#4c4c4c;stroke-width:2" d="M519,194 l78,0 0,19 -78,0 0,-19"/>
      

      <path style="fill:#7f7f7f" d="M204,194 l78,0 0,19 -78,0 0,-19z"/>
      

      <path style="fill:#b2b2b2" d="M217,194 l54,0 0,19 -54,0 0,-19z"/>
      

      <path style="fill:#e5e5e5;stroke:#ccc;stroke-width:2" d="M235,194 l19,0 0,19 -19,0 0,-19z"/>
      

      <path style="fill:none;stroke:#4c4c4c;stroke-width:2" d="M204,194 l78,0 0,19 -78,0 0,-19"/>
      

      <path style="fill:#7f7f7f" d="M832,185 l80,0 0,19 -80,0 0,-19z"/>
      

      <path style="fill:#b2b2b2" d="M845,185 l54,0 0,19 -54,0 0,-19z"/>
      

      <path style="fill:#e5e5e5;stroke:#ccc;stroke-width:2" d="M862,185 l20,0 0,19 -20,0 0,-19z"/>
      

      <path style="fill:none;stroke:#4c4c4c;stroke-width:2" d="M832,185 l80,0 0,19 -80,0 0,-19"/>
      

      <path style="fill:#b2b2b2;stroke:#4c4c4c;stroke-width:2" d="M735,213 l216,0 0,11 -216,0 0,-11z"/>
      

      <path style="fill:#4c4c4c;stroke:#4c4c4c;stroke-width:2" d="M224,213 l39,0 0,11 -39,0 0,-11z"/>
      

      <path style="fill:#4c4c4c;stroke:#4c4c4c;stroke-width:2" d="M539,213 l39,0 0,11 -39,0 0,-11z"/>
      

      <path style="fill:#4c4c4c;stroke:#4c4c4c;stroke-width:2" d="M852,204 l41,0 0,9 -41,0 0,-9z"/>
      

      <path style="fill:none;stroke:#7f7f7f;stroke-width:2" d="M224,409 l658,0"/>
      

      <path style="fill:none;stroke:#7f7f7f;stroke-width:2" d="M194,429 l580,0"/>
      

      <path style="fill:none;stroke:#7f7f7f;stroke-width:2" d="M362,470 l550,0"/>
      

      <path style="fill:none;stroke:#7f7f7f;stroke-width:2" d="M312,343 l589,0"/>
      

      <circle style="fill:#b2b2b2;stroke:#4c4c4c;stroke-width:2" cx="200" cy="278" r="15"/>
      

      <path style="fill:#191919;stroke:#4c4c4c;stroke-width:2" d="M200,271 l6,3 1,4 -7,6 -6,-6 1,-4 5,-3z"/>
      

      <path style="fill:#ff0;stroke:#4c4c4c;stroke-width:2" d="M47,252 l39,0 0,21 -39,0 0,-21z"/>
      

      <path style="fill:#ff0;stroke:#4c4c4c;stroke-width:2" d="M47,144 l39,0 0,22 -39,0 0,-22z"/>
      


   </g>
</svg>
