<?xml version="1.0" encoding="iso-8859-1"?>
<!DOCTYPE svg PUBLIC "-//W3C//DTD SVG 20000303 Stylable//EN"
"http://www.w3.org/TR/2000/03/WD-SVG-20000303/DTD/svg-20000303-stylable.dtd">

<svg width="5.3646in" height="1.8139in" viewBox="0 0 834 282">

<path style="fill:none;stroke:#4c4c4c;stroke-width:2" d="M201,143 l-178,0" />
<path style="fill:none;stroke:#4c4c4c;stroke-width:2" d="M634,143 l177,0" />
<path style="fill:#c0c0c0;stroke:#4c4c4c;stroke-width:2" d="M383,160 l-182,99 0,-236 182,101 -2,4 -1,4 -1,5 0,4 0,5 1,4 1,5 2,5z" />
<path style="fill:none;stroke:#4c4c4c;stroke-width:2" d="M382,161 l-181,98" />
<path style="fill:#c0c0c0;stroke:#4c4c4c;stroke-width:2" d="M452,122 l182,-99 0,236 -182,-101 2,-4 1,-4 1,-5 0,-4 0,-5 -1,-5 -1,-4 -2,-5z" />
<circle style="fill:#c0c0c0;stroke:#4c4c4c;stroke-width:2" cx="418" cy="141" r="39" />

</svg>
