<?xml version="1.0" encoding="utf-8" ?>
<svg baseProfile="full" height="1080" version="1.1" width="1920" xmlns="http://www.w3.org/2000/svg" xmlns:ev="http://www.w3.org/2001/xml-events" xmlns:xlink="http://www.w3.org/1999/xlink"><defs /><polygon fill="none" points="1572.0,558.0 1628.0,558.0 1628.0,574.0 1572.0,574.0" stroke="blue" stroke-width="2" /><text alignment-baseline="middle" font-family="Tahoma" font-size="15px" font-weight="bold" text-anchor="middle" x="1600.0" y="566.0">0.1 kg</text><polygon fill="none" points="1786.0,558.0 1848.0,558.0 1848.0,574.0 1786.0,574.0" stroke="blue" stroke-width="2" /><text alignment-baseline="middle" font-family="Tahoma" font-size="15px" font-weight="bold" text-anchor="middle" x="1817.0" y="566.0">-0.0 kg</text><polygon fill="none" points="1569.0,598.0 1633.0,598.0 1633.0,614.0 1569.0,614.0" stroke="blue" stroke-width="2" /><text alignment-baseline="middle" font-family="Tahoma" font-size="15px" font-weight="bold" text-anchor="middle" x="1601.0" y="606.0">MANUAL</text><polygon fill="none" points="1786.0,598.0 1848.0,598.0 1848.0,614.0 1786.0,614.0" stroke="blue" stroke-width="2" /><text alignment-baseline="middle" font-family="Tahoma" font-size="15px" font-weight="bold" text-anchor="middle" x="1817.0" y="606.0">MANUAL</text><polygon fill="none" points="1196.0,600.0 1239.0,600.0 1239.0,618.0 1196.0,618.0" stroke="blue" stroke-width="2" /><text alignment-baseline="middle" font-family="Tahoma" font-size="15px" font-weight="bold" text-anchor="middle" x="1217.5" y="609.0">VS71</text><polygon fill="none" points="1007.0,628.0 1084.0,628.0 1084.0,651.0 1007.0,651.0" stroke="blue" stroke-width="2" /><text alignment-baseline="middle" font-family="Tahoma" font-size="15px" font-weight="bold" text-anchor="middle" x="1045.5" y="639.5">SPEED</text><polygon fill="none" points="951.0,686.0 1001.0,686.0 1001.0,704.0 951.0,704.0" stroke="blue" stroke-width="2" /><text alignment-baseline="middle" font-family="Tahoma" font-size="15px" font-weight="bold" text-anchor="middle" x="976.0" y="695.0">CT40</text><polygon fill="none" points="1020.0,686.0 1060.0,686.0 1060.0,704.0 1020.0,704.0" stroke="blue" stroke-width="2" /><text alignment-baseline="middle" font-family="Tahoma" font-size="15px" font-weight="bold" text-anchor="middle" x="1040.0" y="695.0">100</text><polygon fill="none" points="1082.0,686.0 1110.0,686.0 1110.0,703.0 1082.0,703.0" stroke="blue" stroke-width="2" /><text alignment-baseline="middle" font-family="Tahoma" font-size="15px" font-weight="bold" text-anchor="middle" x="1096.0" y="694.5">13</text><polygon fill="none" points="1125.0,687.0 1150.0,687.0 1150.0,704.0 1125.0,704.0" stroke="yellow" stroke-width="2" /><text alignment-baseline="middle" font-family="Tahoma" font-size="15px" font-weight="bold" text-anchor="middle" x="1137.5" y="695.5">0/o</text><polygon fill="none" points="1617.0,688.0 1661.0,688.0 1661.0,704.0 1617.0,704.0" stroke="blue" stroke-width="2" /><text alignment-baseline="middle" font-family="Tahoma" font-size="15px" font-weight="bold" text-anchor="middle" x="1639.0" y="696.0">VS73</text><polygon fill="none" points="1476.0,706.0 1544.0,706.0 1544.0,722.0 1476.0,722.0" stroke="blue" stroke-width="2" /><text alignment-baseline="middle" font-family="Tahoma" font-size="15px" font-weight="bold" text-anchor="middle" x="1510.0" y="714.0">32.7 °C</text><polygon fill="none" points="1756.0,715.0 1800.0,715.0 1800.0,731.0 1756.0,731.0" stroke="blue" stroke-width="2" /><text alignment-baseline="middle" font-family="Tahoma" font-size="15px" font-weight="bold" text-anchor="middle" x="1778.0" y="723.0">VS74</text><polygon fill="none" points="1363.0,729.0 1412.0,729.0 1412.0,745.0 1363.0,745.0" stroke="blue" stroke-width="2" /><text alignment-baseline="middle" font-family="Tahoma" font-size="15px" font-weight="bold" text-anchor="middle" x="1387.5" y="737.0">HP02</text><polygon fill="none" points="1666.0,777.0 1746.0,777.0 1746.0,793.0 1666.0,793.0" stroke="blue" stroke-width="2" /><text alignment-baseline="middle" font-family="Tahoma" font-size="15px" font-weight="bold" text-anchor="middle" x="1706.0" y="785.0">HEATING</text><polygon fill="none" points="1574.0,796.0 1619.0,796.0 1619.0,813.0 1574.0,813.0" stroke="blue" stroke-width="2" /><text alignment-baseline="middle" font-family="Tahoma" font-size="15px" font-weight="bold" text-anchor="middle" x="1596.5" y="804.5">HT01</text><polygon fill="none" points="1663.0,798.0 1749.0,798.0 1749.0,814.0 1663.0,814.0" stroke="blue" stroke-width="2" /><text alignment-baseline="middle" font-family="Tahoma" font-size="15px" font-weight="bold" text-anchor="middle" x="1706.0" y="806.0">SETTINGS</text><polygon fill="none" points="975.0,843.0 1093.0,843.0 1093.0,860.0 975.0,860.0" stroke="blue" stroke-width="2" /><text alignment-baseline="middle" font-family="Tahoma" font-size="15px" font-weight="bold" text-anchor="middle" x="1034.0" y="851.5">COMPONENTS</text><polygon fill="none" points="1183.0,843.0 1249.0,843.0 1249.0,860.0 1183.0,860.0" stroke="blue" stroke-width="2" /><text alignment-baseline="middle" font-family="Tahoma" font-size="15px" font-weight="bold" text-anchor="middle" x="1216.0" y="851.5">SCALES</text><polygon fill="none" points="977.0,864.0 1089.0,864.0 1089.0,881.0 977.0,881.0" stroke="blue" stroke-width="2" /><text alignment-baseline="middle" font-family="Tahoma" font-size="15px" font-weight="bold" text-anchor="middle" x="1033.0" y="872.5">PARAMETERS</text><polygon fill="none" points="1160.0,864.0 1271.0,864.0 1271.0,881.0 1160.0,881.0" stroke="blue" stroke-width="2" /><text alignment-baseline="middle" font-family="Tahoma" font-size="15px" font-weight="bold" text-anchor="middle" x="1215.5" y="872.5">PARAMETERS</text><polygon fill="none" points="1392.0,891.0 1438.0,891.0 1438.0,906.0 1392.0,906.0" stroke="blue" stroke-width="2" /><text alignment-baseline="middle" font-family="Tahoma" font-size="15px" font-weight="bold" text-anchor="middle" x="1415.0" y="898.5">HP01</text><polygon fill="none" points="1443.0,964.0 1517.0,964.0 1517.0,986.0 1443.0,986.0" stroke="blue" stroke-width="2" /><text alignment-baseline="middle" font-family="Tahoma" font-size="15px" font-weight="bold" text-anchor="middle" x="1480.0" y="975.0">LIQUID</text><polygon fill="none" points="1790.0,964.0 1870.0,964.0 1870.0,985.0 1790.0,985.0" stroke="blue" stroke-width="2" /><text alignment-baseline="middle" font-family="Tahoma" font-size="15px" font-weight="bold" text-anchor="middle" x="1830.0" y="974.5">SYSTEM</text><polygon fill="none" points="965.0,965.0 1071.0,965.0 1071.0,986.0 965.0,986.0" stroke="blue" stroke-width="2" /><text alignment-baseline="middle" font-family="Tahoma" font-size="15px" font-weight="bold" text-anchor="middle" x="1018.0" y="975.5">MIXER 200</text><polygon fill="none" points="1120.0,965.0 1224.0,965.0 1224.0,985.0 1120.0,985.0" stroke="blue" stroke-width="2" /><text alignment-baseline="middle" font-family="Tahoma" font-size="15px" font-weight="bold" text-anchor="middle" x="1172.0" y="975.0">MIXER 300</text><polygon fill="none" points="1274.0,965.0 1379.0,965.0 1379.0,986.0 1274.0,986.0" stroke="blue" stroke-width="2" /><text alignment-baseline="middle" font-family="Tahoma" font-size="15px" font-weight="bold" text-anchor="middle" x="1326.5" y="975.5">MIXER 400</text><polygon fill="none" points="1643.0,965.0 1712.0,965.0 1712.0,985.0 1643.0,985.0" stroke="blue" stroke-width="2" /><text alignment-baseline="middle" font-family="Tahoma" font-size="15px" font-weight="bold" text-anchor="middle" x="1677.5" y="975.0">ALARM</text><polygon fill="none" points="1897.0,1061.0 1917.0,1061.0 1917.0,1076.0 1897.0,1076.0" stroke="yellow" stroke-width="2" /><text alignment-baseline="middle" font-family="Tahoma" font-size="15px" font-weight="bold" text-anchor="middle" x="1907.0" y="1068.5">O</text><polygon fill="none" points="1603.0,1064.0 1679.0,1064.0 1679.0,1075.0 1603.0,1075.0" stroke="blue" stroke-width="2" /><text alignment-baseline="middle" font-family="Tahoma" font-size="15px" font-weight="bold" text-anchor="middle" x="1641.0" y="1069.5">CAP NUM SCRL</text><polygon fill="none" points="1712.0,1064.0 1774.0,1064.0 1774.0,1075.0 1712.0,1075.0" stroke="blue" stroke-width="2" /><text alignment-baseline="middle" font-family="Tahoma" font-size="15px" font-weight="bold" text-anchor="middle" x="1743.0" y="1069.5">1.5Gb(1.0Gb)</text><polygon fill="none" points="1825.0,1065.0 1862.0,1065.0 1862.0,1076.0 1825.0,1076.0" stroke="blue" stroke-width="2" /><text alignment-baseline="middle" font-family="Tahoma" font-size="15px" font-weight="bold" text-anchor="middle" x="1843.5" y="1070.5">Inglese</text><polygon fill="none" points="1015.0,44.0 1062.0,44.0 1062.0,59.0 1015.0,59.0" stroke="blue" stroke-width="2" /><text alignment-baseline="middle" font-family="Tahoma" font-size="15px" font-weight="bold" text-anchor="middle" x="1038.5" y="51.5">EBO3</text><polygon fill="none" points="1013.0,63.0 1066.0,63.0 1066.0,77.0 1013.0,77.0" stroke="blue" stroke-width="2" /><text alignment-baseline="middle" font-family="Tahoma" font-size="15px" font-weight="bold" text-anchor="middle" x="1039.5" y="70.0">TUTAN</text><polygon fill="none" points="1122.0,70.0 1180.0,70.0 1180.0,92.0 1122.0,92.0" stroke="blue" stroke-width="2" /><text alignment-baseline="middle" font-family="Tahoma" font-size="15px" font-weight="bold" text-anchor="middle" x="1151.0" y="81.0">JF05</text><polygon fill="none" points="1512.0,100.0 1563.0,100.0 1563.0,118.0 1512.0,118.0" stroke="blue" stroke-width="2" /><text alignment-baseline="middle" font-family="Tahoma" font-size="15px" font-weight="bold" text-anchor="middle" x="1537.5" y="109.0">GP03</text><polygon fill="none" points="1059.0,114.0 1102.0,114.0 1102.0,132.0 1059.0,132.0" stroke="blue" stroke-width="2" /><text alignment-baseline="middle" font-family="Tahoma" font-size="15px" font-weight="bold" text-anchor="middle" x="1080.5" y="123.0">SLOS</text><polygon fill="none" points="1212.0,127.0 1258.0,127.0 1258.0,145.0 1212.0,145.0" stroke="blue" stroke-width="2" /><text alignment-baseline="middle" font-family="Tahoma" font-size="15px" font-weight="bold" text-anchor="middle" x="1235.0" y="136.0">VT03</text><polygon fill="none" points="1342.0,153.0 1395.0,153.0 1395.0,173.0 1342.0,173.0" stroke="blue" stroke-width="2" /><text alignment-baseline="middle" font-family="Tahoma" font-size="15px" font-weight="bold" text-anchor="middle" x="1368.5" y="163.0">VR03</text><polygon fill="none" points="1583.0,165.0 1663.0,165.0 1663.0,209.0 1583.0,209.0" stroke="blue" stroke-width="2" /><text alignment-baseline="middle" font-family="Tahoma" font-size="15px" font-weight="bold" text-anchor="middle" x="1623.0" y="187.0">VF90 o</text><polygon fill="none" points="1012.0,259.0 1098.0,259.0 1098.0,278.0 1012.0,278.0" stroke="blue" stroke-width="2" /><text alignment-baseline="middle" font-family="Tahoma" font-size="15px" font-weight="bold" text-anchor="middle" x="1055.0" y="268.5">FBE11 (M</text><polygon fill="none" points="1568.0,286.0 1631.0,286.0 1631.0,302.0 1568.0,302.0" stroke="blue" stroke-width="2" /><text alignment-baseline="middle" font-family="Tahoma" font-size="15px" font-weight="bold" text-anchor="middle" x="1599.5" y="294.0">LIQUID</text><polygon fill="none" points="1786.0,286.0 1848.0,286.0 1848.0,301.0 1786.0,301.0" stroke="blue" stroke-width="2" /><text alignment-baseline="middle" font-family="Tahoma" font-size="15px" font-weight="bold" text-anchor="middle" x="1817.0" y="293.5">LIQUID</text><polygon fill="none" points="1155.0,300.0 1198.0,300.0 1198.0,317.0 1155.0,317.0" stroke="blue" stroke-width="2" /><text alignment-baseline="middle" font-family="Tahoma" font-size="15px" font-weight="bold" text-anchor="middle" x="1176.5" y="308.5">VF65</text><polygon fill="none" points="1545.0,305.0 1653.0,305.0 1653.0,320.0 1545.0,320.0" stroke="blue" stroke-width="2" /><text alignment-baseline="middle" font-family="Tahoma" font-size="15px" font-weight="bold" text-anchor="middle" x="1599.0" y="312.5">PLASTICIZER</text><polygon fill="none" points="1769.0,305.0 1866.0,305.0 1866.0,320.0 1769.0,320.0" stroke="blue" stroke-width="2" /><text alignment-baseline="middle" font-family="Tahoma" font-size="15px" font-weight="bold" text-anchor="middle" x="1817.5" y="312.5">STABILIZER</text><polygon fill="none" points="1284.0,314.0 1396.0,314.0 1396.0,334.0 1284.0,334.0" stroke="blue" stroke-width="2" /><text alignment-baseline="middle" font-family="Tahoma" font-size="15px" font-weight="bold" text-anchor="middle" x="1340.0" y="324.0">VALVE TIMES</text><polygon fill="none" points="1012.0,329.0 1056.0,329.0 1056.0,345.0 1012.0,345.0" stroke="blue" stroke-width="2" /><text alignment-baseline="middle" font-family="Tahoma" font-size="15px" font-weight="bold" text-anchor="middle" x="1034.0" y="337.0">CT35</text><polygon fill="none" points="1505.0,329.0 1615.0,329.0 1615.0,345.0 1505.0,345.0" stroke="blue" stroke-width="2" /><text alignment-baseline="middle" font-family="Tahoma" font-size="15px" font-weight="bold" text-anchor="middle" x="1560.0" y="337.0">S3 TANK S4</text><polygon fill="none" points="1732.0,329.0 1900.0,329.0 1900.0,352.0 1732.0,352.0" stroke="blue" stroke-width="2" /><text alignment-baseline="middle" font-family="Tahoma" font-size="15px" font-weight="bold" text-anchor="middle" x="1816.0" y="340.5">IBC4 IBC3 IBC1 IBC2</text><polygon fill="none" points="1630.0,330.0 1657.0,330.0 1657.0,345.0 1630.0,345.0" stroke="blue" stroke-width="2" /><text alignment-baseline="middle" font-family="Tahoma" font-size="15px" font-weight="bold" text-anchor="middle" x="1643.5" y="337.5">S2</text><polygon fill="none" points="1672.0,330.0 1697.0,330.0 1697.0,345.0 1672.0,345.0" stroke="yellow" stroke-width="2" /><text alignment-baseline="middle" font-family="Tahoma" font-size="15px" font-weight="bold" text-anchor="middle" x="1684.5" y="337.5">S1</text><polygon fill="none" points="940.0,356.0 960.0,356.0 960.0,372.0 940.0,372.0" stroke="blue" stroke-width="2" /><text alignment-baseline="middle" font-family="Tahoma" font-size="15px" font-weight="bold" text-anchor="middle" x="950.0" y="364.0">AL</text><polygon fill="none" points="1490.0,393.0 1536.0,393.0 1536.0,410.0 1490.0,410.0" stroke="blue" stroke-width="2" /><text alignment-baseline="middle" font-family="Tahoma" font-size="15px" font-weight="bold" text-anchor="middle" x="1513.0" y="401.5">VS66</text><polygon fill="none" points="1575.0,393.0 1620.0,393.0 1620.0,409.0 1575.0,409.0" stroke="blue" stroke-width="2" /><text alignment-baseline="middle" font-family="Tahoma" font-size="15px" font-weight="bold" text-anchor="middle" x="1597.5" y="401.0">VS64</text><polygon fill="none" points="1659.0,393.0 1711.0,393.0 1711.0,410.0 1659.0,410.0" stroke="blue" stroke-width="2" /><text alignment-baseline="middle" font-family="Tahoma" font-size="15px" font-weight="bold" text-anchor="middle" x="1685.0" y="401.5">VS1.2</text><polygon fill="none" points="1728.0,393.0 1774.0,393.0 1774.0,409.0 1728.0,409.0" stroke="blue" stroke-width="2" /><text alignment-baseline="middle" font-family="Tahoma" font-size="15px" font-weight="bold" text-anchor="middle" x="1751.0" y="401.0">VS67</text><polygon fill="none" points="1813.0,393.0 1857.0,393.0 1857.0,410.0 1813.0,410.0" stroke="blue" stroke-width="2" /><text alignment-baseline="middle" font-family="Tahoma" font-size="15px" font-weight="bold" text-anchor="middle" x="1835.0" y="401.5">vs69</text><polygon fill="none" points="940.0,394.0 1000.0,394.0 1000.0,415.0 940.0,415.0" stroke="blue" stroke-width="2" /><text alignment-baseline="middle" font-family="Tahoma" font-size="15px" font-weight="bold" text-anchor="middle" x="970.0" y="404.5">ITAN</text><polygon fill="none" points="940.0,424.0 977.0,424.0 977.0,441.0 940.0,441.0" stroke="blue" stroke-width="2" /><text alignment-baseline="middle" font-family="Tahoma" font-size="15px" font-weight="bold" text-anchor="middle" x="958.5" y="432.5">1 kg</text><polygon fill="none" points="1078.0,427.0 1125.0,427.0 1125.0,445.0 1078.0,445.0" stroke="blue" stroke-width="2" /><text alignment-baseline="middle" font-family="Tahoma" font-size="15px" font-weight="bold" text-anchor="middle" x="1101.5" y="436.0">PH12</text><polygon fill="none" points="1532.0,460.0 1578.0,460.0 1578.0,476.0 1532.0,476.0" stroke="yellow" stroke-width="2" /><text alignment-baseline="middle" font-family="Tahoma" font-size="15px" font-weight="bold" text-anchor="middle" x="1555.0" y="468.0">VS65</text><polygon fill="none" points="1617.0,460.0 1662.0,460.0 1662.0,476.0 1617.0,476.0" stroke="blue" stroke-width="2" /><text alignment-baseline="middle" font-family="Tahoma" font-size="15px" font-weight="bold" text-anchor="middle" x="1639.5" y="468.0">VS63</text><polygon fill="none" points="1771.0,460.0 1817.0,460.0 1817.0,476.0 1771.0,476.0" stroke="blue" stroke-width="2" /><text alignment-baseline="middle" font-family="Tahoma" font-size="15px" font-weight="bold" text-anchor="middle" x="1794.0" y="468.0">VS68</text><polygon fill="none" points="1855.0,460.0 1900.0,460.0 1900.0,476.0 1855.0,476.0" stroke="blue" stroke-width="2" /><text alignment-baseline="middle" font-family="Tahoma" font-size="15px" font-weight="bold" text-anchor="middle" x="1877.5" y="468.0">VS70</text><polygon fill="none" points="1350.0,488.0 1414.0,488.0 1414.0,504.0 1350.0,504.0" stroke="blue" stroke-width="2" /><text alignment-baseline="middle" font-family="Tahoma" font-size="15px" font-weight="bold" text-anchor="middle" x="1382.0" y="496.0">V3VS01</text><polygon fill="none" points="940.0,490.0 980.0,490.0 980.0,506.0 940.0,506.0" stroke="blue" stroke-width="2" /><text alignment-baseline="middle" font-family="Tahoma" font-size="15px" font-weight="bold" text-anchor="middle" x="960.0" y="498.0">CT40</text><polygon fill="none" points="641.0,58.0 694.0,58.0 694.0,74.0 641.0,74.0" stroke="blue" stroke-width="2" /><text alignment-baseline="middle" font-family="Tahoma" font-size="15px" font-weight="bold" text-anchor="middle" x="667.5" y="66.0">SILOS</text><polygon fill="none" points="199.0,59.0 252.0,59.0 252.0,74.0 199.0,74.0" stroke="blue" stroke-width="2" /><text alignment-baseline="middle" font-family="Tahoma" font-size="15px" font-weight="bold" text-anchor="middle" x="225.5" y="66.5">SILOS</text><polygon fill="none" points="267.0,59.0 377.0,59.0 377.0,74.0 267.0,74.0" stroke="blue" stroke-width="2" /><text alignment-baseline="middle" font-family="Tahoma" font-size="15px" font-weight="bold" text-anchor="middle" x="322.0" y="66.5">UNLOAD BAG</text><polygon fill="none" points="206.0,77.0 244.0,77.0 244.0,92.0 206.0,92.0" stroke="blue" stroke-width="2" /><text alignment-baseline="middle" font-family="Tahoma" font-size="15px" font-weight="bold" text-anchor="middle" x="225.0" y="84.5">PVC</text><polygon fill="none" points="297.0,77.0 348.0,77.0 348.0,92.0 297.0,92.0" stroke="blue" stroke-width="2" /><text alignment-baseline="middle" font-family="Tahoma" font-size="15px" font-weight="bold" text-anchor="middle" x="322.5" y="84.5">WHO3</text><polygon fill="none" points="638.0,77.0 695.0,77.0 695.0,92.0 638.0,92.0" stroke="blue" stroke-width="2" /><text alignment-baseline="middle" font-family="Tahoma" font-size="15px" font-weight="bold" text-anchor="middle" x="666.5" y="84.5">KRETA</text><polygon fill="none" points="431.0,88.0 494.0,88.0 494.0,104.0 431.0,104.0" stroke="blue" stroke-width="2" /><text alignment-baseline="middle" font-family="Tahoma" font-size="15px" font-weight="bold" text-anchor="middle" x="462.5" y="96.0">MANUAL</text><polygon fill="none" points="768.0,88.0 830.0,88.0 830.0,104.0 768.0,104.0" stroke="blue" stroke-width="2" /><text alignment-baseline="middle" font-family="Tahoma" font-size="15px" font-weight="bold" text-anchor="middle" x="799.0" y="96.0">MANUAL</text><polygon fill="none" points="433.0,126.0 490.0,126.0 490.0,147.0 433.0,147.0" stroke="blue" stroke-width="2" /><text alignment-baseline="middle" font-family="Tahoma" font-size="15px" font-weight="bold" text-anchor="middle" x="461.5" y="136.5">JF03</text><polygon fill="none" points="770.0,126.0 828.0,126.0 828.0,146.0 770.0,146.0" stroke="blue" stroke-width="2" /><text alignment-baseline="middle" font-family="Tahoma" font-size="15px" font-weight="bold" text-anchor="middle" x="799.0" y="136.0">JF04</text><polygon fill="none" points="432.0,155.0 494.0,155.0 494.0,171.0 432.0,171.0" stroke="blue" stroke-width="2" /><text alignment-baseline="middle" font-family="Tahoma" font-size="15px" font-weight="bold" text-anchor="middle" x="463.0" y="163.0">-1.4 kg</text><polygon fill="none" points="770.0,155.0 828.0,155.0 828.0,172.0 770.0,172.0" stroke="blue" stroke-width="2" /><text alignment-baseline="middle" font-family="Tahoma" font-size="15px" font-weight="bold" text-anchor="middle" x="799.0" y="163.5">0.9 kg</text><polygon fill="none" points="160.0,167.0 204.0,167.0 204.0,184.0 160.0,184.0" stroke="blue" stroke-width="2" /><text alignment-baseline="middle" font-family="Tahoma" font-size="15px" font-weight="bold" text-anchor="middle" x="182.0" y="175.5">VS51</text><polygon fill="none" points="349.0,168.0 393.0,168.0 393.0,184.0 349.0,184.0" stroke="blue" stroke-width="2" /><text alignment-baseline="middle" font-family="Tahoma" font-size="15px" font-weight="bold" text-anchor="middle" x="371.0" y="176.0">VS52</text><polygon fill="none" points="687.0,168.0 730.0,168.0 730.0,184.0 687.0,184.0" stroke="blue" stroke-width="2" /><text alignment-baseline="middle" font-family="Tahoma" font-size="15px" font-weight="bold" text-anchor="middle" x="708.5" y="176.0">VS53</text><polygon fill="none" points="371.0,208.0 414.0,208.0 414.0,225.0 371.0,225.0" stroke="blue" stroke-width="2" /><text alignment-baseline="middle" font-family="Tahoma" font-size="15px" font-weight="bold" text-anchor="middle" x="392.5" y="216.5">SLO3</text><polygon fill="none" points="708.0,209.0 750.0,209.0 750.0,225.0 708.0,225.0" stroke="blue" stroke-width="2" /><text alignment-baseline="middle" font-family="Tahoma" font-size="15px" font-weight="bold" text-anchor="middle" x="729.0" y="217.0">SLO4</text><polygon fill="none" points="860.0,221.0 907.0,221.0 907.0,238.0 860.0,238.0" stroke="blue" stroke-width="2" /><text alignment-baseline="middle" font-family="Tahoma" font-size="15px" font-weight="bold" text-anchor="middle" x="883.5" y="229.5">VT02</text><polygon fill="none" points="525.0,222.0 570.0,222.0 570.0,238.0 525.0,238.0" stroke="blue" stroke-width="2" /><text alignment-baseline="middle" font-family="Tahoma" font-size="15px" font-weight="bold" text-anchor="middle" x="547.5" y="230.0">VT01</text><polygon fill="none" points="187.0,287.0 229.0,287.0 229.0,302.0 187.0,302.0" stroke="blue" stroke-width="2" /><text alignment-baseline="middle" font-family="Tahoma" font-size="15px" font-weight="bold" text-anchor="middle" x="208.0" y="294.5">VF61</text><polygon fill="none" points="636.0,295.0 678.0,295.0 678.0,310.0 636.0,310.0" stroke="blue" stroke-width="2" /><text alignment-baseline="middle" font-family="Tahoma" font-size="15px" font-weight="bold" text-anchor="middle" x="657.0" y="302.5">VF64</text><polygon fill="none" points="497.0,316.0 541.0,316.0 541.0,332.0 497.0,332.0" stroke="blue" stroke-width="2" /><text alignment-baseline="middle" font-family="Tahoma" font-size="15px" font-weight="bold" text-anchor="middle" x="519.0" y="324.0">PH07</text><polygon fill="none" points="833.0,316.0 878.0,316.0 878.0,332.0 833.0,332.0" stroke="blue" stroke-width="2" /><text alignment-baseline="middle" font-family="Tahoma" font-size="15px" font-weight="bold" text-anchor="middle" x="855.5" y="324.0">PH08</text><polygon fill="none" points="387.0,329.0 440.0,329.0 440.0,346.0 387.0,346.0" stroke="blue" stroke-width="2" /><text alignment-baseline="middle" font-family="Tahoma" font-size="15px" font-weight="bold" text-anchor="middle" x="413.5" y="337.5">VBF03</text><polygon fill="none" points="723.0,330.0 776.0,330.0 776.0,346.0 723.0,346.0" stroke="blue" stroke-width="2" /><text alignment-baseline="middle" font-family="Tahoma" font-size="15px" font-weight="bold" text-anchor="middle" x="749.5" y="338.0">VBF04</text><polygon fill="none" points="895.0,357.0 958.0,357.0 958.0,372.0 895.0,372.0" stroke="blue" stroke-width="2" /><text alignment-baseline="middle" font-family="Tahoma" font-size="15px" font-weight="bold" text-anchor="middle" x="926.5" y="364.5">MANUAL</text><polygon fill="none" points="272.0,371.0 364.0,371.0 364.0,385.0 272.0,385.0" stroke="blue" stroke-width="2" /><text alignment-baseline="middle" font-family="Tahoma" font-size="15px" font-weight="bold" text-anchor="middle" x="318.0" y="378.0">BAG P2 P1</text><polygon fill="none" points="839.0,394.0 979.0,394.0 979.0,415.0 839.0,415.0" stroke="blue" stroke-width="2" /><text alignment-baseline="middle" font-family="Tahoma" font-size="15px" font-weight="bold" text-anchor="middle" x="909.0" y="404.5">WH06 - TITA</text><polygon fill="none" points="111.0,397.0 155.0,397.0 155.0,413.0 111.0,413.0" stroke="blue" stroke-width="2" /><text alignment-baseline="middle" font-family="Tahoma" font-size="15px" font-weight="bold" text-anchor="middle" x="133.0" y="405.0">CB01</text><polygon fill="none" points="920.0,423.0 980.0,423.0 980.0,441.0 920.0,441.0" stroke="blue" stroke-width="2" /><text alignment-baseline="middle" font-family="Tahoma" font-size="15px" font-weight="bold" text-anchor="middle" x="950.0" y="432.0">3.1 kg</text><polygon fill="none" points="335.0,447.0 440.0,447.0 440.0,473.0 335.0,473.0" stroke="blue" stroke-width="2" /><text alignment-baseline="middle" font-family="Tahoma" font-size="15px" font-weight="bold" text-anchor="middle" x="387.5" y="460.0">VF62 OSTEP</text><polygon fill="none" points="732.0,447.0 776.0,447.0 776.0,463.0 732.0,463.0" stroke="blue" stroke-width="2" /><text alignment-baseline="middle" font-family="Tahoma" font-size="15px" font-weight="bold" text-anchor="middle" x="754.0" y="455.0">VF63</text><polygon fill="none" points="31.0,489.0 126.0,489.0 126.0,504.0 31.0,504.0" stroke="blue" stroke-width="2" /><text alignment-baseline="middle" font-family="Tahoma" font-size="15px" font-weight="bold" text-anchor="middle" x="78.5" y="496.5">PVC Unload</text><polygon fill="none" points="935.0,490.0 979.0,490.0 979.0,506.0 935.0,506.0" stroke="blue" stroke-width="2" /><text alignment-baseline="middle" font-family="Tahoma" font-size="15px" font-weight="bold" text-anchor="middle" x="957.0" y="498.0">CT40</text><polygon fill="none" points="157.0,496.0 182.0,496.0 182.0,515.0 157.0,515.0" stroke="yellow" stroke-width="2" /><text alignment-baseline="middle" font-family="Tahoma" font-size="15px" font-weight="bold" text-anchor="middle" x="169.5" y="505.5">11</text><polygon fill="none" points="44.0,507.0 112.0,507.0 112.0,523.0 44.0,523.0" stroke="blue" stroke-width="2" /><text alignment-baseline="middle" font-family="Tahoma" font-size="15px" font-weight="bold" text-anchor="middle" x="78.0" y="515.0">Counter</text><polygon fill="none" points="939.0,514.0 979.0,514.0 979.0,534.0 939.0,534.0" stroke="yellow" stroke-width="2" /><text alignment-baseline="middle" font-family="Tahoma" font-size="15px" font-weight="bold" text-anchor="middle" x="959.0" y="524.0">NV</text><polygon fill="none" points="227.0,528.0 272.0,528.0 272.0,545.0 227.0,545.0" stroke="blue" stroke-width="2" /><text alignment-baseline="middle" font-family="Tahoma" font-size="15px" font-weight="bold" text-anchor="middle" x="249.5" y="536.5">VG01</text><polygon fill="none" points="396.0,528.0 439.0,528.0 439.0,545.0 396.0,545.0" stroke="blue" stroke-width="2" /><text alignment-baseline="middle" font-family="Tahoma" font-size="15px" font-weight="bold" text-anchor="middle" x="417.5" y="536.5">VF95</text><polygon fill="none" points="733.0,528.0 776.0,528.0 776.0,545.0 733.0,545.0" stroke="blue" stroke-width="2" /><text alignment-baseline="middle" font-family="Tahoma" font-size="15px" font-weight="bold" text-anchor="middle" x="754.5" y="536.5">VF96</text><polygon fill="none" points="26.0,542.0 133.0,542.0 133.0,559.0 26.0,559.0" stroke="blue" stroke-width="2" /><text alignment-baseline="middle" font-family="Tahoma" font-size="15px" font-weight="bold" text-anchor="middle" x="79.5" y="550.5">COLOR BAGS</text><polygon fill="none" points="158.0,551.0 179.0,551.0 179.0,559.0 158.0,559.0" stroke="yellow" stroke-width="2" /><text alignment-baseline="middle" font-family="Tahoma" font-size="15px" font-weight="bold" text-anchor="middle" x="168.5" y="555.0">1 1</text><polygon fill="none" points="227.0,528.0 273.0,528.0 273.0,544.0 227.0,544.0" stroke="blue" stroke-width="2" /><text alignment-baseline="middle" font-family="Tahoma" font-size="15px" font-weight="bold" text-anchor="middle" x="250.0" y="536.0">VG01</text><polygon fill="none" points="396.0,529.0 439.0,529.0 439.0,544.0 396.0,544.0" stroke="blue" stroke-width="2" /><text alignment-baseline="middle" font-family="Tahoma" font-size="15px" font-weight="bold" text-anchor="middle" x="417.5" y="536.5">VF95</text><polygon fill="none" points="732.0,529.0 776.0,529.0 776.0,544.0 732.0,544.0" stroke="blue" stroke-width="2" /><text alignment-baseline="middle" font-family="Tahoma" font-size="15px" font-weight="bold" text-anchor="middle" x="754.0" y="536.5">VF96</text><polygon fill="none" points="26.0,543.0 133.0,543.0 133.0,558.0 26.0,558.0" stroke="blue" stroke-width="2" /><text alignment-baseline="middle" font-family="Tahoma" font-size="15px" font-weight="bold" text-anchor="middle" x="79.5" y="550.5">COLOR BAGS</text><polygon fill="none" points="157.0,551.0 182.0,551.0 182.0,568.0 157.0,568.0" stroke="yellow" stroke-width="2" /><text alignment-baseline="middle" font-family="Tahoma" font-size="15px" font-weight="bold" text-anchor="middle" x="169.5" y="559.5">11</text><polygon fill="none" points="47.0,562.0 112.0,562.0 112.0,576.0 47.0,576.0" stroke="blue" stroke-width="2" /><text alignment-baseline="middle" font-family="Tahoma" font-size="15px" font-weight="bold" text-anchor="middle" x="79.5" y="569.0">Counter</text><polygon fill="none" points="879.0,600.0 922.0,600.0 922.0,615.0 879.0,615.0" stroke="blue" stroke-width="2" /><text alignment-baseline="middle" font-family="Tahoma" font-size="15px" font-weight="bold" text-anchor="middle" x="900.5" y="607.5">VF98</text><polygon fill="none" points="151.0,679.0 202.0,679.0 202.0,695.0 151.0,695.0" stroke="blue" stroke-width="2" /><text alignment-baseline="middle" font-family="Tahoma" font-size="15px" font-weight="bold" text-anchor="middle" x="176.5" y="687.0">GP05</text><polygon fill="none" points="952.0,687.0 979.0,687.0 979.0,703.0 952.0,703.0" stroke="blue" stroke-width="2" /><text alignment-baseline="middle" font-family="Tahoma" font-size="15px" font-weight="bold" text-anchor="middle" x="965.5" y="695.0">CT</text><polygon fill="none" points="348.0,733.0 398.0,733.0 398.0,750.0 348.0,750.0" stroke="blue" stroke-width="2" /><text alignment-baseline="middle" font-family="Tahoma" font-size="15px" font-weight="bold" text-anchor="middle" x="373.0" y="741.5">VR05</text><polygon fill="none" points="89.0,744.0 134.0,744.0 134.0,760.0 89.0,760.0" stroke="blue" stroke-width="2" /><text alignment-baseline="middle" font-family="Tahoma" font-size="15px" font-weight="bold" text-anchor="middle" x="111.5" y="752.0">VF92</text><polygon fill="none" points="158.0,846.0 210.0,846.0 210.0,862.0 158.0,862.0" stroke="blue" stroke-width="2" /><text alignment-baseline="middle" font-family="Tahoma" font-size="15px" font-weight="bold" text-anchor="middle" x="184.0" y="854.0">600 s</text><polygon fill="none" points="11.0,847.0 100.0,847.0 100.0,862.0 11.0,862.0" stroke="blue" stroke-width="2" /><text alignment-baseline="middle" font-family="Tahoma" font-size="15px" font-weight="bold" text-anchor="middle" x="55.5" y="854.5">Delay Stop</text><polygon fill="none" points="370.0,854.0 433.0,854.0 433.0,871.0 370.0,871.0" stroke="blue" stroke-width="2" /><text alignment-baseline="middle" font-family="Tahoma" font-size="15px" font-weight="bold" text-anchor="middle" x="401.5" y="862.5">RECIPE</text><polygon fill="none" points="158.0,886.0 210.0,886.0 210.0,902.0 158.0,902.0" stroke="blue" stroke-width="2" /><text alignment-baseline="middle" font-family="Tahoma" font-size="15px" font-weight="bold" text-anchor="middle" x="184.0" y="894.0">600 s</text><polygon fill="none" points="16.0,887.0 67.0,887.0 67.0,901.0 16.0,901.0" stroke="blue" stroke-width="2" /><text alignment-baseline="middle" font-family="Tahoma" font-size="15px" font-weight="bold" text-anchor="middle" x="41.5" y="894.0">Actual</text><polygon fill="none" points="668.0,954.0 752.0,954.0 752.0,974.0 668.0,974.0" stroke="blue" stroke-width="2" /><text alignment-baseline="middle" font-family="Tahoma" font-size="15px" font-weight="bold" text-anchor="middle" x="710.0" y="964.0">UNLOAD</text><polygon fill="none" points="180.0,955.0 316.0,955.0 316.0,974.0 180.0,974.0" stroke="blue" stroke-width="2" /><text alignment-baseline="middle" font-family="Tahoma" font-size="15px" font-weight="bold" text-anchor="middle" x="248.0" y="964.5">UNLOAD SILOS</text><polygon fill="none" points="333.0,955.0 626.0,955.0 626.0,974.0 333.0,974.0" stroke="blue" stroke-width="2" /><text alignment-baseline="middle" font-family="Tahoma" font-size="15px" font-weight="bold" text-anchor="middle" x="479.5" y="964.5">UNLOAD SILOS UNLOAD SILOS</text><polygon fill="none" points="33.0,965.0 151.0,965.0 151.0,985.0 33.0,985.0" stroke="blue" stroke-width="2" /><text alignment-baseline="middle" font-family="Tahoma" font-size="15px" font-weight="bold" text-anchor="middle" x="92.0" y="975.0">LOAD SILOS</text><polygon fill="none" points="810.0,966.0 916.0,966.0 916.0,986.0 810.0,986.0" stroke="blue" stroke-width="2" /><text alignment-baseline="middle" font-family="Tahoma" font-size="15px" font-weight="bold" text-anchor="middle" x="863.0" y="976.0">MIXER 100</text><polygon fill="none" points="368.0,978.0 438.0,978.0 438.0,996.0 368.0,996.0" stroke="blue" stroke-width="2" /><text alignment-baseline="middle" font-family="Tahoma" font-size="15px" font-weight="bold" text-anchor="middle" x="403.0" y="987.0">PVC - 2</text><polygon fill="none" points="213.0,979.0 280.0,979.0 280.0,996.0 213.0,996.0" stroke="blue" stroke-width="2" /><text alignment-baseline="middle" font-family="Tahoma" font-size="15px" font-weight="bold" text-anchor="middle" x="246.5" y="987.5">PVC - 1</text><polygon fill="none" points="525.0,979.0 587.0,979.0 587.0,996.0 525.0,996.0" stroke="blue" stroke-width="2" /><text alignment-baseline="middle" font-family="Tahoma" font-size="15px" font-weight="bold" text-anchor="middle" x="556.0" y="987.5">KRETA</text><polygon fill="none" points="689.0,979.0 731.0,979.0 731.0,997.0 689.0,997.0" stroke="yellow" stroke-width="2" /><text alignment-baseline="middle" font-family="Tahoma" font-size="15px" font-weight="bold" text-anchor="middle" x="710.0" y="988.0">BAG</text><polygon fill="none" points="35.0,1043.0 70.0,1043.0 70.0,1053.0 35.0,1053.0" stroke="blue" stroke-width="2" /><text alignment-baseline="middle" font-family="Tahoma" font-size="15px" font-weight="bold" text-anchor="middle" x="52.5" y="1048.0">Output</text><polygon fill="none" points="23.0,1065.0 672.0,1065.0 672.0,1076.0 23.0,1076.0" stroke="blue" stroke-width="2" /><text alignment-baseline="middle" font-family="Tahoma" font-size="15px" font-weight="bold" text-anchor="middle" x="347.5" y="1070.5">26/11/2019 18:09:49 Driver : Communication error : station Default Station, error An existing connection was forcibly closed by the remote host.</text></svg>