<?xml version="1.0" encoding="utf-8" ?>
<svg baseProfile="full" height="1080" version="1.1" width="1920" xmlns="http://www.w3.org/2000/svg" xmlns:ev="http://www.w3.org/2001/xml-events" xmlns:xlink="http://www.w3.org/1999/xlink"><defs /><polygon fill="none" points="197.0,59.0 251.0,58.0 251.0,73.0 198.0,74.0" stroke="blue" stroke-width="2" /><text alignment-baseline="middle" font-family="Tahoma" font-size="15px" font-weight="bold" text-anchor="middle" x="224.0" y="66.0">SILOS</text><polygon fill="none" points="269.0,59.0 376.0,59.0 376.0,74.0 269.0,74.0" stroke="blue" stroke-width="2" /><text alignment-baseline="middle" font-family="Tahoma" font-size="15px" font-weight="bold" text-anchor="middle" x="322.5" y="66.5">UNLOAD BAG</text><polygon fill="none" points="207.0,77.0 244.0,77.0 244.0,92.0 207.0,92.0" stroke="blue" stroke-width="2" /><text alignment-baseline="middle" font-family="Tahoma" font-size="15px" font-weight="bold" text-anchor="middle" x="225.5" y="84.5">PVC</text><polygon fill="none" points="297.0,77.0 347.0,77.0 347.0,92.0 297.0,92.0" stroke="blue" stroke-width="2" /><text alignment-baseline="middle" font-family="Tahoma" font-size="15px" font-weight="bold" text-anchor="middle" x="322.0" y="84.5">WHO3</text><polygon fill="none" points="432.0,89.0 479.0,89.0 479.0,103.0 432.0,103.0" stroke="blue" stroke-width="2" /><text alignment-baseline="middle" font-family="Tahoma" font-size="15px" font-weight="bold" text-anchor="middle" x="455.5" y="96.0">MANUA</text><polygon fill="none" points="433.0,126.0 479.0,126.0 479.0,147.0 433.0,147.0" stroke="blue" stroke-width="2" /><text alignment-baseline="middle" font-family="Tahoma" font-size="15px" font-weight="bold" text-anchor="middle" x="456.0" y="136.5">JFO:</text><polygon fill="none" points="430.0,155.0 479.0,155.0 479.0,171.0 430.0,171.0" stroke="blue" stroke-width="2" /><text alignment-baseline="middle" font-family="Tahoma" font-size="15px" font-weight="bold" text-anchor="middle" x="454.5" y="163.0">-1.4 k</text><polygon fill="none" points="160.0,167.0 204.0,167.0 204.0,184.0 160.0,184.0" stroke="blue" stroke-width="2" /><text alignment-baseline="middle" font-family="Tahoma" font-size="15px" font-weight="bold" text-anchor="middle" x="182.0" y="175.5">VS51</text><polygon fill="none" points="348.0,168.0 393.0,168.0 393.0,183.0 348.0,183.0" stroke="blue" stroke-width="2" /><text alignment-baseline="middle" font-family="Tahoma" font-size="15px" font-weight="bold" text-anchor="middle" x="370.5" y="175.5">VS52</text><polygon fill="none" points="370.0,208.0 414.0,208.0 414.0,225.0 370.0,225.0" stroke="blue" stroke-width="2" /><text alignment-baseline="middle" font-family="Tahoma" font-size="15px" font-weight="bold" text-anchor="middle" x="392.0" y="216.5">SLO3</text><polygon fill="none" points="640.0,59.0 694.0,59.0 694.0,74.0 640.0,74.0" stroke="blue" stroke-width="2" /><text alignment-baseline="middle" font-family="Tahoma" font-size="15px" font-weight="bold" text-anchor="middle" x="667.0" y="66.5">SILOS</text><polygon fill="none" points="639.0,77.0 694.0,77.0 694.0,92.0 639.0,92.0" stroke="blue" stroke-width="2" /><text alignment-baseline="middle" font-family="Tahoma" font-size="15px" font-weight="bold" text-anchor="middle" x="666.5" y="84.5">KRETA</text><polygon fill="none" points="768.0,88.0 832.0,88.0 832.0,104.0 768.0,104.0" stroke="blue" stroke-width="2" /><text alignment-baseline="middle" font-family="Tahoma" font-size="15px" font-weight="bold" text-anchor="middle" x="800.0" y="96.0">MANUAL</text><polygon fill="none" points="480.0,89.0 494.0,89.0 494.0,103.0 480.0,103.0" stroke="blue" stroke-width="2" /><text alignment-baseline="middle" font-family="Tahoma" font-size="15px" font-weight="bold" text-anchor="middle" x="487.0" y="96.0">AL</text><polygon fill="none" points="770.0,125.0 828.0,125.0 828.0,147.0 770.0,147.0" stroke="blue" stroke-width="2" /><text alignment-baseline="middle" font-family="Tahoma" font-size="15px" font-weight="bold" text-anchor="middle" x="799.0" y="136.0">JF04</text><polygon fill="none" points="480.0,126.0 490.0,126.0 490.0,144.0 480.0,144.0" stroke="blue" stroke-width="2" /><text alignment-baseline="middle" font-family="Tahoma" font-size="15px" font-weight="bold" text-anchor="middle" x="485.0" y="135.0">3</text><polygon fill="none" points="770.0,154.0 827.0,154.0 827.0,171.0 770.0,171.0" stroke="blue" stroke-width="2" /><text alignment-baseline="middle" font-family="Tahoma" font-size="15px" font-weight="bold" text-anchor="middle" x="798.5" y="162.5">0.9 kg</text><polygon fill="none" points="480.0,156.0 493.0,156.0 493.0,171.0 480.0,171.0" stroke="yellow" stroke-width="2" /><text alignment-baseline="middle" font-family="Tahoma" font-size="15px" font-weight="bold" text-anchor="middle" x="486.5" y="163.5">g</text><polygon fill="none" points="687.0,167.0 731.0,167.0 731.0,183.0 687.0,183.0" stroke="blue" stroke-width="2" /><text alignment-baseline="middle" font-family="Tahoma" font-size="15px" font-weight="bold" text-anchor="middle" x="709.0" y="175.0">VS53</text><polygon fill="none" points="707.0,208.0 750.0,208.0 750.0,225.0 707.0,225.0" stroke="blue" stroke-width="2" /><text alignment-baseline="middle" font-family="Tahoma" font-size="15px" font-weight="bold" text-anchor="middle" x="728.5" y="216.5">SL04</text><polygon fill="none" points="525.0,220.0 569.0,220.0 569.0,238.0 525.0,238.0" stroke="blue" stroke-width="2" /><text alignment-baseline="middle" font-family="Tahoma" font-size="15px" font-weight="bold" text-anchor="middle" x="547.0" y="229.0">VT01</text><polygon fill="none" points="861.0,220.0 906.0,220.0 906.0,238.0 861.0,238.0" stroke="blue" stroke-width="2" /><text alignment-baseline="middle" font-family="Tahoma" font-size="15px" font-weight="bold" text-anchor="middle" x="883.5" y="229.0">VT02</text><polygon fill="none" points="1016.0,44.0 1062.0,44.0 1062.0,60.0 1016.0,60.0" stroke="blue" stroke-width="2" /><text alignment-baseline="middle" font-family="Tahoma" font-size="15px" font-weight="bold" text-anchor="middle" x="1039.0" y="52.0">EB03</text><polygon fill="none" points="1012.0,62.0 1066.0,62.0 1066.0,79.0 1012.0,79.0" stroke="blue" stroke-width="2" /><text alignment-baseline="middle" font-family="Tahoma" font-size="15px" font-weight="bold" text-anchor="middle" x="1039.0" y="70.5">TITAN</text><polygon fill="none" points="1123.0,71.0 1180.0,71.0 1180.0,93.0 1123.0,93.0" stroke="blue" stroke-width="2" /><text alignment-baseline="middle" font-family="Tahoma" font-size="15px" font-weight="bold" text-anchor="middle" x="1151.5" y="82.0">JF05</text><polygon fill="none" points="1059.0,114.0 1103.0,114.0 1103.0,131.0 1059.0,131.0" stroke="blue" stroke-width="2" /><text alignment-baseline="middle" font-family="Tahoma" font-size="15px" font-weight="bold" text-anchor="middle" x="1081.0" y="122.5">SLOS</text><polygon fill="none" points="1213.0,126.0 1258.0,126.0 1258.0,145.0 1213.0,145.0" stroke="blue" stroke-width="2" /><text alignment-baseline="middle" font-family="Tahoma" font-size="15px" font-weight="bold" text-anchor="middle" x="1235.5" y="135.5">VT03</text><polygon fill="none" points="1343.0,153.0 1396.0,153.0 1396.0,173.0 1343.0,173.0" stroke="blue" stroke-width="2" /><text alignment-baseline="middle" font-family="Tahoma" font-size="15px" font-weight="bold" text-anchor="middle" x="1369.5" y="163.0">VR03</text><polygon fill="none" points="1434.0,251.0 1439.0,251.0 1439.0,257.0 1434.0,257.0" stroke="yellow" stroke-width="2" /><text alignment-baseline="middle" font-family="Tahoma" font-size="15px" font-weight="bold" text-anchor="middle" x="1436.5" y="254.0">r</text><polygon fill="none" points="1013.0,260.0 1064.0,260.0 1064.0,269.0 1013.0,269.0" stroke="blue" stroke-width="2" /><text alignment-baseline="middle" font-family="Tahoma" font-size="15px" font-weight="bold" text-anchor="middle" x="1038.5" y="264.5">ERE11</text><polygon fill="none" points="1511.0,99.0 1565.0,99.0 1565.0,119.0 1511.0,119.0" stroke="blue" stroke-width="2" /><text alignment-baseline="middle" font-family="Tahoma" font-size="15px" font-weight="bold" text-anchor="middle" x="1538.0" y="109.0">GP03</text><polygon fill="none" points="1617.0,163.0 1663.0,163.0 1663.0,184.0 1617.0,184.0" stroke="blue" stroke-width="2" /><text alignment-baseline="middle" font-family="Tahoma" font-size="15px" font-weight="bold" text-anchor="middle" x="1640.0" y="173.5">VF90</text><polygon fill="none" points="1583.0,173.0 1608.0,173.0 1608.0,216.0 1583.0,216.0" stroke="yellow" stroke-width="2" /><text alignment-baseline="middle" font-family="Tahoma" font-size="15px" font-weight="bold" text-anchor="middle" x="1595.5" y="194.5">o o</text><polygon fill="none" points="1569.0,204.0 1576.0,204.0 1576.0,214.0 1569.0,214.0" stroke="yellow" stroke-width="2" /><text alignment-baseline="middle" font-family="Tahoma" font-size="15px" font-weight="bold" text-anchor="middle" x="1572.5" y="209.0">h</text><polygon fill="none" points="187.0,288.0 228.0,286.0 229.0,301.0 188.0,302.0" stroke="blue" stroke-width="2" /><text alignment-baseline="middle" font-family="Tahoma" font-size="15px" font-weight="bold" text-anchor="middle" x="207.5" y="294.5">VF61</text><polygon fill="none" points="387.0,330.0 442.0,332.0 441.0,346.0 386.0,345.0" stroke="blue" stroke-width="2" /><text alignment-baseline="middle" font-family="Tahoma" font-size="15px" font-weight="bold" text-anchor="middle" x="414.5" y="338.0">VBF03</text><polygon fill="none" points="274.0,371.0 362.0,371.0 362.0,386.0 274.0,386.0" stroke="blue" stroke-width="2" /><text alignment-baseline="middle" font-family="Tahoma" font-size="15px" font-weight="bold" text-anchor="middle" x="318.0" y="378.5">BAG P2 P1</text><polygon fill="none" points="112.0,398.0 155.0,398.0 155.0,412.0 112.0,412.0" stroke="blue" stroke-width="2" /><text alignment-baseline="middle" font-family="Tahoma" font-size="15px" font-weight="bold" text-anchor="middle" x="133.5" y="405.0">CB01</text><polygon fill="none" points="395.0,448.0 440.0,446.0 442.0,462.0 397.0,464.0" stroke="blue" stroke-width="2" /><text alignment-baseline="middle" font-family="Tahoma" font-size="15px" font-weight="bold" text-anchor="middle" x="417.5" y="455.0">VF62</text><polygon fill="none" points="334.0,456.0 390.0,455.0 391.0,472.0 335.0,473.0" stroke="blue" stroke-width="2" /><text alignment-baseline="middle" font-family="Tahoma" font-size="15px" font-weight="bold" text-anchor="middle" x="362.0" y="464.0">OSTEP</text><polygon fill="none" points="32.0,489.0 127.0,489.0 127.0,504.0 32.0,504.0" stroke="blue" stroke-width="2" /><text alignment-baseline="middle" font-family="Tahoma" font-size="15px" font-weight="bold" text-anchor="middle" x="79.5" y="496.5">PVC Unload</text><polygon fill="none" points="158.0,497.0 180.0,497.0 180.0,514.0 158.0,514.0" stroke="yellow" stroke-width="2" /><text alignment-baseline="middle" font-family="Tahoma" font-size="15px" font-weight="bold" text-anchor="middle" x="169.0" y="505.5">11</text><polygon fill="none" points="46.0,508.0 114.0,508.0 114.0,522.0 46.0,522.0" stroke="blue" stroke-width="2" /><text alignment-baseline="middle" font-family="Tahoma" font-size="15px" font-weight="bold" text-anchor="middle" x="80.0" y="515.0">Counter</text><polygon fill="none" points="227.0,529.0 270.0,529.0 270.0,539.0 227.0,539.0" stroke="blue" stroke-width="2" /><text alignment-baseline="middle" font-family="Tahoma" font-size="15px" font-weight="bold" text-anchor="middle" x="248.5" y="534.0">VG01</text><polygon fill="none" points="396.0,529.0 438.0,529.0 438.0,539.0 396.0,539.0" stroke="yellow" stroke-width="2" /><text alignment-baseline="middle" font-family="Tahoma" font-size="15px" font-weight="bold" text-anchor="middle" x="417.0" y="534.0">VF95</text><polygon fill="none" points="636.0,295.0 678.0,295.0 678.0,310.0 636.0,310.0" stroke="blue" stroke-width="2" /><text alignment-baseline="middle" font-family="Tahoma" font-size="15px" font-weight="bold" text-anchor="middle" x="657.0" y="302.5">VF64</text><polygon fill="none" points="495.0,315.0 541.0,315.0 541.0,332.0 495.0,332.0" stroke="blue" stroke-width="2" /><text alignment-baseline="middle" font-family="Tahoma" font-size="15px" font-weight="bold" text-anchor="middle" x="518.0" y="323.5">PH07</text><polygon fill="none" points="832.0,315.0 878.0,315.0 878.0,332.0 832.0,332.0" stroke="blue" stroke-width="2" /><text alignment-baseline="middle" font-family="Tahoma" font-size="15px" font-weight="bold" text-anchor="middle" x="855.0" y="323.5">PH08</text><polygon fill="none" points="723.0,329.0 778.0,329.0 778.0,346.0 723.0,346.0" stroke="blue" stroke-width="2" /><text alignment-baseline="middle" font-family="Tahoma" font-size="15px" font-weight="bold" text-anchor="middle" x="750.5" y="337.5">VBF04</text><polygon fill="none" points="896.0,356.0 959.0,356.0 959.0,372.0 896.0,372.0" stroke="blue" stroke-width="2" /><text alignment-baseline="middle" font-family="Tahoma" font-size="15px" font-weight="bold" text-anchor="middle" x="927.5" y="364.0">MANUAL</text><polygon fill="none" points="840.0,393.0 960.0,395.0 959.0,417.0 839.0,415.0" stroke="blue" stroke-width="2" /><text alignment-baseline="middle" font-family="Tahoma" font-size="15px" font-weight="bold" text-anchor="middle" x="900.0" y="405.0">WHO6 - TIT</text><polygon fill="none" points="920.0,424.0 952.0,424.0 952.0,440.0 920.0,440.0" stroke="blue" stroke-width="2" /><text alignment-baseline="middle" font-family="Tahoma" font-size="15px" font-weight="bold" text-anchor="middle" x="936.0" y="432.0">3.1</text><polygon fill="none" points="732.0,447.0 776.0,446.0 777.0,463.0 733.0,464.0" stroke="blue" stroke-width="2" /><text alignment-baseline="middle" font-family="Tahoma" font-size="15px" font-weight="bold" text-anchor="middle" x="754.0" y="455.0">VF63</text><polygon fill="none" points="934.0,492.0 959.0,492.0 959.0,505.0 934.0,505.0" stroke="blue" stroke-width="2" /><text alignment-baseline="middle" font-family="Tahoma" font-size="15px" font-weight="bold" text-anchor="middle" x="946.5" y="498.5">CT</text><polygon fill="none" points="732.0,528.0 777.0,528.0 777.0,539.0 732.0,539.0" stroke="blue" stroke-width="2" /><text alignment-baseline="middle" font-family="Tahoma" font-size="15px" font-weight="bold" text-anchor="middle" x="754.5" y="533.5">VF96</text><polygon fill="none" points="1155.0,300.0 1198.0,300.0 1198.0,317.0 1155.0,317.0" stroke="blue" stroke-width="2" /><text alignment-baseline="middle" font-family="Tahoma" font-size="15px" font-weight="bold" text-anchor="middle" x="1176.5" y="308.5">VF65</text><polygon fill="none" points="1284.0,315.0 1396.0,315.0 1396.0,333.0 1284.0,333.0" stroke="blue" stroke-width="2" /><text alignment-baseline="middle" font-family="Tahoma" font-size="15px" font-weight="bold" text-anchor="middle" x="1340.0" y="324.0">VALVE TIMES</text><polygon fill="none" points="1011.0,329.0 1056.0,329.0 1056.0,345.0 1011.0,345.0" stroke="blue" stroke-width="2" /><text alignment-baseline="middle" font-family="Tahoma" font-size="15px" font-weight="bold" text-anchor="middle" x="1033.5" y="337.0">CT35</text><polygon fill="none" points="960.0,396.0 1001.0,396.0 1001.0,416.0 960.0,416.0" stroke="blue" stroke-width="2" /><text alignment-baseline="middle" font-family="Tahoma" font-size="15px" font-weight="bold" text-anchor="middle" x="980.5" y="406.0">TAN</text><polygon fill="none" points="1078.0,427.0 1125.0,427.0 1125.0,444.0 1078.0,444.0" stroke="blue" stroke-width="2" /><text alignment-baseline="middle" font-family="Tahoma" font-size="15px" font-weight="bold" text-anchor="middle" x="1101.5" y="435.5">PH12</text><polygon fill="none" points="1352.0,487.0 1415.0,487.0 1415.0,503.0 1352.0,503.0" stroke="blue" stroke-width="2" /><text alignment-baseline="middle" font-family="Tahoma" font-size="15px" font-weight="bold" text-anchor="middle" x="1383.5" y="495.0">V3VS01</text><polygon fill="none" points="960.0,491.0 978.0,491.0 978.0,506.0 960.0,506.0" stroke="blue" stroke-width="2" /><text alignment-baseline="middle" font-family="Tahoma" font-size="15px" font-weight="bold" text-anchor="middle" x="969.0" y="498.5">40</text><polygon fill="none" points="960.0,513.0 1056.0,513.0 1056.0,535.0 960.0,535.0" stroke="blue" stroke-width="2" /><text alignment-baseline="middle" font-family="Tahoma" font-size="15px" font-weight="bold" text-anchor="middle" x="1008.0" y="524.0">www</text><polygon fill="none" points="1568.0,288.0 1631.0,288.0 1631.0,302.0 1568.0,302.0" stroke="blue" stroke-width="2" /><text alignment-baseline="middle" font-family="Tahoma" font-size="15px" font-weight="bold" text-anchor="middle" x="1599.5" y="295.0">LIQUID</text><polygon fill="none" points="1786.0,288.0 1848.0,288.0 1848.0,302.0 1786.0,302.0" stroke="blue" stroke-width="2" /><text alignment-baseline="middle" font-family="Tahoma" font-size="15px" font-weight="bold" text-anchor="middle" x="1817.0" y="295.0">LIQUID</text><polygon fill="none" points="1547.0,306.0 1655.0,307.0 1655.0,319.0 1547.0,318.0" stroke="blue" stroke-width="2" /><text alignment-baseline="middle" font-family="Tahoma" font-size="15px" font-weight="bold" text-anchor="middle" x="1601.0" y="312.5">PLASTICIZER</text><polygon fill="none" points="1768.0,306.0 1867.0,306.0 1867.0,318.0 1768.0,318.0" stroke="blue" stroke-width="2" /><text alignment-baseline="middle" font-family="Tahoma" font-size="15px" font-weight="bold" text-anchor="middle" x="1817.5" y="312.0">STABILIZER</text><polygon fill="none" points="1504.0,331.0 1668.0,331.0 1668.0,344.0 1504.0,344.0" stroke="blue" stroke-width="2" /><text alignment-baseline="middle" font-family="Tahoma" font-size="15px" font-weight="bold" text-anchor="middle" x="1586.0" y="337.5">S3 TANK S4 S2</text><polygon fill="none" points="1731.0,331.0 1902.0,332.0 1902.0,350.0 1731.0,350.0" stroke="blue" stroke-width="2" /><text alignment-baseline="middle" font-family="Tahoma" font-size="15px" font-weight="bold" text-anchor="middle" x="1816.5" y="340.5">IBC4 IBC3 IBC1 IBC2</text><polygon fill="none" points="1491.0,394.0 1536.0,394.0 1536.0,409.0 1491.0,409.0" stroke="blue" stroke-width="2" /><text alignment-baseline="middle" font-family="Tahoma" font-size="15px" font-weight="bold" text-anchor="middle" x="1513.5" y="401.5">VS66</text><polygon fill="none" points="1574.0,394.0 1621.0,394.0 1621.0,408.0 1574.0,408.0" stroke="blue" stroke-width="2" /><text alignment-baseline="middle" font-family="Tahoma" font-size="15px" font-weight="bold" text-anchor="middle" x="1597.5" y="401.0">VS64</text><polygon fill="none" points="1659.0,394.0 1711.0,393.0 1712.0,408.0 1660.0,409.0" stroke="blue" stroke-width="2" /><text alignment-baseline="middle" font-family="Tahoma" font-size="15px" font-weight="bold" text-anchor="middle" x="1685.0" y="401.0">VS1.2</text><polygon fill="none" points="1728.0,394.0 1774.0,394.0 1774.0,409.0 1728.0,409.0" stroke="blue" stroke-width="2" /><text alignment-baseline="middle" font-family="Tahoma" font-size="15px" font-weight="bold" text-anchor="middle" x="1751.0" y="401.5">VS67</text><polygon fill="none" points="1533.0,461.0 1578.0,461.0 1578.0,475.0 1533.0,475.0" stroke="yellow" stroke-width="2" /><text alignment-baseline="middle" font-family="Tahoma" font-size="15px" font-weight="bold" text-anchor="middle" x="1555.5" y="468.0">VS65</text><polygon fill="none" points="1616.0,461.0 1662.0,461.0 1662.0,475.0 1616.0,475.0" stroke="blue" stroke-width="2" /><text alignment-baseline="middle" font-family="Tahoma" font-size="15px" font-weight="bold" text-anchor="middle" x="1639.0" y="468.0">VS63</text><polygon fill="none" points="1771.0,461.0 1816.0,461.0 1816.0,475.0 1771.0,475.0" stroke="blue" stroke-width="2" /><text alignment-baseline="middle" font-family="Tahoma" font-size="15px" font-weight="bold" text-anchor="middle" x="1793.5" y="468.0">VS68</text><polygon fill="none" points="1854.0,461.0 1900.0,461.0 1900.0,475.0 1854.0,475.0" stroke="blue" stroke-width="2" /><text alignment-baseline="middle" font-family="Tahoma" font-size="15px" font-weight="bold" text-anchor="middle" x="1877.0" y="468.0">VS70</text><polygon fill="none" points="26.0,543.0 134.0,543.0 134.0,558.0 26.0,558.0" stroke="blue" stroke-width="2" /><text alignment-baseline="middle" font-family="Tahoma" font-size="15px" font-weight="bold" text-anchor="middle" x="80.0" y="550.5">COLOR BAGS</text><polygon fill="none" points="158.0,550.0 181.0,550.0 181.0,569.0 158.0,569.0" stroke="yellow" stroke-width="2" /><text alignment-baseline="middle" font-family="Tahoma" font-size="15px" font-weight="bold" text-anchor="middle" x="169.5" y="559.5">1 1</text><polygon fill="none" points="46.0,562.0 114.0,562.0 114.0,577.0 46.0,577.0" stroke="blue" stroke-width="2" /><text alignment-baseline="middle" font-family="Tahoma" font-size="15px" font-weight="bold" text-anchor="middle" x="80.0" y="569.5">Counter</text><polygon fill="none" points="151.0,678.0 202.0,678.0 202.0,696.0 151.0,696.0" stroke="blue" stroke-width="2" /><text alignment-baseline="middle" font-family="Tahoma" font-size="15px" font-weight="bold" text-anchor="middle" x="176.5" y="687.0">GP05</text><polygon fill="none" points="347.0,731.0 399.0,731.0 399.0,750.0 347.0,750.0" stroke="blue" stroke-width="2" /><text alignment-baseline="middle" font-family="Tahoma" font-size="15px" font-weight="bold" text-anchor="middle" x="373.0" y="740.5">VR05</text><polygon fill="none" points="88.0,743.0 136.0,743.0 136.0,760.0 88.0,760.0" stroke="blue" stroke-width="2" /><text alignment-baseline="middle" font-family="Tahoma" font-size="15px" font-weight="bold" text-anchor="middle" x="112.0" y="751.5">VF92</text><polygon fill="none" points="878.0,598.0 923.0,598.0 923.0,617.0 878.0,617.0" stroke="blue" stroke-width="2" /><text alignment-baseline="middle" font-family="Tahoma" font-size="15px" font-weight="bold" text-anchor="middle" x="900.5" y="607.5">VF98</text><polygon fill="none" points="960.0,581.0 983.0,581.0 983.0,595.0 960.0,595.0" stroke="blue" stroke-width="2" /><text alignment-baseline="middle" font-family="Tahoma" font-size="15px" font-weight="bold" text-anchor="middle" x="971.5" y="588.0">1</text><polygon fill="none" points="1195.0,600.0 1241.0,600.0 1241.0,618.0 1195.0,618.0" stroke="blue" stroke-width="2" /><text alignment-baseline="middle" font-family="Tahoma" font-size="15px" font-weight="bold" text-anchor="middle" x="1218.0" y="609.0">VS71</text><polygon fill="none" points="1008.0,628.0 1084.0,628.0 1084.0,650.0 1008.0,650.0" stroke="blue" stroke-width="2" /><text alignment-baseline="middle" font-family="Tahoma" font-size="15px" font-weight="bold" text-anchor="middle" x="1046.0" y="639.0">SPEED</text><polygon fill="none" points="960.0,685.0 1002.0,685.0 1002.0,704.0 960.0,704.0" stroke="blue" stroke-width="2" /><text alignment-baseline="middle" font-family="Tahoma" font-size="15px" font-weight="bold" text-anchor="middle" x="981.0" y="694.5">CT40 </text><polygon fill="none" points="1020.0,685.0 1060.0,685.0 1060.0,705.0 1020.0,705.0" stroke="blue" stroke-width="2" /><text alignment-baseline="middle" font-family="Tahoma" font-size="15px" font-weight="bold" text-anchor="middle" x="1040.0" y="695.0">100</text><polygon fill="none" points="1081.0,686.0 1110.0,686.0 1110.0,704.0 1081.0,704.0" stroke="blue" stroke-width="2" /><text alignment-baseline="middle" font-family="Tahoma" font-size="15px" font-weight="bold" text-anchor="middle" x="1095.5" y="695.0">13</text><polygon fill="none" points="1125.0,686.0 1151.0,686.0 1151.0,704.0 1125.0,704.0" stroke="blue" stroke-width="2" /><text alignment-baseline="middle" font-family="Tahoma" font-size="15px" font-weight="bold" text-anchor="middle" x="1138.0" y="695.0">0/o</text><polygon fill="none" points="1364.0,729.0 1411.0,729.0 1411.0,745.0 1364.0,745.0" stroke="blue" stroke-width="2" /><text alignment-baseline="middle" font-family="Tahoma" font-size="15px" font-weight="bold" text-anchor="middle" x="1387.5" y="737.0">HP02</text><polygon fill="none" points="1572.0,558.0 1628.0,558.0 1628.0,574.0 1572.0,574.0" stroke="blue" stroke-width="2" /><text alignment-baseline="middle" font-family="Tahoma" font-size="15px" font-weight="bold" text-anchor="middle" x="1600.0" y="566.0">0.1 kg</text><polygon fill="none" points="1785.0,559.0 1848.0,558.0 1849.0,573.0 1786.0,574.0" stroke="blue" stroke-width="2" /><text alignment-baseline="middle" font-family="Tahoma" font-size="15px" font-weight="bold" text-anchor="middle" x="1816.5" y="566.0">-0.0 kg</text><polygon fill="none" points="1569.0,599.0 1633.0,599.0 1633.0,614.0 1569.0,614.0" stroke="blue" stroke-width="2" /><text alignment-baseline="middle" font-family="Tahoma" font-size="15px" font-weight="bold" text-anchor="middle" x="1601.0" y="606.5">MANUAL</text><polygon fill="none" points="1786.0,599.0 1850.0,599.0 1850.0,614.0 1786.0,614.0" stroke="blue" stroke-width="2" /><text alignment-baseline="middle" font-family="Tahoma" font-size="15px" font-weight="bold" text-anchor="middle" x="1818.0" y="606.5">MANUAL</text><polygon fill="none" points="1617.0,688.0 1661.0,688.0 1661.0,704.0 1617.0,704.0" stroke="blue" stroke-width="2" /><text alignment-baseline="middle" font-family="Tahoma" font-size="15px" font-weight="bold" text-anchor="middle" x="1639.0" y="696.0">VS73</text><polygon fill="none" points="1476.0,706.0 1544.0,706.0 1544.0,722.0 1476.0,722.0" stroke="blue" stroke-width="2" /><text alignment-baseline="middle" font-family="Tahoma" font-size="15px" font-weight="bold" text-anchor="middle" x="1510.0" y="714.0">32.7 °C</text><polygon fill="none" points="1757.0,716.0 1800.0,716.0 1800.0,730.0 1757.0,730.0" stroke="blue" stroke-width="2" /><text alignment-baseline="middle" font-family="Tahoma" font-size="15px" font-weight="bold" text-anchor="middle" x="1778.5" y="723.0">VS74</text><polygon fill="none" points="1667.0,777.0 1745.0,777.0 1745.0,793.0 1667.0,793.0" stroke="blue" stroke-width="2" /><text alignment-baseline="middle" font-family="Tahoma" font-size="15px" font-weight="bold" text-anchor="middle" x="1706.0" y="785.0">HEATING</text><polygon fill="none" points="1576.0,797.0 1619.0,797.0 1619.0,809.0 1576.0,809.0" stroke="blue" stroke-width="2" /><text alignment-baseline="middle" font-family="Tahoma" font-size="15px" font-weight="bold" text-anchor="middle" x="1597.5" y="803.0">HT01</text><polygon fill="none" points="1663.0,798.0 1748.0,798.0 1748.0,809.0 1663.0,809.0" stroke="blue" stroke-width="2" /><text alignment-baseline="middle" font-family="Tahoma" font-size="15px" font-weight="bold" text-anchor="middle" x="1705.5" y="803.5">SETTINGS</text><polygon fill="none" points="158.0,846.0 209.0,846.0 209.0,861.0 158.0,861.0" stroke="blue" stroke-width="2" /><text alignment-baseline="middle" font-family="Tahoma" font-size="15px" font-weight="bold" text-anchor="middle" x="183.5" y="853.5">600 s</text><polygon fill="none" points="13.0,847.0 101.0,847.0 101.0,860.0 13.0,860.0" stroke="blue" stroke-width="2" /><text alignment-baseline="middle" font-family="Tahoma" font-size="15px" font-weight="bold" text-anchor="middle" x="57.0" y="853.5">Delay Stop</text><polygon fill="none" points="371.0,854.0 433.0,854.0 433.0,870.0 371.0,870.0" stroke="blue" stroke-width="2" /><text alignment-baseline="middle" font-family="Tahoma" font-size="15px" font-weight="bold" text-anchor="middle" x="402.0" y="862.0">RECIPE</text><polygon fill="none" points="158.0,886.0 210.0,886.0 210.0,901.0 158.0,901.0" stroke="blue" stroke-width="2" /><text alignment-baseline="middle" font-family="Tahoma" font-size="15px" font-weight="bold" text-anchor="middle" x="184.0" y="893.5">600 s</text><polygon fill="none" points="16.0,887.0 68.0,887.0 68.0,900.0 16.0,900.0" stroke="blue" stroke-width="2" /><text alignment-baseline="middle" font-family="Tahoma" font-size="15px" font-weight="bold" text-anchor="middle" x="42.0" y="893.5">Actual</text><polygon fill="none" points="177.0,954.0 316.0,954.0 316.0,972.0 177.0,972.0" stroke="blue" stroke-width="2" /><text alignment-baseline="middle" font-family="Tahoma" font-size="15px" font-weight="bold" text-anchor="middle" x="246.5" y="963.0">UNLOAD SILOS</text><polygon fill="none" points="331.0,955.0 470.0,955.0 470.0,972.0 331.0,972.0" stroke="blue" stroke-width="2" /><text alignment-baseline="middle" font-family="Tahoma" font-size="15px" font-weight="bold" text-anchor="middle" x="400.5" y="963.5">UNLOAD SILOS</text><polygon fill="none" points="34.0,966.0 152.0,966.0 152.0,984.0 35.0,985.0" stroke="blue" stroke-width="2" /><text alignment-baseline="middle" font-family="Tahoma" font-size="15px" font-weight="bold" text-anchor="middle" x="93.0" y="975.0">LOAD SILOS</text><polygon fill="none" points="212.0,979.0 280.0,979.0 280.0,995.0 212.0,995.0" stroke="blue" stroke-width="2" /><text alignment-baseline="middle" font-family="Tahoma" font-size="15px" font-weight="bold" text-anchor="middle" x="246.0" y="987.0">PVC - 1</text><polygon fill="none" points="368.0,979.0 437.0,979.0 437.0,995.0 368.0,995.0" stroke="blue" stroke-width="2" /><text alignment-baseline="middle" font-family="Tahoma" font-size="15px" font-weight="bold" text-anchor="middle" x="402.5" y="987.0">PVC - 2</text><polygon fill="none" points="36.0,1044.0 70.0,1044.0 70.0,1052.0 36.0,1052.0" stroke="blue" stroke-width="2" /><text alignment-baseline="middle" font-family="Tahoma" font-size="15px" font-weight="bold" text-anchor="middle" x="53.0" y="1048.0">Outout</text><polygon fill="none" points="24.0,1065.0 479.0,1065.0 479.0,1075.0 24.0,1075.0" stroke="blue" stroke-width="2" /><text alignment-baseline="middle" font-family="Tahoma" font-size="15px" font-weight="bold" text-anchor="middle" x="251.5" y="1070.0">26/11/2019 18:09:49 Driver : Communication error : station Default Station, error An existing connect</text><polygon fill="none" points="486.0,954.0 628.0,954.0 628.0,973.0 486.0,973.0" stroke="blue" stroke-width="2" /><text alignment-baseline="middle" font-family="Tahoma" font-size="15px" font-weight="bold" text-anchor="middle" x="557.0" y="963.5">UNLOAD SILOS</text><polygon fill="none" points="668.0,954.0 751.0,954.0 751.0,974.0 668.0,974.0" stroke="blue" stroke-width="2" /><text alignment-baseline="middle" font-family="Tahoma" font-size="15px" font-weight="bold" text-anchor="middle" x="709.5" y="964.0">UNLOAD</text><polygon fill="none" points="810.0,965.0 918.0,965.0 918.0,986.0 810.0,986.0" stroke="blue" stroke-width="2" /><text alignment-baseline="middle" font-family="Tahoma" font-size="15px" font-weight="bold" text-anchor="middle" x="864.0" y="975.5">MIXER 100</text><polygon fill="none" points="524.0,978.0 587.0,978.0 587.0,996.0 524.0,996.0" stroke="blue" stroke-width="2" /><text alignment-baseline="middle" font-family="Tahoma" font-size="15px" font-weight="bold" text-anchor="middle" x="555.5" y="987.0">KRETA</text><polygon fill="none" points="688.0,978.0 732.0,978.0 732.0,997.0 688.0,997.0" stroke="blue" stroke-width="2" /><text alignment-baseline="middle" font-family="Tahoma" font-size="15px" font-weight="bold" text-anchor="middle" x="710.0" y="987.5">BAG</text><polygon fill="none" points="480.0,1064.0 674.0,1064.0 674.0,1075.0 480.0,1075.0" stroke="blue" stroke-width="2" /><text alignment-baseline="middle" font-family="Tahoma" font-size="15px" font-weight="bold" text-anchor="middle" x="577.0" y="1069.5">on was forcibly closed by the remote host.</text><polygon fill="none" points="1182.0,843.0 1248.0,843.0 1248.0,859.0 1182.0,859.0" stroke="blue" stroke-width="2" /><text alignment-baseline="middle" font-family="Tahoma" font-size="15px" font-weight="bold" text-anchor="middle" x="1215.0" y="851.0">SCALES</text><polygon fill="none" points="975.0,844.0 1092.0,844.0 1092.0,859.0 975.0,859.0" stroke="blue" stroke-width="2" /><text alignment-baseline="middle" font-family="Tahoma" font-size="15px" font-weight="bold" text-anchor="middle" x="1033.5" y="851.5">COMPONENTS</text><polygon fill="none" points="978.0,865.0 1090.0,865.0 1090.0,880.0 978.0,880.0" stroke="blue" stroke-width="2" /><text alignment-baseline="middle" font-family="Tahoma" font-size="15px" font-weight="bold" text-anchor="middle" x="1034.0" y="872.5">PARAMETERS</text><polygon fill="none" points="1159.0,865.0 1272.0,865.0 1272.0,880.0 1160.0,881.0" stroke="blue" stroke-width="2" /><text alignment-baseline="middle" font-family="Tahoma" font-size="15px" font-weight="bold" text-anchor="middle" x="1215.5" y="872.5">PARAMETERS</text><polygon fill="none" points="1393.0,892.0 1436.0,892.0 1436.0,904.0 1393.0,904.0" stroke="blue" stroke-width="2" /><text alignment-baseline="middle" font-family="Tahoma" font-size="15px" font-weight="bold" text-anchor="middle" x="1414.5" y="898.0">HP01</text><polygon fill="none" points="966.0,965.0 1071.0,965.0 1071.0,985.0 966.0,985.0" stroke="blue" stroke-width="2" /><text alignment-baseline="middle" font-family="Tahoma" font-size="15px" font-weight="bold" text-anchor="middle" x="1018.5" y="975.0">MIXER 200</text><polygon fill="none" points="1119.0,966.0 1226.0,966.0 1226.0,985.0 1119.0,985.0" stroke="blue" stroke-width="2" /><text alignment-baseline="middle" font-family="Tahoma" font-size="15px" font-weight="bold" text-anchor="middle" x="1172.5" y="975.5">MIXER 300</text><polygon fill="none" points="1274.0,966.0 1380.0,966.0 1380.0,984.0 1274.0,984.0" stroke="blue" stroke-width="2" /><text alignment-baseline="middle" font-family="Tahoma" font-size="15px" font-weight="bold" text-anchor="middle" x="1327.0" y="975.0">MIXER 400</text><polygon fill="none" points="1791.0,964.0 1871.0,964.0 1871.0,987.0 1791.0,987.0" stroke="blue" stroke-width="2" /><text alignment-baseline="middle" font-family="Tahoma" font-size="15px" font-weight="bold" text-anchor="middle" x="1831.0" y="975.5">SYSTEM</text><polygon fill="none" points="1444.0,965.0 1520.0,965.0 1520.0,987.0 1444.0,987.0" stroke="blue" stroke-width="2" /><text alignment-baseline="middle" font-family="Tahoma" font-size="15px" font-weight="bold" text-anchor="middle" x="1482.0" y="976.0">LIQUID</text><polygon fill="none" points="1643.0,965.0 1712.0,965.0 1712.0,987.0 1643.0,987.0" stroke="blue" stroke-width="2" /><text alignment-baseline="middle" font-family="Tahoma" font-size="15px" font-weight="bold" text-anchor="middle" x="1677.5" y="976.0">ALARM</text><polygon fill="none" points="1897.0,1063.0 1915.0,1063.0 1914.0,1075.0 1896.0,1075.0" stroke="yellow" stroke-width="2" /><text alignment-baseline="middle" font-family="Tahoma" font-size="15px" font-weight="bold" text-anchor="middle" x="1906.0" y="1069.0">0</text><polygon fill="none" points="1712.0,1065.0 1772.0,1064.0 1773.0,1074.0 1712.0,1075.0" stroke="blue" stroke-width="2" /><text alignment-baseline="middle" font-family="Tahoma" font-size="15px" font-weight="bold" text-anchor="middle" x="1742.0" y="1069.5">1.5Gb(1.0Gb)</text></svg>