<?xml version="1.0" encoding="utf-8" ?>
<svg baseProfile="full" height="1080.0" version="1.1" width="1920.0" xmlns="http://www.w3.org/2000/svg" xmlns:ev="http://www.w3.org/2001/xml-events" xmlns:xlink="http://www.w3.org/1999/xlink"><defs /><polygon fill="none" points="1016.0,45.0 1060.0,45.0 1060.0,60.0 1016.0,60.0" stroke="blue" stroke-width="2" /><text alignment-baseline="middle" font-family="Tahoma" font-size="13.5" font-weight="bold" text-anchor="middle" x="1038.0" y="52.5">EB03</text><polygon fill="none" points="196.0,59.0 377.0,59.0 377.0,73.0 196.0,73.0" stroke="blue" stroke-width="2" /><text alignment-baseline="middle" font-family="Tahoma" font-size="12.6" font-weight="bold" text-anchor="middle" x="286.5" y="66.0">SILOS UNLOAD BAG</text><polygon fill="none" points="640.0,59.0 694.0,59.0 694.0,73.0 640.0,73.0" stroke="blue" stroke-width="2" /><text alignment-baseline="middle" font-family="Tahoma" font-size="12.6" font-weight="bold" text-anchor="middle" x="667.0" y="66.0">SILOS</text><polygon fill="none" points="1014.0,63.0 1065.0,63.0 1065.0,79.0 1014.0,79.0" stroke="blue" stroke-width="2" /><text alignment-baseline="middle" font-family="Tahoma" font-size="14.4" font-weight="bold" text-anchor="middle" x="1039.5" y="71.0">TITAN</text><polygon fill="none" points="1121.0,71.0 1179.0,71.0 1179.0,90.0 1121.0,90.0" stroke="blue" stroke-width="2" /><text alignment-baseline="middle" font-family="Tahoma" font-size="17.1" font-weight="bold" text-anchor="middle" x="1150.0" y="80.5">JF05</text><polygon fill="none" points="203.0,78.0 243.0,78.0 243.0,91.0 203.0,91.0" stroke="yellow" stroke-width="2" /><text alignment-baseline="middle" font-family="Tahoma" font-size="11.700000000000001" font-weight="bold" text-anchor="middle" x="223.0" y="84.5">PVC</text><polygon fill="none" points="294.0,78.0 348.0,78.0 348.0,92.0 294.0,92.0" stroke="blue" stroke-width="2" /><text alignment-baseline="middle" font-family="Tahoma" font-size="12.6" font-weight="bold" text-anchor="middle" x="321.0" y="85.0">WHO3</text><polygon fill="none" points="638.0,78.0 694.0,78.0 694.0,92.0 638.0,92.0" stroke="blue" stroke-width="2" /><text alignment-baseline="middle" font-family="Tahoma" font-size="12.6" font-weight="bold" text-anchor="middle" x="666.0" y="85.0">KRETA</text><polygon fill="none" points="428.0,87.0 489.0,87.0 489.0,104.0 428.0,104.0" stroke="blue" stroke-width="2" /><text alignment-baseline="middle" font-family="Tahoma" font-size="15.3" font-weight="bold" text-anchor="middle" x="458.5" y="95.5">MANUAL</text><polygon fill="none" points="764.0,87.0 828.0,87.0 828.0,104.0 764.0,104.0" stroke="blue" stroke-width="2" /><text alignment-baseline="middle" font-family="Tahoma" font-size="15.3" font-weight="bold" text-anchor="middle" x="796.0" y="95.5">MANUAL</text><polygon fill="none" points="1508.0,99.0 1564.0,99.0 1564.0,117.0 1508.0,117.0" stroke="blue" stroke-width="2" /><text alignment-baseline="middle" font-family="Tahoma" font-size="16.2" font-weight="bold" text-anchor="middle" x="1536.0" y="108.0">GP03</text><polygon fill="none" points="1057.0,114.0 1104.0,114.0 1104.0,131.0 1057.0,131.0" stroke="yellow" stroke-width="2" /><text alignment-baseline="middle" font-family="Tahoma" font-size="15.3" font-weight="bold" text-anchor="middle" x="1080.5" y="122.5">SLOS</text><polygon fill="none" points="432.0,126.0 489.0,126.0 489.0,145.0 432.0,145.0" stroke="blue" stroke-width="2" /><text alignment-baseline="middle" font-family="Tahoma" font-size="17.1" font-weight="bold" text-anchor="middle" x="460.5" y="135.5">JF03</text><polygon fill="none" points="769.0,126.0 828.0,126.0 828.0,145.0 769.0,145.0" stroke="blue" stroke-width="2" /><text alignment-baseline="middle" font-family="Tahoma" font-size="17.1" font-weight="bold" text-anchor="middle" x="798.5" y="135.5">JF04</text><polygon fill="none" points="1214.0,128.0 1257.0,128.0 1257.0,143.0 1214.0,143.0" stroke="blue" stroke-width="2" /><text alignment-baseline="middle" font-family="Tahoma" font-size="13.5" font-weight="bold" text-anchor="middle" x="1235.5" y="135.5">VT03</text><polygon fill="none" points="769.0,154.0 827.0,154.0 827.0,171.0 769.0,171.0" stroke="blue" stroke-width="2" /><text alignment-baseline="middle" font-family="Tahoma" font-size="15.3" font-weight="bold" text-anchor="middle" x="798.0" y="162.5">0.9 kg</text><polygon fill="none" points="1340.0,154.0 1395.0,154.0 1395.0,171.0 1340.0,171.0" stroke="blue" stroke-width="2" /><text alignment-baseline="middle" font-family="Tahoma" font-size="15.3" font-weight="bold" text-anchor="middle" x="1367.5" y="162.5">VR03</text><polygon fill="none" points="432.0,156.0 492.0,156.0 492.0,171.0 432.0,171.0" stroke="blue" stroke-width="2" /><text alignment-baseline="middle" font-family="Tahoma" font-size="13.5" font-weight="bold" text-anchor="middle" x="462.0" y="163.5">-1.4 kg</text><polygon fill="none" points="1614.0,165.0 1662.0,165.0 1662.0,182.0 1614.0,182.0" stroke="blue" stroke-width="2" /><text alignment-baseline="middle" font-family="Tahoma" font-size="15.3" font-weight="bold" text-anchor="middle" x="1638.0" y="173.5">VF90</text><polygon fill="none" points="158.0,169.0 201.0,169.0 201.0,182.0 158.0,182.0" stroke="blue" stroke-width="2" /><text alignment-baseline="middle" font-family="Tahoma" font-size="11.700000000000001" font-weight="bold" text-anchor="middle" x="179.5" y="175.5">VS51</text><polygon fill="none" points="688.0,169.0 732.0,169.0 732.0,183.0 688.0,183.0" stroke="yellow" stroke-width="2" /><text alignment-baseline="middle" font-family="Tahoma" font-size="12.6" font-weight="bold" text-anchor="middle" x="710.0" y="176.0">VS53</text><polygon fill="none" points="348.0,170.0 393.0,170.0 393.0,184.0 348.0,184.0" stroke="blue" stroke-width="2" /><text alignment-baseline="middle" font-family="Tahoma" font-size="12.6" font-weight="bold" text-anchor="middle" x="370.5" y="177.0">VS52</text><polygon fill="none" points="1584.0,176.0 1608.0,176.0 1608.0,193.0 1584.0,193.0" stroke="yellow" stroke-width="2" /><text alignment-baseline="middle" font-family="Tahoma" font-size="15.3" font-weight="bold" text-anchor="middle" x="1596.0" y="184.5">O</text><polygon fill="none" points="1585.0,196.0 1604.0,196.0 1604.0,209.0 1585.0,209.0" stroke="blue" stroke-width="2" /><text alignment-baseline="middle" font-family="Tahoma" font-size="11.700000000000001" font-weight="bold" text-anchor="middle" x="1594.5" y="202.5">C</text><polygon fill="none" points="707.0,209.0 748.0,209.0 748.0,225.0 707.0,225.0" stroke="blue" stroke-width="2" /><text alignment-baseline="middle" font-family="Tahoma" font-size="14.4" font-weight="bold" text-anchor="middle" x="727.5" y="217.0">SLO4</text><polygon fill="none" points="369.0,210.0 412.0,210.0 412.0,225.0 369.0,225.0" stroke="yellow" stroke-width="2" /><text alignment-baseline="middle" font-family="Tahoma" font-size="13.5" font-weight="bold" text-anchor="middle" x="390.5" y="217.5">SLO3</text><polygon fill="none" points="526.0,222.0 569.0,222.0 569.0,237.0 526.0,237.0" stroke="blue" stroke-width="2" /><text alignment-baseline="middle" font-family="Tahoma" font-size="13.5" font-weight="bold" text-anchor="middle" x="547.5" y="229.5">VT01</text><polygon fill="none" points="862.0,222.0 905.0,222.0 905.0,237.0 862.0,237.0" stroke="blue" stroke-width="2" /><text alignment-baseline="middle" font-family="Tahoma" font-size="13.5" font-weight="bold" text-anchor="middle" x="883.5" y="229.5">VT02</text><polygon fill="none" points="1011.0,261.0 1097.0,261.0 1097.0,275.0 1011.0,275.0" stroke="blue" stroke-width="2" /><text alignment-baseline="middle" font-family="Tahoma" font-size="12.6" font-weight="bold" text-anchor="middle" x="1054.0" y="268.0">FBE11 (M</text><polygon fill="none" points="188.0,287.0 228.0,287.0 228.0,302.0 188.0,302.0" stroke="blue" stroke-width="2" /><text alignment-baseline="middle" font-family="Tahoma" font-size="13.5" font-weight="bold" text-anchor="middle" x="208.0" y="294.5">VF61</text><polygon fill="none" points="1569.0,287.0 1633.0,287.0 1633.0,302.0 1569.0,302.0" stroke="blue" stroke-width="2" /><text alignment-baseline="middle" font-family="Tahoma" font-size="13.5" font-weight="bold" text-anchor="middle" x="1601.0" y="294.5">LIQUID</text><polygon fill="none" points="1787.0,288.0 1849.0,288.0 1849.0,302.0 1787.0,302.0" stroke="blue" stroke-width="2" /><text alignment-baseline="middle" font-family="Tahoma" font-size="12.6" font-weight="bold" text-anchor="middle" x="1818.0" y="295.0">LIQUID</text><polygon fill="none" points="633.0,296.0 680.0,296.0 680.0,311.0 633.0,311.0" stroke="blue" stroke-width="2" /><text alignment-baseline="middle" font-family="Tahoma" font-size="13.5" font-weight="bold" text-anchor="middle" x="656.5" y="303.5">VF64</text><polygon fill="none" points="1156.0,301.0 1198.0,301.0 1198.0,316.0 1156.0,316.0" stroke="blue" stroke-width="2" /><text alignment-baseline="middle" font-family="Tahoma" font-size="13.5" font-weight="bold" text-anchor="middle" x="1177.0" y="308.5">VF65</text><polygon fill="none" points="1545.0,306.0 1654.0,306.0 1654.0,321.0 1545.0,321.0" stroke="blue" stroke-width="2" /><text alignment-baseline="middle" font-family="Tahoma" font-size="13.5" font-weight="bold" text-anchor="middle" x="1599.5" y="313.5">PLASTICIZER</text><polygon fill="none" points="1768.0,306.0 1865.0,306.0 1865.0,320.0 1768.0,320.0" stroke="blue" stroke-width="2" /><text alignment-baseline="middle" font-family="Tahoma" font-size="12.6" font-weight="bold" text-anchor="middle" x="1816.5" y="313.0">STABILIZER</text><polygon fill="none" points="1283.0,315.0 1396.0,315.0 1396.0,333.0 1283.0,333.0" stroke="blue" stroke-width="2" /><text alignment-baseline="middle" font-family="Tahoma" font-size="16.2" font-weight="bold" text-anchor="middle" x="1339.5" y="324.0">VALVE TIMES</text><polygon fill="none" points="497.0,317.0 540.0,317.0 540.0,333.0 497.0,333.0" stroke="blue" stroke-width="2" /><text alignment-baseline="middle" font-family="Tahoma" font-size="14.4" font-weight="bold" text-anchor="middle" x="518.5" y="325.0">PH07</text><polygon fill="none" points="385.0,329.0 441.0,329.0 441.0,347.0 385.0,347.0" stroke="blue" stroke-width="2" /><text alignment-baseline="middle" font-family="Tahoma" font-size="16.2" font-weight="bold" text-anchor="middle" x="413.0" y="338.0">VBF03</text><polygon fill="none" points="721.0,329.0 777.0,329.0 777.0,346.0 721.0,346.0" stroke="blue" stroke-width="2" /><text alignment-baseline="middle" font-family="Tahoma" font-size="15.3" font-weight="bold" text-anchor="middle" x="749.0" y="337.5">VBF04</text><polygon fill="none" points="1012.0,330.0 1054.0,330.0 1054.0,345.0 1012.0,345.0" stroke="blue" stroke-width="2" /><text alignment-baseline="middle" font-family="Tahoma" font-size="13.5" font-weight="bold" text-anchor="middle" x="1033.0" y="337.5">CT35</text><polygon fill="none" points="1502.0,331.0 1660.0,331.0 1660.0,346.0 1502.0,346.0" stroke="blue" stroke-width="2" /><text alignment-baseline="middle" font-family="Tahoma" font-size="13.5" font-weight="bold" text-anchor="middle" x="1581.0" y="338.5">S3 TANK S4 S2</text><polygon fill="none" points="1731.0,331.0 1901.0,333.0 1900.0,350.0 1730.0,348.0" stroke="blue" stroke-width="2" /><text alignment-baseline="middle" font-family="Tahoma" font-size="17.1" font-weight="bold" text-anchor="middle" x="1816.0" y="340.5">IBC4 IBC3 IBC1 IBC2</text><polygon fill="none" points="1667.0,332.0 1696.0,332.0 1696.0,345.0 1667.0,345.0" stroke="yellow" stroke-width="2" /><text alignment-baseline="middle" font-family="Tahoma" font-size="11.700000000000001" font-weight="bold" text-anchor="middle" x="1681.5" y="338.5">   </text><polygon fill="none" points="894.0,355.0 956.0,355.0 956.0,372.0 894.0,372.0" stroke="blue" stroke-width="2" /><text alignment-baseline="middle" font-family="Tahoma" font-size="15.3" font-weight="bold" text-anchor="middle" x="925.0" y="363.5">MANUAL</text><polygon fill="none" points="270.0,369.0 363.0,369.0 363.0,387.0 270.0,387.0" stroke="blue" stroke-width="2" /><text alignment-baseline="middle" font-family="Tahoma" font-size="16.2" font-weight="bold" text-anchor="middle" x="316.5" y="378.0">BAG P2 P1</text><polygon fill="none" points="840.0,395.0 1000.0,395.0 1000.0,414.0 840.0,414.0" stroke="blue" stroke-width="2" /><text alignment-baseline="middle" font-family="Tahoma" font-size="17.1" font-weight="bold" text-anchor="middle" x="920.0" y="404.5">WH06 - TITAN</text><polygon fill="none" points="1576.0,395.0 1619.0,395.0 1619.0,409.0 1576.0,409.0" stroke="blue" stroke-width="2" /><text alignment-baseline="middle" font-family="Tahoma" font-size="12.6" font-weight="bold" text-anchor="middle" x="1597.5" y="402.0">VS64</text><polygon fill="none" points="1660.0,395.0 1712.0,395.0 1712.0,408.0 1660.0,408.0" stroke="blue" stroke-width="2" /><text alignment-baseline="middle" font-family="Tahoma" font-size="11.700000000000001" font-weight="bold" text-anchor="middle" x="1686.0" y="401.5">VS1.2</text><polygon fill="none" points="1728.0,395.0 1771.0,395.0 1771.0,409.0 1728.0,409.0" stroke="blue" stroke-width="2" /><text alignment-baseline="middle" font-family="Tahoma" font-size="12.6" font-weight="bold" text-anchor="middle" x="1749.5" y="402.0">VS67</text><polygon fill="none" points="110.0,397.0 156.0,397.0 156.0,413.0 110.0,413.0" stroke="blue" stroke-width="2" /><text alignment-baseline="middle" font-family="Tahoma" font-size="14.4" font-weight="bold" text-anchor="middle" x="133.0" y="405.0">CB01</text><polygon fill="none" points="1632.0,422.0 1654.0,422.0 1654.0,457.0 1632.0,457.0" stroke="blue" stroke-width="2" /><text alignment-baseline="middle" font-family="Tahoma" font-size="31.5" font-weight="bold" text-anchor="middle" x="1643.0" y="439.5">IX</text><polygon fill="none" points="1784.0,422.0 1809.0,422.0 1809.0,456.0 1784.0,456.0" stroke="blue" stroke-width="2" /><text alignment-baseline="middle" font-family="Tahoma" font-size="30.6" font-weight="bold" text-anchor="middle" x="1796.5" y="439.0">X</text><polygon fill="none" points="916.0,423.0 976.0,423.0 976.0,441.0 916.0,441.0" stroke="blue" stroke-width="2" /><text alignment-baseline="middle" font-family="Tahoma" font-size="16.2" font-weight="bold" text-anchor="middle" x="946.0" y="432.0">3.1 kg</text><polygon fill="none" points="1747.0,423.0 1768.0,423.0 1768.0,446.0 1747.0,446.0" stroke="blue" stroke-width="2" /><text alignment-baseline="middle" font-family="Tahoma" font-size="20.7" font-weight="bold" text-anchor="middle" x="1757.5" y="434.5">X</text><polygon fill="none" points="1868.0,424.0 1894.0,424.0 1894.0,459.0 1868.0,459.0" stroke="yellow" stroke-width="2" /><text alignment-baseline="middle" font-family="Tahoma" font-size="31.5" font-weight="bold" text-anchor="middle" x="1881.0" y="441.5">DX</text><polygon fill="none" points="1075.0,427.0 1126.0,427.0 1126.0,444.0 1075.0,444.0" stroke="blue" stroke-width="2" /><text alignment-baseline="middle" font-family="Tahoma" font-size="15.3" font-weight="bold" text-anchor="middle" x="1100.5" y="435.5">PH12</text><polygon fill="none" points="731.0,447.0 777.0,447.0 777.0,464.0 731.0,464.0" stroke="blue" stroke-width="2" /><text alignment-baseline="middle" font-family="Tahoma" font-size="15.3" font-weight="bold" text-anchor="middle" x="754.0" y="455.5">VF63</text><polygon fill="none" points="1851.0,457.0 1897.0,457.0 1897.0,476.0 1851.0,476.0" stroke="blue" stroke-width="2" /><text alignment-baseline="middle" font-family="Tahoma" font-size="17.1" font-weight="bold" text-anchor="middle" x="1874.0" y="466.5">VS70</text><polygon fill="none" points="328.0,458.0 436.0,442.0 446.0,463.0 337.0,479.0" stroke="blue" stroke-width="2" /><text alignment-baseline="middle" font-family="Tahoma" font-size="4.5" font-weight="bold" text-anchor="middle" x="382.0" y="460.5">OSTEP VF62</text><polygon fill="none" points="1531.0,459.0 1577.0,459.0 1577.0,477.0 1531.0,477.0" stroke="blue" stroke-width="2" /><text alignment-baseline="middle" font-family="Tahoma" font-size="16.2" font-weight="bold" text-anchor="middle" x="1554.0" y="468.0">VS65</text><polygon fill="none" points="1614.0,459.0 1660.0,459.0 1660.0,477.0 1614.0,477.0" stroke="blue" stroke-width="2" /><text alignment-baseline="middle" font-family="Tahoma" font-size="16.2" font-weight="bold" text-anchor="middle" x="1637.0" y="468.0">VS63</text><polygon fill="none" points="1769.0,459.0 1814.0,459.0 1814.0,476.0 1769.0,476.0" stroke="blue" stroke-width="2" /><text alignment-baseline="middle" font-family="Tahoma" font-size="15.3" font-weight="bold" text-anchor="middle" x="1791.5" y="467.5">VS68</text><polygon fill="none" points="1353.0,488.0 1416.0,488.0 1416.0,504.0 1353.0,504.0" stroke="blue" stroke-width="2" /><text alignment-baseline="middle" font-family="Tahoma" font-size="14.4" font-weight="bold" text-anchor="middle" x="1384.5" y="496.0">V3VS01</text><polygon fill="none" points="932.0,489.0 979.0,489.0 979.0,506.0 932.0,506.0" stroke="blue" stroke-width="2" /><text alignment-baseline="middle" font-family="Tahoma" font-size="15.3" font-weight="bold" text-anchor="middle" x="955.5" y="497.5">CT40</text><polygon fill="none" points="30.0,490.0 124.0,490.0 124.0,504.0 30.0,504.0" stroke="blue" stroke-width="2" /><text alignment-baseline="middle" font-family="Tahoma" font-size="12.6" font-weight="bold" text-anchor="middle" x="77.0" y="497.0">PVC Unload</text><polygon fill="none" points="43.0,508.0 112.0,508.0 112.0,522.0 43.0,522.0" stroke="blue" stroke-width="2" /><text alignment-baseline="middle" font-family="Tahoma" font-size="12.6" font-weight="bold" text-anchor="middle" x="77.5" y="515.0">Counter</text><polygon fill="none" points="393.0,528.0 440.0,528.0 440.0,545.0 393.0,545.0" stroke="blue" stroke-width="2" /><text alignment-baseline="middle" font-family="Tahoma" font-size="15.3" font-weight="bold" text-anchor="middle" x="416.5" y="536.5">VF95</text><polygon fill="none" points="731.0,528.0 777.0,528.0 777.0,545.0 731.0,545.0" stroke="blue" stroke-width="2" /><text alignment-baseline="middle" font-family="Tahoma" font-size="15.3" font-weight="bold" text-anchor="middle" x="754.0" y="536.5">VF96</text><polygon fill="none" points="227.0,530.0 272.0,530.0 272.0,545.0 227.0,545.0" stroke="yellow" stroke-width="2" /><text alignment-baseline="middle" font-family="Tahoma" font-size="13.5" font-weight="bold" text-anchor="middle" x="249.5" y="537.5">VG01</text><polygon fill="none" points="25.0,543.0 129.0,543.0 129.0,558.0 25.0,558.0" stroke="blue" stroke-width="2" /><text alignment-baseline="middle" font-family="Tahoma" font-size="13.5" font-weight="bold" text-anchor="middle" x="77.0" y="550.5">COLOR BAGS</text><polygon fill="none" points="1570.0,557.0 1629.0,558.0 1628.0,575.0 1568.0,574.0" stroke="blue" stroke-width="2" /><text alignment-baseline="middle" font-family="Tahoma" font-size="16.2" font-weight="bold" text-anchor="middle" x="1599.5" y="566.0">0.1 kg</text><polygon fill="none" points="1786.0,557.0 1850.0,558.0 1849.0,575.0 1784.0,573.0" stroke="blue" stroke-width="2" /><text alignment-baseline="middle" font-family="Tahoma" font-size="16.2" font-weight="bold" text-anchor="middle" x="1818.0" y="566.0">-0.0 kg</text><polygon fill="none" points="44.0,562.0 112.0,562.0 112.0,576.0 44.0,576.0" stroke="blue" stroke-width="2" /><text alignment-baseline="middle" font-family="Tahoma" font-size="12.6" font-weight="bold" text-anchor="middle" x="78.0" y="569.0">Counter</text><polygon fill="none" points="1568.0,597.0 1628.0,597.0 1628.0,614.0 1568.0,614.0" stroke="blue" stroke-width="2" /><text alignment-baseline="middle" font-family="Tahoma" font-size="15.3" font-weight="bold" text-anchor="middle" x="1598.0" y="605.5">MANUAL</text><polygon fill="none" points="878.0,598.0 923.0,598.0 923.0,616.0 878.0,616.0" stroke="blue" stroke-width="2" /><text alignment-baseline="middle" font-family="Tahoma" font-size="16.2" font-weight="bold" text-anchor="middle" x="900.5" y="607.0">VF98</text><polygon fill="none" points="1785.0,598.0 1846.0,598.0 1846.0,613.0 1785.0,613.0" stroke="blue" stroke-width="2" /><text alignment-baseline="middle" font-family="Tahoma" font-size="13.5" font-weight="bold" text-anchor="middle" x="1815.5" y="605.5">MANUAL</text><polygon fill="none" points="1195.0,603.0 1236.0,603.0 1236.0,616.0 1195.0,616.0" stroke="blue" stroke-width="2" /><text alignment-baseline="middle" font-family="Tahoma" font-size="11.700000000000001" font-weight="bold" text-anchor="middle" x="1215.5" y="609.5">VS71</text><polygon fill="none" points="1006.0,630.0 1083.0,630.0 1083.0,649.0 1006.0,649.0" stroke="blue" stroke-width="2" /><text alignment-baseline="middle" font-family="Tahoma" font-size="17.1" font-weight="bold" text-anchor="middle" x="1044.5" y="639.5">SPEED</text><polygon fill="none" points="148.0,678.0 203.0,678.0 203.0,696.0 148.0,696.0" stroke="blue" stroke-width="2" /><text alignment-baseline="middle" font-family="Tahoma" font-size="16.2" font-weight="bold" text-anchor="middle" x="175.5" y="687.0">GP05</text><polygon fill="none" points="950.0,686.0 1012.0,686.0 1012.0,704.0 950.0,704.0" stroke="blue" stroke-width="2" /><text alignment-baseline="middle" font-family="Tahoma" font-size="16.2" font-weight="bold" text-anchor="middle" x="981.0" y="695.0">CT40 </text><polygon fill="none" points="1012.0,686.0 1059.0,686.0 1059.0,704.0 1012.0,704.0" stroke="yellow" stroke-width="2" /><text alignment-baseline="middle" font-family="Tahoma" font-size="16.2" font-weight="bold" text-anchor="middle" x="1035.5" y="695.0"> 100</text><polygon fill="none" points="1077.0,686.0 1148.0,685.0 1149.0,703.0 1078.0,705.0" stroke="blue" stroke-width="2" /><text alignment-baseline="middle" font-family="Tahoma" font-size="15.3" font-weight="bold" text-anchor="middle" x="1112.5" y="694.5">13 %</text><polygon fill="none" points="1617.0,689.0 1662.0,689.0 1662.0,704.0 1617.0,704.0" stroke="blue" stroke-width="2" /><text alignment-baseline="middle" font-family="Tahoma" font-size="13.5" font-weight="bold" text-anchor="middle" x="1639.5" y="696.5">VS73</text><polygon fill="none" points="1478.0,708.0 1540.0,708.0 1540.0,720.0 1478.0,720.0" stroke="blue" stroke-width="2" /><text alignment-baseline="middle" font-family="Tahoma" font-size="10.8" font-weight="bold" text-anchor="middle" x="1509.0" y="714.0">32.7 °C</text><polygon fill="none" points="1758.0,718.0 1800.0,718.0 1800.0,730.0 1758.0,730.0" stroke="blue" stroke-width="2" /><text alignment-baseline="middle" font-family="Tahoma" font-size="10.8" font-weight="bold" text-anchor="middle" x="1779.0" y="724.0">VS74</text><polygon fill="none" points="1364.0,730.0 1409.0,730.0 1409.0,746.0 1364.0,746.0" stroke="blue" stroke-width="2" /><text alignment-baseline="middle" font-family="Tahoma" font-size="14.4" font-weight="bold" text-anchor="middle" x="1386.5" y="738.0">HP02</text><polygon fill="none" points="348.0,732.0 400.0,732.0 400.0,749.0 348.0,749.0" stroke="blue" stroke-width="2" /><text alignment-baseline="middle" font-family="Tahoma" font-size="15.3" font-weight="bold" text-anchor="middle" x="374.0" y="740.5">VR05</text><polygon fill="none" points="89.0,746.0 134.0,746.0 134.0,759.0 89.0,759.0" stroke="blue" stroke-width="2" /><text alignment-baseline="middle" font-family="Tahoma" font-size="11.700000000000001" font-weight="bold" text-anchor="middle" x="111.5" y="752.5">VF92</text><polygon fill="none" points="140.0,755.0 160.0,755.0 160.0,769.0 140.0,769.0" stroke="yellow" stroke-width="2" /><text alignment-baseline="middle" font-family="Tahoma" font-size="12.6" font-weight="bold" text-anchor="middle" x="150.0" y="762.0">O</text><polygon fill="none" points="1665.0,775.0 1744.0,775.0 1744.0,793.0 1665.0,793.0" stroke="blue" stroke-width="2" /><text alignment-baseline="middle" font-family="Tahoma" font-size="16.2" font-weight="bold" text-anchor="middle" x="1704.5" y="784.0">HEATING</text><polygon fill="none" points="634.0,788.0 847.0,785.0 848.0,820.0 635.0,823.0" stroke="blue" stroke-width="2" /><text alignment-baseline="middle" font-family="Tahoma" font-size="28.8" font-weight="bold" text-anchor="middle" x="740.5" y="804.0">MIX 100</text><polygon fill="none" points="1660.0,797.0 1748.0,797.0 1748.0,814.0 1660.0,814.0" stroke="blue" stroke-width="2" /><text alignment-baseline="middle" font-family="Tahoma" font-size="15.3" font-weight="bold" text-anchor="middle" x="1704.0" y="805.5">SETTINGS</text><polygon fill="none" points="1574.0,798.0 1620.0,798.0 1620.0,812.0 1574.0,812.0" stroke="blue" stroke-width="2" /><text alignment-baseline="middle" font-family="Tahoma" font-size="12.6" font-weight="bold" text-anchor="middle" x="1597.0" y="805.0">HT01</text><polygon fill="none" points="974.0,843.0 1091.0,843.0 1091.0,860.0 974.0,860.0" stroke="blue" stroke-width="2" /><text alignment-baseline="middle" font-family="Tahoma" font-size="15.3" font-weight="bold" text-anchor="middle" x="1032.5" y="851.5">COMPONENTS</text><polygon fill="none" points="1180.0,843.0 1248.0,843.0 1248.0,860.0 1180.0,860.0" stroke="blue" stroke-width="2" /><text alignment-baseline="middle" font-family="Tahoma" font-size="15.3" font-weight="bold" text-anchor="middle" x="1214.0" y="851.5">SCALES</text><polygon fill="none" points="156.0,845.0 209.0,845.0 209.0,863.0 156.0,863.0" stroke="blue" stroke-width="2" /><text alignment-baseline="middle" font-family="Tahoma" font-size="16.2" font-weight="bold" text-anchor="middle" x="182.5" y="854.0">600 s</text><polygon fill="none" points="11.0,847.0 99.0,847.0 99.0,862.0 11.0,862.0" stroke="blue" stroke-width="2" /><text alignment-baseline="middle" font-family="Tahoma" font-size="13.5" font-weight="bold" text-anchor="middle" x="55.0" y="854.5">Delay Stop</text><polygon fill="none" points="368.0,853.0 433.0,853.0 433.0,872.0 368.0,872.0" stroke="blue" stroke-width="2" /><text alignment-baseline="middle" font-family="Tahoma" font-size="17.1" font-weight="bold" text-anchor="middle" x="400.5" y="862.5">RECIPE</text><polygon fill="none" points="974.0,864.0 1089.0,864.0 1089.0,882.0 974.0,882.0" stroke="blue" stroke-width="2" /><text alignment-baseline="middle" font-family="Tahoma" font-size="16.2" font-weight="bold" text-anchor="middle" x="1031.5" y="873.0">PARAMETERS</text><polygon fill="none" points="1156.0,864.0 1270.0,864.0 1270.0,882.0 1156.0,882.0" stroke="blue" stroke-width="2" /><text alignment-baseline="middle" font-family="Tahoma" font-size="16.2" font-weight="bold" text-anchor="middle" x="1213.0" y="873.0"> PARAMETERS</text><polygon fill="none" points="155.0,885.0 211.0,885.0 211.0,902.0 155.0,902.0" stroke="blue" stroke-width="2" /><text alignment-baseline="middle" font-family="Tahoma" font-size="15.3" font-weight="bold" text-anchor="middle" x="183.0" y="893.5">600 s</text><polygon fill="none" points="16.0,887.0 70.0,887.0 70.0,901.0 16.0,901.0" stroke="blue" stroke-width="2" /><text alignment-baseline="middle" font-family="Tahoma" font-size="12.6" font-weight="bold" text-anchor="middle" x="43.0" y="894.0">Actual</text><polygon fill="none" points="1390.0,889.0 1436.0,889.0 1436.0,906.0 1390.0,906.0" stroke="blue" stroke-width="2" /><text alignment-baseline="middle" font-family="Tahoma" font-size="15.3" font-weight="bold" text-anchor="middle" x="1413.0" y="897.5">HP01</text><polygon fill="none" points="329.0,953.0 472.0,954.0 471.0,974.0 329.0,972.0" stroke="blue" stroke-width="2" /><text alignment-baseline="middle" font-family="Tahoma" font-size="18.900000000000002" font-weight="bold" text-anchor="middle" x="400.5" y="963.5">UNLOAD SILOS</text><polygon fill="none" points="176.0,954.0 316.0,954.0 316.0,973.0 176.0,973.0" stroke="blue" stroke-width="2" /><text alignment-baseline="middle" font-family="Tahoma" font-size="17.1" font-weight="bold" text-anchor="middle" x="246.0" y="963.5">UNLOAD SILOS</text><polygon fill="none" points="483.0,954.0 624.0,954.0 624.0,972.0 483.0,972.0" stroke="blue" stroke-width="2" /><text alignment-baseline="middle" font-family="Tahoma" font-size="16.2" font-weight="bold" text-anchor="middle" x="553.5" y="963.0">UNLOAD SILOS</text><polygon fill="none" points="667.0,954.0 752.0,954.0 752.0,973.0 667.0,973.0" stroke="blue" stroke-width="2" /><text alignment-baseline="middle" font-family="Tahoma" font-size="17.1" font-weight="bold" text-anchor="middle" x="709.5" y="963.5">UNLOAD</text><polygon fill="none" points="32.0,965.0 150.0,965.0 150.0,985.0 32.0,985.0" stroke="blue" stroke-width="2" /><text alignment-baseline="middle" font-family="Tahoma" font-size="18.0" font-weight="bold" text-anchor="middle" x="91.0" y="975.0">LOAD SILOS</text><polygon fill="none" points="1790.0,965.0 1870.0,965.0 1870.0,986.0 1790.0,986.0" stroke="blue" stroke-width="2" /><text alignment-baseline="middle" font-family="Tahoma" font-size="18.900000000000002" font-weight="bold" text-anchor="middle" x="1830.0" y="975.5">SYSTEM</text><polygon fill="none" points="809.0,966.0 916.0,966.0 916.0,985.0 809.0,985.0" stroke="blue" stroke-width="2" /><text alignment-baseline="middle" font-family="Tahoma" font-size="17.1" font-weight="bold" text-anchor="middle" x="862.5" y="975.5">MIXER 100</text><polygon fill="none" points="966.0,966.0 1070.0,966.0 1070.0,986.0 966.0,986.0" stroke="blue" stroke-width="2" /><text alignment-baseline="middle" font-family="Tahoma" font-size="18.0" font-weight="bold" text-anchor="middle" x="1018.0" y="976.0">MIXER 200</text><polygon fill="none" points="1120.0,966.0 1225.0,966.0 1225.0,986.0 1120.0,986.0" stroke="blue" stroke-width="2" /><text alignment-baseline="middle" font-family="Tahoma" font-size="18.0" font-weight="bold" text-anchor="middle" x="1172.5" y="976.0">MIXER 300</text><polygon fill="none" points="1273.0,966.0 1379.0,966.0 1379.0,986.0 1273.0,986.0" stroke="blue" stroke-width="2" /><text alignment-baseline="middle" font-family="Tahoma" font-size="18.0" font-weight="bold" text-anchor="middle" x="1326.0" y="976.0">MIXER 400</text><polygon fill="none" points="1443.0,966.0 1518.0,966.0 1518.0,986.0 1443.0,986.0" stroke="blue" stroke-width="2" /><text alignment-baseline="middle" font-family="Tahoma" font-size="18.0" font-weight="bold" text-anchor="middle" x="1480.5" y="976.0">LIQUID</text><polygon fill="none" points="1641.0,966.0 1712.0,966.0 1712.0,985.0 1641.0,985.0" stroke="blue" stroke-width="2" /><text alignment-baseline="middle" font-family="Tahoma" font-size="17.1" font-weight="bold" text-anchor="middle" x="1676.5" y="975.5">ALARM</text><polygon fill="none" points="211.0,978.0 283.0,978.0 283.0,997.0 211.0,997.0" stroke="blue" stroke-width="2" /><text alignment-baseline="middle" font-family="Tahoma" font-size="17.1" font-weight="bold" text-anchor="middle" x="247.0" y="987.5">PVC - 1</text><polygon fill="none" points="366.0,978.0 438.0,978.0 438.0,997.0 366.0,997.0" stroke="blue" stroke-width="2" /><text alignment-baseline="middle" font-family="Tahoma" font-size="17.1" font-weight="bold" text-anchor="middle" x="402.0" y="987.5">PVC - 2</text><polygon fill="none" points="523.0,979.0 588.0,979.0 588.0,997.0 523.0,997.0" stroke="blue" stroke-width="2" /><text alignment-baseline="middle" font-family="Tahoma" font-size="16.2" font-weight="bold" text-anchor="middle" x="555.5" y="988.0">KRETA</text><polygon fill="none" points="686.0,979.0 732.0,979.0 732.0,998.0 686.0,998.0" stroke="yellow" stroke-width="2" /><text alignment-baseline="middle" font-family="Tahoma" font-size="17.1" font-weight="bold" text-anchor="middle" x="709.0" y="988.5">BAG</text><polygon fill="none" points="7.0,1042.0 71.0,1041.0 72.0,1055.0 8.0,1056.0" stroke="blue" stroke-width="2" /><text alignment-baseline="middle" font-family="Tahoma" font-size="11.700000000000001" font-weight="bold" text-anchor="middle" x="39.0" y="1048.5">Output</text><polygon fill="none" points="1899.0,1062.0 1916.0,1062.0 1916.0,1077.0 1899.0,1077.0" stroke="blue" stroke-width="2" /><text alignment-baseline="middle" font-family="Tahoma" font-size="13.5" font-weight="bold" text-anchor="middle" x="1907.5" y="1069.5">0</text><polygon fill="none" points="1603.0,1063.0 1678.0,1063.0 1678.0,1076.0 1603.0,1076.0" stroke="blue" stroke-width="2" /><text alignment-baseline="middle" font-family="Tahoma" font-size="11.700000000000001" font-weight="bold" text-anchor="middle" x="1640.5" y="1069.5">CAP NUM SCRL</text><polygon fill="none" points="1712.0,1063.0 1779.0,1063.0 1779.0,1077.0 1712.0,1077.0" stroke="blue" stroke-width="2" /><text alignment-baseline="middle" font-family="Tahoma" font-size="12.6" font-weight="bold" text-anchor="middle" x="1745.5" y="1070.0">1.5Gb(1.0Gb)</text><polygon fill="none" points="22.0,1064.0 675.0,1064.0 675.0,1078.0 22.0,1078.0" stroke="blue" stroke-width="2" /><text alignment-baseline="middle" font-family="Tahoma" font-size="12.6" font-weight="bold" text-anchor="middle" x="348.5" y="1071.0">26/11/2019 18:09:49 Driver : Communication error : station Default Station, error An existing connection was forcibly closed by the remole host.</text><polygon fill="none" points="1802.0,1064.0 1862.0,1063.0 1863.0,1077.0 1803.0,1079.0" stroke="blue" stroke-width="2" /><text alignment-baseline="middle" font-family="Tahoma" font-size="11.700000000000001" font-weight="bold" text-anchor="middle" x="1832.0" y="1070.5">Inglese</text></svg>