<?xml version="1.0" encoding="utf-8" ?>
<svg baseProfile="full" height="1080" version="1.1" width="1920" xmlns="http://www.w3.org/2000/svg" xmlns:ev="http://www.w3.org/2001/xml-events" xmlns:xlink="http://www.w3.org/1999/xlink"><defs /><polygon fill="none" points="273.0,370.0 364.0,370.0 364.0,387.0 273.0,387.0" stroke="red" stroke-width="2" /><text alignment-baseline="middle" font-family="Tahoma" font-size="15px" font-weight="bold" text-anchor="middle" x="318.5" y="378.5">BAG P2 P1</text><polygon fill="none" points="111.0,397.0 155.0,397.0 155.0,414.0 111.0,414.0" stroke="red" stroke-width="2" /><text alignment-baseline="middle" font-family="Tahoma" font-size="15px" font-weight="bold" text-anchor="middle" x="133.0" y="405.5">CB01</text><polygon fill="none" points="396.0,447.0 441.0,447.0 441.0,465.0 396.0,465.0" stroke="red" stroke-width="2" /><text alignment-baseline="middle" font-family="Tahoma" font-size="15px" font-weight="bold" text-anchor="middle" x="418.5" y="456.0">VF62</text><polygon fill="none" points="335.0,456.0 389.0,456.0 389.0,474.0 335.0,474.0" stroke="red" stroke-width="2" /><text alignment-baseline="middle" font-family="Tahoma" font-size="15px" font-weight="bold" text-anchor="middle" x="362.0" y="465.0">OSTEP</text><polygon fill="none" points="32.0,489.0 126.0,489.0 126.0,505.0 32.0,505.0" stroke="red" stroke-width="2" /><text alignment-baseline="middle" font-family="Tahoma" font-size="15px" font-weight="bold" text-anchor="middle" x="79.0" y="497.0">PVC Unload</text><polygon fill="none" points="158.0,497.0 180.0,497.0 180.0,515.0 158.0,515.0" stroke="red" stroke-width="2" /><text alignment-baseline="middle" font-family="Tahoma" font-size="15px" font-weight="bold" text-anchor="middle" x="169.0" y="506.0">1 1</text><polygon fill="none" points="45.0,507.0 112.0,507.0 112.0,522.0 45.0,522.0" stroke="red" stroke-width="2" /><text alignment-baseline="middle" font-family="Tahoma" font-size="15px" font-weight="bold" text-anchor="middle" x="78.5" y="514.5">Counter</text><polygon fill="none" points="226.0,528.0 272.0,528.0 272.0,545.0 226.0,545.0" stroke="red" stroke-width="2" /><text alignment-baseline="middle" font-family="Tahoma" font-size="15px" font-weight="bold" text-anchor="middle" x="249.0" y="536.5">VG01</text><polygon fill="none" points="395.0,528.0 439.0,528.0 439.0,545.0 395.0,545.0" stroke="red" stroke-width="2" /><text alignment-baseline="middle" font-family="Tahoma" font-size="15px" font-weight="bold" text-anchor="middle" x="417.0" y="536.5">VF95</text><polygon fill="none" points="26.0,542.0 133.0,542.0 133.0,559.0 26.0,559.0" stroke="red" stroke-width="2" /><text alignment-baseline="middle" font-family="Tahoma" font-size="15px" font-weight="bold" text-anchor="middle" x="79.5" y="550.5">COLOR BAGS</text><polygon fill="none" points="158.0,550.0 180.0,550.0 180.0,569.0 158.0,569.0" stroke="red" stroke-width="2" /><text alignment-baseline="middle" font-family="Tahoma" font-size="15px" font-weight="bold" text-anchor="middle" x="169.0" y="559.5">11</text><polygon fill="none" points="45.0,561.0 113.0,561.0 113.0,576.0 45.0,576.0" stroke="red" stroke-width="2" /><text alignment-baseline="middle" font-family="Tahoma" font-size="15px" font-weight="bold" text-anchor="middle" x="79.0" y="568.5">Counter</text><polygon fill="none" points="151.0,678.0 203.0,678.0 203.0,696.0 151.0,696.0" stroke="red" stroke-width="2" /><text alignment-baseline="middle" font-family="Tahoma" font-size="15px" font-weight="bold" text-anchor="middle" x="177.0" y="687.0">GP05</text><polygon fill="none" points="974.0,843.0 1094.0,843.0 1094.0,861.0 974.0,861.0" stroke="red" stroke-width="2" /><text alignment-baseline="middle" font-family="Tahoma" font-size="15px" font-weight="bold" text-anchor="middle" x="1034.0" y="852.0">COMPONENTS</text><polygon fill="none" points="1182.0,843.0 1249.0,843.0 1249.0,861.0 1182.0,861.0" stroke="red" stroke-width="2" /><text alignment-baseline="middle" font-family="Tahoma" font-size="15px" font-weight="bold" text-anchor="middle" x="1215.5" y="852.0">SCALES</text><polygon fill="none" points="977.0,864.0 1090.0,865.0 1089.0,882.0 977.0,880.0" stroke="red" stroke-width="2" /><text alignment-baseline="middle" font-family="Tahoma" font-size="15px" font-weight="bold" text-anchor="middle" x="1033.5" y="873.0">PARAMETERS</text><polygon fill="none" points="1159.0,865.0 1272.0,864.0 1273.0,881.0 1159.0,881.0" stroke="red" stroke-width="2" /><text alignment-baseline="middle" font-family="Tahoma" font-size="15px" font-weight="bold" text-anchor="middle" x="1215.5" y="873.0">PARAMETERS</text><polygon fill="none" points="668.0,954.0 751.0,954.0 751.0,973.0 668.0,973.0" stroke="red" stroke-width="2" /><text alignment-baseline="middle" font-family="Tahoma" font-size="15px" font-weight="bold" text-anchor="middle" x="709.5" y="963.5">UNLOAD</text><polygon fill="none" points="811.0,965.0 917.0,965.0 917.0,985.0 811.0,985.0" stroke="red" stroke-width="2" /><text alignment-baseline="middle" font-family="Tahoma" font-size="15px" font-weight="bold" text-anchor="middle" x="864.0" y="975.0">MIXER 100</text><polygon fill="none" points="966.0,965.0 1072.0,965.0 1072.0,986.0 966.0,986.0" stroke="red" stroke-width="2" /><text alignment-baseline="middle" font-family="Tahoma" font-size="15px" font-weight="bold" text-anchor="middle" x="1019.0" y="975.5">MIXER 200</text><polygon fill="none" points="1120.0,965.0 1227.0,965.0 1227.0,986.0 1120.0,986.0" stroke="red" stroke-width="2" /><text alignment-baseline="middle" font-family="Tahoma" font-size="15px" font-weight="bold" text-anchor="middle" x="1173.5" y="975.5">MIXER 300</text><polygon fill="none" points="688.0,978.0 732.0,978.0 732.0,997.0 688.0,997.0" stroke="red" stroke-width="2" /><text alignment-baseline="middle" font-family="Tahoma" font-size="15px" font-weight="bold" text-anchor="middle" x="710.0" y="987.5">BAG</text><polygon fill="none" points="640.0,1065.0 674.0,1065.0 674.0,1075.0 640.0,1075.0" stroke="red" stroke-width="2" /><text alignment-baseline="middle" font-family="Tahoma" font-size="15px" font-weight="bold" text-anchor="middle" x="657.0" y="1070.0">e host.</text><polygon fill="none" points="1512.0,100.0 1563.0,100.0 1563.0,119.0 1512.0,119.0" stroke="red" stroke-width="2" /><text alignment-baseline="middle" font-family="Tahoma" font-size="15px" font-weight="bold" text-anchor="middle" x="1537.5" y="109.5">GP03</text><polygon fill="none" points="1344.0,153.0 1396.0,153.0 1396.0,173.0 1344.0,173.0" stroke="red" stroke-width="2" /><text alignment-baseline="middle" font-family="Tahoma" font-size="15px" font-weight="bold" text-anchor="middle" x="1370.0" y="163.0">VR03</text><polygon fill="none" points="1617.0,165.0 1661.0,165.0 1661.0,183.0 1617.0,183.0" stroke="red" stroke-width="2" /><text alignment-baseline="middle" font-family="Tahoma" font-size="15px" font-weight="bold" text-anchor="middle" x="1639.0" y="174.0">VF90</text><polygon fill="none" points="1784.0,286.0 1851.0,287.0 1850.0,303.0 1784.0,302.0" stroke="red" stroke-width="2" /><text alignment-baseline="middle" font-family="Tahoma" font-size="15px" font-weight="bold" text-anchor="middle" x="1817.5" y="294.5">LIQUID</text><polygon fill="none" points="1567.0,287.0 1633.0,287.0 1633.0,303.0 1567.0,303.0" stroke="red" stroke-width="2" /><text alignment-baseline="middle" font-family="Tahoma" font-size="15px" font-weight="bold" text-anchor="middle" x="1600.0" y="295.0">LIQUID</text><polygon fill="none" points="1545.0,306.0 1654.0,306.0 1654.0,320.0 1545.0,320.0" stroke="red" stroke-width="2" /><text alignment-baseline="middle" font-family="Tahoma" font-size="15px" font-weight="bold" text-anchor="middle" x="1599.5" y="313.0">PLASTICIZER</text><polygon fill="none" points="1767.0,306.0 1867.0,306.0 1867.0,320.0 1767.0,320.0" stroke="red" stroke-width="2" /><text alignment-baseline="middle" font-family="Tahoma" font-size="15px" font-weight="bold" text-anchor="middle" x="1817.0" y="313.0">STABILIZER</text><polygon fill="none" points="1280.0,315.0 1398.0,315.0 1398.0,334.0 1280.0,334.0" stroke="red" stroke-width="2" /><text alignment-baseline="middle" font-family="Tahoma" font-size="15px" font-weight="bold" text-anchor="middle" x="1339.0" y="324.5"> VALVE TIMES</text><polygon fill="none" points="1729.0,330.0 1903.0,332.0 1902.0,353.0 1729.0,352.0" stroke="red" stroke-width="2" /><text alignment-baseline="middle" font-family="Tahoma" font-size="15px" font-weight="bold" text-anchor="middle" x="1816.0" y="341.5">IBC4 IBC3 IBC1 IBC2</text><polygon fill="none" points="1503.0,331.0 1695.0,330.0 1696.0,344.0 1504.0,346.0" stroke="red" stroke-width="2" /><text alignment-baseline="middle" font-family="Tahoma" font-size="15px" font-weight="bold" text-anchor="middle" x="1599.0" y="337.5">S3 TANK S4 S2 S1</text><polygon fill="none" points="198.0,58.0 251.0,58.0 251.0,75.0 198.0,75.0" stroke="red" stroke-width="2" /><text alignment-baseline="middle" font-family="Tahoma" font-size="15px" font-weight="bold" text-anchor="middle" x="224.5" y="66.5">SILOS</text><polygon fill="none" points="269.0,59.0 377.0,59.0 377.0,74.0 269.0,74.0" stroke="yellow" stroke-width="2" /><text alignment-baseline="middle" font-family="Tahoma" font-size="15px" font-weight="bold" text-anchor="middle" x="323.0" y="66.5">UNLOAD BAG</text><polygon fill="none" points="206.0,77.0 244.0,77.0 244.0,92.0 206.0,92.0" stroke="red" stroke-width="2" /><text alignment-baseline="middle" font-family="Tahoma" font-size="15px" font-weight="bold" text-anchor="middle" x="225.0" y="84.5">PVC</text><polygon fill="none" points="296.0,77.0 347.0,77.0 347.0,92.0 296.0,92.0" stroke="yellow" stroke-width="2" /><text alignment-baseline="middle" font-family="Tahoma" font-size="15px" font-weight="bold" text-anchor="middle" x="321.5" y="84.5">WHO3</text><polygon fill="none" points="431.0,88.0 495.0,88.0 495.0,105.0 431.0,105.0" stroke="red" stroke-width="2" /><text alignment-baseline="middle" font-family="Tahoma" font-size="15px" font-weight="bold" text-anchor="middle" x="463.0" y="96.5">MANUAL</text><polygon fill="none" points="432.0,124.0 491.0,124.0 491.0,147.0 432.0,147.0" stroke="red" stroke-width="2" /><text alignment-baseline="middle" font-family="Tahoma" font-size="15px" font-weight="bold" text-anchor="middle" x="461.5" y="135.5">JF03</text><polygon fill="none" points="430.0,154.0 494.0,154.0 494.0,172.0 430.0,172.0" stroke="yellow" stroke-width="2" /><text alignment-baseline="middle" font-family="Tahoma" font-size="15px" font-weight="bold" text-anchor="middle" x="462.0" y="163.0">-1.4 kg</text><polygon fill="none" points="160.0,167.0 204.0,167.0 204.0,185.0 160.0,185.0" stroke="yellow" stroke-width="2" /><text alignment-baseline="middle" font-family="Tahoma" font-size="15px" font-weight="bold" text-anchor="middle" x="182.0" y="176.0">VS51</text><polygon fill="none" points="348.0,167.0 394.0,167.0 394.0,185.0 348.0,185.0" stroke="blue" stroke-width="2" /><text alignment-baseline="middle" font-family="Tahoma" font-size="15px" font-weight="bold" text-anchor="middle" x="371.0" y="176.0">VS52</text><polygon fill="none" points="371.0,207.0 413.0,207.0 413.0,226.0 371.0,226.0" stroke="yellow" stroke-width="2" /><text alignment-baseline="middle" font-family="Tahoma" font-size="15px" font-weight="bold" text-anchor="middle" x="392.0" y="216.5">SLO3</text><polygon fill="none" points="525.0,221.0 569.0,221.0 569.0,239.0 525.0,239.0" stroke="red" stroke-width="2" /><text alignment-baseline="middle" font-family="Tahoma" font-size="15px" font-weight="bold" text-anchor="middle" x="547.0" y="230.0">VT01</text><polygon fill="none" points="186.0,285.0 229.0,285.0 229.0,303.0 186.0,303.0" stroke="red" stroke-width="2" /><text alignment-baseline="middle" font-family="Tahoma" font-size="15px" font-weight="bold" text-anchor="middle" x="207.5" y="294.0">VF61</text><polygon fill="none" points="497.0,315.0 542.0,315.0 542.0,333.0 497.0,333.0" stroke="red" stroke-width="2" /><text alignment-baseline="middle" font-family="Tahoma" font-size="15px" font-weight="bold" text-anchor="middle" x="519.5" y="324.0">PH07</text><polygon fill="none" points="386.0,329.0 441.0,329.0 441.0,347.0 386.0,347.0" stroke="red" stroke-width="2" /><text alignment-baseline="middle" font-family="Tahoma" font-size="15px" font-weight="bold" text-anchor="middle" x="413.5" y="338.0">VBF03</text><polygon fill="none" points="1758.0,720.0 1799.0,720.0 1799.0,730.0 1758.0,730.0" stroke="red" stroke-width="2" /><text alignment-baseline="middle" font-family="Tahoma" font-size="15px" font-weight="bold" text-anchor="middle" x="1778.5" y="725.0">VS74</text><polygon fill="none" points="1363.0,729.0 1411.0,729.0 1411.0,745.0 1363.0,745.0" stroke="red" stroke-width="2" /><text alignment-baseline="middle" font-family="Tahoma" font-size="15px" font-weight="bold" text-anchor="middle" x="1387.0" y="737.0">HP02</text><polygon fill="none" points="1666.0,776.0 1745.0,776.0 1745.0,794.0 1666.0,794.0" stroke="red" stroke-width="2" /><text alignment-baseline="middle" font-family="Tahoma" font-size="15px" font-weight="bold" text-anchor="middle" x="1705.5" y="785.0">HEATING</text><polygon fill="none" points="1574.0,796.0 1619.0,796.0 1619.0,813.0 1574.0,813.0" stroke="red" stroke-width="2" /><text alignment-baseline="middle" font-family="Tahoma" font-size="15px" font-weight="bold" text-anchor="middle" x="1596.5" y="804.5">HT01</text><polygon fill="none" points="1662.0,798.0 1750.0,797.0 1751.0,814.0 1663.0,816.0" stroke="red" stroke-width="2" /><text alignment-baseline="middle" font-family="Tahoma" font-size="15px" font-weight="bold" text-anchor="middle" x="1706.0" y="806.0">SETTINGS</text><polygon fill="none" points="1393.0,890.0 1437.0,890.0 1437.0,906.0 1393.0,906.0" stroke="red" stroke-width="2" /><text alignment-baseline="middle" font-family="Tahoma" font-size="15px" font-weight="bold" text-anchor="middle" x="1415.0" y="898.0">HP01</text><polygon fill="none" points="1280.0,965.0 1380.0,965.0 1380.0,986.0 1280.0,986.0" stroke="red" stroke-width="2" /><text alignment-baseline="middle" font-family="Tahoma" font-size="15px" font-weight="bold" text-anchor="middle" x="1330.0" y="975.5">MIXER 400</text><polygon fill="none" points="1444.0,965.0 1517.0,965.0 1517.0,987.0 1444.0,987.0" stroke="red" stroke-width="2" /><text alignment-baseline="middle" font-family="Tahoma" font-size="15px" font-weight="bold" text-anchor="middle" x="1480.5" y="976.0">LIQUID</text><polygon fill="none" points="1790.0,965.0 1870.0,965.0 1870.0,986.0 1790.0,986.0" stroke="red" stroke-width="2" /><text alignment-baseline="middle" font-family="Tahoma" font-size="15px" font-weight="bold" text-anchor="middle" x="1830.0" y="975.5">SYSTEM</text><polygon fill="none" points="1644.0,966.0 1711.0,966.0 1711.0,986.0 1644.0,986.0" stroke="red" stroke-width="2" /><text alignment-baseline="middle" font-family="Tahoma" font-size="15px" font-weight="bold" text-anchor="middle" x="1677.5" y="976.0">ALARM</text><polygon fill="none" points="1626.0,1065.0 1680.0,1065.0 1680.0,1075.0 1626.0,1075.0" stroke="red" stroke-width="2" /><text alignment-baseline="middle" font-family="Tahoma" font-size="15px" font-weight="bold" text-anchor="middle" x="1653.0" y="1070.0">NUM SCRL</text><polygon fill="none" points="1713.0,1065.0 1773.0,1065.0 1773.0,1075.0 1713.0,1075.0" stroke="red" stroke-width="2" /><text alignment-baseline="middle" font-family="Tahoma" font-size="15px" font-weight="bold" text-anchor="middle" x="1743.0" y="1070.0">1.5Gb(1.0Gb)</text><polygon fill="none" points="1827.0,1066.0 1862.0,1065.0 1863.0,1074.0 1828.0,1075.0" stroke="red" stroke-width="2" /><text alignment-baseline="middle" font-family="Tahoma" font-size="15px" font-weight="bold" text-anchor="middle" x="1844.5" y="1070.0">Inglese</text><polygon fill="none" points="896.0,360.0 958.0,360.0 958.0,372.0 896.0,372.0" stroke="red" stroke-width="2" /><text alignment-baseline="middle" font-family="Tahoma" font-size="15px" font-weight="bold" text-anchor="middle" x="927.0" y="366.0">MANUAL</text><polygon fill="none" points="840.0,394.0 1001.0,395.0 1001.0,416.0 839.0,415.0" stroke="red" stroke-width="2" /><text alignment-baseline="middle" font-family="Tahoma" font-size="15px" font-weight="bold" text-anchor="middle" x="920.5" y="405.0">WH06 - TITAN</text><polygon fill="none" points="920.0,424.0 977.0,424.0 977.0,441.0 920.0,441.0" stroke="red" stroke-width="2" /><text alignment-baseline="middle" font-family="Tahoma" font-size="15px" font-weight="bold" text-anchor="middle" x="948.5" y="432.5">3.1 kg</text><polygon fill="none" points="1078.0,427.0 1125.0,427.0 1125.0,445.0 1078.0,445.0" stroke="red" stroke-width="2" /><text alignment-baseline="middle" font-family="Tahoma" font-size="15px" font-weight="bold" text-anchor="middle" x="1101.5" y="436.0">PH12</text><polygon fill="none" points="732.0,447.0 777.0,447.0 777.0,464.0 732.0,464.0" stroke="red" stroke-width="2" /><text alignment-baseline="middle" font-family="Tahoma" font-size="15px" font-weight="bold" text-anchor="middle" x="754.5" y="455.5">VF63</text><polygon fill="none" points="934.0,490.0 979.0,490.0 979.0,507.0 934.0,507.0" stroke="red" stroke-width="2" /><text alignment-baseline="middle" font-family="Tahoma" font-size="15px" font-weight="bold" text-anchor="middle" x="956.5" y="498.5">CT40</text><polygon fill="none" points="938.0,512.0 1057.0,512.0 1057.0,536.0 938.0,536.0" stroke="red" stroke-width="2" /><text alignment-baseline="middle" font-family="Tahoma" font-size="15px" font-weight="bold" text-anchor="middle" x="997.5" y="524.0">www</text><polygon fill="none" points="732.0,528.0 778.0,528.0 778.0,545.0 732.0,545.0" stroke="red" stroke-width="2" /><text alignment-baseline="middle" font-family="Tahoma" font-size="15px" font-weight="bold" text-anchor="middle" x="755.0" y="536.5">VF96</text><polygon fill="none" points="878.0,599.0 923.0,599.0 923.0,616.0 878.0,616.0" stroke="red" stroke-width="2" /><text alignment-baseline="middle" font-family="Tahoma" font-size="15px" font-weight="bold" text-anchor="middle" x="900.5" y="607.5">VF98</text><polygon fill="none" points="1195.0,600.0 1236.0,600.0 1236.0,618.0 1195.0,618.0" stroke="red" stroke-width="2" /><text alignment-baseline="middle" font-family="Tahoma" font-size="15px" font-weight="bold" text-anchor="middle" x="1215.5" y="609.0">VS71</text><polygon fill="none" points="1008.0,628.0 1083.0,628.0 1083.0,649.0 1008.0,649.0" stroke="red" stroke-width="2" /><text alignment-baseline="middle" font-family="Tahoma" font-size="15px" font-weight="bold" text-anchor="middle" x="1045.5" y="638.5">SPEED</text><polygon fill="none" points="952.0,685.0 1001.0,685.0 1001.0,704.0 952.0,704.0" stroke="red" stroke-width="2" /><text alignment-baseline="middle" font-family="Tahoma" font-size="15px" font-weight="bold" text-anchor="middle" x="976.5" y="694.5">CT40</text><polygon fill="none" points="1021.0,685.0 1060.0,685.0 1060.0,705.0 1021.0,705.0" stroke="red" stroke-width="2" /><text alignment-baseline="middle" font-family="Tahoma" font-size="15px" font-weight="bold" text-anchor="middle" x="1040.5" y="695.0">100</text><polygon fill="none" points="1081.0,686.0 1109.0,686.0 1109.0,703.0 1081.0,703.0" stroke="red" stroke-width="2" /><text alignment-baseline="middle" font-family="Tahoma" font-size="15px" font-weight="bold" text-anchor="middle" x="1095.0" y="694.5">13</text><polygon fill="none" points="1124.0,686.0 1148.0,686.0 1148.0,704.0 1124.0,704.0" stroke="red" stroke-width="2" /><text alignment-baseline="middle" font-family="Tahoma" font-size="15px" font-weight="bold" text-anchor="middle" x="1136.0" y="695.0">0/o</text><polygon fill="none" points="1728.0,392.0 1773.0,392.0 1773.0,410.0 1728.0,410.0" stroke="red" stroke-width="2" /><text alignment-baseline="middle" font-family="Tahoma" font-size="15px" font-weight="bold" text-anchor="middle" x="1750.5" y="401.0">VS67</text><polygon fill="none" points="1490.0,393.0 1537.0,393.0 1537.0,410.0 1490.0,410.0" stroke="red" stroke-width="2" /><text alignment-baseline="middle" font-family="Tahoma" font-size="15px" font-weight="bold" text-anchor="middle" x="1513.5" y="401.5">VS66</text><polygon fill="none" points="1574.0,393.0 1620.0,393.0 1620.0,410.0 1574.0,410.0" stroke="red" stroke-width="2" /><text alignment-baseline="middle" font-family="Tahoma" font-size="15px" font-weight="bold" text-anchor="middle" x="1597.0" y="401.5">VS64</text><polygon fill="none" points="1659.0,393.0 1712.0,393.0 1712.0,410.0 1659.0,410.0" stroke="red" stroke-width="2" /><text alignment-baseline="middle" font-family="Tahoma" font-size="15px" font-weight="bold" text-anchor="middle" x="1685.5" y="401.5">VS1.2</text><polygon fill="none" points="1812.0,393.0 1857.0,393.0 1857.0,410.0 1812.0,410.0" stroke="red" stroke-width="2" /><text alignment-baseline="middle" font-family="Tahoma" font-size="15px" font-weight="bold" text-anchor="middle" x="1834.5" y="401.5">VS69</text><polygon fill="none" points="1531.0,460.0 1578.0,459.0 1579.0,476.0 1532.0,477.0" stroke="red" stroke-width="2" /><text alignment-baseline="middle" font-family="Tahoma" font-size="15px" font-weight="bold" text-anchor="middle" x="1554.5" y="468.0">VS65</text><polygon fill="none" points="1617.0,460.0 1661.0,460.0 1661.0,477.0 1617.0,477.0" stroke="red" stroke-width="2" /><text alignment-baseline="middle" font-family="Tahoma" font-size="15px" font-weight="bold" text-anchor="middle" x="1639.0" y="468.5">VS63</text><polygon fill="none" points="1771.0,460.0 1816.0,460.0 1816.0,477.0 1771.0,477.0" stroke="red" stroke-width="2" /><text alignment-baseline="middle" font-family="Tahoma" font-size="15px" font-weight="bold" text-anchor="middle" x="1793.5" y="468.5">VS68</text><polygon fill="none" points="1854.0,460.0 1901.0,460.0 1901.0,476.0 1854.0,476.0" stroke="red" stroke-width="2" /><text alignment-baseline="middle" font-family="Tahoma" font-size="15px" font-weight="bold" text-anchor="middle" x="1877.5" y="468.0">VS70</text><polygon fill="none" points="1351.0,487.0 1416.0,487.0 1416.0,504.0 1351.0,504.0" stroke="red" stroke-width="2" /><text alignment-baseline="middle" font-family="Tahoma" font-size="15px" font-weight="bold" text-anchor="middle" x="1383.5" y="495.5">V3VS01</text><polygon fill="none" points="1572.0,558.0 1628.0,558.0 1628.0,575.0 1572.0,575.0" stroke="red" stroke-width="2" /><text alignment-baseline="middle" font-family="Tahoma" font-size="15px" font-weight="bold" text-anchor="middle" x="1600.0" y="566.5">0.1 kg</text><polygon fill="none" points="1786.0,558.0 1850.0,559.0 1849.0,575.0 1785.0,574.0" stroke="red" stroke-width="2" /><text alignment-baseline="middle" font-family="Tahoma" font-size="15px" font-weight="bold" text-anchor="middle" x="1818.0" y="566.5">-0.0 kg</text><polygon fill="none" points="1569.0,598.0 1632.0,598.0 1632.0,615.0 1569.0,615.0" stroke="red" stroke-width="2" /><text alignment-baseline="middle" font-family="Tahoma" font-size="15px" font-weight="bold" text-anchor="middle" x="1600.5" y="606.5">MANUAL</text><polygon fill="none" points="1786.0,598.0 1850.0,598.0 1850.0,615.0 1786.0,615.0" stroke="red" stroke-width="2" /><text alignment-baseline="middle" font-family="Tahoma" font-size="15px" font-weight="bold" text-anchor="middle" x="1818.0" y="606.5">MANUAL</text><polygon fill="none" points="1617.0,688.0 1661.0,688.0 1661.0,705.0 1617.0,705.0" stroke="red" stroke-width="2" /><text alignment-baseline="middle" font-family="Tahoma" font-size="15px" font-weight="bold" text-anchor="middle" x="1639.0" y="696.5">VS73</text><polygon fill="none" points="1476.0,707.0 1543.0,707.0 1543.0,719.0 1476.0,719.0" stroke="red" stroke-width="2" /><text alignment-baseline="middle" font-family="Tahoma" font-size="15px" font-weight="bold" text-anchor="middle" x="1509.5" y="713.0">32.7 °C</text><polygon fill="none" points="1758.0,717.0 1797.0,717.0 1797.0,719.0 1758.0,719.0" stroke="red" stroke-width="2" /><text alignment-baseline="middle" font-family="Tahoma" font-size="15px" font-weight="bold" text-anchor="middle" x="1777.5" y="718.0">. . . . . . . . . . .</text><polygon fill="none" points="348.0,733.0 397.0,733.0 397.0,749.0 348.0,749.0" stroke="red" stroke-width="2" /><text alignment-baseline="middle" font-family="Tahoma" font-size="15px" font-weight="bold" text-anchor="middle" x="372.5" y="741.0">VR05</text><polygon fill="none" points="89.0,745.0 134.0,745.0 134.0,757.0 89.0,757.0" stroke="red" stroke-width="2" /><text alignment-baseline="middle" font-family="Tahoma" font-size="15px" font-weight="bold" text-anchor="middle" x="111.5" y="751.0">VF92</text><polygon fill="none" points="158.0,846.0 209.0,846.0 209.0,861.0 158.0,861.0" stroke="red" stroke-width="2" /><text alignment-baseline="middle" font-family="Tahoma" font-size="15px" font-weight="bold" text-anchor="middle" x="183.5" y="853.5">600 s</text><polygon fill="none" points="13.0,847.0 101.0,847.0 101.0,861.0 13.0,861.0" stroke="red" stroke-width="2" /><text alignment-baseline="middle" font-family="Tahoma" font-size="15px" font-weight="bold" text-anchor="middle" x="57.0" y="854.0">Delay Stop</text><polygon fill="none" points="371.0,854.0 433.0,854.0 433.0,870.0 371.0,870.0" stroke="red" stroke-width="2" /><text alignment-baseline="middle" font-family="Tahoma" font-size="15px" font-weight="bold" text-anchor="middle" x="402.0" y="862.0">RECIPE</text><polygon fill="none" points="158.0,886.0 209.0,886.0 209.0,901.0 158.0,901.0" stroke="red" stroke-width="2" /><text alignment-baseline="middle" font-family="Tahoma" font-size="15px" font-weight="bold" text-anchor="middle" x="183.5" y="893.5">600 s</text><polygon fill="none" points="16.0,887.0 68.0,887.0 68.0,900.0 16.0,900.0" stroke="red" stroke-width="2" /><text alignment-baseline="middle" font-family="Tahoma" font-size="15px" font-weight="bold" text-anchor="middle" x="42.0" y="893.5">Actual</text><polygon fill="none" points="177.0,955.0 316.0,955.0 316.0,973.0 177.0,973.0" stroke="red" stroke-width="2" /><text alignment-baseline="middle" font-family="Tahoma" font-size="15px" font-weight="bold" text-anchor="middle" x="246.5" y="964.0">UNLOAD SILOS</text><polygon fill="none" points="332.0,955.0 470.0,955.0 470.0,973.0 332.0,973.0" stroke="red" stroke-width="2" /><text alignment-baseline="middle" font-family="Tahoma" font-size="15px" font-weight="bold" text-anchor="middle" x="401.0" y="964.0">UNLOAD SILOS</text><polygon fill="none" points="486.0,955.0 626.0,955.0 626.0,973.0 486.0,973.0" stroke="red" stroke-width="2" /><text alignment-baseline="middle" font-family="Tahoma" font-size="15px" font-weight="bold" text-anchor="middle" x="556.0" y="964.0">UNLOAD SILOS</text><polygon fill="none" points="34.0,966.0 152.0,967.0 152.0,986.0 34.0,985.0" stroke="red" stroke-width="2" /><text alignment-baseline="middle" font-family="Tahoma" font-size="15px" font-weight="bold" text-anchor="middle" x="93.0" y="976.0">LOAD SILOS</text><polygon fill="none" points="212.0,978.0 281.0,978.0 281.0,995.0 212.0,995.0" stroke="red" stroke-width="2" /><text alignment-baseline="middle" font-family="Tahoma" font-size="15px" font-weight="bold" text-anchor="middle" x="246.5" y="986.5">PVC - 1</text><polygon fill="none" points="367.0,978.0 437.0,978.0 437.0,996.0 367.0,996.0" stroke="red" stroke-width="2" /><text alignment-baseline="middle" font-family="Tahoma" font-size="15px" font-weight="bold" text-anchor="middle" x="402.0" y="987.0">PVC - 2</text><polygon fill="none" points="525.0,979.0 586.0,979.0 586.0,995.0 525.0,995.0" stroke="red" stroke-width="2" /><text alignment-baseline="middle" font-family="Tahoma" font-size="15px" font-weight="bold" text-anchor="middle" x="555.5" y="987.0">KRETA</text><polygon fill="none" points="35.0,1043.0 70.0,1043.0 70.0,1053.0 35.0,1053.0" stroke="red" stroke-width="2" /><text alignment-baseline="middle" font-family="Tahoma" font-size="15px" font-weight="bold" text-anchor="middle" x="52.5" y="1048.0">Output</text><polygon fill="none" points="24.0,1065.0 639.0,1066.0 639.0,1076.0 24.0,1075.0" stroke="red" stroke-width="2" /><text alignment-baseline="middle" font-family="Tahoma" font-size="15px" font-weight="bold" text-anchor="middle" x="331.5" y="1070.5">26/11/2019 18:09:49 Driver : Communication error : station Default Station, error An existing connection was forcibly closed by the remo</text><polygon fill="none" points="1017.0,45.0 1061.0,45.0 1061.0,60.0 1017.0,60.0" stroke="red" stroke-width="2" /><text alignment-baseline="middle" font-family="Tahoma" font-size="15px" font-weight="bold" text-anchor="middle" x="1039.0" y="52.5">EBO3</text><polygon fill="none" points="640.0,59.0 694.0,59.0 694.0,74.0 640.0,74.0" stroke="red" stroke-width="2" /><text alignment-baseline="middle" font-family="Tahoma" font-size="15px" font-weight="bold" text-anchor="middle" x="667.0" y="66.5">SILOS</text><polygon fill="none" points="1013.0,63.0 1066.0,63.0 1066.0,78.0 1013.0,78.0" stroke="red" stroke-width="2" /><text alignment-baseline="middle" font-family="Tahoma" font-size="15px" font-weight="bold" text-anchor="middle" x="1039.5" y="70.5">TUTAN</text><polygon fill="none" points="1122.0,71.0 1179.0,71.0 1179.0,93.0 1122.0,93.0" stroke="red" stroke-width="2" /><text alignment-baseline="middle" font-family="Tahoma" font-size="15px" font-weight="bold" text-anchor="middle" x="1150.5" y="82.0">JF05</text><polygon fill="none" points="640.0,78.0 694.0,78.0 694.0,91.0 640.0,91.0" stroke="red" stroke-width="2" /><text alignment-baseline="middle" font-family="Tahoma" font-size="15px" font-weight="bold" text-anchor="middle" x="667.0" y="84.5">KRETA</text><polygon fill="none" points="768.0,88.0 831.0,88.0 831.0,104.0 768.0,104.0" stroke="red" stroke-width="2" /><text alignment-baseline="middle" font-family="Tahoma" font-size="15px" font-weight="bold" text-anchor="middle" x="799.5" y="96.0">MANUAL</text><polygon fill="none" points="1059.0,114.0 1102.0,114.0 1102.0,132.0 1059.0,132.0" stroke="red" stroke-width="2" /><text alignment-baseline="middle" font-family="Tahoma" font-size="15px" font-weight="bold" text-anchor="middle" x="1080.5" y="123.0">SLOS</text><polygon fill="none" points="770.0,125.0 828.0,125.0 828.0,146.0 770.0,146.0" stroke="red" stroke-width="2" /><text alignment-baseline="middle" font-family="Tahoma" font-size="15px" font-weight="bold" text-anchor="middle" x="799.0" y="135.5">JF04</text><polygon fill="none" points="1213.0,127.0 1258.0,127.0 1258.0,144.0 1213.0,144.0" stroke="yellow" stroke-width="2" /><text alignment-baseline="middle" font-family="Tahoma" font-size="15px" font-weight="bold" text-anchor="middle" x="1235.5" y="135.5">VT03</text><polygon fill="none" points="770.0,155.0 828.0,155.0 828.0,172.0 770.0,172.0" stroke="red" stroke-width="2" /><text alignment-baseline="middle" font-family="Tahoma" font-size="15px" font-weight="bold" text-anchor="middle" x="799.0" y="163.5">0.9 kg</text><polygon fill="none" points="687.0,167.0 731.0,167.0 731.0,184.0 687.0,184.0" stroke="red" stroke-width="2" /><text alignment-baseline="middle" font-family="Tahoma" font-size="15px" font-weight="bold" text-anchor="middle" x="709.0" y="175.5">VS53</text><polygon fill="none" points="708.0,208.0 750.0,208.0 750.0,225.0 708.0,225.0" stroke="red" stroke-width="2" /><text alignment-baseline="middle" font-family="Tahoma" font-size="15px" font-weight="bold" text-anchor="middle" x="729.0" y="216.5">SLO4</text><polygon fill="none" points="861.0,221.0 906.0,221.0 906.0,239.0 861.0,239.0" stroke="red" stroke-width="2" /><text alignment-baseline="middle" font-family="Tahoma" font-size="15px" font-weight="bold" text-anchor="middle" x="883.5" y="230.0">VT02</text><polygon fill="none" points="1012.0,259.0 1065.0,259.0 1065.0,275.0 1012.0,275.0" stroke="red" stroke-width="2" /><text alignment-baseline="middle" font-family="Tahoma" font-size="15px" font-weight="bold" text-anchor="middle" x="1038.5" y="267.0">FBE11</text><polygon fill="none" points="640.0,294.0 678.0,294.0 678.0,309.0 640.0,309.0" stroke="red" stroke-width="2" /><text alignment-baseline="middle" font-family="Tahoma" font-size="15px" font-weight="bold" text-anchor="middle" x="659.0" y="301.5">VF64</text><polygon fill="none" points="1155.0,300.0 1198.0,300.0 1198.0,317.0 1155.0,317.0" stroke="yellow" stroke-width="2" /><text alignment-baseline="middle" font-family="Tahoma" font-size="15px" font-weight="bold" text-anchor="middle" x="1176.5" y="308.5">VF65</text><polygon fill="none" points="833.0,315.0 879.0,315.0 879.0,333.0 833.0,333.0" stroke="red" stroke-width="2" /><text alignment-baseline="middle" font-family="Tahoma" font-size="15px" font-weight="bold" text-anchor="middle" x="856.0" y="324.0">PH08</text><polygon fill="none" points="723.0,330.0 777.0,330.0 777.0,345.0 723.0,345.0" stroke="red" stroke-width="2" /><text alignment-baseline="middle" font-family="Tahoma" font-size="15px" font-weight="bold" text-anchor="middle" x="750.0" y="337.5">VBF04</text><polygon fill="none" points="1011.0,330.0 1055.0,330.0 1055.0,345.0 1011.0,345.0" stroke="red" stroke-width="2" /><text alignment-baseline="middle" font-family="Tahoma" font-size="15px" font-weight="bold" text-anchor="middle" x="1033.0" y="337.5">CT35</text></svg>