<?xml version="1.0" encoding="utf-8" ?>
<svg baseProfile="full" height="1080" version="1.1" width="1920" xmlns="http://www.w3.org/2000/svg" xmlns:ev="http://www.w3.org/2001/xml-events" xmlns:xlink="http://www.w3.org/1999/xlink"><defs /><polygon fill="none" points="641.0,58.0 695.0,58.0 695.0,74.0 641.0,74.0" stroke="blue" stroke-width="2" /><text alignment-baseline="middle" font-family="Tahoma" font-size="15px" font-weight="bold" text-anchor="middle" x="668.0" y="66.0">SILOS</text><polygon fill="none" points="199.0,59.0 252.0,59.0 252.0,74.0 199.0,74.0" stroke="blue" stroke-width="2" /><text alignment-baseline="middle" font-family="Tahoma" font-size="15px" font-weight="bold" text-anchor="middle" x="225.5" y="66.5">SILOS</text><polygon fill="none" points="269.0,59.0 378.0,59.0 378.0,74.0 269.0,74.0" stroke="blue" stroke-width="2" /><text alignment-baseline="middle" font-family="Tahoma" font-size="15px" font-weight="bold" text-anchor="middle" x="323.5" y="66.5">UNLOAD BAG</text><polygon fill="none" points="206.0,77.0 244.0,77.0 244.0,92.0 206.0,92.0" stroke="blue" stroke-width="2" /><text alignment-baseline="middle" font-family="Tahoma" font-size="15px" font-weight="bold" text-anchor="middle" x="225.0" y="84.5">PVC</text><polygon fill="none" points="297.0,77.0 348.0,77.0 348.0,92.0 297.0,92.0" stroke="blue" stroke-width="2" /><text alignment-baseline="middle" font-family="Tahoma" font-size="15px" font-weight="bold" text-anchor="middle" x="322.5" y="84.5">WHO3</text><polygon fill="none" points="639.0,77.0 696.0,77.0 696.0,92.0 639.0,92.0" stroke="blue" stroke-width="2" /><text alignment-baseline="middle" font-family="Tahoma" font-size="15px" font-weight="bold" text-anchor="middle" x="667.5" y="84.5">KRETA</text><polygon fill="none" points="431.0,88.0 494.0,88.0 494.0,104.0 431.0,104.0" stroke="blue" stroke-width="2" /><text alignment-baseline="middle" font-family="Tahoma" font-size="15px" font-weight="bold" text-anchor="middle" x="462.5" y="96.0">MANUAL</text><polygon fill="none" points="768.0,89.0 831.0,89.0 831.0,104.0 768.0,104.0" stroke="blue" stroke-width="2" /><text alignment-baseline="middle" font-family="Tahoma" font-size="15px" font-weight="bold" text-anchor="middle" x="799.5" y="96.5">MANUAL</text><polygon fill="none" points="432.0,125.0 491.0,125.0 491.0,146.0 432.0,146.0" stroke="blue" stroke-width="2" /><text alignment-baseline="middle" font-family="Tahoma" font-size="15px" font-weight="bold" text-anchor="middle" x="461.5" y="135.5">JF03</text><polygon fill="none" points="771.0,126.0 827.0,126.0 827.0,146.0 771.0,146.0" stroke="blue" stroke-width="2" /><text alignment-baseline="middle" font-family="Tahoma" font-size="15px" font-weight="bold" text-anchor="middle" x="799.0" y="136.0">JF04</text><polygon fill="none" points="432.0,155.0 495.0,155.0 495.0,171.0 432.0,171.0" stroke="blue" stroke-width="2" /><text alignment-baseline="middle" font-family="Tahoma" font-size="15px" font-weight="bold" text-anchor="middle" x="463.5" y="163.0">-1.4 kg</text><polygon fill="none" points="771.0,155.0 828.0,155.0 828.0,171.0 771.0,171.0" stroke="blue" stroke-width="2" /><text alignment-baseline="middle" font-family="Tahoma" font-size="15px" font-weight="bold" text-anchor="middle" x="799.5" y="163.0">0.9 kg</text><polygon fill="none" points="160.0,167.0 204.0,167.0 204.0,184.0 160.0,184.0" stroke="blue" stroke-width="2" /><text alignment-baseline="middle" font-family="Tahoma" font-size="15px" font-weight="bold" text-anchor="middle" x="182.0" y="175.5">VS51</text><polygon fill="none" points="348.0,167.0 392.0,167.0 392.0,184.0 348.0,184.0" stroke="blue" stroke-width="2" /><text alignment-baseline="middle" font-family="Tahoma" font-size="15px" font-weight="bold" text-anchor="middle" x="370.0" y="175.5">VS52</text><polygon fill="none" points="688.0,167.0 732.0,167.0 732.0,184.0 688.0,184.0" stroke="blue" stroke-width="2" /><text alignment-baseline="middle" font-family="Tahoma" font-size="15px" font-weight="bold" text-anchor="middle" x="710.0" y="175.5">VS53</text><polygon fill="none" points="372.0,208.0 414.0,208.0 414.0,226.0 372.0,226.0" stroke="blue" stroke-width="2" /><text alignment-baseline="middle" font-family="Tahoma" font-size="15px" font-weight="bold" text-anchor="middle" x="393.0" y="217.0">SLO3</text><polygon fill="none" points="708.0,209.0 750.0,209.0 750.0,225.0 708.0,225.0" stroke="blue" stroke-width="2" /><text alignment-baseline="middle" font-family="Tahoma" font-size="15px" font-weight="bold" text-anchor="middle" x="729.0" y="217.0">SLO4</text><polygon fill="none" points="525.0,221.0 569.0,221.0 569.0,238.0 525.0,238.0" stroke="blue" stroke-width="2" /><text alignment-baseline="middle" font-family="Tahoma" font-size="15px" font-weight="bold" text-anchor="middle" x="547.0" y="229.5">VT01</text><polygon fill="none" points="861.0,221.0 906.0,221.0 906.0,238.0 861.0,238.0" stroke="blue" stroke-width="2" /><text alignment-baseline="middle" font-family="Tahoma" font-size="15px" font-weight="bold" text-anchor="middle" x="883.5" y="229.5">VT02</text><polygon fill="none" points="187.0,286.0 228.0,286.0 228.0,302.0 187.0,302.0" stroke="blue" stroke-width="2" /><text alignment-baseline="middle" font-family="Tahoma" font-size="15px" font-weight="bold" text-anchor="middle" x="207.5" y="294.0">VF61</text><polygon fill="none" points="636.0,294.0 678.0,294.0 678.0,310.0 636.0,310.0" stroke="blue" stroke-width="2" /><text alignment-baseline="middle" font-family="Tahoma" font-size="15px" font-weight="bold" text-anchor="middle" x="657.0" y="302.0">VF64</text><polygon fill="none" points="497.0,315.0 542.0,315.0 542.0,332.0 497.0,332.0" stroke="blue" stroke-width="2" /><text alignment-baseline="middle" font-family="Tahoma" font-size="15px" font-weight="bold" text-anchor="middle" x="519.5" y="323.5">PH07</text><polygon fill="none" points="833.0,316.0 878.0,316.0 878.0,332.0 833.0,332.0" stroke="blue" stroke-width="2" /><text alignment-baseline="middle" font-family="Tahoma" font-size="15px" font-weight="bold" text-anchor="middle" x="855.5" y="324.0">PH08</text><polygon fill="none" points="387.0,329.0 440.0,329.0 440.0,346.0 387.0,346.0" stroke="blue" stroke-width="2" /><text alignment-baseline="middle" font-family="Tahoma" font-size="15px" font-weight="bold" text-anchor="middle" x="413.5" y="337.5">VBF03</text><polygon fill="none" points="724.0,330.0 776.0,330.0 776.0,346.0 724.0,346.0" stroke="blue" stroke-width="2" /><text alignment-baseline="middle" font-family="Tahoma" font-size="15px" font-weight="bold" text-anchor="middle" x="750.0" y="338.0">VBF04</text><polygon fill="none" points="896.0,356.0 956.0,356.0 956.0,372.0 896.0,372.0" stroke="blue" stroke-width="2" /><text alignment-baseline="middle" font-family="Tahoma" font-size="15px" font-weight="bold" text-anchor="middle" x="926.0" y="364.0">MANUAL</text><polygon fill="none" points="273.0,370.0 364.0,370.0 364.0,386.0 273.0,386.0" stroke="blue" stroke-width="2" /><text alignment-baseline="middle" font-family="Tahoma" font-size="15px" font-weight="bold" text-anchor="middle" x="318.5" y="378.0">BAG P2 P1</text><polygon fill="none" points="840.0,394.0 959.0,394.0 959.0,415.0 840.0,415.0" stroke="blue" stroke-width="2" /><text alignment-baseline="middle" font-family="Tahoma" font-size="15px" font-weight="bold" text-anchor="middle" x="899.5" y="404.5">WHO6 - TI</text><polygon fill="none" points="110.0,396.0 156.0,396.0 156.0,413.0 110.0,413.0" stroke="blue" stroke-width="2" /><text alignment-baseline="middle" font-family="Tahoma" font-size="15px" font-weight="bold" text-anchor="middle" x="133.0" y="404.5">CB01</text><polygon fill="none" points="920.0,423.0 950.0,423.0 950.0,440.0 920.0,440.0" stroke="blue" stroke-width="2" /><text alignment-baseline="middle" font-family="Tahoma" font-size="15px" font-weight="bold" text-anchor="middle" x="935.0" y="431.5">3.1</text><polygon fill="none" points="395.0,447.0 440.0,447.0 440.0,464.0 395.0,464.0" stroke="blue" stroke-width="2" /><text alignment-baseline="middle" font-family="Tahoma" font-size="15px" font-weight="bold" text-anchor="middle" x="417.5" y="455.5">VF62</text><polygon fill="none" points="732.0,447.0 776.0,447.0 776.0,464.0 732.0,464.0" stroke="blue" stroke-width="2" /><text alignment-baseline="middle" font-family="Tahoma" font-size="15px" font-weight="bold" text-anchor="middle" x="754.0" y="455.5">VF63</text><polygon fill="none" points="334.0,456.0 390.0,456.0 390.0,473.0 334.0,473.0" stroke="blue" stroke-width="2" /><text alignment-baseline="middle" font-family="Tahoma" font-size="15px" font-weight="bold" text-anchor="middle" x="362.0" y="464.5">OSTEP</text><polygon fill="none" points="32.0,489.0 126.0,489.0 126.0,504.0 32.0,504.0" stroke="blue" stroke-width="2" /><text alignment-baseline="middle" font-family="Tahoma" font-size="15px" font-weight="bold" text-anchor="middle" x="79.0" y="496.5">PVC Unload</text><polygon fill="none" points="936.0,491.0 959.0,491.0 959.0,506.0 936.0,506.0" stroke="blue" stroke-width="2" /><text alignment-baseline="middle" font-family="Tahoma" font-size="15px" font-weight="bold" text-anchor="middle" x="947.5" y="498.5">CT</text><polygon fill="none" points="157.0,497.0 181.0,497.0 181.0,514.0 157.0,514.0" stroke="blue" stroke-width="2" /><text alignment-baseline="middle" font-family="Tahoma" font-size="15px" font-weight="bold" text-anchor="middle" x="169.0" y="505.5">11</text><polygon fill="none" points="45.0,507.0 112.0,507.0 112.0,522.0 45.0,522.0" stroke="blue" stroke-width="2" /><text alignment-baseline="middle" font-family="Tahoma" font-size="15px" font-weight="bold" text-anchor="middle" x="78.5" y="514.5">Counter</text><polygon fill="none" points="395.0,528.0 438.0,528.0 438.0,539.0 395.0,539.0" stroke="yellow" stroke-width="2" /><text alignment-baseline="middle" font-family="Tahoma" font-size="15px" font-weight="bold" text-anchor="middle" x="416.5" y="533.5">VF95</text><polygon fill="none" points="226.0,529.0 270.0,529.0 270.0,539.0 226.0,539.0" stroke="blue" stroke-width="2" /><text alignment-baseline="middle" font-family="Tahoma" font-size="15px" font-weight="bold" text-anchor="middle" x="248.0" y="534.0">VG01</text><polygon fill="none" points="732.0,529.0 776.0,529.0 776.0,539.0 732.0,539.0" stroke="blue" stroke-width="2" /><text alignment-baseline="middle" font-family="Tahoma" font-size="15px" font-weight="bold" text-anchor="middle" x="754.0" y="534.0">VF96</text><polygon fill="none" points="1016.0,44.0 1062.0,44.0 1062.0,59.0 1016.0,59.0" stroke="blue" stroke-width="2" /><text alignment-baseline="middle" font-family="Tahoma" font-size="15px" font-weight="bold" text-anchor="middle" x="1039.0" y="51.5">EB03</text><polygon fill="none" points="1012.0,63.0 1066.0,63.0 1066.0,77.0 1012.0,77.0" stroke="blue" stroke-width="2" /><text alignment-baseline="middle" font-family="Tahoma" font-size="15px" font-weight="bold" text-anchor="middle" x="1039.0" y="70.0">TITAN</text><polygon fill="none" points="1121.0,70.0 1180.0,70.0 1180.0,93.0 1121.0,93.0" stroke="blue" stroke-width="2" /><text alignment-baseline="middle" font-family="Tahoma" font-size="15px" font-weight="bold" text-anchor="middle" x="1150.5" y="81.5">JF05</text><polygon fill="none" points="1512.0,100.0 1564.0,100.0 1564.0,117.0 1512.0,117.0" stroke="blue" stroke-width="2" /><text alignment-baseline="middle" font-family="Tahoma" font-size="15px" font-weight="bold" text-anchor="middle" x="1538.0" y="108.5">GP03</text><polygon fill="none" points="1060.0,114.0 1103.0,114.0 1103.0,132.0 1060.0,132.0" stroke="blue" stroke-width="2" /><text alignment-baseline="middle" font-family="Tahoma" font-size="15px" font-weight="bold" text-anchor="middle" x="1081.5" y="123.0">SLOS</text><polygon fill="none" points="1214.0,127.0 1257.0,127.0 1257.0,144.0 1214.0,144.0" stroke="blue" stroke-width="2" /><text alignment-baseline="middle" font-family="Tahoma" font-size="15px" font-weight="bold" text-anchor="middle" x="1235.5" y="135.5">VT03</text><polygon fill="none" points="1342.0,153.0 1395.0,153.0 1395.0,172.0 1342.0,172.0" stroke="blue" stroke-width="2" /><text alignment-baseline="middle" font-family="Tahoma" font-size="15px" font-weight="bold" text-anchor="middle" x="1368.5" y="162.5">VR03</text><polygon fill="none" points="1617.0,165.0 1663.0,165.0 1663.0,182.0 1617.0,182.0" stroke="blue" stroke-width="2" /><text alignment-baseline="middle" font-family="Tahoma" font-size="15px" font-weight="bold" text-anchor="middle" x="1640.0" y="173.5">VF90</text><polygon fill="none" points="1584.0,175.0 1604.0,175.0 1604.0,209.0 1584.0,209.0" stroke="yellow" stroke-width="2" /><text alignment-baseline="middle" font-family="Tahoma" font-size="15px" font-weight="bold" text-anchor="middle" x="1594.0" y="192.0">o</text><polygon fill="none" points="1012.0,259.0 1067.0,259.0 1067.0,276.0 1012.0,276.0" stroke="blue" stroke-width="2" /><text alignment-baseline="middle" font-family="Tahoma" font-size="15px" font-weight="bold" text-anchor="middle" x="1039.5" y="267.5">FBE11</text><polygon fill="none" points="1568.0,286.0 1631.0,286.0 1631.0,302.0 1568.0,302.0" stroke="blue" stroke-width="2" /><text alignment-baseline="middle" font-family="Tahoma" font-size="15px" font-weight="bold" text-anchor="middle" x="1599.5" y="294.0">LIQUID</text><polygon fill="none" points="1785.0,286.0 1848.0,286.0 1848.0,302.0 1785.0,302.0" stroke="blue" stroke-width="2" /><text alignment-baseline="middle" font-family="Tahoma" font-size="15px" font-weight="bold" text-anchor="middle" x="1816.5" y="294.0">LIQUID</text><polygon fill="none" points="1156.0,300.0 1198.0,300.0 1198.0,316.0 1156.0,316.0" stroke="blue" stroke-width="2" /><text alignment-baseline="middle" font-family="Tahoma" font-size="15px" font-weight="bold" text-anchor="middle" x="1177.0" y="308.0">VF65</text><polygon fill="none" points="1546.0,305.0 1654.0,305.0 1654.0,320.0 1546.0,320.0" stroke="blue" stroke-width="2" /><text alignment-baseline="middle" font-family="Tahoma" font-size="15px" font-weight="bold" text-anchor="middle" x="1600.0" y="312.5">PLASTICIZER</text><polygon fill="none" points="1768.0,305.0 1866.0,305.0 1866.0,319.0 1768.0,319.0" stroke="blue" stroke-width="2" /><text alignment-baseline="middle" font-family="Tahoma" font-size="15px" font-weight="bold" text-anchor="middle" x="1817.0" y="312.0">STABILIZER</text><polygon fill="none" points="1284.0,314.0 1396.0,314.0 1396.0,333.0 1284.0,333.0" stroke="blue" stroke-width="2" /><text alignment-baseline="middle" font-family="Tahoma" font-size="15px" font-weight="bold" text-anchor="middle" x="1340.0" y="323.5">VALVE TIMES</text><polygon fill="none" points="1012.0,329.0 1056.0,329.0 1056.0,345.0 1012.0,345.0" stroke="blue" stroke-width="2" /><text alignment-baseline="middle" font-family="Tahoma" font-size="15px" font-weight="bold" text-anchor="middle" x="1034.0" y="337.0">CT35</text><polygon fill="none" points="1505.0,329.0 1619.0,329.0 1619.0,345.0 1505.0,345.0" stroke="blue" stroke-width="2" /><text alignment-baseline="middle" font-family="Tahoma" font-size="15px" font-weight="bold" text-anchor="middle" x="1562.0" y="337.0">S3 TANK S4</text><polygon fill="none" points="1733.0,329.0 1900.0,335.0 1898.0,353.0 1731.0,347.0" stroke="blue" stroke-width="2" /><text alignment-baseline="middle" font-family="Tahoma" font-size="15px" font-weight="bold" text-anchor="middle" x="1816.5" y="341.0">IBC4 IBC3 IBC1 IBC2</text><polygon fill="none" points="1628.0,330.0 1656.0,330.0 1656.0,345.0 1628.0,345.0" stroke="blue" stroke-width="2" /><text alignment-baseline="middle" font-family="Tahoma" font-size="15px" font-weight="bold" text-anchor="middle" x="1642.0" y="337.5">S2</text><polygon fill="none" points="960.0,393.0 1000.0,393.0 1000.0,415.0 960.0,415.0" stroke="blue" stroke-width="2" /><text alignment-baseline="middle" font-family="Tahoma" font-size="15px" font-weight="bold" text-anchor="middle" x="980.0" y="404.0">TAN</text><polygon fill="none" points="1490.0,393.0 1537.0,393.0 1537.0,410.0 1490.0,410.0" stroke="blue" stroke-width="2" /><text alignment-baseline="middle" font-family="Tahoma" font-size="15px" font-weight="bold" text-anchor="middle" x="1513.5" y="401.5">VS66</text><polygon fill="none" points="1575.0,393.0 1620.0,393.0 1620.0,409.0 1575.0,409.0" stroke="blue" stroke-width="2" /><text alignment-baseline="middle" font-family="Tahoma" font-size="15px" font-weight="bold" text-anchor="middle" x="1597.5" y="401.0">VS64</text><polygon fill="none" points="1660.0,393.0 1711.0,393.0 1711.0,410.0 1660.0,410.0" stroke="blue" stroke-width="2" /><text alignment-baseline="middle" font-family="Tahoma" font-size="15px" font-weight="bold" text-anchor="middle" x="1685.5" y="401.5">VS1.2</text><polygon fill="none" points="1728.0,393.0 1774.0,393.0 1774.0,410.0 1728.0,410.0" stroke="blue" stroke-width="2" /><text alignment-baseline="middle" font-family="Tahoma" font-size="15px" font-weight="bold" text-anchor="middle" x="1751.0" y="401.5">VS67</text><polygon fill="none" points="1813.0,393.0 1858.0,393.0 1858.0,410.0 1813.0,410.0" stroke="blue" stroke-width="2" /><text alignment-baseline="middle" font-family="Tahoma" font-size="15px" font-weight="bold" text-anchor="middle" x="1835.5" y="401.5">vs69</text><polygon fill="none" points="1079.0,427.0 1126.0,427.0 1126.0,444.0 1079.0,444.0" stroke="blue" stroke-width="2" /><text alignment-baseline="middle" font-family="Tahoma" font-size="15px" font-weight="bold" text-anchor="middle" x="1102.5" y="435.5">PH12</text><polygon fill="none" points="1533.0,459.0 1577.0,459.0 1577.0,476.0 1533.0,476.0" stroke="blue" stroke-width="2" /><text alignment-baseline="middle" font-family="Tahoma" font-size="15px" font-weight="bold" text-anchor="middle" x="1555.0" y="467.5">VS65</text><polygon fill="none" points="1616.0,459.0 1663.0,459.0 1663.0,477.0 1616.0,477.0" stroke="blue" stroke-width="2" /><text alignment-baseline="middle" font-family="Tahoma" font-size="15px" font-weight="bold" text-anchor="middle" x="1639.5" y="468.0">VS63</text><polygon fill="none" points="1770.0,459.0 1816.0,459.0 1816.0,476.0 1770.0,476.0" stroke="blue" stroke-width="2" /><text alignment-baseline="middle" font-family="Tahoma" font-size="15px" font-weight="bold" text-anchor="middle" x="1793.0" y="467.5">VS68</text><polygon fill="none" points="1855.0,460.0 1900.0,460.0 1900.0,476.0 1855.0,476.0" stroke="blue" stroke-width="2" /><text alignment-baseline="middle" font-family="Tahoma" font-size="15px" font-weight="bold" text-anchor="middle" x="1877.5" y="468.0">VS70</text><polygon fill="none" points="1351.0,487.0 1416.0,487.0 1416.0,503.0 1351.0,503.0" stroke="blue" stroke-width="2" /><text alignment-baseline="middle" font-family="Tahoma" font-size="15px" font-weight="bold" text-anchor="middle" x="1383.5" y="495.0">V3VS01</text><polygon fill="none" points="960.0,490.0 979.0,490.0 979.0,506.0 960.0,506.0" stroke="blue" stroke-width="2" /><text alignment-baseline="middle" font-family="Tahoma" font-size="15px" font-weight="bold" text-anchor="middle" x="969.5" y="498.0">40</text><polygon fill="none" points="960.0,513.0 1056.0,513.0 1056.0,534.0 960.0,534.0" stroke="yellow" stroke-width="2" /><text alignment-baseline="middle" font-family="Tahoma" font-size="15px" font-weight="bold" text-anchor="middle" x="1008.0" y="523.5">www</text><polygon fill="none" points="1302.0,522.0 1342.0,522.0 1342.0,537.0 1302.0,537.0" stroke="blue" stroke-width="2" /><text alignment-baseline="middle" font-family="Tahoma" font-size="15px" font-weight="bold" text-anchor="middle" x="1322.0" y="529.5">X</text><polygon fill="none" points="27.0,544.0 131.0,544.0 131.0,558.0 27.0,558.0" stroke="blue" stroke-width="2" /><text alignment-baseline="middle" font-family="Tahoma" font-size="15px" font-weight="bold" text-anchor="middle" x="79.0" y="551.0">COLOR BAGS</text><polygon fill="none" points="157.0,551.0 181.0,551.0 181.0,568.0 157.0,568.0" stroke="yellow" stroke-width="2" /><text alignment-baseline="middle" font-family="Tahoma" font-size="15px" font-weight="bold" text-anchor="middle" x="169.0" y="559.5">11</text><polygon fill="none" points="47.0,562.0 112.0,562.0 112.0,576.0 47.0,576.0" stroke="blue" stroke-width="2" /><text alignment-baseline="middle" font-family="Tahoma" font-size="15px" font-weight="bold" text-anchor="middle" x="79.5" y="569.0">Counter</text><polygon fill="none" points="878.0,600.0 922.0,600.0 922.0,615.0 878.0,615.0" stroke="blue" stroke-width="2" /><text alignment-baseline="middle" font-family="Tahoma" font-size="15px" font-weight="bold" text-anchor="middle" x="900.0" y="607.5">VF98</text><polygon fill="none" points="152.0,679.0 201.0,679.0 201.0,696.0 152.0,696.0" stroke="blue" stroke-width="2" /><text alignment-baseline="middle" font-family="Tahoma" font-size="15px" font-weight="bold" text-anchor="middle" x="176.5" y="687.5">GP05</text><polygon fill="none" points="348.0,733.0 399.0,733.0 399.0,750.0 348.0,750.0" stroke="blue" stroke-width="2" /><text alignment-baseline="middle" font-family="Tahoma" font-size="15px" font-weight="bold" text-anchor="middle" x="373.5" y="741.5">VR05</text><polygon fill="none" points="88.0,744.0 133.0,744.0 133.0,758.0 88.0,758.0" stroke="blue" stroke-width="2" /><text alignment-baseline="middle" font-family="Tahoma" font-size="15px" font-weight="bold" text-anchor="middle" x="110.5" y="751.0">VF92</text><polygon fill="none" points="12.0,846.0 100.0,846.0 100.0,861.0 12.0,861.0" stroke="blue" stroke-width="2" /><text alignment-baseline="middle" font-family="Tahoma" font-size="15px" font-weight="bold" text-anchor="middle" x="56.0" y="853.5">Delay Stop</text><polygon fill="none" points="158.0,846.0 210.0,846.0 210.0,862.0 158.0,862.0" stroke="blue" stroke-width="2" /><text alignment-baseline="middle" font-family="Tahoma" font-size="15px" font-weight="bold" text-anchor="middle" x="184.0" y="854.0">600 s</text><polygon fill="none" points="370.0,855.0 432.0,855.0 432.0,870.0 370.0,870.0" stroke="blue" stroke-width="2" /><text alignment-baseline="middle" font-family="Tahoma" font-size="15px" font-weight="bold" text-anchor="middle" x="401.0" y="862.5">RECIPE</text><polygon fill="none" points="157.0,886.0 210.0,886.0 210.0,902.0 157.0,902.0" stroke="blue" stroke-width="2" /><text alignment-baseline="middle" font-family="Tahoma" font-size="15px" font-weight="bold" text-anchor="middle" x="183.5" y="894.0">600 s</text><polygon fill="none" points="16.0,887.0 68.0,887.0 68.0,901.0 16.0,901.0" stroke="blue" stroke-width="2" /><text alignment-baseline="middle" font-family="Tahoma" font-size="15px" font-weight="bold" text-anchor="middle" x="42.0" y="894.0">Actual</text><polygon fill="none" points="667.0,954.0 750.0,954.0 750.0,974.0 667.0,974.0" stroke="blue" stroke-width="2" /><text alignment-baseline="middle" font-family="Tahoma" font-size="15px" font-weight="bold" text-anchor="middle" x="708.5" y="964.0">UNLOAD</text><polygon fill="none" points="177.0,955.0 316.0,955.0 316.0,974.0 177.0,974.0" stroke="blue" stroke-width="2" /><text alignment-baseline="middle" font-family="Tahoma" font-size="15px" font-weight="bold" text-anchor="middle" x="246.5" y="964.5">UNLOAD SILOS</text><polygon fill="none" points="484.0,955.0 626.0,955.0 626.0,974.0 484.0,974.0" stroke="yellow" stroke-width="2" /><text alignment-baseline="middle" font-family="Tahoma" font-size="15px" font-weight="bold" text-anchor="middle" x="555.0" y="964.5">UNLOAD SILOS</text><polygon fill="none" points="331.0,956.0 471.0,954.0 472.0,973.0 332.0,975.0" stroke="blue" stroke-width="2" /><text alignment-baseline="middle" font-family="Tahoma" font-size="15px" font-weight="bold" text-anchor="middle" x="401.0" y="964.5">UNLOAD SILOS</text><polygon fill="none" points="32.0,965.0 152.0,965.0 152.0,985.0 32.0,985.0" stroke="blue" stroke-width="2" /><text alignment-baseline="middle" font-family="Tahoma" font-size="15px" font-weight="bold" text-anchor="middle" x="92.0" y="975.0">LOAD SILOS</text><polygon fill="none" points="810.0,966.0 916.0,966.0 916.0,985.0 810.0,985.0" stroke="blue" stroke-width="2" /><text alignment-baseline="middle" font-family="Tahoma" font-size="15px" font-weight="bold" text-anchor="middle" x="863.0" y="975.5">MIXER 100</text><polygon fill="none" points="367.0,977.0 437.0,977.0 437.0,996.0 367.0,996.0" stroke="blue" stroke-width="2" /><text alignment-baseline="middle" font-family="Tahoma" font-size="15px" font-weight="bold" text-anchor="middle" x="402.0" y="986.5">PVC - 2</text><polygon fill="none" points="212.0,978.0 281.0,978.0 281.0,996.0 212.0,996.0" stroke="blue" stroke-width="2" /><text alignment-baseline="middle" font-family="Tahoma" font-size="15px" font-weight="bold" text-anchor="middle" x="246.5" y="987.0">PVC - 1</text><polygon fill="none" points="524.0,978.0 587.0,978.0 587.0,996.0 524.0,996.0" stroke="blue" stroke-width="2" /><text alignment-baseline="middle" font-family="Tahoma" font-size="15px" font-weight="bold" text-anchor="middle" x="555.5" y="987.0">KRETA</text><polygon fill="none" points="688.0,978.0 732.0,978.0 732.0,997.0 688.0,997.0" stroke="yellow" stroke-width="2" /><text alignment-baseline="middle" font-family="Tahoma" font-size="15px" font-weight="bold" text-anchor="middle" x="710.0" y="987.5">BAG</text><polygon fill="none" points="35.0,1044.0 70.0,1044.0 70.0,1053.0 35.0,1053.0" stroke="blue" stroke-width="2" /><text alignment-baseline="middle" font-family="Tahoma" font-size="15px" font-weight="bold" text-anchor="middle" x="52.5" y="1048.5">Output</text><polygon fill="none" points="23.0,1065.0 673.0,1065.0 673.0,1075.0 23.0,1075.0" stroke="blue" stroke-width="2" /><text alignment-baseline="middle" font-family="Tahoma" font-size="15px" font-weight="bold" text-anchor="middle" x="348.0" y="1070.0">26/11/2019 18:09:49 Driver । Communication error : station Default Station, error An existing connection was forcibly closed by the remote host.</text><polygon fill="none" points="1572.0,558.0 1628.0,558.0 1628.0,574.0 1572.0,574.0" stroke="blue" stroke-width="2" /><text alignment-baseline="middle" font-family="Tahoma" font-size="15px" font-weight="bold" text-anchor="middle" x="1600.0" y="566.0">0.1 kg</text><polygon fill="none" points="1787.0,558.0 1848.0,558.0 1848.0,573.0 1787.0,573.0" stroke="blue" stroke-width="2" /><text alignment-baseline="middle" font-family="Tahoma" font-size="15px" font-weight="bold" text-anchor="middle" x="1817.5" y="565.5">-0.0 kg</text><polygon fill="none" points="1569.0,598.0 1632.0,598.0 1632.0,614.0 1569.0,614.0" stroke="blue" stroke-width="2" /><text alignment-baseline="middle" font-family="Tahoma" font-size="15px" font-weight="bold" text-anchor="middle" x="1600.5" y="606.0">MANUAL</text><polygon fill="none" points="1786.0,598.0 1849.0,598.0 1849.0,614.0 1786.0,614.0" stroke="blue" stroke-width="2" /><text alignment-baseline="middle" font-family="Tahoma" font-size="15px" font-weight="bold" text-anchor="middle" x="1817.5" y="606.0">MANUAL</text><polygon fill="none" points="1196.0,601.0 1240.0,601.0 1240.0,616.0 1196.0,616.0" stroke="blue" stroke-width="2" /><text alignment-baseline="middle" font-family="Tahoma" font-size="15px" font-weight="bold" text-anchor="middle" x="1218.0" y="608.5">VS71</text><polygon fill="none" points="1007.0,629.0 1084.0,629.0 1084.0,651.0 1007.0,651.0" stroke="blue" stroke-width="2" /><text alignment-baseline="middle" font-family="Tahoma" font-size="15px" font-weight="bold" text-anchor="middle" x="1045.5" y="640.0">SPEED</text><polygon fill="none" points="960.0,686.0 1000.0,686.0 1000.0,703.0 960.0,703.0" stroke="blue" stroke-width="2" /><text alignment-baseline="middle" font-family="Tahoma" font-size="15px" font-weight="bold" text-anchor="middle" x="980.0" y="694.5">CT40</text><polygon fill="none" points="1020.0,686.0 1058.0,686.0 1058.0,703.0 1020.0,703.0" stroke="blue" stroke-width="2" /><text alignment-baseline="middle" font-family="Tahoma" font-size="15px" font-weight="bold" text-anchor="middle" x="1039.0" y="694.5">100</text><polygon fill="none" points="1082.0,686.0 1110.0,686.0 1110.0,704.0 1082.0,704.0" stroke="blue" stroke-width="2" /><text alignment-baseline="middle" font-family="Tahoma" font-size="15px" font-weight="bold" text-anchor="middle" x="1096.0" y="695.0">13</text><polygon fill="none" points="1124.0,687.0 1150.0,687.0 1150.0,703.0 1124.0,703.0" stroke="yellow" stroke-width="2" /><text alignment-baseline="middle" font-family="Tahoma" font-size="15px" font-weight="bold" text-anchor="middle" x="1137.0" y="695.0">0/o</text><polygon fill="none" points="1616.0,689.0 1661.0,687.0 1663.0,703.0 1617.0,705.0" stroke="blue" stroke-width="2" /><text alignment-baseline="middle" font-family="Tahoma" font-size="15px" font-weight="bold" text-anchor="middle" x="1638.5" y="696.0">VS73</text><polygon fill="none" points="1476.0,706.0 1544.0,706.0 1544.0,722.0 1476.0,722.0" stroke="blue" stroke-width="2" /><text alignment-baseline="middle" font-family="Tahoma" font-size="15px" font-weight="bold" text-anchor="middle" x="1510.0" y="714.0">32.7 °C</text><polygon fill="none" points="1756.0,715.0 1800.0,715.0 1800.0,731.0 1756.0,731.0" stroke="blue" stroke-width="2" /><text alignment-baseline="middle" font-family="Tahoma" font-size="15px" font-weight="bold" text-anchor="middle" x="1778.0" y="723.0">VS74</text><polygon fill="none" points="1364.0,729.0 1412.0,729.0 1412.0,745.0 1364.0,745.0" stroke="blue" stroke-width="2" /><text alignment-baseline="middle" font-family="Tahoma" font-size="15px" font-weight="bold" text-anchor="middle" x="1388.0" y="737.0">HP02</text><polygon fill="none" points="1666.0,777.0 1747.0,777.0 1747.0,793.0 1666.0,793.0" stroke="blue" stroke-width="2" /><text alignment-baseline="middle" font-family="Tahoma" font-size="15px" font-weight="bold" text-anchor="middle" x="1706.5" y="785.0">HEATING</text><polygon fill="none" points="1575.0,796.0 1619.0,796.0 1619.0,812.0 1575.0,812.0" stroke="blue" stroke-width="2" /><text alignment-baseline="middle" font-family="Tahoma" font-size="15px" font-weight="bold" text-anchor="middle" x="1597.0" y="804.0">HT01</text><polygon fill="none" points="1664.0,797.0 1748.0,797.0 1748.0,814.0 1664.0,814.0" stroke="blue" stroke-width="2" /><text alignment-baseline="middle" font-family="Tahoma" font-size="15px" font-weight="bold" text-anchor="middle" x="1706.0" y="805.5">SETTINGS</text><polygon fill="none" points="974.0,844.0 1093.0,844.0 1093.0,860.0 974.0,860.0" stroke="blue" stroke-width="2" /><text alignment-baseline="middle" font-family="Tahoma" font-size="15px" font-weight="bold" text-anchor="middle" x="1033.5" y="852.0">COMPONENTS</text><polygon fill="none" points="1183.0,844.0 1249.0,844.0 1249.0,860.0 1183.0,860.0" stroke="blue" stroke-width="2" /><text alignment-baseline="middle" font-family="Tahoma" font-size="15px" font-weight="bold" text-anchor="middle" x="1216.0" y="852.0">SCALES</text><polygon fill="none" points="976.0,864.0 1090.0,864.0 1090.0,881.0 976.0,881.0" stroke="blue" stroke-width="2" /><text alignment-baseline="middle" font-family="Tahoma" font-size="15px" font-weight="bold" text-anchor="middle" x="1033.0" y="872.5">PARAMETERS</text><polygon fill="none" points="1160.0,864.0 1271.0,864.0 1271.0,881.0 1160.0,881.0" stroke="blue" stroke-width="2" /><text alignment-baseline="middle" font-family="Tahoma" font-size="15px" font-weight="bold" text-anchor="middle" x="1215.5" y="872.5">PARAMETERS</text><polygon fill="none" points="1392.0,891.0 1438.0,891.0 1438.0,906.0 1392.0,906.0" stroke="blue" stroke-width="2" /><text alignment-baseline="middle" font-family="Tahoma" font-size="15px" font-weight="bold" text-anchor="middle" x="1415.0" y="898.5">HP01</text><polygon fill="none" points="1444.0,964.0 1517.0,964.0 1517.0,986.0 1444.0,986.0" stroke="blue" stroke-width="2" /><text alignment-baseline="middle" font-family="Tahoma" font-size="15px" font-weight="bold" text-anchor="middle" x="1480.5" y="975.0">LIQUID</text><polygon fill="none" points="964.0,965.0 1071.0,965.0 1071.0,985.0 964.0,985.0" stroke="blue" stroke-width="2" /><text alignment-baseline="middle" font-family="Tahoma" font-size="15px" font-weight="bold" text-anchor="middle" x="1017.5" y="975.0">MIXER 200</text><polygon fill="none" points="1120.0,965.0 1224.0,965.0 1224.0,985.0 1120.0,985.0" stroke="blue" stroke-width="2" /><text alignment-baseline="middle" font-family="Tahoma" font-size="15px" font-weight="bold" text-anchor="middle" x="1172.0" y="975.0">MIXER 300</text><polygon fill="none" points="1274.0,965.0 1379.0,965.0 1379.0,985.0 1274.0,985.0" stroke="blue" stroke-width="2" /><text alignment-baseline="middle" font-family="Tahoma" font-size="15px" font-weight="bold" text-anchor="middle" x="1326.5" y="975.0">MIXER 400</text><polygon fill="none" points="1643.0,965.0 1711.0,965.0 1711.0,985.0 1643.0,985.0" stroke="blue" stroke-width="2" /><text alignment-baseline="middle" font-family="Tahoma" font-size="15px" font-weight="bold" text-anchor="middle" x="1677.0" y="975.0">ALARM</text><polygon fill="none" points="1791.0,965.0 1871.0,965.0 1871.0,985.0 1791.0,985.0" stroke="blue" stroke-width="2" /><text alignment-baseline="middle" font-family="Tahoma" font-size="15px" font-weight="bold" text-anchor="middle" x="1831.0" y="975.0">SYSTEM</text><polygon fill="none" points="1899.0,1062.0 1916.0,1062.0 1916.0,1076.0 1899.0,1076.0" stroke="blue" stroke-width="2" /><text alignment-baseline="middle" font-family="Tahoma" font-size="15px" font-weight="bold" text-anchor="middle" x="1907.5" y="1069.0">0</text><polygon fill="none" points="1602.0,1064.0 1680.0,1064.0 1680.0,1075.0 1602.0,1075.0" stroke="blue" stroke-width="2" /><text alignment-baseline="middle" font-family="Tahoma" font-size="15px" font-weight="bold" text-anchor="middle" x="1641.0" y="1069.5">CAP NUM SCRL</text><polygon fill="none" points="1712.0,1064.0 1774.0,1064.0 1774.0,1075.0 1712.0,1075.0" stroke="blue" stroke-width="2" /><text alignment-baseline="middle" font-family="Tahoma" font-size="15px" font-weight="bold" text-anchor="middle" x="1743.0" y="1069.5">1.5Gb(1.0Gb)</text><polygon fill="none" points="1824.0,1065.0 1863.0,1065.0 1863.0,1076.0 1824.0,1076.0" stroke="blue" stroke-width="2" /><text alignment-baseline="middle" font-family="Tahoma" font-size="15px" font-weight="bold" text-anchor="middle" x="1843.5" y="1070.5">Inglese</text></svg>