<?xml version='1.0' encoding='utf-8'?>
<svg baseProfile="full" height="1080" version="1.1" width="1920"><defs /><rect fill="#d2d2d2" height="1080" width="1920" x="0" y="0" /><text alignment-baseline="middle" font-family="Tahoma" font-size="15" font-weight="bold" text-anchor="middle" x="1038.0" y="52.5">EB03</text><text alignment-baseline="middle" font-family="Tahoma" font-size="15" font-weight="bold" text-anchor="middle" x="286.5" y="66.0">SILOS UNLOAD BAG</text><text alignment-baseline="middle" font-family="Tahoma" font-size="15" font-weight="bold" text-anchor="middle" x="667.0" y="66.0">SILOS</text><text alignment-baseline="middle" font-family="Tahoma" font-size="15" font-weight="bold" text-anchor="middle" x="1039.5" y="71.0">TITAN</text><text alignment-baseline="middle" font-family="Tahoma" font-size="15" font-weight="bold" text-anchor="middle" x="1150.0" y="80.5">JF05</text><text alignment-baseline="middle" font-family="Tahoma" font-size="15" font-weight="bold" text-anchor="middle" x="223.0" y="84.5">PVC</text><text alignment-baseline="middle" font-family="Tahoma" font-size="15" font-weight="bold" text-anchor="middle" x="321.0" y="85.0">WHO3</text><text alignment-baseline="middle" font-family="Tahoma" font-size="15" font-weight="bold" text-anchor="middle" x="666.0" y="85.0">KRETA</text><text alignment-baseline="middle" font-family="Tahoma" font-size="15" font-weight="bold" text-anchor="middle" x="458.5" y="95.5">MANUAL</text><text alignment-baseline="middle" font-family="Tahoma" font-size="15" font-weight="bold" text-anchor="middle" x="796.0" y="95.5">MANUAL</text><text alignment-baseline="middle" font-family="Tahoma" font-size="15" font-weight="bold" text-anchor="middle" x="1536.0" y="108.0">GP03</text><text alignment-baseline="middle" font-family="Tahoma" font-size="15" font-weight="bold" text-anchor="middle" x="1080.5" y="122.5">SLOS</text><text alignment-baseline="middle" font-family="Tahoma" font-size="15" font-weight="bold" text-anchor="middle" x="460.5" y="135.5">JF03</text><text alignment-baseline="middle" font-family="Tahoma" font-size="15" font-weight="bold" text-anchor="middle" x="798.5" y="135.5">JF04</text><text alignment-baseline="middle" font-family="Tahoma" font-size="15" font-weight="bold" text-anchor="middle" x="1235.5" y="135.5">VT03</text><text alignment-baseline="middle" font-family="Tahoma" font-size="15" font-weight="bold" text-anchor="middle" x="798.0" y="162.5">0.9 kg</text><text alignment-baseline="middle" font-family="Tahoma" font-size="15" font-weight="bold" text-anchor="middle" x="1367.5" y="162.5">VR03</text><text alignment-baseline="middle" font-family="Tahoma" font-size="15" font-weight="bold" text-anchor="middle" x="462.0" y="163.5">-1.4 kg</text><text alignment-baseline="middle" font-family="Tahoma" font-size="15" font-weight="bold" text-anchor="middle" x="1638.0" y="173.5">VF90</text><text alignment-baseline="middle" font-family="Tahoma" font-size="15" font-weight="bold" text-anchor="middle" x="179.5" y="175.5">VS51</text><text alignment-baseline="middle" font-family="Tahoma" font-size="15" font-weight="bold" text-anchor="middle" x="710.0" y="176.0">VS53</text><text alignment-baseline="middle" font-family="Tahoma" font-size="15" font-weight="bold" text-anchor="middle" x="370.5" y="177.0">VS52</text><text alignment-baseline="middle" font-family="Tahoma" font-size="15" font-weight="bold" text-anchor="middle" x="727.5" y="217.0">SLO4</text><text alignment-baseline="middle" font-family="Tahoma" font-size="15" font-weight="bold" text-anchor="middle" x="390.5" y="217.5">SLO3</text><text alignment-baseline="middle" font-family="Tahoma" font-size="15" font-weight="bold" text-anchor="middle" x="547.5" y="229.5">VT01</text><text alignment-baseline="middle" font-family="Tahoma" font-size="15" font-weight="bold" text-anchor="middle" x="883.5" y="229.5">VT02</text><text alignment-baseline="middle" font-family="Tahoma" font-size="15" font-weight="bold" text-anchor="middle" x="1054.0" y="268.0">FBE11 </text><text alignment-baseline="middle" font-family="Tahoma" font-size="15" font-weight="bold" text-anchor="middle" x="208.0" y="294.5">VF61</text><text alignment-baseline="middle" font-family="Tahoma" font-size="15" font-weight="bold" text-anchor="middle" x="1601.0" y="294.5">LIQUID</text><text alignment-baseline="middle" font-family="Tahoma" font-size="15" font-weight="bold" text-anchor="middle" x="1818.0" y="295.0">LIQUID</text><text alignment-baseline="middle" font-family="Tahoma" font-size="15" font-weight="bold" text-anchor="middle" x="656.5" y="303.5">VF64</text><text alignment-baseline="middle" font-family="Tahoma" font-size="15" font-weight="bold" text-anchor="middle" x="1177.0" y="308.5">VF65</text><text alignment-baseline="middle" font-family="Tahoma" font-size="15" font-weight="bold" text-anchor="middle" x="1599.5" y="313.5">PLASTICIZER</text><text alignment-baseline="middle" font-family="Tahoma" font-size="15" font-weight="bold" text-anchor="middle" x="1816.5" y="313.0">STABILIZER</text><text alignment-baseline="middle" font-family="Tahoma" font-size="15" font-weight="bold" text-anchor="middle" x="1339.5" y="324.0">VALVE TIMES</text><text alignment-baseline="middle" font-family="Tahoma" font-size="15" font-weight="bold" text-anchor="middle" x="518.5" y="325.0">PH07</text><text alignment-baseline="middle" font-family="Tahoma" font-size="15" font-weight="bold" text-anchor="middle" x="413.0" y="338.0">VBF03</text><text alignment-baseline="middle" font-family="Tahoma" font-size="15" font-weight="bold" text-anchor="middle" x="749.0" y="337.5">VBF04</text><text alignment-baseline="middle" font-family="Tahoma" font-size="15" font-weight="bold" text-anchor="middle" x="1033.0" y="337.5">CT35</text><text alignment-baseline="middle" font-family="Tahoma" font-size="15" font-weight="bold" text-anchor="middle" x="1581.0" y="338.5">S3 TANK S4 S2</text><text alignment-baseline="middle" font-family="Tahoma" font-size="15" font-weight="bold" text-anchor="middle" x="1816.0" y="340.5">IBC4 IBC3 IBC1 IBC2</text><text alignment-baseline="middle" font-family="Tahoma" font-size="15" font-weight="bold" text-anchor="middle" x="925.0" y="363.5">MANUAL</text><text alignment-baseline="middle" font-family="Tahoma" font-size="15" font-weight="bold" text-anchor="middle" x="316.5" y="378.0">BAG P2 P1</text><text alignment-baseline="middle" font-family="Tahoma" font-size="15" font-weight="bold" text-anchor="middle" x="920.0" y="404.5">WH06 - TITAN</text><text alignment-baseline="middle" font-family="Tahoma" font-size="15" font-weight="bold" text-anchor="middle" x="1597.5" y="402.0">VS64</text><text alignment-baseline="middle" font-family="Tahoma" font-size="15" font-weight="bold" text-anchor="middle" x="1686.0" y="401.5">VS1.2</text><text alignment-baseline="middle" font-family="Tahoma" font-size="15" font-weight="bold" text-anchor="middle" x="1749.5" y="402.0">VS67</text><text alignment-baseline="middle" font-family="Tahoma" font-size="15" font-weight="bold" text-anchor="middle" x="133.0" y="405.0">CB01</text><text alignment-baseline="middle" font-family="Tahoma" font-size="15" font-weight="bold" text-anchor="middle" x="946.0" y="432.0">3.1 kg</text><text alignment-baseline="middle" font-family="Tahoma" font-size="15" font-weight="bold" text-anchor="middle" x="1100.5" y="435.5">PH12</text><text alignment-baseline="middle" font-family="Tahoma" font-size="15" font-weight="bold" text-anchor="middle" x="754.0" y="455.5">VF63</text><text alignment-baseline="middle" font-family="Tahoma" font-size="15" font-weight="bold" text-anchor="middle" x="1874.0" y="466.5">VS70</text><text alignment-baseline="middle" font-family="Tahoma" font-size="15" font-weight="bold" text-anchor="middle" x="382.0" y="460.5">OSTEP VF62</text><text alignment-baseline="middle" font-family="Tahoma" font-size="15" font-weight="bold" text-anchor="middle" x="1554.0" y="468.0">VS65</text><text alignment-baseline="middle" font-family="Tahoma" font-size="15" font-weight="bold" text-anchor="middle" x="1637.0" y="468.0">VS63</text><text alignment-baseline="middle" font-family="Tahoma" font-size="15" font-weight="bold" text-anchor="middle" x="1791.5" y="467.5">VS68</text><text alignment-baseline="middle" font-family="Tahoma" font-size="15" font-weight="bold" text-anchor="middle" x="1384.5" y="496.0">V3VS01</text><text alignment-baseline="middle" font-family="Tahoma" font-size="15" font-weight="bold" text-anchor="middle" x="955.5" y="497.5">CT40</text><text alignment-baseline="middle" font-family="Tahoma" font-size="15" font-weight="bold" text-anchor="middle" x="77.0" y="497.0">PVC Unload</text><text alignment-baseline="middle" font-family="Tahoma" font-size="15" font-weight="bold" text-anchor="middle" x="77.5" y="515.0">Counter</text><text alignment-baseline="middle" font-family="Tahoma" font-size="15" font-weight="bold" text-anchor="middle" x="416.5" y="536.5">VF95</text><text alignment-baseline="middle" font-family="Tahoma" font-size="15" font-weight="bold" text-anchor="middle" x="754.0" y="536.5">VF96</text><text alignment-baseline="middle" font-family="Tahoma" font-size="15" font-weight="bold" text-anchor="middle" x="249.5" y="537.5">VG01</text><text alignment-baseline="middle" font-family="Tahoma" font-size="15" font-weight="bold" text-anchor="middle" x="77.0" y="550.5">COLOR BAGS</text><text alignment-baseline="middle" font-family="Tahoma" font-size="15" font-weight="bold" text-anchor="middle" x="1599.5" y="566.0">0.1 kg</text><text alignment-baseline="middle" font-family="Tahoma" font-size="15" font-weight="bold" text-anchor="middle" x="1818.0" y="566.0">-0.0 kg</text><text alignment-baseline="middle" font-family="Tahoma" font-size="15" font-weight="bold" text-anchor="middle" x="78.0" y="569.0">Counter</text><text alignment-baseline="middle" font-family="Tahoma" font-size="15" font-weight="bold" text-anchor="middle" x="1598.0" y="605.5">MANUAL</text><text alignment-baseline="middle" font-family="Tahoma" font-size="15" font-weight="bold" text-anchor="middle" x="900.5" y="607.0">VF98</text><text alignment-baseline="middle" font-family="Tahoma" font-size="15" font-weight="bold" text-anchor="middle" x="1815.5" y="605.5">MANUAL</text><text alignment-baseline="middle" font-family="Tahoma" font-size="15" font-weight="bold" text-anchor="middle" x="1215.5" y="609.5">VS71</text><text alignment-baseline="middle" font-family="Tahoma" font-size="15" font-weight="bold" text-anchor="middle" x="1044.5" y="639.5">SPEED</text><text alignment-baseline="middle" font-family="Tahoma" font-size="15" font-weight="bold" text-anchor="middle" x="175.5" y="687.0">GP05</text><text alignment-baseline="middle" font-family="Tahoma" font-size="15" font-weight="bold" text-anchor="middle" x="981.0" y="695.0">CT40 </text><text alignment-baseline="middle" font-family="Tahoma" font-size="15" font-weight="bold" text-anchor="middle" x="1035.5" y="695.0"> 100</text><text alignment-baseline="middle" font-family="Tahoma" font-size="15" font-weight="bold" text-anchor="middle" x="1112.5" y="694.5">13 %</text><text alignment-baseline="middle" font-family="Tahoma" font-size="15" font-weight="bold" text-anchor="middle" x="1639.5" y="696.5">VS73</text><text alignment-baseline="middle" font-family="Tahoma" font-size="15" font-weight="bold" text-anchor="middle" x="1509.0" y="714.0">32.7 °C</text><text alignment-baseline="middle" font-family="Tahoma" font-size="15" font-weight="bold" text-anchor="middle" x="1779.0" y="724.0">VS74</text><text alignment-baseline="middle" font-family="Tahoma" font-size="15" font-weight="bold" text-anchor="middle" x="1386.5" y="738.0">HP02</text><text alignment-baseline="middle" font-family="Tahoma" font-size="15" font-weight="bold" text-anchor="middle" x="374.0" y="740.5">VR05</text><text alignment-baseline="middle" font-family="Tahoma" font-size="15" font-weight="bold" text-anchor="middle" x="111.5" y="752.5">VF92</text><text alignment-baseline="middle" font-family="Tahoma" font-size="15" font-weight="bold" text-anchor="middle" x="1704.5" y="784.0">HEATING</text><text alignment-baseline="middle" font-family="Tahoma" font-size="25" font-weight="bold" text-anchor="middle" x="740.5" y="804.0">MIX 100</text><text alignment-baseline="middle" font-family="Tahoma" font-size="15" font-weight="bold" text-anchor="middle" x="1704.0" y="805.5">SETTINGS</text><text alignment-baseline="middle" font-family="Tahoma" font-size="15" font-weight="bold" text-anchor="middle" x="1597.0" y="805.0">HT01</text><text alignment-baseline="middle" font-family="Tahoma" font-size="15" font-weight="bold" text-anchor="middle" x="1032.5" y="851.5">COMPONENTS</text><text alignment-baseline="middle" font-family="Tahoma" font-size="15" font-weight="bold" text-anchor="middle" x="1214.0" y="851.5">SCALES</text><text alignment-baseline="middle" font-family="Tahoma" font-size="15" font-weight="bold" text-anchor="middle" x="182.5" y="854.0">600 s</text><text alignment-baseline="middle" font-family="Tahoma" font-size="15" font-weight="bold" text-anchor="middle" x="55.0" y="854.5">Delay Stop</text><text alignment-baseline="middle" font-family="Tahoma" font-size="15" font-weight="bold" text-anchor="middle" x="400.5" y="862.5">RECIPE</text><text alignment-baseline="middle" font-family="Tahoma" font-size="15" font-weight="bold" text-anchor="middle" x="1031.5" y="873.0">PARAMETERS</text><text alignment-baseline="middle" font-family="Tahoma" font-size="15" font-weight="bold" text-anchor="middle" x="1213.0" y="873.0"> PARAMETERS</text><text alignment-baseline="middle" font-family="Tahoma" font-size="15" font-weight="bold" text-anchor="middle" x="183.0" y="893.5">600 s</text><text alignment-baseline="middle" font-family="Tahoma" font-size="15" font-weight="bold" text-anchor="middle" x="43.0" y="894.0">Actual</text><text alignment-baseline="middle" font-family="Tahoma" font-size="15" font-weight="bold" text-anchor="middle" x="1413.0" y="897.5">HP01</text><text alignment-baseline="middle" font-family="Tahoma" font-size="15" font-weight="bold" text-anchor="middle" x="400.5" y="963.5">UNLOAD SILOS</text><text alignment-baseline="middle" font-family="Tahoma" font-size="15" font-weight="bold" text-anchor="middle" x="246.0" y="963.5">UNLOAD SILOS</text><text alignment-baseline="middle" font-family="Tahoma" font-size="15" font-weight="bold" text-anchor="middle" x="553.5" y="963.0">UNLOAD SILOS</text><text alignment-baseline="middle" font-family="Tahoma" font-size="15" font-weight="bold" text-anchor="middle" x="709.5" y="963.5">UNLOAD</text><text alignment-baseline="middle" font-family="Tahoma" font-size="15" font-weight="bold" text-anchor="middle" x="91.0" y="975.0">LOAD SILOS</text><text alignment-baseline="middle" font-family="Tahoma" font-size="15" font-weight="bold" text-anchor="middle" x="1830.0" y="975.5">SYSTEM</text><text alignment-baseline="middle" font-family="Tahoma" font-size="15" font-weight="bold" text-anchor="middle" x="862.5" y="975.5">MIXER 100</text><text alignment-baseline="middle" font-family="Tahoma" font-size="15" font-weight="bold" text-anchor="middle" x="1018.0" y="976.0">MIXER 200</text><text alignment-baseline="middle" font-family="Tahoma" font-size="15" font-weight="bold" text-anchor="middle" x="1172.5" y="976.0">MIXER 300</text><text alignment-baseline="middle" font-family="Tahoma" font-size="15" font-weight="bold" text-anchor="middle" x="1326.0" y="976.0">MIXER 400</text><text alignment-baseline="middle" font-family="Tahoma" font-size="15" font-weight="bold" text-anchor="middle" x="1480.5" y="976.0">LIQUID</text><text alignment-baseline="middle" font-family="Tahoma" font-size="15" font-weight="bold" text-anchor="middle" x="1676.5" y="975.5">ALARM</text><text alignment-baseline="middle" font-family="Tahoma" font-size="15" font-weight="bold" text-anchor="middle" x="247.0" y="987.5">PVC - 1</text><text alignment-baseline="middle" font-family="Tahoma" font-size="15" font-weight="bold" text-anchor="middle" x="402.0" y="987.5">PVC - 2</text><text alignment-baseline="middle" font-family="Tahoma" font-size="15" font-weight="bold" text-anchor="middle" x="555.5" y="988.0">KRETA</text><text alignment-baseline="middle" font-family="Tahoma" font-size="15" font-weight="bold" text-anchor="middle" x="709.0" y="988.5">BAG</text><text alignment-baseline="middle" font-family="Tahoma" font-size="15" font-weight="bold" text-anchor="middle" x="39.0" y="1048.5">Output</text><text alignment-baseline="middle" font-family="Tahoma" font-size="15" font-weight="bold" text-anchor="middle" x="1640.5" y="1069.5">CAP NUM SCRL</text><text alignment-baseline="middle" font-family="Tahoma" font-size="15" font-weight="bold" text-anchor="middle" x="1745.5" y="1070.0">1.5Gb(1.0Gb)</text><text alignment-baseline="middle" font-family="Tahoma" font-size="15" font-weight="bold" text-anchor="middle" x="348.5" y="1071.0">26/11/2019 18:09:49 Driver : Communication error : station Default Station, error An existing connection was forcibly closed by the remole host.</text><text alignment-baseline="middle" font-family="Tahoma" font-size="15" font-weight="bold" text-anchor="middle" x="1832.0" y="1070.5">Inglese</text><g transform="translate(1321.0,526.5) scale(0.09320359393058196) translate(-257.5008,-147.71519999999998)" id="3way_valve_4"><path style="fill:none;stroke:#4c4c4c;stroke-width:2" d="M635,240 l177,0" />
<path style="fill:none;stroke:#4c4c4c;stroke-width:2" d="M23,241 l177,0" />
<path style="fill:#c0c0c0;stroke:#4c4c4c;stroke-width:2" d="M202,456 l0,-433 216,217 217,-217 0,433 -433,0z" />
<path style="fill:none;stroke:#4c4c4c;stroke-width:2" d="M202,456 l216,-216 217,215" />

</g><g transform="translate(1413.5,131.5) scale(0.063689122519231) translate(-257.5008,-257.5008)" id="fan_100"><path style="fill:#ccc" d="M28,28 l942,0 0,942 -942,0 0,-942z" />
<path style="fill:#c7c7c7" d="M28,697 l942,-394 0,667 -942,0 0,-273z" />
<path style="fill:#c2c2c2" d="M28,737 l942,-394 0,627 -942,0 0,-233z" />
<path style="fill:#bdbdbd" d="M28,795 l942,-394 0,569 -942,0 0,-175z" />
<path style="fill:none;stroke:#4c4c4c;stroke-width:2" d="M28,28 l942,0 0,942 -942,0 0,-942" />
<path style="fill:#7f7f7f;stroke:#4c4c4c;stroke-width:2" d="M665,901 l-109,30 -114,0 -109,-30 -98,-57 -81,-79 -58,-100 -29,-109 0,-114 30,-111 57,-98 79,-79 100,-58 109,-29 114,0 111,29 98,58 79,79 58,98 29,111 0,114 -29,109 -58,100 -79,79 -100,57z" />
<path style="fill:#191919" d="M658,884 l-104,28 -110,0 -104,-28 -94,-55 -77,-77 -55,-94 -28,-104 2,-110 26,-105 55,-93 77,-77 94,-55 104,-28 110,0 104,28 94,55 77,77 55,94 28,104 0,110 -28,104 -55,94 -77,77 -94,55z" />
<path style="fill:#b2b2b2" d="M565,891 l0,-326 -132,0 0,326 132,0z" />
<path style="fill:#ccc" d="M565,891 l-17,-28 -13,-30 -10,-31 -6,-31 -3,-32 0,-32 4,-32 8,-31 11,-31 15,-29 5,-10 6,-9 -8,0 -124,0 -17,29 -12,29 -10,31 -6,32 -2,21 -1,10 0,11 2,32 5,32 8,31 12,30 15,29 6,9 8,0 124,0z" />
<path style="fill:none;stroke:#4c4c4c;stroke-width:2" d="M565,891 l0,-326 -132,0 -17,29 -12,29 -10,31 -6,32 -3,31 1,32 4,32 7,32 11,30 14,29 11,19 132,0" />
<path style="fill:#b2b2b2" d="M872,639 l-285,-165 -63,113 282,165 66,-113z" />
<path style="fill:#ccc" d="M872,639 l-33,0 -33,-4 -31,-7 -31,-10 -29,-14 -28,-17 -26,-19 -23,-22 -21,-25 -19,-27 -5,-10 -6,-10 -3,7 -16,29 -16,28 -17,28 -8,14 -3,7 4,10 17,29 21,25 22,24 25,20 27,18 29,14 30,12 32,8 32,4 10,1 12,0 10,0 11,0 17,-29 16,-28 17,-28 12,-21 4,-7z" />
<path style="fill:none;stroke:#4c4c4c;stroke-width:2" d="M872,639 l-285,-165 -63,113 16,30 19,26 21,24 24,22 27,18 28,16 30,12 31,10 32,5 33,2 21,0 66,-113" />
<path style="fill:#b2b2b2" d="M806,246 l-282,165 63,113 285,-165 -66,-113z" />
<path style="fill:#ccc" d="M806,246 l-16,29 -20,26 -21,24 -24,22 -27,18 -28,16 -29,13 -31,9 -32,6 -33,2 -10,0 -11,0 3,7 16,28 16,28 16,28 12,22 12,0 11,0 33,-2 32,-6 31,-9 30,-13 28,-16 26,-18 25,-22 21,-24 20,-26 11,-19 5,-10 -4,-7 -16,-28 -17,-28 -16,-29 -9,-14 -4,-7z" />
<path style="fill:none;stroke:#4c4c4c;stroke-width:2" d="M806,246 l-282,165 63,113 12,0 33,-1 32,-5 32,-8 30,-12 29,-14 27,-18 25,-20 22,-23 21,-26 17,-28 5,-10 -66,-113" />
<path style="fill:#b2b2b2" d="M433,107 l0,326 132,0 0,-326 -132,0z" />
<path style="fill:#ccc" d="M433,107 l17,28 13,30 10,31 6,31 3,32 -1,32 -4,32 -7,31 -11,31 -15,29 -5,10 -6,9 8,0 124,0 17,-29 12,-29 10,-31 6,-32 2,-21 1,-10 0,-11 -2,-32 -5,-32 -8,-31 -12,-30 -15,-29 -6,-9 -8,0 -124,0z" />
<path style="fill:none;stroke:#4c4c4c;stroke-width:2" d="M433,107 l0,326 132,0 17,-29 12,-29 10,-31 6,-32 3,-31 -1,-32 -4,-32 -7,-32 -11,-30 -14,-29 -11,-19 -132,0" />
<path style="fill:#b2b2b2" d="M126,359 l285,165 63,-113 -282,-165 -66,113z" />
<path style="fill:#ccc" d="M126,359 l33,0 33,4 31,7 31,10 29,14 28,17 26,19 23,22 21,25 19,27 5,10 6,10 3,-7 16,-29 16,-28 17,-28 8,-14 3,-7 -4,-10 -17,-29 -21,-25 -22,-24 -25,-20 -27,-18 -29,-14 -30,-12 -32,-8 -32,-4 -10,-1 -12,0 -10,0 -11,0 -17,29 -16,28 -17,28 -12,21 -4,7z" />
<path style="fill:none;stroke:#4c4c4c;stroke-width:2" d="M126,359 l285,165 63,-113 -16,-30 -19,-26 -21,-24 -24,-22 -27,-18 -28,-16 -30,-12 -31,-10 -32,-5 -33,-2 -21,0 -66,113" />
<path style="fill:#b2b2b2" d="M192,752 l282,-165 -63,-113 -285,165 66,113z" />
<path style="fill:#ccc" d="M192,752 l16,-29 20,-26 21,-24 24,-22 27,-18 28,-16 29,-13 31,-9 32,-6 33,-2 10,0 11,0 -3,-7 -16,-28 -16,-28 -16,-28 -12,-22 -12,0 -11,0 -33,2 -32,6 -31,9 -30,13 -28,16 -26,18 -25,22 -21,24 -20,26 -11,19 -5,10 4,7 16,28 17,28 16,29 9,14 4,7z" />
<path style="fill:none;stroke:#4c4c4c;stroke-width:2" d="M192,752 l282,-165 -63,-113 -12,0 -33,1 -32,5 -32,8 -30,12 -29,14 -27,18 -25,20 -22,23 -21,26 -17,28 -5,10 66,113" />
<circle style="fill:#666;stroke:#4c4c4c;stroke-width:2" cx="499" cy="499" r="115" />
<circle style="fill:#e5e5e5" cx="499" cy="499" r="98" />
<circle style="fill:#7f7f7f" cx="499" cy="499" r="32" />
<path style="fill:#000" d="M86,946 l59,0 0,19 -59,0 0,-19z" />
<path style="fill:#000" d="M165,946 l59,0 0,19 -59,0 0,-19z" />
<path style="fill:#000" d="M303,946 l58,0 0,19 -58,0 0,-19z" />
<path style="fill:#000" d="M912,965 l-59,0 0,-19 59,0 0,19z" />
<path style="fill:#000" d="M833,965 l-59,0 0,-19 59,0 0,19z" />
<path style="fill:#000" d="M695,965 l-58,0 0,-19 58,0 0,19z" />

</g><g transform="translate(333.5,708.5) scale(0.063689122519231) translate(-257.5008,-257.5008)" id="fan_101"><path style="fill:#ccc" d="M28,28 l942,0 0,942 -942,0 0,-942z" />
<path style="fill:#c7c7c7" d="M28,697 l942,-394 0,667 -942,0 0,-273z" />
<path style="fill:#c2c2c2" d="M28,737 l942,-394 0,627 -942,0 0,-233z" />
<path style="fill:#bdbdbd" d="M28,795 l942,-394 0,569 -942,0 0,-175z" />
<path style="fill:none;stroke:#4c4c4c;stroke-width:2" d="M28,28 l942,0 0,942 -942,0 0,-942" />
<path style="fill:#7f7f7f;stroke:#4c4c4c;stroke-width:2" d="M665,901 l-109,30 -114,0 -109,-30 -98,-57 -81,-79 -58,-100 -29,-109 0,-114 30,-111 57,-98 79,-79 100,-58 109,-29 114,0 111,29 98,58 79,79 58,98 29,111 0,114 -29,109 -58,100 -79,79 -100,57z" />
<path style="fill:#191919" d="M658,884 l-104,28 -110,0 -104,-28 -94,-55 -77,-77 -55,-94 -28,-104 2,-110 26,-105 55,-93 77,-77 94,-55 104,-28 110,0 104,28 94,55 77,77 55,94 28,104 0,110 -28,104 -55,94 -77,77 -94,55z" />
<path style="fill:#b2b2b2" d="M565,891 l0,-326 -132,0 0,326 132,0z" />
<path style="fill:#ccc" d="M565,891 l-17,-28 -13,-30 -10,-31 -6,-31 -3,-32 0,-32 4,-32 8,-31 11,-31 15,-29 5,-10 6,-9 -8,0 -124,0 -17,29 -12,29 -10,31 -6,32 -2,21 -1,10 0,11 2,32 5,32 8,31 12,30 15,29 6,9 8,0 124,0z" />
<path style="fill:none;stroke:#4c4c4c;stroke-width:2" d="M565,891 l0,-326 -132,0 -17,29 -12,29 -10,31 -6,32 -3,31 1,32 4,32 7,32 11,30 14,29 11,19 132,0" />
<path style="fill:#b2b2b2" d="M872,639 l-285,-165 -63,113 282,165 66,-113z" />
<path style="fill:#ccc" d="M872,639 l-33,0 -33,-4 -31,-7 -31,-10 -29,-14 -28,-17 -26,-19 -23,-22 -21,-25 -19,-27 -5,-10 -6,-10 -3,7 -16,29 -16,28 -17,28 -8,14 -3,7 4,10 17,29 21,25 22,24 25,20 27,18 29,14 30,12 32,8 32,4 10,1 12,0 10,0 11,0 17,-29 16,-28 17,-28 12,-21 4,-7z" />
<path style="fill:none;stroke:#4c4c4c;stroke-width:2" d="M872,639 l-285,-165 -63,113 16,30 19,26 21,24 24,22 27,18 28,16 30,12 31,10 32,5 33,2 21,0 66,-113" />
<path style="fill:#b2b2b2" d="M806,246 l-282,165 63,113 285,-165 -66,-113z" />
<path style="fill:#ccc" d="M806,246 l-16,29 -20,26 -21,24 -24,22 -27,18 -28,16 -29,13 -31,9 -32,6 -33,2 -10,0 -11,0 3,7 16,28 16,28 16,28 12,22 12,0 11,0 33,-2 32,-6 31,-9 30,-13 28,-16 26,-18 25,-22 21,-24 20,-26 11,-19 5,-10 -4,-7 -16,-28 -17,-28 -16,-29 -9,-14 -4,-7z" />
<path style="fill:none;stroke:#4c4c4c;stroke-width:2" d="M806,246 l-282,165 63,113 12,0 33,-1 32,-5 32,-8 30,-12 29,-14 27,-18 25,-20 22,-23 21,-26 17,-28 5,-10 -66,-113" />
<path style="fill:#b2b2b2" d="M433,107 l0,326 132,0 0,-326 -132,0z" />
<path style="fill:#ccc" d="M433,107 l17,28 13,30 10,31 6,31 3,32 -1,32 -4,32 -7,31 -11,31 -15,29 -5,10 -6,9 8,0 124,0 17,-29 12,-29 10,-31 6,-32 2,-21 1,-10 0,-11 -2,-32 -5,-32 -8,-31 -12,-30 -15,-29 -6,-9 -8,0 -124,0z" />
<path style="fill:none;stroke:#4c4c4c;stroke-width:2" d="M433,107 l0,326 132,0 17,-29 12,-29 10,-31 6,-32 3,-31 -1,-32 -4,-32 -7,-32 -11,-30 -14,-29 -11,-19 -132,0" />
<path style="fill:#b2b2b2" d="M126,359 l285,165 63,-113 -282,-165 -66,113z" />
<path style="fill:#ccc" d="M126,359 l33,0 33,4 31,7 31,10 29,14 28,17 26,19 23,22 21,25 19,27 5,10 6,10 3,-7 16,-29 16,-28 17,-28 8,-14 3,-7 -4,-10 -17,-29 -21,-25 -22,-24 -25,-20 -27,-18 -29,-14 -30,-12 -32,-8 -32,-4 -10,-1 -12,0 -10,0 -11,0 -17,29 -16,28 -17,28 -12,21 -4,7z" />
<path style="fill:none;stroke:#4c4c4c;stroke-width:2" d="M126,359 l285,165 63,-113 -16,-30 -19,-26 -21,-24 -24,-22 -27,-18 -28,-16 -30,-12 -31,-10 -32,-5 -33,-2 -21,0 -66,113" />
<path style="fill:#b2b2b2" d="M192,752 l282,-165 -63,-113 -285,165 66,113z" />
<path style="fill:#ccc" d="M192,752 l16,-29 20,-26 21,-24 24,-22 27,-18 28,-16 29,-13 31,-9 32,-6 33,-2 10,0 11,0 -3,-7 -16,-28 -16,-28 -16,-28 -12,-22 -12,0 -11,0 -33,2 -32,6 -31,9 -30,13 -28,16 -26,18 -25,22 -21,24 -20,26 -11,19 -5,10 4,7 16,28 17,28 16,29 9,14 4,7z" />
<path style="fill:none;stroke:#4c4c4c;stroke-width:2" d="M192,752 l282,-165 -63,-113 -12,0 -33,1 -32,5 -32,8 -30,12 -29,14 -27,18 -25,20 -22,23 -21,26 -17,28 -5,10 66,113" />
<circle style="fill:#666;stroke:#4c4c4c;stroke-width:2" cx="499" cy="499" r="115" />
<circle style="fill:#e5e5e5" cx="499" cy="499" r="98" />
<circle style="fill:#7f7f7f" cx="499" cy="499" r="32" />
<path style="fill:#000" d="M86,946 l59,0 0,19 -59,0 0,-19z" />
<path style="fill:#000" d="M165,946 l59,0 0,19 -59,0 0,-19z" />
<path style="fill:#000" d="M303,946 l58,0 0,19 -58,0 0,-19z" />
<path style="fill:#000" d="M912,965 l-59,0 0,-19 59,0 0,19z" />
<path style="fill:#000" d="M833,965 l-59,0 0,-19 59,0 0,19z" />
<path style="fill:#000" d="M695,965 l-58,0 0,-19 58,0 0,19z" />

</g><g transform="translate(1077.0,359.0) scale(0.19262076078986937) translate(-257.5008,-62.6352) rotate(180)" id="flexible_duct_104"><path style="fill:none;stroke:#4c4c4c;stroke-width:2" d="M28,214 l39,-162 39,157 40,-162 39,157 39,-161 39,157 40,-162 39,157 39,-163 39,158 40,-162 39,157 39,-157 40,162 39,-158 39,163 39,-157 40,162 39,-157 39,161 39,-157 40,162 39,-157 39,162" />

</g><g transform="translate(993.0,521.0) scale(0.19262076078986937) translate(-257.5008,-62.6352) rotate(180)" id="flexible_duct_105"><path style="fill:none;stroke:#4c4c4c;stroke-width:2" d="M28,214 l39,-162 39,157 40,-162 39,157 39,-161 39,157 40,-162 39,157 39,-163 39,158 40,-162 39,157 39,-157 40,162 39,-158 39,163 39,-157 40,162 39,-157 39,161 39,-157 40,162 39,-157 39,162" />

</g><g transform="translate(1040.5,445.0) scale(0.09009680746622922) translate(-230.69279999999998,-257.5008)" id="hopper_110"><path style="fill:#999" d="M27,27 l0,187 140,326 0,93 164,327 233,0 163,-327 0,-93 139,-326 0,-187 -839,0z" />
<path style="fill:#b2b2b2" d="M74,27 l0,187 124,326 0,93 145,327 208,0 145,-327 0,-93 124,-326 0,-187 -746,0z" />
<path style="fill:#ccc" d="M98,27 l0,187 116,326 0,93 136,327 194,0 136,-327 0,-93 116,-326 0,-187 -698,0z" />
<path style="fill:#999" d="M144,27 l0,187 101,326 0,93 118,327 168,0 118,-327 0,-93 101,-326 0,-187 -606,0z" />
<path style="fill:#b2b2b2" d="M214,27 l0,187 78,326 0,93 90,327 130,0 90,-327 0,-93 78,-326 0,-187 -466,0z" />
<path style="fill:#ccc" d="M261,27 l0,187 62,326 0,93 73,327 103,0 72,-327 0,-93 62,-326 0,-187 -372,0z" />
<path style="fill:#e5e5e5" d="M354,27 l0,187 31,326 0,93 36,327 52,0 36,-327 0,-93 31,-326 0,-187 -186,0z" />
<path style="fill:none;stroke:#4c4c4c;stroke-width:2" d="M27,27 l0,187 140,326 0,93 164,327 233,0 163,-327 0,-93 139,-326 0,-187 -839,0" />
<path style="fill:none;stroke:#4c4c4c;stroke-width:2" d="M144,27 l0,187 101,326 0,93 118,327 168,0 118,-327 0,-93 101,-326 0,-187 -606,0" />
<ellipse style="fill:#999;stroke:#4c4c4c;stroke-width:2" cx="447" cy="959" rx="116" ry="11" />
<ellipse style="fill:#4c4c4c;stroke:#4c4c4c;stroke-width:2" cx="447" cy="959" rx="93" ry="8" />
<path style="fill:none;stroke:#7f7f7f;stroke-width:2" d="M167,633 l560,0" />
<path style="fill:none;stroke:#7f7f7f;stroke-width:2" d="M27,214 l839,0" />
<path style="fill:#7f7f7f" d="M121,534 l652,0 0,12 -652,0 0,-12z" />
<path style="fill:#b2b2b2" d="M202,534 l490,0 0,12 -490,0 0,-12z" />
<path style="fill:#e5e5e5" d="M348,534 l198,0 0,12 -198,0 0,-12z" />
<path style="fill:none;stroke:#4c4c4c;stroke-width:2" d="M121,534 l652,0 0,12 -652,0 0,-12" />
<path style="fill:#7f7f7f;stroke:#4c4c4c;stroke-width:2" d="M144,423 l-46,-116 -71,93 117,23z" />
<path style="fill:#7f7f7f;stroke:#4c4c4c;stroke-width:2" d="M750,423 l47,-116 70,93 -117,23z" />

</g><g transform="translate(704.5,787.5) scale(0.4932247757631751) translate(-257.5008,-166.2528)" id="mixer_148"><path style="fill:#ccc;stroke:#4c4c4c;stroke-width:2" d="M420,185 l58,0 0,-127 -58,0 0,127z" />
<path style="fill:#ccc;stroke:#4c4c4c;stroke-width:2" d="M420,58 l-118,0 0,127 118,0 0,-127z" />
<path style="fill:#ccc;stroke:#4c4c4c;stroke-width:2" d="M302,185 l-39,-30 0,-69 39,-28 0,127z" />
<path style="fill:#999;stroke:#4c4c4c;stroke-width:2" d="M302,66 l118,0 0,11 -118,0 0,-11z" />
<path style="fill:#999;stroke:#4c4c4c;stroke-width:2" d="M302,86 l118,0 0,11 -118,0 0,-11z" />
<path style="fill:#999;stroke:#4c4c4c;stroke-width:2" d="M302,105 l118,0 0,11 -118,0 0,-11z" />
<path style="fill:#999;stroke:#4c4c4c;stroke-width:2" d="M302,125 l118,0 0,10 -118,0 0,-10z" />
<path style="fill:#999;stroke:#4c4c4c;stroke-width:2" d="M302,144 l118,0 0,11 -118,0 0,-11z" />
<path style="fill:#999;stroke:#4c4c4c;stroke-width:2" d="M302,166 l118,0 0,8 -118,0 0,-8z" />
<path style="fill:#e5e5e5;stroke:#4c4c4c;stroke-width:2" d="M381,185 l117,0 0,19 -235,0 0,-49 118,30z" />
<path style="fill:#e5e5e5;stroke:#4c4c4c;stroke-width:2" d="M105,224 l158,0 0,-166 -158,0 0,166z" />
<path style="fill:#ccc" d="M105,155 l158,0 0,-69 -158,0 0,69z" />
<path style="fill:#999" d="M105,135 l158,0 0,-30 -158,0 0,30z" />
<path style="fill:#4c4c4c" d="M105,125 l158,0 0,-9 -158,0 0,9z" />
<path style="fill:#999;stroke:#4c4c4c;stroke-width:2" d="M105,224 l158,0 0,205 -158,0 0,-205z" />
<path style="fill:#4c4c4c;stroke:#4c4c4c;stroke-width:2" d="M146,597 l-41,-19 0,-158 41,-39 0,138 805,0 0,20 -805,0 0,58z" />
<path style="fill:#b2b2b2;stroke:#4c4c4c;stroke-width:2" d="M951,224 l19,0 0,392 -19,0 0,-392z" />
<path style="fill:#b2b2b2;stroke:#4c4c4c;stroke-width:2" d="M146,224 l20,0 0,392 -20,0 0,-392z" />
<path style="fill:#ccc" d="M166,224 l785,0 0,293 -785,0 0,-293z" />
<path style="fill:#b2b2b2" d="M166,371 l785,0 0,146 -785,0 0,-146z" />
<path style="fill:#999" d="M166,450 l785,0 0,67 -785,0 0,-67z" />
<path style="fill:#7f7f7f" d="M166,498 l785,0 0,19 -785,0 0,-19z" />
<path style="fill:none;stroke:#4c4c4c;stroke-width:2" d="M166,224 l785,0 0,293 -785,0 0,-293" />
<path style="fill:#e5e5e5" d="M28,578 l77,0 0,-550 -77,0 0,550z" />
<path style="fill:#ccc" d="M28,578 l77,0 0,-227 -77,0 0,227z" />
<path style="fill:#b2b2b2" d="M28,578 l77,0 0,-80 -77,0 0,80z" />
<path style="fill:#999" d="M28,578 l77,0 0,-20 -77,0 0,20z" />
<path style="fill:none;stroke:#4c4c4c;stroke-width:2" d="M28,578 l77,0 0,-550 -77,0 0,550" />
<path style="fill:#4c4c4c;stroke:#4c4c4c;stroke-width:2" d="M166,232 l785,0 0,11 -785,0 0,-11z" />
<path style="fill:#7f7f7f" d="M519,194 l78,0 0,19 -78,0 0,-19z" />
<path style="fill:#b2b2b2" d="M532,194 l52,0 0,19 -52,0 0,-19z" />
<path style="fill:#e5e5e5;stroke:#ccc;stroke-width:2" d="M548,194 l19,0 0,19 -19,0 0,-19z" />
<path style="fill:none;stroke:#4c4c4c;stroke-width:2" d="M519,194 l78,0 0,19 -78,0 0,-19" />
<path style="fill:#7f7f7f" d="M204,194 l78,0 0,19 -78,0 0,-19z" />
<path style="fill:#b2b2b2" d="M217,194 l54,0 0,19 -54,0 0,-19z" />
<path style="fill:#e5e5e5;stroke:#ccc;stroke-width:2" d="M235,194 l19,0 0,19 -19,0 0,-19z" />
<path style="fill:none;stroke:#4c4c4c;stroke-width:2" d="M204,194 l78,0 0,19 -78,0 0,-19" />
<path style="fill:#7f7f7f" d="M832,185 l80,0 0,19 -80,0 0,-19z" />
<path style="fill:#b2b2b2" d="M845,185 l54,0 0,19 -54,0 0,-19z" />
<path style="fill:#e5e5e5;stroke:#ccc;stroke-width:2" d="M862,185 l20,0 0,19 -20,0 0,-19z" />
<path style="fill:none;stroke:#4c4c4c;stroke-width:2" d="M832,185 l80,0 0,19 -80,0 0,-19" />
<path style="fill:#b2b2b2;stroke:#4c4c4c;stroke-width:2" d="M735,213 l216,0 0,11 -216,0 0,-11z" />
<path style="fill:#4c4c4c;stroke:#4c4c4c;stroke-width:2" d="M224,213 l39,0 0,11 -39,0 0,-11z" />
<path style="fill:#4c4c4c;stroke:#4c4c4c;stroke-width:2" d="M539,213 l39,0 0,11 -39,0 0,-11z" />
<path style="fill:#4c4c4c;stroke:#4c4c4c;stroke-width:2" d="M852,204 l41,0 0,9 -41,0 0,-9z" />
<path style="fill:none;stroke:#7f7f7f;stroke-width:2" d="M224,409 l658,0" />
<path style="fill:none;stroke:#7f7f7f;stroke-width:2" d="M194,429 l580,0" />
<path style="fill:none;stroke:#7f7f7f;stroke-width:2" d="M362,470 l550,0" />
<path style="fill:none;stroke:#7f7f7f;stroke-width:2" d="M312,343 l589,0" />
<circle style="fill:#b2b2b2;stroke:#4c4c4c;stroke-width:2" cx="200" cy="278" r="15" />
<path style="fill:#191919;stroke:#4c4c4c;stroke-width:2" d="M200,271 l6,3 1,4 -7,6 -6,-6 1,-4 5,-3z" />
<path style="fill:#ff0;stroke:#4c4c4c;stroke-width:2" d="M47,252 l39,0 0,21 -39,0 0,-21z" />
<path style="fill:#ff0;stroke:#4c4c4c;stroke-width:2" d="M47,144 l39,0 0,22 -39,0 0,-22z" />

</g><g transform="translate(1394.5,782.5) scale(0.1413587841280493) translate(-257.5008,-201.95999999999998)" id="pump_153"><g transform="scale(-1,1) translate(-561,0)">
        <rect style="fill:#0f0;stroke:#4c4c4c;stroke-width:2" x="280" y="292" width="254" height="121" />
        <rect style="fill:#0f0;stroke:#4c4c4c;stroke-width:2" x="27" y="27" width="254" height="121" />
        <ellipse style="fill:#0f0;stroke:#4c4c4c;stroke-width:2" cx="280" cy="219" rx="193" ry="192" />
        <ellipse style="fill:#000;stroke:#4c4c4c;stroke-width:2" cx="280" cy="219" rx="72" ry="72" />
        <rect style="fill:none" x="15" y="15" width="531" height="410" />
    </g>
</g><g transform="translate(1383.5,862.5) scale(0.1413587841280493) translate(-257.5008,-201.95999999999998)" id="pump_157"><g transform="scale(-1,1) translate(-561,0)">
        <rect style="fill:#0f0;stroke:#4c4c4c;stroke-width:2" x="280" y="292" width="254" height="121" />
        <rect style="fill:#0f0;stroke:#4c4c4c;stroke-width:2" x="27" y="27" width="254" height="121" />
        <ellipse style="fill:#0f0;stroke:#4c4c4c;stroke-width:2" cx="280" cy="219" rx="193" ry="192" />
        <ellipse style="fill:#000;stroke:#4c4c4c;stroke-width:2" cx="280" cy="219" rx="72" ry="72" />
        <rect style="fill:none" x="15" y="15" width="531" height="410" />
    </g>
</g><g transform="translate(225.0,180.5) scale(0.063689122519231) translate(-87.0672,-257.5008)" id="valve_235"><g transform="rotate(90,417,141)">
        <path style="fill:none;stroke:#4c4c4c;stroke-width:2" d="M201,143 l-178,0" />
        <path style="fill:none;stroke:#4c4c4c;stroke-width:2" d="M634,143 l177,0" />
        <path style="fill:#c0c0c0;stroke:#4c4c4c;stroke-width:2" d="M383,160 l-182,99 0,-236 182,101 -2,4 -1,4 -1,5 0,4 0,5 1,4 1,5 2,5z" />
        <path style="fill:none;stroke:#4c4c4c;stroke-width:2" d="M382,161 l-181,98" />
        <path style="fill:#c0c0c0;stroke:#4c4c4c;stroke-width:2" d="M452,122 l182,-99 0,236 -182,-101 2,-4 1,-4 1,-5 0,-4 0,-5 -1,-5 -1,-4 -2,-5z" />
        <circle style="fill:#c0c0c0;stroke:#4c4c4c;stroke-width:2" cx="418" cy="141" r="39" />
    </g>
</g><g transform="translate(323.0,180.5) scale(0.063689122519231) translate(-87.0672,-257.5008)" id="valve_236"><g transform="rotate(90,417,141)">
        <path style="fill:none;stroke:#4c4c4c;stroke-width:2" d="M201,143 l-178,0" />
        <path style="fill:none;stroke:#4c4c4c;stroke-width:2" d="M634,143 l177,0" />
        <path style="fill:#c0c0c0;stroke:#4c4c4c;stroke-width:2" d="M383,160 l-182,99 0,-236 182,101 -2,4 -1,4 -1,5 0,4 0,5 1,4 1,5 2,5z" />
        <path style="fill:none;stroke:#4c4c4c;stroke-width:2" d="M382,161 l-181,98" />
        <path style="fill:#c0c0c0;stroke:#4c4c4c;stroke-width:2" d="M452,122 l182,-99 0,236 -182,-101 2,-4 1,-4 1,-5 0,-4 0,-5 -1,-5 -1,-4 -2,-5z" />
        <circle style="fill:#c0c0c0;stroke:#4c4c4c;stroke-width:2" cx="418" cy="141" r="39" />
    </g>
</g><g transform="translate(668.0,180.5) scale(0.063689122519231) translate(-87.0672,-257.5008)" id="valve_237"><g transform="rotate(90,417,141)">
        <path style="fill:none;stroke:#4c4c4c;stroke-width:2" d="M201,143 l-178,0" />
        <path style="fill:none;stroke:#4c4c4c;stroke-width:2" d="M634,143 l177,0" />
        <path style="fill:#c0c0c0;stroke:#4c4c4c;stroke-width:2" d="M383,160 l-182,99 0,-236 182,101 -2,4 -1,4 -1,5 0,4 0,5 1,4 1,5 2,5z" />
        <path style="fill:none;stroke:#4c4c4c;stroke-width:2" d="M382,161 l-181,98" />
        <path style="fill:#c0c0c0;stroke:#4c4c4c;stroke-width:2" d="M452,122 l182,-99 0,236 -182,-101 2,-4 1,-4 1,-5 0,-4 0,-5 -1,-5 -1,-4 -2,-5z" />
        <circle style="fill:#c0c0c0;stroke:#4c4c4c;stroke-width:2" cx="418" cy="141" r="39" />
    </g>
</g><g transform="translate(1517.0,436.5) scale(0.063689122519231) translate(-87.0672,-257.5008)" id="valve_238"><g transform="rotate(90,417,141)">
        <path style="fill:none;stroke:#4c4c4c;stroke-width:2" d="M201,143 l-178,0" />
        <path style="fill:none;stroke:#4c4c4c;stroke-width:2" d="M634,143 l177,0" />
        <path style="fill:#c0c0c0;stroke:#4c4c4c;stroke-width:2" d="M383,160 l-182,99 0,-236 182,101 -2,4 -1,4 -1,5 0,4 0,5 1,4 1,5 2,5z" />
        <path style="fill:none;stroke:#4c4c4c;stroke-width:2" d="M382,161 l-181,98" />
        <path style="fill:#c0c0c0;stroke:#4c4c4c;stroke-width:2" d="M452,122 l182,-99 0,236 -182,-101 2,-4 1,-4 1,-5 0,-4 0,-5 -1,-5 -1,-4 -2,-5z" />
        <circle style="fill:#c0c0c0;stroke:#4c4c4c;stroke-width:2" cx="418" cy="141" r="39" />
    </g>
</g><g transform="translate(1559.0,436.5) scale(0.063689122519231) translate(-87.0672,-257.5008)" id="valve_239"><g transform="rotate(90,417,141)">
        <path style="fill:none;stroke:#4c4c4c;stroke-width:2" d="M201,143 l-178,0" />
        <path style="fill:none;stroke:#4c4c4c;stroke-width:2" d="M634,143 l177,0" />
        <path style="fill:#c0c0c0;stroke:#4c4c4c;stroke-width:2" d="M383,160 l-182,99 0,-236 182,101 -2,4 -1,4 -1,5 0,4 0,5 1,4 1,5 2,5z" />
        <path style="fill:none;stroke:#4c4c4c;stroke-width:2" d="M382,161 l-181,98" />
        <path style="fill:#c0c0c0;stroke:#4c4c4c;stroke-width:2" d="M452,122 l182,-99 0,236 -182,-101 2,-4 1,-4 1,-5 0,-4 0,-5 -1,-5 -1,-4 -2,-5z" />
        <circle style="fill:#c0c0c0;stroke:#4c4c4c;stroke-width:2" cx="418" cy="141" r="39" />
    </g>
</g><g transform="translate(1601.0,436.5) scale(0.063689122519231) translate(-87.0672,-257.5008)" id="valve_240"><g transform="rotate(90,417,141)">
        <path style="fill:none;stroke:#4c4c4c;stroke-width:2" d="M201,143 l-178,0" />
        <path style="fill:none;stroke:#4c4c4c;stroke-width:2" d="M634,143 l177,0" />
        <path style="fill:#c0c0c0;stroke:#4c4c4c;stroke-width:2" d="M383,160 l-182,99 0,-236 182,101 -2,4 -1,4 -1,5 0,4 0,5 1,4 1,5 2,5z" />
        <path style="fill:none;stroke:#4c4c4c;stroke-width:2" d="M382,161 l-181,98" />
        <path style="fill:#c0c0c0;stroke:#4c4c4c;stroke-width:2" d="M452,122 l182,-99 0,236 -182,-101 2,-4 1,-4 1,-5 0,-4 0,-5 -1,-5 -1,-4 -2,-5z" />
        <circle style="fill:#c0c0c0;stroke:#4c4c4c;stroke-width:2" cx="418" cy="141" r="39" />
    </g>
</g><g transform="translate(1643.0,436.5) scale(0.063689122519231) translate(-87.0672,-257.5008)" id="valve_241"><g transform="rotate(90,417,141)">
        <path style="fill:none;stroke:#4c4c4c;stroke-width:2" d="M201,143 l-178,0" />
        <path style="fill:none;stroke:#4c4c4c;stroke-width:2" d="M634,143 l177,0" />
        <path style="fill:#c0c0c0;stroke:#4c4c4c;stroke-width:2" d="M383,160 l-182,99 0,-236 182,101 -2,4 -1,4 -1,5 0,4 0,5 1,4 1,5 2,5z" />
        <path style="fill:none;stroke:#4c4c4c;stroke-width:2" d="M382,161 l-181,98" />
        <path style="fill:#c0c0c0;stroke:#4c4c4c;stroke-width:2" d="M452,122 l182,-99 0,236 -182,-101 2,-4 1,-4 1,-5 0,-4 0,-5 -1,-5 -1,-4 -2,-5z" />
        <circle style="fill:#c0c0c0;stroke:#4c4c4c;stroke-width:2" cx="418" cy="141" r="39" />
    </g>
</g><g transform="translate(1685.0,436.5) scale(0.063689122519231) translate(-87.0672,-257.5008)" id="valve_242"><g transform="rotate(90,417,141)">
        <path style="fill:none;stroke:#4c4c4c;stroke-width:2" d="M201,143 l-178,0" />
        <path style="fill:none;stroke:#4c4c4c;stroke-width:2" d="M634,143 l177,0" />
        <path style="fill:#c0c0c0;stroke:#4c4c4c;stroke-width:2" d="M383,160 l-182,99 0,-236 182,101 -2,4 -1,4 -1,5 0,4 0,5 1,4 1,5 2,5z" />
        <path style="fill:none;stroke:#4c4c4c;stroke-width:2" d="M382,161 l-181,98" />
        <path style="fill:#c0c0c0;stroke:#4c4c4c;stroke-width:2" d="M452,122 l182,-99 0,236 -182,-101 2,-4 1,-4 1,-5 0,-4 0,-5 -1,-5 -1,-4 -2,-5z" />
        <circle style="fill:#c0c0c0;stroke:#4c4c4c;stroke-width:2" cx="418" cy="141" r="39" />
    </g>
</g><g transform="translate(1755.0,436.5) scale(0.063689122519231) translate(-87.0672,-257.5008)" id="valve_243"><g transform="rotate(90,417,141)">
        <path style="fill:none;stroke:#4c4c4c;stroke-width:2" d="M201,143 l-178,0" />
        <path style="fill:none;stroke:#4c4c4c;stroke-width:2" d="M634,143 l177,0" />
        <path style="fill:#c0c0c0;stroke:#4c4c4c;stroke-width:2" d="M383,160 l-182,99 0,-236 182,101 -2,4 -1,4 -1,5 0,4 0,5 1,4 1,5 2,5z" />
        <path style="fill:none;stroke:#4c4c4c;stroke-width:2" d="M382,161 l-181,98" />
        <path style="fill:#c0c0c0;stroke:#4c4c4c;stroke-width:2" d="M452,122 l182,-99 0,236 -182,-101 2,-4 1,-4 1,-5 0,-4 0,-5 -1,-5 -1,-4 -2,-5z" />
        <circle style="fill:#c0c0c0;stroke:#4c4c4c;stroke-width:2" cx="418" cy="141" r="39" />
    </g>
</g><g transform="translate(1797.0,436.5) scale(0.063689122519231) translate(-87.0672,-257.5008)" id="valve_244"><g transform="rotate(90,417,141)">
        <path style="fill:none;stroke:#4c4c4c;stroke-width:2" d="M201,143 l-178,0" />
        <path style="fill:none;stroke:#4c4c4c;stroke-width:2" d="M634,143 l177,0" />
        <path style="fill:#c0c0c0;stroke:#4c4c4c;stroke-width:2" d="M383,160 l-182,99 0,-236 182,101 -2,4 -1,4 -1,5 0,4 0,5 1,4 1,5 2,5z" />
        <path style="fill:none;stroke:#4c4c4c;stroke-width:2" d="M382,161 l-181,98" />
        <path style="fill:#c0c0c0;stroke:#4c4c4c;stroke-width:2" d="M452,122 l182,-99 0,236 -182,-101 2,-4 1,-4 1,-5 0,-4 0,-5 -1,-5 -1,-4 -2,-5z" />
        <circle style="fill:#c0c0c0;stroke:#4c4c4c;stroke-width:2" cx="418" cy="141" r="39" />
    </g>
</g><g transform="translate(1839.0,436.5) scale(0.063689122519231) translate(-87.0672,-257.5008)" id="valve_245"><g transform="rotate(90,417,141)">
        <path style="fill:none;stroke:#4c4c4c;stroke-width:2" d="M201,143 l-178,0" />
        <path style="fill:none;stroke:#4c4c4c;stroke-width:2" d="M634,143 l177,0" />
        <path style="fill:#c0c0c0;stroke:#4c4c4c;stroke-width:2" d="M383,160 l-182,99 0,-236 182,101 -2,4 -1,4 -1,5 0,4 0,5 1,4 1,5 2,5z" />
        <path style="fill:none;stroke:#4c4c4c;stroke-width:2" d="M382,161 l-181,98" />
        <path style="fill:#c0c0c0;stroke:#4c4c4c;stroke-width:2" d="M452,122 l182,-99 0,236 -182,-101 2,-4 1,-4 1,-5 0,-4 0,-5 -1,-5 -1,-4 -2,-5z" />
        <circle style="fill:#c0c0c0;stroke:#4c4c4c;stroke-width:2" cx="418" cy="141" r="39" />
    </g>
</g><g transform="translate(1882.0,436.5) scale(0.063689122519231) translate(-87.0672,-257.5008)" id="valve_246"><g transform="rotate(90,417,141)">
        <path style="fill:none;stroke:#4c4c4c;stroke-width:2" d="M201,143 l-178,0" />
        <path style="fill:none;stroke:#4c4c4c;stroke-width:2" d="M634,143 l177,0" />
        <path style="fill:#c0c0c0;stroke:#4c4c4c;stroke-width:2" d="M383,160 l-182,99 0,-236 182,101 -2,4 -1,4 -1,5 0,4 0,5 1,4 1,5 2,5z" />
        <path style="fill:none;stroke:#4c4c4c;stroke-width:2" d="M382,161 l-181,98" />
        <path style="fill:#c0c0c0;stroke:#4c4c4c;stroke-width:2" d="M452,122 l182,-99 0,236 -182,-101 2,-4 1,-4 1,-5 0,-4 0,-5 -1,-5 -1,-4 -2,-5z" />
        <circle style="fill:#c0c0c0;stroke:#4c4c4c;stroke-width:2" cx="418" cy="141" r="39" />
    </g>
</g><g transform="translate(1250.0,616.5) scale(0.063689122519231) translate(-87.0672,-257.5008)" id="valve_247"><g transform="rotate(90,417,141)">
        <path style="fill:none;stroke:#4c4c4c;stroke-width:2" d="M201,143 l-178,0" />
        <path style="fill:none;stroke:#4c4c4c;stroke-width:2" d="M634,143 l177,0" />
        <path style="fill:#c0c0c0;stroke:#4c4c4c;stroke-width:2" d="M383,160 l-182,99 0,-236 182,101 -2,4 -1,4 -1,5 0,4 0,5 1,4 1,5 2,5z" />
        <path style="fill:none;stroke:#4c4c4c;stroke-width:2" d="M382,161 l-181,98" />
        <path style="fill:#c0c0c0;stroke:#4c4c4c;stroke-width:2" d="M452,122 l182,-99 0,236 -182,-101 2,-4 1,-4 1,-5 0,-4 0,-5 -1,-5 -1,-4 -2,-5z" />
        <circle style="fill:#c0c0c0;stroke:#4c4c4c;stroke-width:2" cx="418" cy="141" r="39" />
    </g>
</g><g transform="translate(1601.0,718.5) scale(0.063689122519231) translate(-87.0672,-257.5008)" id="valve_248"><g transform="rotate(90,417,141)">
        <path style="fill:none;stroke:#4c4c4c;stroke-width:2" d="M201,143 l-178,0" />
        <path style="fill:none;stroke:#4c4c4c;stroke-width:2" d="M634,143 l177,0" />
        <path style="fill:#c0c0c0;stroke:#4c4c4c;stroke-width:2" d="M383,160 l-182,99 0,-236 182,101 -2,4 -1,4 -1,5 0,4 0,5 1,4 1,5 2,5z" />
        <path style="fill:none;stroke:#4c4c4c;stroke-width:2" d="M382,161 l-181,98" />
        <path style="fill:#c0c0c0;stroke:#4c4c4c;stroke-width:2" d="M452,122 l182,-99 0,236 -182,-101 2,-4 1,-4 1,-5 0,-4 0,-5 -1,-5 -1,-4 -2,-5z" />
        <circle style="fill:#c0c0c0;stroke:#4c4c4c;stroke-width:2" cx="418" cy="141" r="39" />
    </g>
</g><g transform="translate(1818.0,718.5) scale(0.063689122519231) translate(-87.0672,-257.5008)" id="valve_249"><g transform="rotate(90,417,141)">
        <path style="fill:none;stroke:#4c4c4c;stroke-width:2" d="M201,143 l-178,0" />
        <path style="fill:none;stroke:#4c4c4c;stroke-width:2" d="M634,143 l177,0" />
        <path style="fill:#c0c0c0;stroke:#4c4c4c;stroke-width:2" d="M383,160 l-182,99 0,-236 182,101 -2,4 -1,4 -1,5 0,4 0,5 1,4 1,5 2,5z" />
        <path style="fill:none;stroke:#4c4c4c;stroke-width:2" d="M382,161 l-181,98" />
        <path style="fill:#c0c0c0;stroke:#4c4c4c;stroke-width:2" d="M452,122 l182,-99 0,236 -182,-101 2,-4 1,-4 1,-5 0,-4 0,-5 -1,-5 -1,-4 -2,-5z" />
        <circle style="fill:#c0c0c0;stroke:#4c4c4c;stroke-width:2" cx="418" cy="141" r="39" />
    </g>
</g><g transform="translate(1142.5,125.0) scale(0.08396775638154949) translate(-257.5008,-257.2416)" id="motor_340"><path style="fill:#313131" d="M756,464 l0,66 214,0 0,-66 -214,0z" />
<path style="fill:#4b4b4b" d="M756,468 l0,52 214,0 0,-52 -214,0z" />
<path style="fill:#7e7e7e" d="M756,471 l0,40 214,0 0,-40 -214,0z" />
<path style="fill:#b2b2b2" d="M756,475 l0,27 214,0 0,-27 -214,0z" />
<path style="fill:#e5e5e5" d="M756,479 l0,14 214,0 0,-14 -214,0z" />
<path style="fill:none" d="M756,464 l0,66 214,0 0,-66 -214,0" />
<path style="fill:none;stroke:#4c4c4c;stroke-width:2" d="M756,464 l0,66 214,0 0,-66 -214,0" />
<path style="fill:#313131" d="M790,438 l0,116 33,0 1,-1 3,-11 0,-9 1,-11 0,-13 1,-13 -1,-13 0,-13 -1,-11 0,-9 -2,-10 -1,-1 -1,-1 -33,0z" />
<path style="fill:#4b4b4b" d="M790,444 l0,93 33,0 1,-1 3,-8 1,-10 0,-11 1,-13 0,-13 -1,-13 -1,-11 -2,-11 -1,-1 -1,-1 -33,0z" />
<path style="fill:#7e7e7e" d="M790,449 l0,71 33,0 1,0 3,-10 1,-10 1,-12 -1,-12 0,-12 -2,-9 -2,-5 -1,-1 -33,0z" />
<path style="fill:#b2b2b2" d="M790,455 l0,49 33,0 2,-1 3,-12 1,-12 -1,-11 -2,-9 -1,-3 -2,-1 -33,0z" />
<path style="fill:#e5e5e5" d="M790,461 l0,26 2,0 5,0 7,0 7,0 7,0 5,0 3,-1 2,-4 1,-5 0,-6 -1,-5 -2,-4 -3,-1 -5,0 -7,0 -7,0 -7,0 -5,0 -2,0z" />
<path style="fill:none" d="M790,438 l0,116 33,0 1,-1 3,-11 0,-9 1,-11 0,-13 1,-13 -1,-13 0,-13 -1,-11 0,-9 -2,-10 -1,-1 -1,-1 -33,0" />
<path style="fill:none;stroke:#4c4c4c;stroke-width:2" d="M790,438 l0,116 33,0 1,-1 3,-11 0,-9 1,-11 0,-13 1,-13 -1,-13 0,-13 -1,-11 0,-9 -2,-10 -1,-1 -1,-1 -33,0" />
<path style="fill:#4b4b4b" d="M585,721 l32,-3 26,-5 25,-8 24,-11 22,-13 23,-18 21,-22 18,-24 12,-22 10,-24 8,-25 4,-27 1,-13 0,-5 0,-4 -2,-32 -6,-26 -8,-25 -11,-24 -13,-22 -16,-20 -21,-21 -20,-16 -22,-14 -24,-10 -25,-9 -26,-5 -23,-2 -4,0 -5,0 -504,0 -27,7 -19,19 -7,22 0,5 0,0 0,343 7,27 19,19 22,7 5,1 0,0 504,0z" />
<path style="fill:#646464" d="M585,668 l31,-1 30,-5 28,-8 26,-11 24,-13 22,-15 21,-21 18,-22 14,-25 8,-27 4,-19 0,-4 0,-5 -3,-27 -6,-26 -9,-25 -12,-23 -14,-22 -19,-22 -23,-20 -21,-15 -23,-12 -25,-9 -26,-7 -26,-4 -14,0 -5,-1 0,0 -502,0 -26,7 -20,18 -9,25 0,5 0,0 0,300 14,23 28,11 6,0 5,0 0,0 504,0z" />
<path style="fill:#7e7e7e" d="M585,616 l30,-1 28,-3 27,-6 25,-7 28,-11 24,-13 21,-14 20,-19 16,-24 6,-18 1,-3 0,-5 -4,-27 -7,-26 -9,-25 -13,-22 -15,-21 -20,-22 -24,-19 -22,-14 -23,-11 -25,-9 -27,-5 -28,-3 -4,0 -5,0 0,0 -500,0 -27,7 -20,17 -10,27 0,5 0,0 0,257 25,12 21,3 8,0 0,0 503,0z" />
<path style="fill:#999" d="M585,564 l35,-1 32,-3 30,-4 28,-6 24,-7 26,-10 24,-12 22,-17 4,-5 1,-2 0,-5 -5,-27 -7,-25 -10,-24 -13,-22 -18,-24 -22,-20 -24,-18 -22,-12 -24,-10 -26,-7 -27,-5 -23,-1 -5,0 0,0 -498,0 -26,6 -21,16 -11,25 -1,5 0,4 0,1 0,214 0,0 0,-1 32,-3 28,0 497,0z" />
<path style="fill:#b2b2b2" d="M585,512 l30,0 29,-1 33,-2 30,-2 32,-3 27,-3 27,-3 16,-1 2,0 -1,-5 -5,-27 -8,-25 -11,-24 -14,-22 -19,-22 -22,-20 -21,-14 -23,-12 -25,-9 -26,-7 -27,-4 -19,-1 -5,0 0,0 -496,0 -26,6 -22,17 -12,25 -1,5 0,5 0,1 0,171 0,0 0,-4 22,-16 26,-3 31,0 478,0z" />
<path style="fill:#c0c0c0" d="M585,460 l28,0 33,1 30,1 28,1 30,4 29,5 27,10 19,13 2,2 -1,-5 -6,-27 -9,-25 -12,-23 -14,-22 -20,-21 -23,-19 -22,-13 -24,-11 -25,-8 -27,-6 -29,-3 -9,0 -5,0 0,0 -494,0 -30,7 -21,17 -11,25 -1,5 0,5 0,1 0,127 0,1 0,-5 12,-24 24,-11 29,-2 492,0z" />
<path style="fill:#e5e5e5" d="M585,408 l31,0 29,2 26,4 29,6 27,8 23,10 23,15 20,19 16,21 2,4 -1,-5 -7,-27 -10,-25 -12,-23 -16,-20 -21,-21 -24,-18 -23,-12 -24,-10 -27,-7 -27,-5 -24,-1 -5,-1 -5,0 -492,0 -26,6 -23,15 -14,25 -2,10 0,5 0,1 0,85 5,-28 16,-21 26,-12 29,0 481,0z" />
<path style="fill:#fff" d="M585,356 l32,1 30,4 27,6 26,10 22,12 24,17 22,21 16,20 14,24 11,21 2,5 -1,-5 -8,-27 -11,-25 -13,-22 -20,-23 -22,-20 -22,-13 -23,-12 -26,-9 -27,-6 -28,-3 -15,-1 -5,0 -5,0 -490,0 -29,7 -23,16 -13,24 -2,9 0,6 0,1 0,42 3,-30 13,-27 20,-19 28,-4 493,0z" />
<path style="fill:none" d="M585,721 l32,-3 26,-5 25,-8 24,-11 22,-13 23,-18 21,-22 18,-24 12,-22 10,-24 8,-25 4,-27 1,-13 0,-5 0,-4 -2,-32 -6,-26 -8,-25 -11,-24 -13,-22 -16,-20 -21,-21 -20,-16 -22,-14 -24,-10 -25,-9 -26,-5 -23,-2 -4,0 -5,0 -504,0 -27,7 -19,19 -7,22 0,5 0,0 0,343 7,27 19,19 22,7 5,1 0,0 504,0" />
<path style="fill:none;stroke:#4c4c4c;stroke-width:2" d="M585,721 l32,-3 26,-5 25,-8 24,-11 22,-13 23,-18 21,-22 18,-24 12,-22 10,-24 8,-25 4,-27 1,-13 0,-5 0,-4 -2,-32 -6,-26 -8,-25 -11,-24 -13,-22 -16,-20 -21,-21 -20,-16 -22,-14 -24,-10 -25,-9 -26,-5 -23,-2 -4,0 -5,0 -504,0 -27,7 -19,19 -7,22 0,5 0,0 0,343 7,27 19,19 22,7 5,1 0,0 504,0" />
<path style="fill:#313131;stroke:#4c4c4c;stroke-width:2" d="M125,276 l489,0 0,452 -489,0 0,-452z" />
<path style="fill:#999;stroke:#4c4c4c;stroke-width:2" d="M632,264 l3,0 8,12 0,4 0,4 -8,16 -3,1 0,0 -529,0 -3,-1 -7,-12 -1,-4 0,-4 8,-16 3,0 1,0 528,0z" />
<path style="fill:none;stroke:#fff;stroke-width:2" d="M103,281 l0,-2 2,-4 6,-2" />
<path style="fill:none;stroke:#fff;stroke-width:2" d="M111,273 l1,0 1,0 1,0 518,0 1,0" />
<path style="fill:#999;stroke:#4c4c4c;stroke-width:2" d="M103,360 l1,0 1,0 1,0 526,0 3,1 8,11 0,5 0,4 -8,16 -3,0 0,0 -529,0 -3,0 -7,-12 -1,-4 0,-4 5,-14 3,-2 3,-1z" />
<path style="fill:none;stroke:#fff;stroke-width:2" d="M103,378 l0,-2 2,-4 6,-2" />
<path style="fill:none;stroke:#fff;stroke-width:2" d="M111,370 l1,0 1,0 1,0 518,0 1,0" />
<path style="fill:#999;stroke:#4c4c4c;stroke-width:2" d="M103,457 l1,0 1,0 1,0 526,0 3,1 8,11 0,4 0,5 -8,15 -3,1 0,0 -529,0 -3,-1 -7,-11 -1,-4 0,-5 8,-15 3,-1z" />
<path style="fill:none;stroke:#fff;stroke-width:2" d="M103,474 l0,-2 2,-3 6,-2" />
<path style="fill:none;stroke:#fff;stroke-width:2" d="M111,467 l1,0 1,0 1,0 518,0 1,0" />
<path style="fill:#999;stroke:#4c4c4c;stroke-width:2" d="M103,553 l1,0 1,0 1,0 526,0 3,1 8,12 0,4 0,4 -8,16 -3,1 0,0 -529,0 -3,-1 -3,-2 -4,-10 -1,-4 0,-4 8,-16 3,-1z" />
<path style="fill:none;stroke:#fff;stroke-width:2" d="M103,571 l0,-2 2,-4 6,-2" />
<path style="fill:none;stroke:#fff;stroke-width:2" d="M111,563 l1,0 1,0 1,0 518,0 1,0" />
<path style="fill:#999;stroke:#4c4c4c;stroke-width:2" d="M632,650 l3,1 8,11 0,5 0,4 -8,16 -3,0 0,0 -529,0 -3,0 -7,-12 -1,-4 0,-4 8,-16 3,-1 1,0 528,0z" />
<path style="fill:none;stroke:#fff;stroke-width:2" d="M103,668 l0,-2 2,-4 6,-2" />
<path style="fill:none;stroke:#fff;stroke-width:2" d="M111,660 l1,0 1,0 1,0 518,0 1,0" />
<path style="fill:#c0c0c0;stroke:#4c4c4c;stroke-width:2" d="M242,734 l233,0 0,-309 -233,0 0,309z" />
<path style="fill:none" d="M970,970 l0,-942 -942,0 0,942 942,0" />

</g><g transform="translate(453.5,219.0) scale(0.08396775638154949) translate(-257.5008,-257.2416)" id="motor_341"><path style="fill:#313131" d="M756,464 l0,66 214,0 0,-66 -214,0z" />
<path style="fill:#4b4b4b" d="M756,468 l0,52 214,0 0,-52 -214,0z" />
<path style="fill:#7e7e7e" d="M756,471 l0,40 214,0 0,-40 -214,0z" />
<path style="fill:#b2b2b2" d="M756,475 l0,27 214,0 0,-27 -214,0z" />
<path style="fill:#e5e5e5" d="M756,479 l0,14 214,0 0,-14 -214,0z" />
<path style="fill:none" d="M756,464 l0,66 214,0 0,-66 -214,0" />
<path style="fill:none;stroke:#4c4c4c;stroke-width:2" d="M756,464 l0,66 214,0 0,-66 -214,0" />
<path style="fill:#313131" d="M790,438 l0,116 33,0 1,-1 3,-11 0,-9 1,-11 0,-13 1,-13 -1,-13 0,-13 -1,-11 0,-9 -2,-10 -1,-1 -1,-1 -33,0z" />
<path style="fill:#4b4b4b" d="M790,444 l0,93 33,0 1,-1 3,-8 1,-10 0,-11 1,-13 0,-13 -1,-13 -1,-11 -2,-11 -1,-1 -1,-1 -33,0z" />
<path style="fill:#7e7e7e" d="M790,449 l0,71 33,0 1,0 3,-10 1,-10 1,-12 -1,-12 0,-12 -2,-9 -2,-5 -1,-1 -33,0z" />
<path style="fill:#b2b2b2" d="M790,455 l0,49 33,0 2,-1 3,-12 1,-12 -1,-11 -2,-9 -1,-3 -2,-1 -33,0z" />
<path style="fill:#e5e5e5" d="M790,461 l0,26 2,0 5,0 7,0 7,0 7,0 5,0 3,-1 2,-4 1,-5 0,-6 -1,-5 -2,-4 -3,-1 -5,0 -7,0 -7,0 -7,0 -5,0 -2,0z" />
<path style="fill:none" d="M790,438 l0,116 33,0 1,-1 3,-11 0,-9 1,-11 0,-13 1,-13 -1,-13 0,-13 -1,-11 0,-9 -2,-10 -1,-1 -1,-1 -33,0" />
<path style="fill:none;stroke:#4c4c4c;stroke-width:2" d="M790,438 l0,116 33,0 1,-1 3,-11 0,-9 1,-11 0,-13 1,-13 -1,-13 0,-13 -1,-11 0,-9 -2,-10 -1,-1 -1,-1 -33,0" />
<path style="fill:#4b4b4b" d="M585,721 l32,-3 26,-5 25,-8 24,-11 22,-13 23,-18 21,-22 18,-24 12,-22 10,-24 8,-25 4,-27 1,-13 0,-5 0,-4 -2,-32 -6,-26 -8,-25 -11,-24 -13,-22 -16,-20 -21,-21 -20,-16 -22,-14 -24,-10 -25,-9 -26,-5 -23,-2 -4,0 -5,0 -504,0 -27,7 -19,19 -7,22 0,5 0,0 0,343 7,27 19,19 22,7 5,1 0,0 504,0z" />
<path style="fill:#646464" d="M585,668 l31,-1 30,-5 28,-8 26,-11 24,-13 22,-15 21,-21 18,-22 14,-25 8,-27 4,-19 0,-4 0,-5 -3,-27 -6,-26 -9,-25 -12,-23 -14,-22 -19,-22 -23,-20 -21,-15 -23,-12 -25,-9 -26,-7 -26,-4 -14,0 -5,-1 0,0 -502,0 -26,7 -20,18 -9,25 0,5 0,0 0,300 14,23 28,11 6,0 5,0 0,0 504,0z" />
<path style="fill:#7e7e7e" d="M585,616 l30,-1 28,-3 27,-6 25,-7 28,-11 24,-13 21,-14 20,-19 16,-24 6,-18 1,-3 0,-5 -4,-27 -7,-26 -9,-25 -13,-22 -15,-21 -20,-22 -24,-19 -22,-14 -23,-11 -25,-9 -27,-5 -28,-3 -4,0 -5,0 0,0 -500,0 -27,7 -20,17 -10,27 0,5 0,0 0,257 25,12 21,3 8,0 0,0 503,0z" />
<path style="fill:#999" d="M585,564 l35,-1 32,-3 30,-4 28,-6 24,-7 26,-10 24,-12 22,-17 4,-5 1,-2 0,-5 -5,-27 -7,-25 -10,-24 -13,-22 -18,-24 -22,-20 -24,-18 -22,-12 -24,-10 -26,-7 -27,-5 -23,-1 -5,0 0,0 -498,0 -26,6 -21,16 -11,25 -1,5 0,4 0,1 0,214 0,0 0,-1 32,-3 28,0 497,0z" />
<path style="fill:#b2b2b2" d="M585,512 l30,0 29,-1 33,-2 30,-2 32,-3 27,-3 27,-3 16,-1 2,0 -1,-5 -5,-27 -8,-25 -11,-24 -14,-22 -19,-22 -22,-20 -21,-14 -23,-12 -25,-9 -26,-7 -27,-4 -19,-1 -5,0 0,0 -496,0 -26,6 -22,17 -12,25 -1,5 0,5 0,1 0,171 0,0 0,-4 22,-16 26,-3 31,0 478,0z" />
<path style="fill:#c0c0c0" d="M585,460 l28,0 33,1 30,1 28,1 30,4 29,5 27,10 19,13 2,2 -1,-5 -6,-27 -9,-25 -12,-23 -14,-22 -20,-21 -23,-19 -22,-13 -24,-11 -25,-8 -27,-6 -29,-3 -9,0 -5,0 0,0 -494,0 -30,7 -21,17 -11,25 -1,5 0,5 0,1 0,127 0,1 0,-5 12,-24 24,-11 29,-2 492,0z" />
<path style="fill:#e5e5e5" d="M585,408 l31,0 29,2 26,4 29,6 27,8 23,10 23,15 20,19 16,21 2,4 -1,-5 -7,-27 -10,-25 -12,-23 -16,-20 -21,-21 -24,-18 -23,-12 -24,-10 -27,-7 -27,-5 -24,-1 -5,-1 -5,0 -492,0 -26,6 -23,15 -14,25 -2,10 0,5 0,1 0,85 5,-28 16,-21 26,-12 29,0 481,0z" />
<path style="fill:#fff" d="M585,356 l32,1 30,4 27,6 26,10 22,12 24,17 22,21 16,20 14,24 11,21 2,5 -1,-5 -8,-27 -11,-25 -13,-22 -20,-23 -22,-20 -22,-13 -23,-12 -26,-9 -27,-6 -28,-3 -15,-1 -5,0 -5,0 -490,0 -29,7 -23,16 -13,24 -2,9 0,6 0,1 0,42 3,-30 13,-27 20,-19 28,-4 493,0z" />
<path style="fill:none" d="M585,721 l32,-3 26,-5 25,-8 24,-11 22,-13 23,-18 21,-22 18,-24 12,-22 10,-24 8,-25 4,-27 1,-13 0,-5 0,-4 -2,-32 -6,-26 -8,-25 -11,-24 -13,-22 -16,-20 -21,-21 -20,-16 -22,-14 -24,-10 -25,-9 -26,-5 -23,-2 -4,0 -5,0 -504,0 -27,7 -19,19 -7,22 0,5 0,0 0,343 7,27 19,19 22,7 5,1 0,0 504,0" />
<path style="fill:none;stroke:#4c4c4c;stroke-width:2" d="M585,721 l32,-3 26,-5 25,-8 24,-11 22,-13 23,-18 21,-22 18,-24 12,-22 10,-24 8,-25 4,-27 1,-13 0,-5 0,-4 -2,-32 -6,-26 -8,-25 -11,-24 -13,-22 -16,-20 -21,-21 -20,-16 -22,-14 -24,-10 -25,-9 -26,-5 -23,-2 -4,0 -5,0 -504,0 -27,7 -19,19 -7,22 0,5 0,0 0,343 7,27 19,19 22,7 5,1 0,0 504,0" />
<path style="fill:#313131;stroke:#4c4c4c;stroke-width:2" d="M125,276 l489,0 0,452 -489,0 0,-452z" />
<path style="fill:#999;stroke:#4c4c4c;stroke-width:2" d="M632,264 l3,0 8,12 0,4 0,4 -8,16 -3,1 0,0 -529,0 -3,-1 -7,-12 -1,-4 0,-4 8,-16 3,0 1,0 528,0z" />
<path style="fill:none;stroke:#fff;stroke-width:2" d="M103,281 l0,-2 2,-4 6,-2" />
<path style="fill:none;stroke:#fff;stroke-width:2" d="M111,273 l1,0 1,0 1,0 518,0 1,0" />
<path style="fill:#999;stroke:#4c4c4c;stroke-width:2" d="M103,360 l1,0 1,0 1,0 526,0 3,1 8,11 0,5 0,4 -8,16 -3,0 0,0 -529,0 -3,0 -7,-12 -1,-4 0,-4 5,-14 3,-2 3,-1z" />
<path style="fill:none;stroke:#fff;stroke-width:2" d="M103,378 l0,-2 2,-4 6,-2" />
<path style="fill:none;stroke:#fff;stroke-width:2" d="M111,370 l1,0 1,0 1,0 518,0 1,0" />
<path style="fill:#999;stroke:#4c4c4c;stroke-width:2" d="M103,457 l1,0 1,0 1,0 526,0 3,1 8,11 0,4 0,5 -8,15 -3,1 0,0 -529,0 -3,-1 -7,-11 -1,-4 0,-5 8,-15 3,-1z" />
<path style="fill:none;stroke:#fff;stroke-width:2" d="M103,474 l0,-2 2,-3 6,-2" />
<path style="fill:none;stroke:#fff;stroke-width:2" d="M111,467 l1,0 1,0 1,0 518,0 1,0" />
<path style="fill:#999;stroke:#4c4c4c;stroke-width:2" d="M103,553 l1,0 1,0 1,0 526,0 3,1 8,12 0,4 0,4 -8,16 -3,1 0,0 -529,0 -3,-1 -3,-2 -4,-10 -1,-4 0,-4 8,-16 3,-1z" />
<path style="fill:none;stroke:#fff;stroke-width:2" d="M103,571 l0,-2 2,-4 6,-2" />
<path style="fill:none;stroke:#fff;stroke-width:2" d="M111,563 l1,0 1,0 1,0 518,0 1,0" />
<path style="fill:#999;stroke:#4c4c4c;stroke-width:2" d="M632,650 l3,1 8,11 0,5 0,4 -8,16 -3,0 0,0 -529,0 -3,0 -7,-12 -1,-4 0,-4 8,-16 3,-1 1,0 528,0z" />
<path style="fill:none;stroke:#fff;stroke-width:2" d="M103,668 l0,-2 2,-4 6,-2" />
<path style="fill:none;stroke:#fff;stroke-width:2" d="M111,660 l1,0 1,0 1,0 518,0 1,0" />
<path style="fill:#c0c0c0;stroke:#4c4c4c;stroke-width:2" d="M242,734 l233,0 0,-309 -233,0 0,309z" />
<path style="fill:none" d="M970,970 l0,-942 -942,0 0,942 942,0" />

</g><g transform="translate(790.5,219.0) scale(0.08396775638154949) translate(-257.5008,-257.2416)" id="motor_342"><path style="fill:#313131" d="M756,464 l0,66 214,0 0,-66 -214,0z" />
<path style="fill:#4b4b4b" d="M756,468 l0,52 214,0 0,-52 -214,0z" />
<path style="fill:#7e7e7e" d="M756,471 l0,40 214,0 0,-40 -214,0z" />
<path style="fill:#b2b2b2" d="M756,475 l0,27 214,0 0,-27 -214,0z" />
<path style="fill:#e5e5e5" d="M756,479 l0,14 214,0 0,-14 -214,0z" />
<path style="fill:none" d="M756,464 l0,66 214,0 0,-66 -214,0" />
<path style="fill:none;stroke:#4c4c4c;stroke-width:2" d="M756,464 l0,66 214,0 0,-66 -214,0" />
<path style="fill:#313131" d="M790,438 l0,116 33,0 1,-1 3,-11 0,-9 1,-11 0,-13 1,-13 -1,-13 0,-13 -1,-11 0,-9 -2,-10 -1,-1 -1,-1 -33,0z" />
<path style="fill:#4b4b4b" d="M790,444 l0,93 33,0 1,-1 3,-8 1,-10 0,-11 1,-13 0,-13 -1,-13 -1,-11 -2,-11 -1,-1 -1,-1 -33,0z" />
<path style="fill:#7e7e7e" d="M790,449 l0,71 33,0 1,0 3,-10 1,-10 1,-12 -1,-12 0,-12 -2,-9 -2,-5 -1,-1 -33,0z" />
<path style="fill:#b2b2b2" d="M790,455 l0,49 33,0 2,-1 3,-12 1,-12 -1,-11 -2,-9 -1,-3 -2,-1 -33,0z" />
<path style="fill:#e5e5e5" d="M790,461 l0,26 2,0 5,0 7,0 7,0 7,0 5,0 3,-1 2,-4 1,-5 0,-6 -1,-5 -2,-4 -3,-1 -5,0 -7,0 -7,0 -7,0 -5,0 -2,0z" />
<path style="fill:none" d="M790,438 l0,116 33,0 1,-1 3,-11 0,-9 1,-11 0,-13 1,-13 -1,-13 0,-13 -1,-11 0,-9 -2,-10 -1,-1 -1,-1 -33,0" />
<path style="fill:none;stroke:#4c4c4c;stroke-width:2" d="M790,438 l0,116 33,0 1,-1 3,-11 0,-9 1,-11 0,-13 1,-13 -1,-13 0,-13 -1,-11 0,-9 -2,-10 -1,-1 -1,-1 -33,0" />
<path style="fill:#4b4b4b" d="M585,721 l32,-3 26,-5 25,-8 24,-11 22,-13 23,-18 21,-22 18,-24 12,-22 10,-24 8,-25 4,-27 1,-13 0,-5 0,-4 -2,-32 -6,-26 -8,-25 -11,-24 -13,-22 -16,-20 -21,-21 -20,-16 -22,-14 -24,-10 -25,-9 -26,-5 -23,-2 -4,0 -5,0 -504,0 -27,7 -19,19 -7,22 0,5 0,0 0,343 7,27 19,19 22,7 5,1 0,0 504,0z" />
<path style="fill:#646464" d="M585,668 l31,-1 30,-5 28,-8 26,-11 24,-13 22,-15 21,-21 18,-22 14,-25 8,-27 4,-19 0,-4 0,-5 -3,-27 -6,-26 -9,-25 -12,-23 -14,-22 -19,-22 -23,-20 -21,-15 -23,-12 -25,-9 -26,-7 -26,-4 -14,0 -5,-1 0,0 -502,0 -26,7 -20,18 -9,25 0,5 0,0 0,300 14,23 28,11 6,0 5,0 0,0 504,0z" />
<path style="fill:#7e7e7e" d="M585,616 l30,-1 28,-3 27,-6 25,-7 28,-11 24,-13 21,-14 20,-19 16,-24 6,-18 1,-3 0,-5 -4,-27 -7,-26 -9,-25 -13,-22 -15,-21 -20,-22 -24,-19 -22,-14 -23,-11 -25,-9 -27,-5 -28,-3 -4,0 -5,0 0,0 -500,0 -27,7 -20,17 -10,27 0,5 0,0 0,257 25,12 21,3 8,0 0,0 503,0z" />
<path style="fill:#999" d="M585,564 l35,-1 32,-3 30,-4 28,-6 24,-7 26,-10 24,-12 22,-17 4,-5 1,-2 0,-5 -5,-27 -7,-25 -10,-24 -13,-22 -18,-24 -22,-20 -24,-18 -22,-12 -24,-10 -26,-7 -27,-5 -23,-1 -5,0 0,0 -498,0 -26,6 -21,16 -11,25 -1,5 0,4 0,1 0,214 0,0 0,-1 32,-3 28,0 497,0z" />
<path style="fill:#b2b2b2" d="M585,512 l30,0 29,-1 33,-2 30,-2 32,-3 27,-3 27,-3 16,-1 2,0 -1,-5 -5,-27 -8,-25 -11,-24 -14,-22 -19,-22 -22,-20 -21,-14 -23,-12 -25,-9 -26,-7 -27,-4 -19,-1 -5,0 0,0 -496,0 -26,6 -22,17 -12,25 -1,5 0,5 0,1 0,171 0,0 0,-4 22,-16 26,-3 31,0 478,0z" />
<path style="fill:#c0c0c0" d="M585,460 l28,0 33,1 30,1 28,1 30,4 29,5 27,10 19,13 2,2 -1,-5 -6,-27 -9,-25 -12,-23 -14,-22 -20,-21 -23,-19 -22,-13 -24,-11 -25,-8 -27,-6 -29,-3 -9,0 -5,0 0,0 -494,0 -30,7 -21,17 -11,25 -1,5 0,5 0,1 0,127 0,1 0,-5 12,-24 24,-11 29,-2 492,0z" />
<path style="fill:#e5e5e5" d="M585,408 l31,0 29,2 26,4 29,6 27,8 23,10 23,15 20,19 16,21 2,4 -1,-5 -7,-27 -10,-25 -12,-23 -16,-20 -21,-21 -24,-18 -23,-12 -24,-10 -27,-7 -27,-5 -24,-1 -5,-1 -5,0 -492,0 -26,6 -23,15 -14,25 -2,10 0,5 0,1 0,85 5,-28 16,-21 26,-12 29,0 481,0z" />
<path style="fill:#fff" d="M585,356 l32,1 30,4 27,6 26,10 22,12 24,17 22,21 16,20 14,24 11,21 2,5 -1,-5 -8,-27 -11,-25 -13,-22 -20,-23 -22,-20 -22,-13 -23,-12 -26,-9 -27,-6 -28,-3 -15,-1 -5,0 -5,0 -490,0 -29,7 -23,16 -13,24 -2,9 0,6 0,1 0,42 3,-30 13,-27 20,-19 28,-4 493,0z" />
<path style="fill:none" d="M585,721 l32,-3 26,-5 25,-8 24,-11 22,-13 23,-18 21,-22 18,-24 12,-22 10,-24 8,-25 4,-27 1,-13 0,-5 0,-4 -2,-32 -6,-26 -8,-25 -11,-24 -13,-22 -16,-20 -21,-21 -20,-16 -22,-14 -24,-10 -25,-9 -26,-5 -23,-2 -4,0 -5,0 -504,0 -27,7 -19,19 -7,22 0,5 0,0 0,343 7,27 19,19 22,7 5,1 0,0 504,0" />
<path style="fill:none;stroke:#4c4c4c;stroke-width:2" d="M585,721 l32,-3 26,-5 25,-8 24,-11 22,-13 23,-18 21,-22 18,-24 12,-22 10,-24 8,-25 4,-27 1,-13 0,-5 0,-4 -2,-32 -6,-26 -8,-25 -11,-24 -13,-22 -16,-20 -21,-21 -20,-16 -22,-14 -24,-10 -25,-9 -26,-5 -23,-2 -4,0 -5,0 -504,0 -27,7 -19,19 -7,22 0,5 0,0 0,343 7,27 19,19 22,7 5,1 0,0 504,0" />
<path style="fill:#313131;stroke:#4c4c4c;stroke-width:2" d="M125,276 l489,0 0,452 -489,0 0,-452z" />
<path style="fill:#999;stroke:#4c4c4c;stroke-width:2" d="M632,264 l3,0 8,12 0,4 0,4 -8,16 -3,1 0,0 -529,0 -3,-1 -7,-12 -1,-4 0,-4 8,-16 3,0 1,0 528,0z" />
<path style="fill:none;stroke:#fff;stroke-width:2" d="M103,281 l0,-2 2,-4 6,-2" />
<path style="fill:none;stroke:#fff;stroke-width:2" d="M111,273 l1,0 1,0 1,0 518,0 1,0" />
<path style="fill:#999;stroke:#4c4c4c;stroke-width:2" d="M103,360 l1,0 1,0 1,0 526,0 3,1 8,11 0,5 0,4 -8,16 -3,0 0,0 -529,0 -3,0 -7,-12 -1,-4 0,-4 5,-14 3,-2 3,-1z" />
<path style="fill:none;stroke:#fff;stroke-width:2" d="M103,378 l0,-2 2,-4 6,-2" />
<path style="fill:none;stroke:#fff;stroke-width:2" d="M111,370 l1,0 1,0 1,0 518,0 1,0" />
<path style="fill:#999;stroke:#4c4c4c;stroke-width:2" d="M103,457 l1,0 1,0 1,0 526,0 3,1 8,11 0,4 0,5 -8,15 -3,1 0,0 -529,0 -3,-1 -7,-11 -1,-4 0,-5 8,-15 3,-1z" />
<path style="fill:none;stroke:#fff;stroke-width:2" d="M103,474 l0,-2 2,-3 6,-2" />
<path style="fill:none;stroke:#fff;stroke-width:2" d="M111,467 l1,0 1,0 1,0 518,0 1,0" />
<path style="fill:#999;stroke:#4c4c4c;stroke-width:2" d="M103,553 l1,0 1,0 1,0 526,0 3,1 8,12 0,4 0,4 -8,16 -3,1 0,0 -529,0 -3,-1 -3,-2 -4,-10 -1,-4 0,-4 8,-16 3,-1z" />
<path style="fill:none;stroke:#fff;stroke-width:2" d="M103,571 l0,-2 2,-4 6,-2" />
<path style="fill:none;stroke:#fff;stroke-width:2" d="M111,563 l1,0 1,0 1,0 518,0 1,0" />
<path style="fill:#999;stroke:#4c4c4c;stroke-width:2" d="M632,650 l3,1 8,11 0,5 0,4 -8,16 -3,0 0,0 -529,0 -3,0 -7,-12 -1,-4 0,-4 8,-16 3,-1 1,0 528,0z" />
<path style="fill:none;stroke:#fff;stroke-width:2" d="M103,668 l0,-2 2,-4 6,-2" />
<path style="fill:none;stroke:#fff;stroke-width:2" d="M111,660 l1,0 1,0 1,0 518,0 1,0" />
<path style="fill:#c0c0c0;stroke:#4c4c4c;stroke-width:2" d="M242,734 l233,0 0,-309 -233,0 0,309z" />
<path style="fill:none" d="M970,970 l0,-942 -942,0 0,942 942,0" />

</g><g transform="translate(57.5,47.0) scale(0.059088421157386675) translate(-257.5008,-257.2416)" id="motor_398"><path style="fill:#313131" d="M756,464 l0,66 214,0 0,-66 -214,0z" />
<path style="fill:#4b4b4b" d="M756,468 l0,52 214,0 0,-52 -214,0z" />
<path style="fill:#7e7e7e" d="M756,471 l0,40 214,0 0,-40 -214,0z" />
<path style="fill:#b2b2b2" d="M756,475 l0,27 214,0 0,-27 -214,0z" />
<path style="fill:#e5e5e5" d="M756,479 l0,14 214,0 0,-14 -214,0z" />
<path style="fill:none" d="M756,464 l0,66 214,0 0,-66 -214,0" />
<path style="fill:none;stroke:#4c4c4c;stroke-width:2" d="M756,464 l0,66 214,0 0,-66 -214,0" />
<path style="fill:#313131" d="M790,438 l0,116 33,0 1,-1 3,-11 0,-9 1,-11 0,-13 1,-13 -1,-13 0,-13 -1,-11 0,-9 -2,-10 -1,-1 -1,-1 -33,0z" />
<path style="fill:#4b4b4b" d="M790,444 l0,93 33,0 1,-1 3,-8 1,-10 0,-11 1,-13 0,-13 -1,-13 -1,-11 -2,-11 -1,-1 -1,-1 -33,0z" />
<path style="fill:#7e7e7e" d="M790,449 l0,71 33,0 1,0 3,-10 1,-10 1,-12 -1,-12 0,-12 -2,-9 -2,-5 -1,-1 -33,0z" />
<path style="fill:#b2b2b2" d="M790,455 l0,49 33,0 2,-1 3,-12 1,-12 -1,-11 -2,-9 -1,-3 -2,-1 -33,0z" />
<path style="fill:#e5e5e5" d="M790,461 l0,26 2,0 5,0 7,0 7,0 7,0 5,0 3,-1 2,-4 1,-5 0,-6 -1,-5 -2,-4 -3,-1 -5,0 -7,0 -7,0 -7,0 -5,0 -2,0z" />
<path style="fill:none" d="M790,438 l0,116 33,0 1,-1 3,-11 0,-9 1,-11 0,-13 1,-13 -1,-13 0,-13 -1,-11 0,-9 -2,-10 -1,-1 -1,-1 -33,0" />
<path style="fill:none;stroke:#4c4c4c;stroke-width:2" d="M790,438 l0,116 33,0 1,-1 3,-11 0,-9 1,-11 0,-13 1,-13 -1,-13 0,-13 -1,-11 0,-9 -2,-10 -1,-1 -1,-1 -33,0" />
<path style="fill:#4b4b4b" d="M585,721 l32,-3 26,-5 25,-8 24,-11 22,-13 23,-18 21,-22 18,-24 12,-22 10,-24 8,-25 4,-27 1,-13 0,-5 0,-4 -2,-32 -6,-26 -8,-25 -11,-24 -13,-22 -16,-20 -21,-21 -20,-16 -22,-14 -24,-10 -25,-9 -26,-5 -23,-2 -4,0 -5,0 -504,0 -27,7 -19,19 -7,22 0,5 0,0 0,343 7,27 19,19 22,7 5,1 0,0 504,0z" />
<path style="fill:#646464" d="M585,668 l31,-1 30,-5 28,-8 26,-11 24,-13 22,-15 21,-21 18,-22 14,-25 8,-27 4,-19 0,-4 0,-5 -3,-27 -6,-26 -9,-25 -12,-23 -14,-22 -19,-22 -23,-20 -21,-15 -23,-12 -25,-9 -26,-7 -26,-4 -14,0 -5,-1 0,0 -502,0 -26,7 -20,18 -9,25 0,5 0,0 0,300 14,23 28,11 6,0 5,0 0,0 504,0z" />
<path style="fill:#7e7e7e" d="M585,616 l30,-1 28,-3 27,-6 25,-7 28,-11 24,-13 21,-14 20,-19 16,-24 6,-18 1,-3 0,-5 -4,-27 -7,-26 -9,-25 -13,-22 -15,-21 -20,-22 -24,-19 -22,-14 -23,-11 -25,-9 -27,-5 -28,-3 -4,0 -5,0 0,0 -500,0 -27,7 -20,17 -10,27 0,5 0,0 0,257 25,12 21,3 8,0 0,0 503,0z" />
<path style="fill:#999" d="M585,564 l35,-1 32,-3 30,-4 28,-6 24,-7 26,-10 24,-12 22,-17 4,-5 1,-2 0,-5 -5,-27 -7,-25 -10,-24 -13,-22 -18,-24 -22,-20 -24,-18 -22,-12 -24,-10 -26,-7 -27,-5 -23,-1 -5,0 0,0 -498,0 -26,6 -21,16 -11,25 -1,5 0,4 0,1 0,214 0,0 0,-1 32,-3 28,0 497,0z" />
<path style="fill:#b2b2b2" d="M585,512 l30,0 29,-1 33,-2 30,-2 32,-3 27,-3 27,-3 16,-1 2,0 -1,-5 -5,-27 -8,-25 -11,-24 -14,-22 -19,-22 -22,-20 -21,-14 -23,-12 -25,-9 -26,-7 -27,-4 -19,-1 -5,0 0,0 -496,0 -26,6 -22,17 -12,25 -1,5 0,5 0,1 0,171 0,0 0,-4 22,-16 26,-3 31,0 478,0z" />
<path style="fill:#c0c0c0" d="M585,460 l28,0 33,1 30,1 28,1 30,4 29,5 27,10 19,13 2,2 -1,-5 -6,-27 -9,-25 -12,-23 -14,-22 -20,-21 -23,-19 -22,-13 -24,-11 -25,-8 -27,-6 -29,-3 -9,0 -5,0 0,0 -494,0 -30,7 -21,17 -11,25 -1,5 0,5 0,1 0,127 0,1 0,-5 12,-24 24,-11 29,-2 492,0z" />
<path style="fill:#e5e5e5" d="M585,408 l31,0 29,2 26,4 29,6 27,8 23,10 23,15 20,19 16,21 2,4 -1,-5 -7,-27 -10,-25 -12,-23 -16,-20 -21,-21 -24,-18 -23,-12 -24,-10 -27,-7 -27,-5 -24,-1 -5,-1 -5,0 -492,0 -26,6 -23,15 -14,25 -2,10 0,5 0,1 0,85 5,-28 16,-21 26,-12 29,0 481,0z" />
<path style="fill:#fff" d="M585,356 l32,1 30,4 27,6 26,10 22,12 24,17 22,21 16,20 14,24 11,21 2,5 -1,-5 -8,-27 -11,-25 -13,-22 -20,-23 -22,-20 -22,-13 -23,-12 -26,-9 -27,-6 -28,-3 -15,-1 -5,0 -5,0 -490,0 -29,7 -23,16 -13,24 -2,9 0,6 0,1 0,42 3,-30 13,-27 20,-19 28,-4 493,0z" />
<path style="fill:none" d="M585,721 l32,-3 26,-5 25,-8 24,-11 22,-13 23,-18 21,-22 18,-24 12,-22 10,-24 8,-25 4,-27 1,-13 0,-5 0,-4 -2,-32 -6,-26 -8,-25 -11,-24 -13,-22 -16,-20 -21,-21 -20,-16 -22,-14 -24,-10 -25,-9 -26,-5 -23,-2 -4,0 -5,0 -504,0 -27,7 -19,19 -7,22 0,5 0,0 0,343 7,27 19,19 22,7 5,1 0,0 504,0" />
<path style="fill:none;stroke:#4c4c4c;stroke-width:2" d="M585,721 l32,-3 26,-5 25,-8 24,-11 22,-13 23,-18 21,-22 18,-24 12,-22 10,-24 8,-25 4,-27 1,-13 0,-5 0,-4 -2,-32 -6,-26 -8,-25 -11,-24 -13,-22 -16,-20 -21,-21 -20,-16 -22,-14 -24,-10 -25,-9 -26,-5 -23,-2 -4,0 -5,0 -504,0 -27,7 -19,19 -7,22 0,5 0,0 0,343 7,27 19,19 22,7 5,1 0,0 504,0" />
<path style="fill:#313131;stroke:#4c4c4c;stroke-width:2" d="M125,276 l489,0 0,452 -489,0 0,-452z" />
<path style="fill:#999;stroke:#4c4c4c;stroke-width:2" d="M632,264 l3,0 8,12 0,4 0,4 -8,16 -3,1 0,0 -529,0 -3,-1 -7,-12 -1,-4 0,-4 8,-16 3,0 1,0 528,0z" />
<path style="fill:none;stroke:#fff;stroke-width:2" d="M103,281 l0,-2 2,-4 6,-2" />
<path style="fill:none;stroke:#fff;stroke-width:2" d="M111,273 l1,0 1,0 1,0 518,0 1,0" />
<path style="fill:#999;stroke:#4c4c4c;stroke-width:2" d="M103,360 l1,0 1,0 1,0 526,0 3,1 8,11 0,5 0,4 -8,16 -3,0 0,0 -529,0 -3,0 -7,-12 -1,-4 0,-4 5,-14 3,-2 3,-1z" />
<path style="fill:none;stroke:#fff;stroke-width:2" d="M103,378 l0,-2 2,-4 6,-2" />
<path style="fill:none;stroke:#fff;stroke-width:2" d="M111,370 l1,0 1,0 1,0 518,0 1,0" />
<path style="fill:#999;stroke:#4c4c4c;stroke-width:2" d="M103,457 l1,0 1,0 1,0 526,0 3,1 8,11 0,4 0,5 -8,15 -3,1 0,0 -529,0 -3,-1 -7,-11 -1,-4 0,-5 8,-15 3,-1z" />
<path style="fill:none;stroke:#fff;stroke-width:2" d="M103,474 l0,-2 2,-3 6,-2" />
<path style="fill:none;stroke:#fff;stroke-width:2" d="M111,467 l1,0 1,0 1,0 518,0 1,0" />
<path style="fill:#999;stroke:#4c4c4c;stroke-width:2" d="M103,553 l1,0 1,0 1,0 526,0 3,1 8,12 0,4 0,4 -8,16 -3,1 0,0 -529,0 -3,-1 -3,-2 -4,-10 -1,-4 0,-4 8,-16 3,-1z" />
<path style="fill:none;stroke:#fff;stroke-width:2" d="M103,571 l0,-2 2,-4 6,-2" />
<path style="fill:none;stroke:#fff;stroke-width:2" d="M111,563 l1,0 1,0 1,0 518,0 1,0" />
<path style="fill:#999;stroke:#4c4c4c;stroke-width:2" d="M632,650 l3,1 8,11 0,5 0,4 -8,16 -3,0 0,0 -529,0 -3,0 -7,-12 -1,-4 0,-4 8,-16 3,-1 1,0 528,0z" />
<path style="fill:none;stroke:#fff;stroke-width:2" d="M103,668 l0,-2 2,-4 6,-2" />
<path style="fill:none;stroke:#fff;stroke-width:2" d="M111,660 l1,0 1,0 1,0 518,0 1,0" />
<path style="fill:#c0c0c0;stroke:#4c4c4c;stroke-width:2" d="M242,734 l233,0 0,-309 -233,0 0,309z" />
<path style="fill:none" d="M970,970 l0,-942 -942,0 0,942 942,0" />

</g><g transform="translate(561.5,47.0) scale(0.059088421157386675) translate(-257.5008,-257.2416)" id="motor_400"><path style="fill:#313131" d="M756,464 l0,66 214,0 0,-66 -214,0z" />
<path style="fill:#4b4b4b" d="M756,468 l0,52 214,0 0,-52 -214,0z" />
<path style="fill:#7e7e7e" d="M756,471 l0,40 214,0 0,-40 -214,0z" />
<path style="fill:#b2b2b2" d="M756,475 l0,27 214,0 0,-27 -214,0z" />
<path style="fill:#e5e5e5" d="M756,479 l0,14 214,0 0,-14 -214,0z" />
<path style="fill:none" d="M756,464 l0,66 214,0 0,-66 -214,0" />
<path style="fill:none;stroke:#4c4c4c;stroke-width:2" d="M756,464 l0,66 214,0 0,-66 -214,0" />
<path style="fill:#313131" d="M790,438 l0,116 33,0 1,-1 3,-11 0,-9 1,-11 0,-13 1,-13 -1,-13 0,-13 -1,-11 0,-9 -2,-10 -1,-1 -1,-1 -33,0z" />
<path style="fill:#4b4b4b" d="M790,444 l0,93 33,0 1,-1 3,-8 1,-10 0,-11 1,-13 0,-13 -1,-13 -1,-11 -2,-11 -1,-1 -1,-1 -33,0z" />
<path style="fill:#7e7e7e" d="M790,449 l0,71 33,0 1,0 3,-10 1,-10 1,-12 -1,-12 0,-12 -2,-9 -2,-5 -1,-1 -33,0z" />
<path style="fill:#b2b2b2" d="M790,455 l0,49 33,0 2,-1 3,-12 1,-12 -1,-11 -2,-9 -1,-3 -2,-1 -33,0z" />
<path style="fill:#e5e5e5" d="M790,461 l0,26 2,0 5,0 7,0 7,0 7,0 5,0 3,-1 2,-4 1,-5 0,-6 -1,-5 -2,-4 -3,-1 -5,0 -7,0 -7,0 -7,0 -5,0 -2,0z" />
<path style="fill:none" d="M790,438 l0,116 33,0 1,-1 3,-11 0,-9 1,-11 0,-13 1,-13 -1,-13 0,-13 -1,-11 0,-9 -2,-10 -1,-1 -1,-1 -33,0" />
<path style="fill:none;stroke:#4c4c4c;stroke-width:2" d="M790,438 l0,116 33,0 1,-1 3,-11 0,-9 1,-11 0,-13 1,-13 -1,-13 0,-13 -1,-11 0,-9 -2,-10 -1,-1 -1,-1 -33,0" />
<path style="fill:#4b4b4b" d="M585,721 l32,-3 26,-5 25,-8 24,-11 22,-13 23,-18 21,-22 18,-24 12,-22 10,-24 8,-25 4,-27 1,-13 0,-5 0,-4 -2,-32 -6,-26 -8,-25 -11,-24 -13,-22 -16,-20 -21,-21 -20,-16 -22,-14 -24,-10 -25,-9 -26,-5 -23,-2 -4,0 -5,0 -504,0 -27,7 -19,19 -7,22 0,5 0,0 0,343 7,27 19,19 22,7 5,1 0,0 504,0z" />
<path style="fill:#646464" d="M585,668 l31,-1 30,-5 28,-8 26,-11 24,-13 22,-15 21,-21 18,-22 14,-25 8,-27 4,-19 0,-4 0,-5 -3,-27 -6,-26 -9,-25 -12,-23 -14,-22 -19,-22 -23,-20 -21,-15 -23,-12 -25,-9 -26,-7 -26,-4 -14,0 -5,-1 0,0 -502,0 -26,7 -20,18 -9,25 0,5 0,0 0,300 14,23 28,11 6,0 5,0 0,0 504,0z" />
<path style="fill:#7e7e7e" d="M585,616 l30,-1 28,-3 27,-6 25,-7 28,-11 24,-13 21,-14 20,-19 16,-24 6,-18 1,-3 0,-5 -4,-27 -7,-26 -9,-25 -13,-22 -15,-21 -20,-22 -24,-19 -22,-14 -23,-11 -25,-9 -27,-5 -28,-3 -4,0 -5,0 0,0 -500,0 -27,7 -20,17 -10,27 0,5 0,0 0,257 25,12 21,3 8,0 0,0 503,0z" />
<path style="fill:#999" d="M585,564 l35,-1 32,-3 30,-4 28,-6 24,-7 26,-10 24,-12 22,-17 4,-5 1,-2 0,-5 -5,-27 -7,-25 -10,-24 -13,-22 -18,-24 -22,-20 -24,-18 -22,-12 -24,-10 -26,-7 -27,-5 -23,-1 -5,0 0,0 -498,0 -26,6 -21,16 -11,25 -1,5 0,4 0,1 0,214 0,0 0,-1 32,-3 28,0 497,0z" />
<path style="fill:#b2b2b2" d="M585,512 l30,0 29,-1 33,-2 30,-2 32,-3 27,-3 27,-3 16,-1 2,0 -1,-5 -5,-27 -8,-25 -11,-24 -14,-22 -19,-22 -22,-20 -21,-14 -23,-12 -25,-9 -26,-7 -27,-4 -19,-1 -5,0 0,0 -496,0 -26,6 -22,17 -12,25 -1,5 0,5 0,1 0,171 0,0 0,-4 22,-16 26,-3 31,0 478,0z" />
<path style="fill:#c0c0c0" d="M585,460 l28,0 33,1 30,1 28,1 30,4 29,5 27,10 19,13 2,2 -1,-5 -6,-27 -9,-25 -12,-23 -14,-22 -20,-21 -23,-19 -22,-13 -24,-11 -25,-8 -27,-6 -29,-3 -9,0 -5,0 0,0 -494,0 -30,7 -21,17 -11,25 -1,5 0,5 0,1 0,127 0,1 0,-5 12,-24 24,-11 29,-2 492,0z" />
<path style="fill:#e5e5e5" d="M585,408 l31,0 29,2 26,4 29,6 27,8 23,10 23,15 20,19 16,21 2,4 -1,-5 -7,-27 -10,-25 -12,-23 -16,-20 -21,-21 -24,-18 -23,-12 -24,-10 -27,-7 -27,-5 -24,-1 -5,-1 -5,0 -492,0 -26,6 -23,15 -14,25 -2,10 0,5 0,1 0,85 5,-28 16,-21 26,-12 29,0 481,0z" />
<path style="fill:#fff" d="M585,356 l32,1 30,4 27,6 26,10 22,12 24,17 22,21 16,20 14,24 11,21 2,5 -1,-5 -8,-27 -11,-25 -13,-22 -20,-23 -22,-20 -22,-13 -23,-12 -26,-9 -27,-6 -28,-3 -15,-1 -5,0 -5,0 -490,0 -29,7 -23,16 -13,24 -2,9 0,6 0,1 0,42 3,-30 13,-27 20,-19 28,-4 493,0z" />
<path style="fill:none" d="M585,721 l32,-3 26,-5 25,-8 24,-11 22,-13 23,-18 21,-22 18,-24 12,-22 10,-24 8,-25 4,-27 1,-13 0,-5 0,-4 -2,-32 -6,-26 -8,-25 -11,-24 -13,-22 -16,-20 -21,-21 -20,-16 -22,-14 -24,-10 -25,-9 -26,-5 -23,-2 -4,0 -5,0 -504,0 -27,7 -19,19 -7,22 0,5 0,0 0,343 7,27 19,19 22,7 5,1 0,0 504,0" />
<path style="fill:none;stroke:#4c4c4c;stroke-width:2" d="M585,721 l32,-3 26,-5 25,-8 24,-11 22,-13 23,-18 21,-22 18,-24 12,-22 10,-24 8,-25 4,-27 1,-13 0,-5 0,-4 -2,-32 -6,-26 -8,-25 -11,-24 -13,-22 -16,-20 -21,-21 -20,-16 -22,-14 -24,-10 -25,-9 -26,-5 -23,-2 -4,0 -5,0 -504,0 -27,7 -19,19 -7,22 0,5 0,0 0,343 7,27 19,19 22,7 5,1 0,0 504,0" />
<path style="fill:#313131;stroke:#4c4c4c;stroke-width:2" d="M125,276 l489,0 0,452 -489,0 0,-452z" />
<path style="fill:#999;stroke:#4c4c4c;stroke-width:2" d="M632,264 l3,0 8,12 0,4 0,4 -8,16 -3,1 0,0 -529,0 -3,-1 -7,-12 -1,-4 0,-4 8,-16 3,0 1,0 528,0z" />
<path style="fill:none;stroke:#fff;stroke-width:2" d="M103,281 l0,-2 2,-4 6,-2" />
<path style="fill:none;stroke:#fff;stroke-width:2" d="M111,273 l1,0 1,0 1,0 518,0 1,0" />
<path style="fill:#999;stroke:#4c4c4c;stroke-width:2" d="M103,360 l1,0 1,0 1,0 526,0 3,1 8,11 0,5 0,4 -8,16 -3,0 0,0 -529,0 -3,0 -7,-12 -1,-4 0,-4 5,-14 3,-2 3,-1z" />
<path style="fill:none;stroke:#fff;stroke-width:2" d="M103,378 l0,-2 2,-4 6,-2" />
<path style="fill:none;stroke:#fff;stroke-width:2" d="M111,370 l1,0 1,0 1,0 518,0 1,0" />
<path style="fill:#999;stroke:#4c4c4c;stroke-width:2" d="M103,457 l1,0 1,0 1,0 526,0 3,1 8,11 0,4 0,5 -8,15 -3,1 0,0 -529,0 -3,-1 -7,-11 -1,-4 0,-5 8,-15 3,-1z" />
<path style="fill:none;stroke:#fff;stroke-width:2" d="M103,474 l0,-2 2,-3 6,-2" />
<path style="fill:none;stroke:#fff;stroke-width:2" d="M111,467 l1,0 1,0 1,0 518,0 1,0" />
<path style="fill:#999;stroke:#4c4c4c;stroke-width:2" d="M103,553 l1,0 1,0 1,0 526,0 3,1 8,12 0,4 0,4 -8,16 -3,1 0,0 -529,0 -3,-1 -3,-2 -4,-10 -1,-4 0,-4 8,-16 3,-1z" />
<path style="fill:none;stroke:#fff;stroke-width:2" d="M103,571 l0,-2 2,-4 6,-2" />
<path style="fill:none;stroke:#fff;stroke-width:2" d="M111,563 l1,0 1,0 1,0 518,0 1,0" />
<path style="fill:#999;stroke:#4c4c4c;stroke-width:2" d="M632,650 l3,1 8,11 0,5 0,4 -8,16 -3,0 0,0 -529,0 -3,0 -7,-12 -1,-4 0,-4 8,-16 3,-1 1,0 528,0z" />
<path style="fill:none;stroke:#fff;stroke-width:2" d="M103,668 l0,-2 2,-4 6,-2" />
<path style="fill:none;stroke:#fff;stroke-width:2" d="M111,660 l1,0 1,0 1,0 518,0 1,0" />
<path style="fill:#c0c0c0;stroke:#4c4c4c;stroke-width:2" d="M242,734 l233,0 0,-309 -233,0 0,309z" />
<path style="fill:none" d="M970,970 l0,-942 -942,0 0,942 942,0" />

</g><g transform="translate(842.5,47.0) scale(0.059088421157386675) translate(-257.5008,-257.2416)" id="motor_401"><path style="fill:#313131" d="M756,464 l0,66 214,0 0,-66 -214,0z" />
<path style="fill:#4b4b4b" d="M756,468 l0,52 214,0 0,-52 -214,0z" />
<path style="fill:#7e7e7e" d="M756,471 l0,40 214,0 0,-40 -214,0z" />
<path style="fill:#b2b2b2" d="M756,475 l0,27 214,0 0,-27 -214,0z" />
<path style="fill:#e5e5e5" d="M756,479 l0,14 214,0 0,-14 -214,0z" />
<path style="fill:none" d="M756,464 l0,66 214,0 0,-66 -214,0" />
<path style="fill:none;stroke:#4c4c4c;stroke-width:2" d="M756,464 l0,66 214,0 0,-66 -214,0" />
<path style="fill:#313131" d="M790,438 l0,116 33,0 1,-1 3,-11 0,-9 1,-11 0,-13 1,-13 -1,-13 0,-13 -1,-11 0,-9 -2,-10 -1,-1 -1,-1 -33,0z" />
<path style="fill:#4b4b4b" d="M790,444 l0,93 33,0 1,-1 3,-8 1,-10 0,-11 1,-13 0,-13 -1,-13 -1,-11 -2,-11 -1,-1 -1,-1 -33,0z" />
<path style="fill:#7e7e7e" d="M790,449 l0,71 33,0 1,0 3,-10 1,-10 1,-12 -1,-12 0,-12 -2,-9 -2,-5 -1,-1 -33,0z" />
<path style="fill:#b2b2b2" d="M790,455 l0,49 33,0 2,-1 3,-12 1,-12 -1,-11 -2,-9 -1,-3 -2,-1 -33,0z" />
<path style="fill:#e5e5e5" d="M790,461 l0,26 2,0 5,0 7,0 7,0 7,0 5,0 3,-1 2,-4 1,-5 0,-6 -1,-5 -2,-4 -3,-1 -5,0 -7,0 -7,0 -7,0 -5,0 -2,0z" />
<path style="fill:none" d="M790,438 l0,116 33,0 1,-1 3,-11 0,-9 1,-11 0,-13 1,-13 -1,-13 0,-13 -1,-11 0,-9 -2,-10 -1,-1 -1,-1 -33,0" />
<path style="fill:none;stroke:#4c4c4c;stroke-width:2" d="M790,438 l0,116 33,0 1,-1 3,-11 0,-9 1,-11 0,-13 1,-13 -1,-13 0,-13 -1,-11 0,-9 -2,-10 -1,-1 -1,-1 -33,0" />
<path style="fill:#4b4b4b" d="M585,721 l32,-3 26,-5 25,-8 24,-11 22,-13 23,-18 21,-22 18,-24 12,-22 10,-24 8,-25 4,-27 1,-13 0,-5 0,-4 -2,-32 -6,-26 -8,-25 -11,-24 -13,-22 -16,-20 -21,-21 -20,-16 -22,-14 -24,-10 -25,-9 -26,-5 -23,-2 -4,0 -5,0 -504,0 -27,7 -19,19 -7,22 0,5 0,0 0,343 7,27 19,19 22,7 5,1 0,0 504,0z" />
<path style="fill:#646464" d="M585,668 l31,-1 30,-5 28,-8 26,-11 24,-13 22,-15 21,-21 18,-22 14,-25 8,-27 4,-19 0,-4 0,-5 -3,-27 -6,-26 -9,-25 -12,-23 -14,-22 -19,-22 -23,-20 -21,-15 -23,-12 -25,-9 -26,-7 -26,-4 -14,0 -5,-1 0,0 -502,0 -26,7 -20,18 -9,25 0,5 0,0 0,300 14,23 28,11 6,0 5,0 0,0 504,0z" />
<path style="fill:#7e7e7e" d="M585,616 l30,-1 28,-3 27,-6 25,-7 28,-11 24,-13 21,-14 20,-19 16,-24 6,-18 1,-3 0,-5 -4,-27 -7,-26 -9,-25 -13,-22 -15,-21 -20,-22 -24,-19 -22,-14 -23,-11 -25,-9 -27,-5 -28,-3 -4,0 -5,0 0,0 -500,0 -27,7 -20,17 -10,27 0,5 0,0 0,257 25,12 21,3 8,0 0,0 503,0z" />
<path style="fill:#999" d="M585,564 l35,-1 32,-3 30,-4 28,-6 24,-7 26,-10 24,-12 22,-17 4,-5 1,-2 0,-5 -5,-27 -7,-25 -10,-24 -13,-22 -18,-24 -22,-20 -24,-18 -22,-12 -24,-10 -26,-7 -27,-5 -23,-1 -5,0 0,0 -498,0 -26,6 -21,16 -11,25 -1,5 0,4 0,1 0,214 0,0 0,-1 32,-3 28,0 497,0z" />
<path style="fill:#b2b2b2" d="M585,512 l30,0 29,-1 33,-2 30,-2 32,-3 27,-3 27,-3 16,-1 2,0 -1,-5 -5,-27 -8,-25 -11,-24 -14,-22 -19,-22 -22,-20 -21,-14 -23,-12 -25,-9 -26,-7 -27,-4 -19,-1 -5,0 0,0 -496,0 -26,6 -22,17 -12,25 -1,5 0,5 0,1 0,171 0,0 0,-4 22,-16 26,-3 31,0 478,0z" />
<path style="fill:#c0c0c0" d="M585,460 l28,0 33,1 30,1 28,1 30,4 29,5 27,10 19,13 2,2 -1,-5 -6,-27 -9,-25 -12,-23 -14,-22 -20,-21 -23,-19 -22,-13 -24,-11 -25,-8 -27,-6 -29,-3 -9,0 -5,0 0,0 -494,0 -30,7 -21,17 -11,25 -1,5 0,5 0,1 0,127 0,1 0,-5 12,-24 24,-11 29,-2 492,0z" />
<path style="fill:#e5e5e5" d="M585,408 l31,0 29,2 26,4 29,6 27,8 23,10 23,15 20,19 16,21 2,4 -1,-5 -7,-27 -10,-25 -12,-23 -16,-20 -21,-21 -24,-18 -23,-12 -24,-10 -27,-7 -27,-5 -24,-1 -5,-1 -5,0 -492,0 -26,6 -23,15 -14,25 -2,10 0,5 0,1 0,85 5,-28 16,-21 26,-12 29,0 481,0z" />
<path style="fill:#fff" d="M585,356 l32,1 30,4 27,6 26,10 22,12 24,17 22,21 16,20 14,24 11,21 2,5 -1,-5 -8,-27 -11,-25 -13,-22 -20,-23 -22,-20 -22,-13 -23,-12 -26,-9 -27,-6 -28,-3 -15,-1 -5,0 -5,0 -490,0 -29,7 -23,16 -13,24 -2,9 0,6 0,1 0,42 3,-30 13,-27 20,-19 28,-4 493,0z" />
<path style="fill:none" d="M585,721 l32,-3 26,-5 25,-8 24,-11 22,-13 23,-18 21,-22 18,-24 12,-22 10,-24 8,-25 4,-27 1,-13 0,-5 0,-4 -2,-32 -6,-26 -8,-25 -11,-24 -13,-22 -16,-20 -21,-21 -20,-16 -22,-14 -24,-10 -25,-9 -26,-5 -23,-2 -4,0 -5,0 -504,0 -27,7 -19,19 -7,22 0,5 0,0 0,343 7,27 19,19 22,7 5,1 0,0 504,0" />
<path style="fill:none;stroke:#4c4c4c;stroke-width:2" d="M585,721 l32,-3 26,-5 25,-8 24,-11 22,-13 23,-18 21,-22 18,-24 12,-22 10,-24 8,-25 4,-27 1,-13 0,-5 0,-4 -2,-32 -6,-26 -8,-25 -11,-24 -13,-22 -16,-20 -21,-21 -20,-16 -22,-14 -24,-10 -25,-9 -26,-5 -23,-2 -4,0 -5,0 -504,0 -27,7 -19,19 -7,22 0,5 0,0 0,343 7,27 19,19 22,7 5,1 0,0 504,0" />
<path style="fill:#313131;stroke:#4c4c4c;stroke-width:2" d="M125,276 l489,0 0,452 -489,0 0,-452z" />
<path style="fill:#999;stroke:#4c4c4c;stroke-width:2" d="M632,264 l3,0 8,12 0,4 0,4 -8,16 -3,1 0,0 -529,0 -3,-1 -7,-12 -1,-4 0,-4 8,-16 3,0 1,0 528,0z" />
<path style="fill:none;stroke:#fff;stroke-width:2" d="M103,281 l0,-2 2,-4 6,-2" />
<path style="fill:none;stroke:#fff;stroke-width:2" d="M111,273 l1,0 1,0 1,0 518,0 1,0" />
<path style="fill:#999;stroke:#4c4c4c;stroke-width:2" d="M103,360 l1,0 1,0 1,0 526,0 3,1 8,11 0,5 0,4 -8,16 -3,0 0,0 -529,0 -3,0 -7,-12 -1,-4 0,-4 5,-14 3,-2 3,-1z" />
<path style="fill:none;stroke:#fff;stroke-width:2" d="M103,378 l0,-2 2,-4 6,-2" />
<path style="fill:none;stroke:#fff;stroke-width:2" d="M111,370 l1,0 1,0 1,0 518,0 1,0" />
<path style="fill:#999;stroke:#4c4c4c;stroke-width:2" d="M103,457 l1,0 1,0 1,0 526,0 3,1 8,11 0,4 0,5 -8,15 -3,1 0,0 -529,0 -3,-1 -7,-11 -1,-4 0,-5 8,-15 3,-1z" />
<path style="fill:none;stroke:#fff;stroke-width:2" d="M103,474 l0,-2 2,-3 6,-2" />
<path style="fill:none;stroke:#fff;stroke-width:2" d="M111,467 l1,0 1,0 1,0 518,0 1,0" />
<path style="fill:#999;stroke:#4c4c4c;stroke-width:2" d="M103,553 l1,0 1,0 1,0 526,0 3,1 8,12 0,4 0,4 -8,16 -3,1 0,0 -529,0 -3,-1 -3,-2 -4,-10 -1,-4 0,-4 8,-16 3,-1z" />
<path style="fill:none;stroke:#fff;stroke-width:2" d="M103,571 l0,-2 2,-4 6,-2" />
<path style="fill:none;stroke:#fff;stroke-width:2" d="M111,563 l1,0 1,0 1,0 518,0 1,0" />
<path style="fill:#999;stroke:#4c4c4c;stroke-width:2" d="M632,650 l3,1 8,11 0,5 0,4 -8,16 -3,0 0,0 -529,0 -3,0 -7,-12 -1,-4 0,-4 8,-16 3,-1 1,0 528,0z" />
<path style="fill:none;stroke:#fff;stroke-width:2" d="M103,668 l0,-2 2,-4 6,-2" />
<path style="fill:none;stroke:#fff;stroke-width:2" d="M111,660 l1,0 1,0 1,0 518,0 1,0" />
<path style="fill:#c0c0c0;stroke:#4c4c4c;stroke-width:2" d="M242,734 l233,0 0,-309 -233,0 0,309z" />
<path style="fill:none" d="M970,970 l0,-942 -942,0 0,942 942,0" />

</g><g transform="translate(1249.5,60.0) scale(0.059088421157386675) translate(-257.5008,-257.2416)" id="motor_402"><path style="fill:#313131" d="M756,464 l0,66 214,0 0,-66 -214,0z" />
<path style="fill:#4b4b4b" d="M756,468 l0,52 214,0 0,-52 -214,0z" />
<path style="fill:#7e7e7e" d="M756,471 l0,40 214,0 0,-40 -214,0z" />
<path style="fill:#b2b2b2" d="M756,475 l0,27 214,0 0,-27 -214,0z" />
<path style="fill:#e5e5e5" d="M756,479 l0,14 214,0 0,-14 -214,0z" />
<path style="fill:none" d="M756,464 l0,66 214,0 0,-66 -214,0" />
<path style="fill:none;stroke:#4c4c4c;stroke-width:2" d="M756,464 l0,66 214,0 0,-66 -214,0" />
<path style="fill:#313131" d="M790,438 l0,116 33,0 1,-1 3,-11 0,-9 1,-11 0,-13 1,-13 -1,-13 0,-13 -1,-11 0,-9 -2,-10 -1,-1 -1,-1 -33,0z" />
<path style="fill:#4b4b4b" d="M790,444 l0,93 33,0 1,-1 3,-8 1,-10 0,-11 1,-13 0,-13 -1,-13 -1,-11 -2,-11 -1,-1 -1,-1 -33,0z" />
<path style="fill:#7e7e7e" d="M790,449 l0,71 33,0 1,0 3,-10 1,-10 1,-12 -1,-12 0,-12 -2,-9 -2,-5 -1,-1 -33,0z" />
<path style="fill:#b2b2b2" d="M790,455 l0,49 33,0 2,-1 3,-12 1,-12 -1,-11 -2,-9 -1,-3 -2,-1 -33,0z" />
<path style="fill:#e5e5e5" d="M790,461 l0,26 2,0 5,0 7,0 7,0 7,0 5,0 3,-1 2,-4 1,-5 0,-6 -1,-5 -2,-4 -3,-1 -5,0 -7,0 -7,0 -7,0 -5,0 -2,0z" />
<path style="fill:none" d="M790,438 l0,116 33,0 1,-1 3,-11 0,-9 1,-11 0,-13 1,-13 -1,-13 0,-13 -1,-11 0,-9 -2,-10 -1,-1 -1,-1 -33,0" />
<path style="fill:none;stroke:#4c4c4c;stroke-width:2" d="M790,438 l0,116 33,0 1,-1 3,-11 0,-9 1,-11 0,-13 1,-13 -1,-13 0,-13 -1,-11 0,-9 -2,-10 -1,-1 -1,-1 -33,0" />
<path style="fill:#4b4b4b" d="M585,721 l32,-3 26,-5 25,-8 24,-11 22,-13 23,-18 21,-22 18,-24 12,-22 10,-24 8,-25 4,-27 1,-13 0,-5 0,-4 -2,-32 -6,-26 -8,-25 -11,-24 -13,-22 -16,-20 -21,-21 -20,-16 -22,-14 -24,-10 -25,-9 -26,-5 -23,-2 -4,0 -5,0 -504,0 -27,7 -19,19 -7,22 0,5 0,0 0,343 7,27 19,19 22,7 5,1 0,0 504,0z" />
<path style="fill:#646464" d="M585,668 l31,-1 30,-5 28,-8 26,-11 24,-13 22,-15 21,-21 18,-22 14,-25 8,-27 4,-19 0,-4 0,-5 -3,-27 -6,-26 -9,-25 -12,-23 -14,-22 -19,-22 -23,-20 -21,-15 -23,-12 -25,-9 -26,-7 -26,-4 -14,0 -5,-1 0,0 -502,0 -26,7 -20,18 -9,25 0,5 0,0 0,300 14,23 28,11 6,0 5,0 0,0 504,0z" />
<path style="fill:#7e7e7e" d="M585,616 l30,-1 28,-3 27,-6 25,-7 28,-11 24,-13 21,-14 20,-19 16,-24 6,-18 1,-3 0,-5 -4,-27 -7,-26 -9,-25 -13,-22 -15,-21 -20,-22 -24,-19 -22,-14 -23,-11 -25,-9 -27,-5 -28,-3 -4,0 -5,0 0,0 -500,0 -27,7 -20,17 -10,27 0,5 0,0 0,257 25,12 21,3 8,0 0,0 503,0z" />
<path style="fill:#999" d="M585,564 l35,-1 32,-3 30,-4 28,-6 24,-7 26,-10 24,-12 22,-17 4,-5 1,-2 0,-5 -5,-27 -7,-25 -10,-24 -13,-22 -18,-24 -22,-20 -24,-18 -22,-12 -24,-10 -26,-7 -27,-5 -23,-1 -5,0 0,0 -498,0 -26,6 -21,16 -11,25 -1,5 0,4 0,1 0,214 0,0 0,-1 32,-3 28,0 497,0z" />
<path style="fill:#b2b2b2" d="M585,512 l30,0 29,-1 33,-2 30,-2 32,-3 27,-3 27,-3 16,-1 2,0 -1,-5 -5,-27 -8,-25 -11,-24 -14,-22 -19,-22 -22,-20 -21,-14 -23,-12 -25,-9 -26,-7 -27,-4 -19,-1 -5,0 0,0 -496,0 -26,6 -22,17 -12,25 -1,5 0,5 0,1 0,171 0,0 0,-4 22,-16 26,-3 31,0 478,0z" />
<path style="fill:#c0c0c0" d="M585,460 l28,0 33,1 30,1 28,1 30,4 29,5 27,10 19,13 2,2 -1,-5 -6,-27 -9,-25 -12,-23 -14,-22 -20,-21 -23,-19 -22,-13 -24,-11 -25,-8 -27,-6 -29,-3 -9,0 -5,0 0,0 -494,0 -30,7 -21,17 -11,25 -1,5 0,5 0,1 0,127 0,1 0,-5 12,-24 24,-11 29,-2 492,0z" />
<path style="fill:#e5e5e5" d="M585,408 l31,0 29,2 26,4 29,6 27,8 23,10 23,15 20,19 16,21 2,4 -1,-5 -7,-27 -10,-25 -12,-23 -16,-20 -21,-21 -24,-18 -23,-12 -24,-10 -27,-7 -27,-5 -24,-1 -5,-1 -5,0 -492,0 -26,6 -23,15 -14,25 -2,10 0,5 0,1 0,85 5,-28 16,-21 26,-12 29,0 481,0z" />
<path style="fill:#fff" d="M585,356 l32,1 30,4 27,6 26,10 22,12 24,17 22,21 16,20 14,24 11,21 2,5 -1,-5 -8,-27 -11,-25 -13,-22 -20,-23 -22,-20 -22,-13 -23,-12 -26,-9 -27,-6 -28,-3 -15,-1 -5,0 -5,0 -490,0 -29,7 -23,16 -13,24 -2,9 0,6 0,1 0,42 3,-30 13,-27 20,-19 28,-4 493,0z" />
<path style="fill:none" d="M585,721 l32,-3 26,-5 25,-8 24,-11 22,-13 23,-18 21,-22 18,-24 12,-22 10,-24 8,-25 4,-27 1,-13 0,-5 0,-4 -2,-32 -6,-26 -8,-25 -11,-24 -13,-22 -16,-20 -21,-21 -20,-16 -22,-14 -24,-10 -25,-9 -26,-5 -23,-2 -4,0 -5,0 -504,0 -27,7 -19,19 -7,22 0,5 0,0 0,343 7,27 19,19 22,7 5,1 0,0 504,0" />
<path style="fill:none;stroke:#4c4c4c;stroke-width:2" d="M585,721 l32,-3 26,-5 25,-8 24,-11 22,-13 23,-18 21,-22 18,-24 12,-22 10,-24 8,-25 4,-27 1,-13 0,-5 0,-4 -2,-32 -6,-26 -8,-25 -11,-24 -13,-22 -16,-20 -21,-21 -20,-16 -22,-14 -24,-10 -25,-9 -26,-5 -23,-2 -4,0 -5,0 -504,0 -27,7 -19,19 -7,22 0,5 0,0 0,343 7,27 19,19 22,7 5,1 0,0 504,0" />
<path style="fill:#313131;stroke:#4c4c4c;stroke-width:2" d="M125,276 l489,0 0,452 -489,0 0,-452z" />
<path style="fill:#999;stroke:#4c4c4c;stroke-width:2" d="M632,264 l3,0 8,12 0,4 0,4 -8,16 -3,1 0,0 -529,0 -3,-1 -7,-12 -1,-4 0,-4 8,-16 3,0 1,0 528,0z" />
<path style="fill:none;stroke:#fff;stroke-width:2" d="M103,281 l0,-2 2,-4 6,-2" />
<path style="fill:none;stroke:#fff;stroke-width:2" d="M111,273 l1,0 1,0 1,0 518,0 1,0" />
<path style="fill:#999;stroke:#4c4c4c;stroke-width:2" d="M103,360 l1,0 1,0 1,0 526,0 3,1 8,11 0,5 0,4 -8,16 -3,0 0,0 -529,0 -3,0 -7,-12 -1,-4 0,-4 5,-14 3,-2 3,-1z" />
<path style="fill:none;stroke:#fff;stroke-width:2" d="M103,378 l0,-2 2,-4 6,-2" />
<path style="fill:none;stroke:#fff;stroke-width:2" d="M111,370 l1,0 1,0 1,0 518,0 1,0" />
<path style="fill:#999;stroke:#4c4c4c;stroke-width:2" d="M103,457 l1,0 1,0 1,0 526,0 3,1 8,11 0,4 0,5 -8,15 -3,1 0,0 -529,0 -3,-1 -7,-11 -1,-4 0,-5 8,-15 3,-1z" />
<path style="fill:none;stroke:#fff;stroke-width:2" d="M103,474 l0,-2 2,-3 6,-2" />
<path style="fill:none;stroke:#fff;stroke-width:2" d="M111,467 l1,0 1,0 1,0 518,0 1,0" />
<path style="fill:#999;stroke:#4c4c4c;stroke-width:2" d="M103,553 l1,0 1,0 1,0 526,0 3,1 8,12 0,4 0,4 -8,16 -3,1 0,0 -529,0 -3,-1 -3,-2 -4,-10 -1,-4 0,-4 8,-16 3,-1z" />
<path style="fill:none;stroke:#fff;stroke-width:2" d="M103,571 l0,-2 2,-4 6,-2" />
<path style="fill:none;stroke:#fff;stroke-width:2" d="M111,563 l1,0 1,0 1,0 518,0 1,0" />
<path style="fill:#999;stroke:#4c4c4c;stroke-width:2" d="M632,650 l3,1 8,11 0,5 0,4 -8,16 -3,0 0,0 -529,0 -3,0 -7,-12 -1,-4 0,-4 8,-16 3,-1 1,0 528,0z" />
<path style="fill:none;stroke:#fff;stroke-width:2" d="M103,668 l0,-2 2,-4 6,-2" />
<path style="fill:none;stroke:#fff;stroke-width:2" d="M111,660 l1,0 1,0 1,0 518,0 1,0" />
<path style="fill:#c0c0c0;stroke:#4c4c4c;stroke-width:2" d="M242,734 l233,0 0,-309 -233,0 0,309z" />
<path style="fill:none" d="M970,970 l0,-942 -942,0 0,942 942,0" />

</g><g transform="translate(1696.0,69.5) scale(0.05902894282270191) translate(-257.5008,-257.2416) rotate(90)" id="motor_404"><path style="fill:#313131" d="M756,464 l0,66 214,0 0,-66 -214,0z" />
<path style="fill:#4b4b4b" d="M756,468 l0,52 214,0 0,-52 -214,0z" />
<path style="fill:#7e7e7e" d="M756,471 l0,40 214,0 0,-40 -214,0z" />
<path style="fill:#b2b2b2" d="M756,475 l0,27 214,0 0,-27 -214,0z" />
<path style="fill:#e5e5e5" d="M756,479 l0,14 214,0 0,-14 -214,0z" />
<path style="fill:none" d="M756,464 l0,66 214,0 0,-66 -214,0" />
<path style="fill:none;stroke:#4c4c4c;stroke-width:2" d="M756,464 l0,66 214,0 0,-66 -214,0" />
<path style="fill:#313131" d="M790,438 l0,116 33,0 1,-1 3,-11 0,-9 1,-11 0,-13 1,-13 -1,-13 0,-13 -1,-11 0,-9 -2,-10 -1,-1 -1,-1 -33,0z" />
<path style="fill:#4b4b4b" d="M790,444 l0,93 33,0 1,-1 3,-8 1,-10 0,-11 1,-13 0,-13 -1,-13 -1,-11 -2,-11 -1,-1 -1,-1 -33,0z" />
<path style="fill:#7e7e7e" d="M790,449 l0,71 33,0 1,0 3,-10 1,-10 1,-12 -1,-12 0,-12 -2,-9 -2,-5 -1,-1 -33,0z" />
<path style="fill:#b2b2b2" d="M790,455 l0,49 33,0 2,-1 3,-12 1,-12 -1,-11 -2,-9 -1,-3 -2,-1 -33,0z" />
<path style="fill:#e5e5e5" d="M790,461 l0,26 2,0 5,0 7,0 7,0 7,0 5,0 3,-1 2,-4 1,-5 0,-6 -1,-5 -2,-4 -3,-1 -5,0 -7,0 -7,0 -7,0 -5,0 -2,0z" />
<path style="fill:none" d="M790,438 l0,116 33,0 1,-1 3,-11 0,-9 1,-11 0,-13 1,-13 -1,-13 0,-13 -1,-11 0,-9 -2,-10 -1,-1 -1,-1 -33,0" />
<path style="fill:none;stroke:#4c4c4c;stroke-width:2" d="M790,438 l0,116 33,0 1,-1 3,-11 0,-9 1,-11 0,-13 1,-13 -1,-13 0,-13 -1,-11 0,-9 -2,-10 -1,-1 -1,-1 -33,0" />
<path style="fill:#4b4b4b" d="M585,721 l32,-3 26,-5 25,-8 24,-11 22,-13 23,-18 21,-22 18,-24 12,-22 10,-24 8,-25 4,-27 1,-13 0,-5 0,-4 -2,-32 -6,-26 -8,-25 -11,-24 -13,-22 -16,-20 -21,-21 -20,-16 -22,-14 -24,-10 -25,-9 -26,-5 -23,-2 -4,0 -5,0 -504,0 -27,7 -19,19 -7,22 0,5 0,0 0,343 7,27 19,19 22,7 5,1 0,0 504,0z" />
<path style="fill:#646464" d="M585,668 l31,-1 30,-5 28,-8 26,-11 24,-13 22,-15 21,-21 18,-22 14,-25 8,-27 4,-19 0,-4 0,-5 -3,-27 -6,-26 -9,-25 -12,-23 -14,-22 -19,-22 -23,-20 -21,-15 -23,-12 -25,-9 -26,-7 -26,-4 -14,0 -5,-1 0,0 -502,0 -26,7 -20,18 -9,25 0,5 0,0 0,300 14,23 28,11 6,0 5,0 0,0 504,0z" />
<path style="fill:#7e7e7e" d="M585,616 l30,-1 28,-3 27,-6 25,-7 28,-11 24,-13 21,-14 20,-19 16,-24 6,-18 1,-3 0,-5 -4,-27 -7,-26 -9,-25 -13,-22 -15,-21 -20,-22 -24,-19 -22,-14 -23,-11 -25,-9 -27,-5 -28,-3 -4,0 -5,0 0,0 -500,0 -27,7 -20,17 -10,27 0,5 0,0 0,257 25,12 21,3 8,0 0,0 503,0z" />
<path style="fill:#999" d="M585,564 l35,-1 32,-3 30,-4 28,-6 24,-7 26,-10 24,-12 22,-17 4,-5 1,-2 0,-5 -5,-27 -7,-25 -10,-24 -13,-22 -18,-24 -22,-20 -24,-18 -22,-12 -24,-10 -26,-7 -27,-5 -23,-1 -5,0 0,0 -498,0 -26,6 -21,16 -11,25 -1,5 0,4 0,1 0,214 0,0 0,-1 32,-3 28,0 497,0z" />
<path style="fill:#b2b2b2" d="M585,512 l30,0 29,-1 33,-2 30,-2 32,-3 27,-3 27,-3 16,-1 2,0 -1,-5 -5,-27 -8,-25 -11,-24 -14,-22 -19,-22 -22,-20 -21,-14 -23,-12 -25,-9 -26,-7 -27,-4 -19,-1 -5,0 0,0 -496,0 -26,6 -22,17 -12,25 -1,5 0,5 0,1 0,171 0,0 0,-4 22,-16 26,-3 31,0 478,0z" />
<path style="fill:#c0c0c0" d="M585,460 l28,0 33,1 30,1 28,1 30,4 29,5 27,10 19,13 2,2 -1,-5 -6,-27 -9,-25 -12,-23 -14,-22 -20,-21 -23,-19 -22,-13 -24,-11 -25,-8 -27,-6 -29,-3 -9,0 -5,0 0,0 -494,0 -30,7 -21,17 -11,25 -1,5 0,5 0,1 0,127 0,1 0,-5 12,-24 24,-11 29,-2 492,0z" />
<path style="fill:#e5e5e5" d="M585,408 l31,0 29,2 26,4 29,6 27,8 23,10 23,15 20,19 16,21 2,4 -1,-5 -7,-27 -10,-25 -12,-23 -16,-20 -21,-21 -24,-18 -23,-12 -24,-10 -27,-7 -27,-5 -24,-1 -5,-1 -5,0 -492,0 -26,6 -23,15 -14,25 -2,10 0,5 0,1 0,85 5,-28 16,-21 26,-12 29,0 481,0z" />
<path style="fill:#fff" d="M585,356 l32,1 30,4 27,6 26,10 22,12 24,17 22,21 16,20 14,24 11,21 2,5 -1,-5 -8,-27 -11,-25 -13,-22 -20,-23 -22,-20 -22,-13 -23,-12 -26,-9 -27,-6 -28,-3 -15,-1 -5,0 -5,0 -490,0 -29,7 -23,16 -13,24 -2,9 0,6 0,1 0,42 3,-30 13,-27 20,-19 28,-4 493,0z" />
<path style="fill:none" d="M585,721 l32,-3 26,-5 25,-8 24,-11 22,-13 23,-18 21,-22 18,-24 12,-22 10,-24 8,-25 4,-27 1,-13 0,-5 0,-4 -2,-32 -6,-26 -8,-25 -11,-24 -13,-22 -16,-20 -21,-21 -20,-16 -22,-14 -24,-10 -25,-9 -26,-5 -23,-2 -4,0 -5,0 -504,0 -27,7 -19,19 -7,22 0,5 0,0 0,343 7,27 19,19 22,7 5,1 0,0 504,0" />
<path style="fill:none;stroke:#4c4c4c;stroke-width:2" d="M585,721 l32,-3 26,-5 25,-8 24,-11 22,-13 23,-18 21,-22 18,-24 12,-22 10,-24 8,-25 4,-27 1,-13 0,-5 0,-4 -2,-32 -6,-26 -8,-25 -11,-24 -13,-22 -16,-20 -21,-21 -20,-16 -22,-14 -24,-10 -25,-9 -26,-5 -23,-2 -4,0 -5,0 -504,0 -27,7 -19,19 -7,22 0,5 0,0 0,343 7,27 19,19 22,7 5,1 0,0 504,0" />
<path style="fill:#313131;stroke:#4c4c4c;stroke-width:2" d="M125,276 l489,0 0,452 -489,0 0,-452z" />
<path style="fill:#999;stroke:#4c4c4c;stroke-width:2" d="M632,264 l3,0 8,12 0,4 0,4 -8,16 -3,1 0,0 -529,0 -3,-1 -7,-12 -1,-4 0,-4 8,-16 3,0 1,0 528,0z" />
<path style="fill:none;stroke:#fff;stroke-width:2" d="M103,281 l0,-2 2,-4 6,-2" />
<path style="fill:none;stroke:#fff;stroke-width:2" d="M111,273 l1,0 1,0 1,0 518,0 1,0" />
<path style="fill:#999;stroke:#4c4c4c;stroke-width:2" d="M103,360 l1,0 1,0 1,0 526,0 3,1 8,11 0,5 0,4 -8,16 -3,0 0,0 -529,0 -3,0 -7,-12 -1,-4 0,-4 5,-14 3,-2 3,-1z" />
<path style="fill:none;stroke:#fff;stroke-width:2" d="M103,378 l0,-2 2,-4 6,-2" />
<path style="fill:none;stroke:#fff;stroke-width:2" d="M111,370 l1,0 1,0 1,0 518,0 1,0" />
<path style="fill:#999;stroke:#4c4c4c;stroke-width:2" d="M103,457 l1,0 1,0 1,0 526,0 3,1 8,11 0,4 0,5 -8,15 -3,1 0,0 -529,0 -3,-1 -7,-11 -1,-4 0,-5 8,-15 3,-1z" />
<path style="fill:none;stroke:#fff;stroke-width:2" d="M103,474 l0,-2 2,-3 6,-2" />
<path style="fill:none;stroke:#fff;stroke-width:2" d="M111,467 l1,0 1,0 1,0 518,0 1,0" />
<path style="fill:#999;stroke:#4c4c4c;stroke-width:2" d="M103,553 l1,0 1,0 1,0 526,0 3,1 8,12 0,4 0,4 -8,16 -3,1 0,0 -529,0 -3,-1 -3,-2 -4,-10 -1,-4 0,-4 8,-16 3,-1z" />
<path style="fill:none;stroke:#fff;stroke-width:2" d="M103,571 l0,-2 2,-4 6,-2" />
<path style="fill:none;stroke:#fff;stroke-width:2" d="M111,563 l1,0 1,0 1,0 518,0 1,0" />
<path style="fill:#999;stroke:#4c4c4c;stroke-width:2" d="M632,650 l3,1 8,11 0,5 0,4 -8,16 -3,0 0,0 -529,0 -3,0 -7,-12 -1,-4 0,-4 8,-16 3,-1 1,0 528,0z" />
<path style="fill:none;stroke:#fff;stroke-width:2" d="M103,668 l0,-2 2,-4 6,-2" />
<path style="fill:none;stroke:#fff;stroke-width:2" d="M111,660 l1,0 1,0 1,0 518,0 1,0" />
<path style="fill:#c0c0c0;stroke:#4c4c4c;stroke-width:2" d="M242,734 l233,0 0,-309 -233,0 0,309z" />
<path style="fill:none" d="M970,970 l0,-942 -942,0 0,942 942,0" />

</g></svg>