<?xml version="1.0" encoding="iso-8859-1"?>
<!DOCTYPE svg PUBLIC "-//W3C//DTD SVG 20000303 Stylable//EN"
"http://www.w3.org/TR/2000/03/WD-SVG-20000303/DTD/svg-20000303-stylable.dtd">

<svg width="5.3646in" height="5.3592in" viewBox="0 0 999 998">

<path style="fill:#313131" d="M756,464 l0,66 214,0 0,-66 -214,0z" />
<path style="fill:#4b4b4b" d="M756,468 l0,52 214,0 0,-52 -214,0z" />
<path style="fill:#7e7e7e" d="M756,471 l0,40 214,0 0,-40 -214,0z" />
<path style="fill:#b2b2b2" d="M756,475 l0,27 214,0 0,-27 -214,0z" />
<path style="fill:#e5e5e5" d="M756,479 l0,14 214,0 0,-14 -214,0z" />
<path style="fill:none" d="M756,464 l0,66 214,0 0,-66 -214,0" />
<path style="fill:none;stroke:#4c4c4c;stroke-width:2" d="M756,464 l0,66 214,0 0,-66 -214,0" />
<path style="fill:#313131" d="M790,438 l0,116 33,0 1,-1 3,-11 0,-9 1,-11 0,-13 1,-13 -1,-13 0,-13 -1,-11 0,-9 -2,-10 -1,-1 -1,-1 -33,0z" />
<path style="fill:#4b4b4b" d="M790,444 l0,93 33,0 1,-1 3,-8 1,-10 0,-11 1,-13 0,-13 -1,-13 -1,-11 -2,-11 -1,-1 -1,-1 -33,0z" />
<path style="fill:#7e7e7e" d="M790,449 l0,71 33,0 1,0 3,-10 1,-10 1,-12 -1,-12 0,-12 -2,-9 -2,-5 -1,-1 -33,0z" />
<path style="fill:#b2b2b2" d="M790,455 l0,49 33,0 2,-1 3,-12 1,-12 -1,-11 -2,-9 -1,-3 -2,-1 -33,0z" />
<path style="fill:#e5e5e5" d="M790,461 l0,26 2,0 5,0 7,0 7,0 7,0 5,0 3,-1 2,-4 1,-5 0,-6 -1,-5 -2,-4 -3,-1 -5,0 -7,0 -7,0 -7,0 -5,0 -2,0z" />
<path style="fill:none" d="M790,438 l0,116 33,0 1,-1 3,-11 0,-9 1,-11 0,-13 1,-13 -1,-13 0,-13 -1,-11 0,-9 -2,-10 -1,-1 -1,-1 -33,0" />
<path style="fill:none;stroke:#4c4c4c;stroke-width:2" d="M790,438 l0,116 33,0 1,-1 3,-11 0,-9 1,-11 0,-13 1,-13 -1,-13 0,-13 -1,-11 0,-9 -2,-10 -1,-1 -1,-1 -33,0" />
<path style="fill:#4b4b4b" d="M585,721 l32,-3 26,-5 25,-8 24,-11 22,-13 23,-18 21,-22 18,-24 12,-22 10,-24 8,-25 4,-27 1,-13 0,-5 0,-4 -2,-32 -6,-26 -8,-25 -11,-24 -13,-22 -16,-20 -21,-21 -20,-16 -22,-14 -24,-10 -25,-9 -26,-5 -23,-2 -4,0 -5,0 -504,0 -27,7 -19,19 -7,22 0,5 0,0 0,343 7,27 19,19 22,7 5,1 0,0 504,0z" />
<path style="fill:#646464" d="M585,668 l31,-1 30,-5 28,-8 26,-11 24,-13 22,-15 21,-21 18,-22 14,-25 8,-27 4,-19 0,-4 0,-5 -3,-27 -6,-26 -9,-25 -12,-23 -14,-22 -19,-22 -23,-20 -21,-15 -23,-12 -25,-9 -26,-7 -26,-4 -14,0 -5,-1 0,0 -502,0 -26,7 -20,18 -9,25 0,5 0,0 0,300 14,23 28,11 6,0 5,0 0,0 504,0z" />
<path style="fill:#7e7e7e" d="M585,616 l30,-1 28,-3 27,-6 25,-7 28,-11 24,-13 21,-14 20,-19 16,-24 6,-18 1,-3 0,-5 -4,-27 -7,-26 -9,-25 -13,-22 -15,-21 -20,-22 -24,-19 -22,-14 -23,-11 -25,-9 -27,-5 -28,-3 -4,0 -5,0 0,0 -500,0 -27,7 -20,17 -10,27 0,5 0,0 0,257 25,12 21,3 8,0 0,0 503,0z" />
<path style="fill:#999" d="M585,564 l35,-1 32,-3 30,-4 28,-6 24,-7 26,-10 24,-12 22,-17 4,-5 1,-2 0,-5 -5,-27 -7,-25 -10,-24 -13,-22 -18,-24 -22,-20 -24,-18 -22,-12 -24,-10 -26,-7 -27,-5 -23,-1 -5,0 0,0 -498,0 -26,6 -21,16 -11,25 -1,5 0,4 0,1 0,214 0,0 0,-1 32,-3 28,0 497,0z" />
<path style="fill:#b2b2b2" d="M585,512 l30,0 29,-1 33,-2 30,-2 32,-3 27,-3 27,-3 16,-1 2,0 -1,-5 -5,-27 -8,-25 -11,-24 -14,-22 -19,-22 -22,-20 -21,-14 -23,-12 -25,-9 -26,-7 -27,-4 -19,-1 -5,0 0,0 -496,0 -26,6 -22,17 -12,25 -1,5 0,5 0,1 0,171 0,0 0,-4 22,-16 26,-3 31,0 478,0z" />
<path style="fill:#c0c0c0" d="M585,460 l28,0 33,1 30,1 28,1 30,4 29,5 27,10 19,13 2,2 -1,-5 -6,-27 -9,-25 -12,-23 -14,-22 -20,-21 -23,-19 -22,-13 -24,-11 -25,-8 -27,-6 -29,-3 -9,0 -5,0 0,0 -494,0 -30,7 -21,17 -11,25 -1,5 0,5 0,1 0,127 0,1 0,-5 12,-24 24,-11 29,-2 492,0z" />
<path style="fill:#e5e5e5" d="M585,408 l31,0 29,2 26,4 29,6 27,8 23,10 23,15 20,19 16,21 2,4 -1,-5 -7,-27 -10,-25 -12,-23 -16,-20 -21,-21 -24,-18 -23,-12 -24,-10 -27,-7 -27,-5 -24,-1 -5,-1 -5,0 -492,0 -26,6 -23,15 -14,25 -2,10 0,5 0,1 0,85 5,-28 16,-21 26,-12 29,0 481,0z" />
<path style="fill:#fff" d="M585,356 l32,1 30,4 27,6 26,10 22,12 24,17 22,21 16,20 14,24 11,21 2,5 -1,-5 -8,-27 -11,-25 -13,-22 -20,-23 -22,-20 -22,-13 -23,-12 -26,-9 -27,-6 -28,-3 -15,-1 -5,0 -5,0 -490,0 -29,7 -23,16 -13,24 -2,9 0,6 0,1 0,42 3,-30 13,-27 20,-19 28,-4 493,0z" />
<path style="fill:none" d="M585,721 l32,-3 26,-5 25,-8 24,-11 22,-13 23,-18 21,-22 18,-24 12,-22 10,-24 8,-25 4,-27 1,-13 0,-5 0,-4 -2,-32 -6,-26 -8,-25 -11,-24 -13,-22 -16,-20 -21,-21 -20,-16 -22,-14 -24,-10 -25,-9 -26,-5 -23,-2 -4,0 -5,0 -504,0 -27,7 -19,19 -7,22 0,5 0,0 0,343 7,27 19,19 22,7 5,1 0,0 504,0" />
<path style="fill:none;stroke:#4c4c4c;stroke-width:2" d="M585,721 l32,-3 26,-5 25,-8 24,-11 22,-13 23,-18 21,-22 18,-24 12,-22 10,-24 8,-25 4,-27 1,-13 0,-5 0,-4 -2,-32 -6,-26 -8,-25 -11,-24 -13,-22 -16,-20 -21,-21 -20,-16 -22,-14 -24,-10 -25,-9 -26,-5 -23,-2 -4,0 -5,0 -504,0 -27,7 -19,19 -7,22 0,5 0,0 0,343 7,27 19,19 22,7 5,1 0,0 504,0" />
<path style="fill:#313131;stroke:#4c4c4c;stroke-width:2" d="M125,276 l489,0 0,452 -489,0 0,-452z" />
<path style="fill:#999;stroke:#4c4c4c;stroke-width:2" d="M632,264 l3,0 8,12 0,4 0,4 -8,16 -3,1 0,0 -529,0 -3,-1 -7,-12 -1,-4 0,-4 8,-16 3,0 1,0 528,0z" />
<path style="fill:none;stroke:#fff;stroke-width:2" d="M103,281 l0,-2 2,-4 6,-2" />
<path style="fill:none;stroke:#fff;stroke-width:2" d="M111,273 l1,0 1,0 1,0 518,0 1,0" />
<path style="fill:#999;stroke:#4c4c4c;stroke-width:2" d="M103,360 l1,0 1,0 1,0 526,0 3,1 8,11 0,5 0,4 -8,16 -3,0 0,0 -529,0 -3,0 -7,-12 -1,-4 0,-4 5,-14 3,-2 3,-1z" />
<path style="fill:none;stroke:#fff;stroke-width:2" d="M103,378 l0,-2 2,-4 6,-2" />
<path style="fill:none;stroke:#fff;stroke-width:2" d="M111,370 l1,0 1,0 1,0 518,0 1,0" />
<path style="fill:#999;stroke:#4c4c4c;stroke-width:2" d="M103,457 l1,0 1,0 1,0 526,0 3,1 8,11 0,4 0,5 -8,15 -3,1 0,0 -529,0 -3,-1 -7,-11 -1,-4 0,-5 8,-15 3,-1z" />
<path style="fill:none;stroke:#fff;stroke-width:2" d="M103,474 l0,-2 2,-3 6,-2" />
<path style="fill:none;stroke:#fff;stroke-width:2" d="M111,467 l1,0 1,0 1,0 518,0 1,0" />
<path style="fill:#999;stroke:#4c4c4c;stroke-width:2" d="M103,553 l1,0 1,0 1,0 526,0 3,1 8,12 0,4 0,4 -8,16 -3,1 0,0 -529,0 -3,-1 -3,-2 -4,-10 -1,-4 0,-4 8,-16 3,-1z" />
<path style="fill:none;stroke:#fff;stroke-width:2" d="M103,571 l0,-2 2,-4 6,-2" />
<path style="fill:none;stroke:#fff;stroke-width:2" d="M111,563 l1,0 1,0 1,0 518,0 1,0" />
<path style="fill:#999;stroke:#4c4c4c;stroke-width:2" d="M632,650 l3,1 8,11 0,5 0,4 -8,16 -3,0 0,0 -529,0 -3,0 -7,-12 -1,-4 0,-4 8,-16 3,-1 1,0 528,0z" />
<path style="fill:none;stroke:#fff;stroke-width:2" d="M103,668 l0,-2 2,-4 6,-2" />
<path style="fill:none;stroke:#fff;stroke-width:2" d="M111,660 l1,0 1,0 1,0 518,0 1,0" />
<path style="fill:#c0c0c0;stroke:#4c4c4c;stroke-width:2" d="M242,734 l233,0 0,-309 -233,0 0,309z" />
<path style="fill:none" d="M970,970 l0,-942 -942,0 0,942 942,0" />

</svg>
