<svg xmlns="http://www.w3.org/2000/svg" width="100%" height="100%" version="1.1">
<g transform="translate(0, 0)">
<?xml version="1.0" encoding="utf-8" ?>
<g baseProfile="full" height="1080" version="1.1" width="1920" xmlns="http://www.w3.org/2000/svg" xmlns:ev="http://www.w3.org/2001/xml-events" xmlns:xlink="http://www.w3.org/1999/xlink"><defs /><rect fill="#b5b2a8" height="1080" width="1920" x="0" y="0" /><text fill="black" font-size="20" x="343" y="59">SILOS</text><text fill="black" font-size="20" x="409" y="57">UNLOAD BAG</text><text fill="black" font-size="20" x="785" y="59">SILOS</text><text fill="black" font-size="20" x="351" y="77">PVC</text><text fill="black" font-size="20" x="781" y="75">KRETA</text><text fill="black" font-size="20" x="569" y="95">MANUAL</text><text fill="black" font-size="20" x="907" y="95">MANUAL</text><text fill="black" font-size="20" x="576" y="124">JF11</text><text fill="black" font-size="20" x="912" y="124">JF12</text><text fill="black" font-size="20" x="575" y="155">-0.6 kg</text><text fill="black" font-size="20" x="1569" y="151">LIQUID</text><text fill="black" font-size="20" x="1785" y="151">LIQUID</text><text fill="black" font-size="20" x="301" y="167">VS6O</text><text fill="black" font-size="20" x="489" y="167">VS61</text><text fill="black" font-size="20" x="829" y="167">VS62</text><text fill="black" font-size="20" x="1545" y="169">PLASTICIZER</text><text fill="black" font-size="20" x="1767" y="168">STABILIZER</text><text fill="black" font-size="20" x="1535" y="193">TANK</text><text fill="black" font-size="20" x="1591" y="197">54</text><text fill="black" font-size="20" x="1675" y="197">51</text><text fill="black" font-size="20" x="513" y="207">SL11</text><text fill="black" font-size="20" x="849" y="207">SL12</text><text fill="black" font-size="20" x="1186" y="258">VALVE TIMES</text><text fill="black" font-size="20" x="1491" y="257">VS78</text><text fill="black" font-size="20" x="1575" y="257">VS76</text><text fill="black" font-size="20" x="1659" y="257">VS2.2</text><text fill="black" font-size="20" x="1727" y="257">VS79</text><text fill="black" font-size="20" x="1813" y="257">VS81</text><text fill="black" font-size="20" x="327" y="283">VF81</text><text fill="black" font-size="20" x="775" y="283">VF84</text><text fill="black" font-size="20" x="639" y="315">PH17</text><text fill="black" font-size="20" x="975" y="315">PH18</text><text fill="black" font-size="20" x="529" y="329">VBFO9</text><text fill="black" font-size="20" x="865" y="329">VBF1O</text><text fill="black" font-size="20" x="1533" y="325">VS77</text><text fill="black" font-size="20" x="1617" y="325">VS75</text><text fill="black" font-size="20" x="1855" y="325">VS82</text><text fill="black" font-size="20" x="1351" y="351">V3VS02</text><text fill="black" font-size="20" x="415" y="369">BAG</text><text fill="black" font-size="20" x="455" y="369">P2</text><text fill="black" font-size="20" x="1573" y="423">0.1 kg</text><text fill="black" font-size="20" x="1793" y="423">0.2 kg</text><text fill="black" font-size="20" x="537" y="445">VF82</text><text fill="black" font-size="20" x="873" y="445">VF83</text><text fill="black" font-size="20" x="477" y="455">OSTEP</text><text fill="black" font-size="20" x="1195" y="465">VS83</text><text fill="black" font-size="20" x="1571" y="463">MANUAL</text><text fill="black" font-size="20" x="1789" y="465">MANUAL</text><text fill="black" font-size="20" x="131" y="487">PVC Unload</text><text fill="black" font-size="20" x="145" y="507">Counter</text><text fill="black" font-size="20" x="367" y="525">VG04</text><text fill="black" font-size="20" x="873" y="525">VF1O6</text><text fill="black" font-size="20" x="123" y="541">COLOR BAGS</text><text fill="black" font-size="20" x="145" y="561">Counter</text><text fill="black" font-size="20" x="1617" y="577">VS85</text><text fill="black" font-size="20" x="1757" y="579">VS86</text><text fill="black" font-size="20" x="1365" y="593">HP04</text><text fill="black" font-size="20" x="1667" y="639">HEATING</text><text fill="black" font-size="20" x="1662" y="658">SETTINGS</text><text fill="black" font-size="20" x="349" y="731">VRO6</text><text fill="black" font-size="20" x="89" y="741">VF93</text><text fill="black" font-size="20" x="12" y="842">Delay Stop</text><text fill="black" font-size="20" x="157" y="843">600</text><text fill="black" font-size="20" x="1190" y="841">COMPONENTS</text><text fill="black" font-size="20" x="1449" y="841">SCALES</text><text fill="black" font-size="20" x="497" y="853">RECIPE</text><text fill="black" font-size="20" x="1195" y="863">PARAMETERS</text><text fill="black" font-size="20" x="1426" y="860">PARAMETERS</text><text fill="black" font-size="20" x="17" y="887">Actual</text><text fill="black" font-size="20" x="178" y="952">UNLOAD SILOS</text><text fill="black" font-size="20" x="332" y="952">UNLOAD SILOS</text><text fill="black" font-size="20" x="486" y="952">UNLOAD SILOS</text><text fill="black" font-size="20" x="668" y="952">UNLOAD</text><text fill="black" font-size="20" x="34" y="964">LOAD SILOS</text><text fill="black" font-size="20" x="812" y="964">MIXER 100</text><text fill="black" font-size="20" x="966" y="964">MIXER 200</text><text fill="black" font-size="20" x="1120" y="964">MIXER 300</text><text fill="black" font-size="20" x="1274" y="964">MIXER 400</text><text fill="black" font-size="20" x="1444" y="964">LIQUID</text><text fill="black" font-size="20" x="1644" y="964">ALARM</text><text fill="black" font-size="20" x="1790" y="962">SYSTEM</text><text fill="black" font-size="20" x="213" y="977">PVC</text><text fill="black" font-size="20" x="367" y="977">PVC</text><text fill="black" font-size="20" x="525" y="977">KRETA</text><text fill="black" font-size="20" x="688" y="976">BAG</text><text fill="black" font-size="20" x="37" y="1043">Output</text><text fill="black" font-size="20" x="216" y="1066">modalit</text><text fill="black" font-size="20" x="299" y="1065">Premere Ctrl+F8 per</text><text fill="black" font-size="20" x="1627" y="1065">NUM</text><text fill="black" font-size="20" x="583" y="1063">debug</text></g>
</g>
<g transform="translate(0, 800)">
<?xml version="1.0" encoding="utf-8" ?>
<g baseProfile="full" height="1080" version="1.1" width="1920" xmlns="http://www.w3.org/2000/svg" xmlns:ev="http://www.w3.org/2001/xml-events" xmlns:xlink="http://www.w3.org/1999/xlink"><defs /><rect fill="#b5b2a8" height="1080" width="1920" x="0" y="0" /><text fill="black" font-size="20" x="343" y="59">SILOS</text><text fill="black" font-size="20" x="409" y="57">UNLOAD BAG</text><text fill="black" font-size="20" x="785" y="59">SILOS</text><text fill="black" font-size="20" x="351" y="77">PVC</text><text fill="black" font-size="20" x="781" y="75">KRETA</text><text fill="black" font-size="20" x="569" y="95">MANUAL</text><text fill="black" font-size="20" x="907" y="95">MANUAL</text><text fill="black" font-size="20" x="576" y="124">JF11</text><text fill="black" font-size="20" x="912" y="124">JF12</text><text fill="black" font-size="20" x="575" y="155">-0.6 kg</text><text fill="black" font-size="20" x="1569" y="151">LIQUID</text><text fill="black" font-size="20" x="1785" y="151">LIQUID</text><text fill="black" font-size="20" x="489" y="167">VS61</text><text fill="black" font-size="20" x="829" y="167">VS62</text><text fill="black" font-size="20" x="1545" y="169">PLASTICIZER</text><text fill="black" font-size="20" x="1767" y="168">STABILIZER</text><text fill="black" font-size="20" x="1535" y="193">TANK</text><text fill="black" font-size="20" x="1591" y="197">54</text><text fill="black" font-size="20" x="1675" y="197">51</text><text fill="black" font-size="20" x="513" y="207">SL11</text><text fill="black" font-size="20" x="849" y="207">SL12</text><text fill="black" font-size="20" x="1186" y="258">VALVE TIMES</text><text fill="black" font-size="20" x="1491" y="257">VS78</text><text fill="black" font-size="20" x="1575" y="257">VS76</text><text fill="black" font-size="20" x="1727" y="257">VS79</text><text fill="black" font-size="20" x="1813" y="257">VS81</text><text fill="black" font-size="20" x="327" y="283">VF81</text><text fill="black" font-size="20" x="775" y="283">VF84</text><text fill="black" font-size="20" x="639" y="315">PH17</text><text fill="black" font-size="20" x="975" y="315">PH18</text><text fill="black" font-size="20" x="529" y="329">VBFO9</text><text fill="black" font-size="20" x="865" y="329">VBF1O</text><text fill="black" font-size="20" x="1533" y="325">VS77</text><text fill="black" font-size="20" x="1617" y="325">VS75</text><text fill="black" font-size="20" x="1855" y="325">VS82</text><text fill="black" font-size="20" x="1351" y="351">V3VS02</text><text fill="black" font-size="20" x="415" y="369">BAG</text><text fill="black" font-size="20" x="455" y="369">P2</text><text fill="black" font-size="20" x="1573" y="423">0.1 kg</text><text fill="black" font-size="20" x="1793" y="423">0.2 kg</text><text fill="black" font-size="20" x="537" y="445">VF82</text><text fill="black" font-size="20" x="873" y="445">VF83</text><text fill="black" font-size="20" x="477" y="455">OSTEP</text><text fill="black" font-size="20" x="1195" y="465">VS83</text><text fill="black" font-size="20" x="1571" y="463">MANUAL</text><text fill="black" font-size="20" x="1789" y="465">MANUAL</text><text fill="black" font-size="20" x="131" y="487">PVC Unload</text><text fill="black" font-size="20" x="145" y="507">Counter</text><text fill="black" font-size="20" x="367" y="525">VG04</text><text fill="black" font-size="20" x="873" y="525">VF1O6</text><text fill="black" font-size="20" x="123" y="541">COLOR BAGS</text><text fill="black" font-size="20" x="145" y="561">Counter</text><text fill="black" font-size="20" x="1757" y="579">VS86</text><text fill="black" font-size="20" x="1667" y="639">HEATING</text><text fill="black" font-size="20" x="1662" y="658">SETTINGS</text><text fill="black" font-size="20" x="349" y="731">VRO6</text><text fill="black" font-size="20" x="89" y="741">VF93</text><text fill="black" font-size="20" x="157" y="843">600</text><text fill="black" font-size="20" x="1190" y="841">COMPONENTS</text><text fill="black" font-size="20" x="1449" y="841">SCALES</text><text fill="black" font-size="20" x="497" y="853">RECIPE</text><text fill="black" font-size="20" x="1195" y="863">PARAMETERS</text><text fill="black" font-size="20" x="1426" y="860">PARAMETERS</text><text fill="black" font-size="20" x="17" y="887">Actual</text><text fill="black" font-size="20" x="178" y="952">UNLOAD SILOS</text><text fill="black" font-size="20" x="332" y="952">UNLOAD SILOS</text><text fill="black" font-size="20" x="486" y="952">UNLOAD SILOS</text><text fill="black" font-size="20" x="668" y="952">UNLOAD</text><text fill="black" font-size="20" x="34" y="964">LOAD SILOS</text><text fill="black" font-size="20" x="812" y="964">MIXER 100</text><text fill="black" font-size="20" x="966" y="964">MIXER 200</text><text fill="black" font-size="20" x="1120" y="964">MIXER 300</text><text fill="black" font-size="20" x="1274" y="964">MIXER 400</text><text fill="black" font-size="20" x="1444" y="964">LIQUID</text><text fill="black" font-size="20" x="1644" y="964">ALARM</text><text fill="black" font-size="20" x="1790" y="962">SYSTEM</text><text fill="black" font-size="20" x="213" y="977">PVC</text><text fill="black" font-size="20" x="367" y="977">PVC</text><text fill="black" font-size="20" x="525" y="977">KRETA</text><text fill="black" font-size="20" x="688" y="976">BAG</text><text fill="black" font-size="20" x="37" y="1043">Output</text><text fill="black" font-size="20" x="216" y="1066">modalit</text><text fill="black" font-size="20" x="1627" y="1065">NUM</text><text fill="black" font-size="20" x="583" y="1063">debug</text></g>
</g>
<g transform="translate(0, 1600)">
<?xml version="1.0" encoding="utf-8" ?>
<g baseProfile="full" height="1080" version="1.1" width="1920" xmlns="http://www.w3.org/2000/svg" xmlns:ev="http://www.w3.org/2001/xml-events" xmlns:xlink="http://www.w3.org/1999/xlink"><defs /><rect fill="#b5b2a8" height="1080" width="1920" x="0" y="0" /><text fill="black" font-size="20" x="343" y="59">SILOS</text><text fill="black" font-size="20" x="409" y="57">UNLOAD BAG</text><text fill="black" font-size="20" x="785" y="59">SILOS</text><text fill="black" font-size="20" x="351" y="77">PVC</text><text fill="black" font-size="20" x="781" y="75">KRETA</text><text fill="black" font-size="20" x="569" y="95">MANUAL</text><text fill="black" font-size="20" x="907" y="95">MANUAL</text><text fill="black" font-size="20" x="576" y="124">JF11</text><text fill="black" font-size="20" x="912" y="124">JF12</text><text fill="black" font-size="20" x="575" y="155">-0.6 kg</text><text fill="black" font-size="20" x="1569" y="151">LIQUID</text><text fill="black" font-size="20" x="1785" y="151">LIQUID</text><text fill="black" font-size="20" x="489" y="167">VS61</text><text fill="black" font-size="20" x="829" y="167">VS62</text><text fill="black" font-size="20" x="1545" y="169">PLASTICIZER</text><text fill="black" font-size="20" x="1767" y="168">STABILIZER</text><text fill="black" font-size="20" x="1535" y="193">TANK</text><text fill="black" font-size="20" x="1675" y="197">51</text><text fill="black" font-size="20" x="849" y="207">SL12</text><text fill="black" font-size="20" x="1491" y="257">VS78</text><text fill="black" font-size="20" x="1575" y="257">VS76</text><text fill="black" font-size="20" x="1727" y="257">VS79</text><text fill="black" font-size="20" x="1813" y="257">VS81</text><text fill="black" font-size="20" x="327" y="283">VF81</text><text fill="black" font-size="20" x="775" y="283">VF84</text><text fill="black" font-size="20" x="639" y="315">PH17</text><text fill="black" font-size="20" x="975" y="315">PH18</text><text fill="black" font-size="20" x="529" y="329">VBFO9</text><text fill="black" font-size="20" x="865" y="329">VBF1O</text><text fill="black" font-size="20" x="1533" y="325">VS77</text><text fill="black" font-size="20" x="1617" y="325">VS75</text><text fill="black" font-size="20" x="415" y="369">BAG</text><text fill="black" font-size="20" x="455" y="369">P2</text><text fill="black" font-size="20" x="1573" y="423">0.1 kg</text><text fill="black" font-size="20" x="1793" y="423">0.2 kg</text><text fill="black" font-size="20" x="537" y="445">VF82</text><text fill="black" font-size="20" x="873" y="445">VF83</text><text fill="black" font-size="20" x="477" y="455">OSTEP</text><text fill="black" font-size="20" x="1571" y="463">MANUAL</text><text fill="black" font-size="20" x="1789" y="465">MANUAL</text><text fill="black" font-size="20" x="131" y="487">PVC Unload</text><text fill="black" font-size="20" x="145" y="507">Counter</text><text fill="black" font-size="20" x="367" y="525">VG04</text><text fill="black" font-size="20" x="123" y="541">COLOR BAGS</text><text fill="black" font-size="20" x="145" y="561">Counter</text><text fill="black" font-size="20" x="1667" y="639">HEATING</text><text fill="black" font-size="20" x="1662" y="658">SETTINGS</text><text fill="black" font-size="20" x="349" y="731">VRO6</text><text fill="black" font-size="20" x="89" y="741">VF93</text><text fill="black" font-size="20" x="157" y="843">600</text><text fill="black" font-size="20" x="1190" y="841">COMPONENTS</text><text fill="black" font-size="20" x="1449" y="841">SCALES</text><text fill="black" font-size="20" x="497" y="853">RECIPE</text><text fill="black" font-size="20" x="1195" y="863">PARAMETERS</text><text fill="black" font-size="20" x="17" y="887">Actual</text><text fill="black" font-size="20" x="332" y="952">UNLOAD SILOS</text><text fill="black" font-size="20" x="486" y="952">UNLOAD SILOS</text><text fill="black" font-size="20" x="668" y="952">UNLOAD</text><text fill="black" font-size="20" x="34" y="964">LOAD SILOS</text><text fill="black" font-size="20" x="812" y="964">MIXER 100</text><text fill="black" font-size="20" x="966" y="964">MIXER 200</text><text fill="black" font-size="20" x="1120" y="964">MIXER 300</text><text fill="black" font-size="20" x="1274" y="964">MIXER 400</text><text fill="black" font-size="20" x="1444" y="964">LIQUID</text><text fill="black" font-size="20" x="1644" y="964">ALARM</text><text fill="black" font-size="20" x="1790" y="962">SYSTEM</text><text fill="black" font-size="20" x="213" y="977">PVC</text><text fill="black" font-size="20" x="367" y="977">PVC</text><text fill="black" font-size="20" x="525" y="977">KRETA</text><text fill="black" font-size="20" x="688" y="976">BAG</text><text fill="black" font-size="20" x="37" y="1043">Output</text><text fill="black" font-size="20" x="216" y="1066">modalit</text><text fill="black" font-size="20" x="1627" y="1065">NUM</text></g>
</g>
</svg>